<svg width="26" height="26" viewBox="0 0 26 26" fill="none" xmlns="http://www.w3.org/2000/svg">
<g filter="url(#filter0_b_10144_5632)">
<circle cx="13.4916" cy="13.1598" r="12.5153" fill="#FFF8E8"/>
<circle cx="13.4916" cy="13.1598" r="12.2653" stroke="#2872C1" stroke-width="0.5"/>
</g>
<path d="M19.7457 10.252V17.7866C19.7457 18.2337 19.3821 18.5974 18.9349 18.5974H17.6088L17.6083 18.3646L17.608 18.1318L17.5928 9.90707L17.5925 9.67429L17.592 9.44152L18.9349 9.44141C19.382 9.44141 19.7457 9.8052 19.7457 10.2521L19.7457 10.252Z" fill="#2872C1"/>
<path d="M9.38763 18.5975H8.04461C7.59756 18.5975 7.23389 18.2339 7.23389 17.7867V10.2521C7.23389 9.8052 7.59745 9.44141 8.04461 9.44141H9.37077L9.37122 9.67418L9.37155 9.90696L9.38674 18.1317L9.38763 18.5975Z" fill="#2872C1"/>
<path d="M17.1471 18.364L17.1468 18.1312L17.1316 9.90645L17.1313 9.67367L17.1309 9.44089H15.8047V8.61075C15.8047 8.09852 15.3879 7.68164 14.8756 7.68164L12.1093 7.68175C11.5971 7.68175 11.1802 8.09855 11.1802 8.61087V9.441H9.83716L9.8376 9.67378L9.83793 9.90656L9.85312 18.1313L9.85356 18.3641L9.8539 18.5968H17.1476L17.1471 18.364ZM11.9562 8.61085C11.9562 8.52638 12.0249 8.45766 12.1094 8.45766H14.8757C14.9601 8.45766 15.0288 8.52638 15.0288 8.61085V9.44098L11.9562 9.44087L11.9562 8.61085ZM12.2797 12.2295C12.5164 12.001 12.8303 11.8752 13.1636 11.8752H13.1821V11.3901H13.8029V11.8752H13.8212C14.4729 11.8752 15.0032 12.3916 15.0032 13.0266H14.3825C14.3825 12.734 14.1307 12.4959 13.8212 12.4959H13.1636C12.992 12.4959 12.8311 12.56 12.7106 12.6761C12.5933 12.7894 12.5286 12.9391 12.5286 13.0977C12.5286 13.4295 12.8134 13.6995 13.1636 13.6995H13.8211C14.1547 13.6995 14.4686 13.8252 14.7053 14.0537C14.945 14.2849 15.0771 14.5934 15.0771 14.9219C15.0771 15.5961 14.5137 16.1445 13.8211 16.1445H13.8029V16.6298H13.1821V16.1445H13.1636C12.5118 16.1445 11.9818 15.628 11.9818 14.9931H12.6025C12.6025 15.2856 12.8542 15.5237 13.1636 15.5237H13.8212C14.1714 15.5237 14.4563 15.2538 14.4563 14.9219C14.4563 14.7633 14.3916 14.6136 14.2743 14.5003C14.1539 14.3842 13.993 14.3203 13.8212 14.3203H13.1636C12.4712 14.3203 11.9078 13.7718 11.9078 13.0977C11.9079 12.7691 12.04 12.4607 12.2797 12.2295Z" fill="#2872C1"/>
<rect x="11.1926" y="11.125" width="4.68506" height="5.73438" fill="#2872C1"/>
<defs>
<filter id="filter0_b_10144_5632" x="-3.02368" y="-3.35547" width="33.0305" height="33.0312" filterUnits="userSpaceOnUse" color-interpolation-filters="sRGB">
<feFlood flood-opacity="0" result="BackgroundImageFix"/>
<feGaussianBlur in="BackgroundImageFix" stdDeviation="2"/>
<feComposite in2="SourceAlpha" operator="in" result="effect1_backgroundBlur_10144_5632"/>
<feBlend mode="normal" in="SourceGraphic" in2="effect1_backgroundBlur_10144_5632" result="shape"/>
</filter>
</defs>
</svg>
