<svg width="16" height="21" viewBox="0 0 16 21" fill="none" xmlns="http://www.w3.org/2000/svg">
<path d="M1.84686 21C1.33486 21 0.899048 20.8164 0.539429 20.4493C0.17981 20.0822 0 19.6377 0 19.1158V8.88417C0 8.36306 0.17981 7.91856 0.539429 7.55067C0.899048 7.18356 1.33486 7 1.84686 7H3.42857V4.66667C3.42857 3.367 3.87238 2.2645 4.76 1.35917C5.64686 0.453056 6.72686 0 8 0C9.27314 0 10.3535 0.453056 11.2411 1.35917C12.1288 2.26528 12.5722 3.36778 12.5714 4.66667V7H14.1543C14.6648 7 15.1002 7.18356 15.4606 7.55067C15.8202 7.91778 16 8.36267 16 8.88533V19.1158C16 19.6369 15.8202 20.0814 15.4606 20.4493C15.101 20.8164 14.6655 21 14.1543 21H1.84686ZM1.84686 19.8333H14.1543C14.3592 19.8333 14.5276 19.7661 14.6594 19.6315C14.7912 19.4969 14.8571 19.3251 14.8571 19.1158V8.88417C14.8571 8.67494 14.7912 8.50306 14.6594 8.3685C14.5276 8.23394 14.3592 8.16667 14.1543 8.16667H1.84571C1.64076 8.16667 1.47238 8.23394 1.34057 8.3685C1.20876 8.50306 1.14286 8.67533 1.14286 8.88533V19.1158C1.14286 19.3251 1.20876 19.4969 1.34057 19.6315C1.47238 19.7661 1.64114 19.8333 1.84686 19.8333ZM8 15.75C8.48229 15.75 8.88838 15.5812 9.21829 15.2437C9.54895 14.9069 9.71429 14.4923 9.71429 14C9.71429 13.5077 9.54895 13.0931 9.21829 12.7563C8.88762 12.4196 8.48152 12.2508 8 12.25C7.51848 12.2492 7.11238 12.418 6.78171 12.7563C6.45105 13.0931 6.28571 13.5077 6.28571 14C6.28571 14.4923 6.45105 14.9069 6.78171 15.2437C7.11162 15.5812 7.51771 15.75 8 15.75ZM4.57143 7H11.4286V4.66667C11.4286 3.69444 11.0952 2.86806 10.4286 2.1875C9.76191 1.50694 8.95238 1.16667 8 1.16667C7.04762 1.16667 6.2381 1.50694 5.57143 2.1875C4.90476 2.86806 4.57143 3.69444 4.57143 4.66667V7Z" fill="#7A7676"/>
</svg>
