<svg width="10" height="10" viewBox="0 0 10 10" fill="none" xmlns="http://www.w3.org/2000/svg">
<path d="M6.1996 0H4.22728C3.33381 0 2.62571 0 2.07211 0.0720705C1.50178 0.146089 1.04036 0.301917 0.676689 0.653017C0.312513 1.00412 0.150938 1.44969 0.0744561 1.99996C3.77375e-08 2.53464 0 3.21785 0 4.08026V6.92315C0 7.65749 0.465983 8.28664 1.12798 8.55058C1.09405 8.10744 1.09405 7.48656 1.09405 6.96941V4.52973C1.09405 3.90593 1.09405 3.36783 1.15382 2.93736C1.21814 2.47572 1.363 2.03356 1.73477 1.67466C2.10655 1.31577 2.56493 1.17601 3.04307 1.11368C3.4888 1.05622 4.04595 1.05622 4.69276 1.05622H6.24772C6.89402 1.05622 7.45016 1.05622 7.89639 1.11368C7.76273 0.785613 7.52934 0.503879 7.22667 0.30522C6.924 0.106561 6.56608 0.00019762 6.1996 0Z" fill="#2872C1"/>
<path d="M1.82422 4.57392C1.82422 3.24646 1.82422 2.58273 2.25171 2.17027C2.67869 1.75781 3.36602 1.75781 4.74168 1.75781H6.20041C7.57557 1.75781 8.2634 1.75781 8.69089 2.17027C9.11838 2.58273 9.11787 3.24646 9.11787 4.57392V6.92108C9.11787 8.24854 9.11787 8.91227 8.69089 9.32472C8.2634 9.73718 7.57557 9.73718 6.20041 9.73718H4.74168C3.36652 9.73718 2.67869 9.73718 2.25171 9.32472C1.82422 8.91227 1.82422 8.24854 1.82422 6.92108V4.57392Z" fill="#2872C1"/>
</svg>
