<svg width="48" height="48" viewBox="0 0 48 48" fill="none" xmlns="http://www.w3.org/2000/svg">
<g clip-path="url(#clip0)">
<path d="M24.2599 17.0161H6.26138C5.87307 17.0161 5.55835 17.3309 5.55835 17.7191C5.55835 18.1075 5.87307 18.4222 6.26138 18.4222H24.26C24.6483 18.4222 24.963 18.1074 24.963 17.7191C24.963 17.3309 24.6483 17.0161 24.2599 17.0161Z" fill="#2872C1"/>
<path d="M24.2599 21.9563H6.26138C5.87307 21.9563 5.55835 22.2711 5.55835 22.6593C5.55835 23.0475 5.87307 23.3624 6.26138 23.3624H24.26C24.6483 23.3624 24.963 23.0475 24.963 22.6593C24.963 22.2711 24.6483 21.9563 24.2599 21.9563Z" fill="#2872C1"/>
<path d="M24.2599 26.8967H6.26138C5.87307 26.8967 5.55835 27.2115 5.55835 27.5998C5.55835 27.988 5.87307 28.3028 6.26138 28.3028H24.26C24.6483 28.3028 24.963 27.988 24.963 27.5998C24.963 27.2115 24.6483 26.8967 24.2599 26.8967Z" fill="#2872C1"/>
<path d="M24.963 32.5399C24.963 32.1516 24.6483 31.8369 24.26 31.8369H6.26138C5.87307 31.8369 5.55835 32.1517 5.55835 32.5399C5.55835 32.9282 5.87307 33.243 6.26138 33.243H24.26C24.6483 33.243 24.963 32.9283 24.963 32.5399Z" fill="#2872C1"/>
<path d="M6.26138 39.0769C5.87307 39.0769 5.55835 39.3917 5.55835 39.7799C5.55835 40.1682 5.87307 40.483 6.26138 40.483H15.2837C15.672 40.483 15.9867 40.1682 15.9867 39.7799C15.9867 39.3917 15.672 39.0769 15.2837 39.0769H6.26138Z" fill="#2872C1"/>
<path d="M32.362 8.70485V6.42354C32.362 5.55447 31.655 4.84741 30.7858 4.84741H16.3514C15.4824 4.84741 14.7754 5.55447 14.7754 6.42354V8.70485C14.7754 9.57391 15.4824 10.2809 16.3514 10.2809H17.5704C17.9587 10.2809 18.2734 9.96607 18.2734 9.57785C18.2734 9.18954 17.9587 8.87482 17.5704 8.87482H16.3514C16.2578 8.87482 16.1815 8.7986 16.1815 8.70494V6.42354C16.1815 6.32988 16.2578 6.25357 16.3514 6.25357H30.7858C30.8796 6.25357 30.9558 6.32979 30.9558 6.42354V8.70485C30.9558 8.79851 30.8796 8.87472 30.7858 8.87472H20.8572C20.4689 8.87472 20.1542 9.18954 20.1542 9.57776C20.1542 9.96607 20.4689 10.2808 20.8572 10.2808H30.7859C31.655 10.281 32.362 9.57391 32.362 8.70485Z" fill="#2872C1"/>
<path d="M37.6189 42.8715C37.2306 42.8715 36.9159 43.1863 36.9159 43.5745V44.5213C36.9159 45.664 35.9862 46.5938 34.8432 46.5938H3.74056C2.59784 46.5938 1.66803 45.6641 1.66803 44.5213V10.7276C1.66803 10.5755 1.68584 10.4262 1.71762 10.281H8.11915C9.45565 10.281 10.543 9.19369 10.543 7.85719V1.45575C10.6882 1.42397 10.8373 1.40616 10.9895 1.40616H34.8432C35.986 1.40616 36.9158 2.33588 36.9158 3.47869V12.8389C36.9158 13.2272 37.2305 13.5419 37.6188 13.5419C38.0071 13.5419 38.3218 13.2271 38.3218 12.8389V3.47859C38.3219 1.56056 36.7614 0 34.8432 0H10.9896C10.0604 0 9.18678 0.361875 8.52978 1.01888L1.28074 8.26791C0.623744 8.92491 0.261963 9.79847 0.261963 10.7277V44.5214C0.261963 46.4395 1.82243 48 3.74056 48H34.8432C36.7614 48 38.3219 46.4394 38.3219 44.5214V43.5746C38.3219 43.1863 38.0072 42.8715 37.6189 42.8715ZM9.1369 2.40037V7.85719C9.1369 8.41838 8.68034 8.87494 8.11915 8.87494H2.66234L9.1369 2.40037Z" fill="#2872C1"/>
<path d="M47.2481 25.125C47.7416 24.4006 47.8693 23.507 47.5984 22.6734C47.3276 21.8398 46.699 21.192 45.874 20.8961C45.3267 20.6998 44.9615 20.1973 44.9441 19.616C44.9175 18.74 44.4956 17.942 43.7864 17.4267C43.0773 16.9115 42.1878 16.757 41.3467 17.0024C40.7881 17.1653 40.1978 16.9733 39.8419 16.5135C39.3056 15.8202 38.4952 15.4226 37.6186 15.4226C36.7422 15.4226 35.9317 15.8202 35.3953 16.5135C35.0394 16.9734 34.4487 17.1651 33.8906 17.0024C33.0494 16.7568 32.16 16.9115 31.4507 17.4267C30.7416 17.942 30.3198 18.7399 30.2932 19.616C30.2757 20.1972 29.9106 20.6996 29.3632 20.896C28.5382 21.1919 27.9096 21.8398 27.6389 22.6733C27.368 23.507 27.4957 24.4006 27.9892 25.1249C28.3166 25.6055 28.3166 26.2265 27.9892 26.7071C27.4957 27.4315 27.368 28.325 27.6389 29.1587C27.9096 29.9923 28.5382 30.6401 29.3632 30.9361C29.9106 31.1325 30.2758 31.6349 30.2932 32.2161C30.3177 33.022 30.687 33.7792 31.3067 34.2934C31.7155 34.6328 32.2067 34.8452 32.7207 34.9161V41.3172C32.7207 41.8573 33.0137 42.3565 33.4851 42.6199C33.956 42.883 34.5349 42.8713 34.9951 42.5879L37.5737 41.0005C37.6157 40.9745 37.6408 40.9863 37.6639 41.0005L40.2423 42.5879C40.7024 42.871 41.2811 42.8832 41.7525 42.6198C42.224 42.3563 42.5169 41.8571 42.5169 41.3171V34.916C43.0307 34.8451 43.5219 34.6327 43.9307 34.2934C44.5505 33.7792 44.9199 33.0221 44.9444 32.216C44.9618 31.6348 45.327 31.1323 45.8743 30.936C46.6994 30.6401 47.328 29.9922 47.5987 29.1586C47.8695 28.3249 47.7419 27.4314 47.2484 26.707C46.9206 26.2266 46.9206 25.6056 47.2481 25.125ZM40.9793 41.3905L38.4008 39.8031C37.9215 39.5081 37.3162 39.5076 36.8364 39.8031L34.2579 41.3904C34.1992 41.4261 34.1267 41.385 34.1267 41.3171V34.7826C34.6101 34.7267 35.0894 34.9234 35.3953 35.3187C35.9318 36.0119 36.7422 36.4095 37.6187 36.4095C38.4952 36.4095 39.3056 36.0119 39.8419 35.3187C40.1479 34.9233 40.6273 34.7267 41.1106 34.7826V41.3171C41.1106 41.3855 41.0371 41.4262 40.9793 41.3905ZM46.086 27.499C46.3328 27.8611 46.3965 28.3076 46.2612 28.7242C46.1258 29.1409 45.8116 29.4647 45.3992 29.6126C44.304 30.0054 43.5737 31.0107 43.5386 32.1737C43.5261 32.5825 43.3464 32.951 43.0326 33.2115C42.6798 33.5043 42.2021 33.6147 41.7406 33.4801C40.6238 33.1542 39.4419 33.5382 38.7298 34.4583C38.4617 34.8047 38.0566 35.0034 37.6186 35.0034C37.1806 35.0034 36.7755 34.8048 36.5072 34.4583C35.9636 33.7555 35.146 33.3655 34.2926 33.3655C34.0284 33.3655 33.7606 33.4029 33.4966 33.48C33.0307 33.6157 32.5544 33.5019 32.2044 33.2114C31.8906 32.951 31.7109 32.5824 31.6986 32.1737C31.6634 31.0107 30.9331 30.0054 29.8378 29.6125C29.4255 29.4646 29.1114 29.1409 28.9759 28.7242C28.8406 28.3076 28.9043 27.861 29.1511 27.4989C29.8061 26.5373 29.8061 25.2949 29.1511 24.3333C28.9043 23.9712 28.8406 23.5246 28.9759 23.1079C29.1113 22.6912 29.4255 22.3674 29.8378 22.2196C30.9331 21.8267 31.6634 20.8214 31.6986 19.6584C31.7118 19.2205 31.9226 18.8217 32.2771 18.5643C32.6313 18.3067 33.0757 18.2295 33.4966 18.3521C34.6131 18.6781 35.7953 18.294 36.5072 17.3739C36.7754 17.0274 37.1804 16.8287 37.6186 16.8287C38.0566 16.8287 38.4616 17.0273 38.7298 17.3738C39.4418 18.294 40.6234 18.678 41.7406 18.3521C42.1611 18.2293 42.6055 18.3066 42.96 18.5642C43.3144 18.8216 43.5254 19.2205 43.5385 19.6583C43.5737 20.8213 44.304 21.8267 45.3992 22.2195C45.8116 22.3673 46.1257 22.6911 46.2612 23.1078C46.3965 23.5244 46.3328 23.9711 46.086 24.3331C45.4308 25.2948 45.4308 26.5374 46.086 27.499Z" fill="#2872C1"/>
<path d="M37.6189 20.0234C34.3697 20.0234 31.7263 22.6668 31.7263 25.916C31.7263 29.1652 34.3697 31.8085 37.6189 31.8085C40.868 31.8085 43.5113 29.1652 43.5113 25.916C43.5113 22.6668 40.868 20.0234 37.6189 20.0234ZM37.6189 30.4025C35.145 30.4025 33.1324 28.3899 33.1324 25.9161C33.1324 23.4423 35.145 21.4296 37.6189 21.4296C40.0928 21.4296 42.1053 23.4422 42.1053 25.9161C42.1053 28.39 40.0927 30.4025 37.6189 30.4025Z" fill="#2872C1"/>
</g>
<defs>
<clipPath id="clip0">
<rect width="48" height="48" fill="white"/>
</clipPath>
</defs>
</svg>
