<svg width="50" height="50" viewBox="0 0 50 50" fill="none" xmlns="http://www.w3.org/2000/svg">
<path d="M25 49.1761C18.5423 49.1761 12.4713 46.6614 7.90503 42.0951C3.33872 37.5289 0.823975 31.4577 0.823975 25.0001C0.823975 18.5426 3.33862 12.4712 7.90483 7.90503C12.4712 3.33872 18.5422 0.823975 25 0.823975C31.4577 0.823975 37.5288 3.33872 42.095 7.90503C46.6613 12.4713 49.176 18.5424 49.176 25C49.176 31.4577 46.6612 37.5288 42.095 42.0951C37.5288 46.6614 31.4576 49.1761 25 49.1761ZM25 7.41577C15.304 7.41577 7.41567 15.3041 7.41567 25.0001C7.41567 34.6962 15.304 42.5844 25 42.5844C34.6961 42.5844 42.5844 34.6961 42.5844 25.0001C42.5844 15.3042 34.6959 7.41577 25 7.41577Z" fill="white"/>
<g opacity="0.1">
<path opacity="0.1" d="M12.2995 42.095C7.73325 37.5288 5.21851 31.4576 5.21851 25C5.21851 18.5423 7.73325 12.4712 12.2995 7.90503C16.3438 3.86069 21.569 1.42739 27.1973 0.923486C26.4709 0.858447 25.7382 0.823975 25 0.823975C18.5423 0.823975 12.4713 3.33872 7.90503 7.90503C3.33872 12.4711 0.823975 18.5423 0.823975 24.9999C0.823975 31.4574 3.33872 37.5288 7.90493 42.0949C12.4712 46.6611 18.5423 49.1759 24.9999 49.1759C25.7381 49.1759 26.4707 49.1415 27.1972 49.0764C21.5689 48.5726 16.3439 46.1393 12.2995 42.095Z" fill="black"/>
</g>
<path d="M25.0001 50C18.3225 50 12.0443 47.3996 7.32236 42.6776C2.60039 37.9559 0 31.6778 0 25.0001C0 19.1273 2.0708 13.4279 5.83057 8.95166C6.12324 8.60303 6.64307 8.55791 6.9915 8.85068C7.33984 9.14336 7.38516 9.66309 7.09248 10.0115C3.53066 14.252 1.64795 19.4348 1.64795 25.0001C1.64795 31.2376 4.07686 37.1019 8.4876 41.5124C12.8982 45.923 18.7625 48.3521 25.0001 48.3521C31.2377 48.3521 37.1019 45.923 41.5124 41.5124C45.923 37.1018 48.3521 31.2376 48.3521 25.0001C48.3521 18.7625 45.9231 12.8982 41.5125 8.48779C37.1018 4.07705 31.2376 1.64805 25 1.64805C19.1713 1.64805 13.5949 3.80273 9.29775 7.71514C8.96143 8.02158 8.44023 7.99717 8.13379 7.66064C7.82754 7.32412 7.85186 6.80303 8.18828 6.49668C12.7896 2.30723 18.7602 0 25.0001 0C31.6777 0 37.9559 2.60039 42.6777 7.32236C47.3996 12.0441 50 18.3222 50 25.0001C50 31.6778 47.3996 37.9558 42.6777 42.6777C37.9559 47.3997 31.6776 50 25.0001 50ZM25.0001 43.4083C14.8496 43.4083 6.5918 35.1504 6.5918 25.0001C6.5918 14.8498 14.8496 6.5917 25.0001 6.5917C35.1506 6.5917 43.4084 14.8497 43.4084 25C43.4084 27.5727 42.8852 30.0637 41.8533 32.4035C40.8571 34.6624 39.4377 36.6718 37.6344 38.376C37.3036 38.6884 36.7821 38.6738 36.4695 38.3431C36.1569 38.0123 36.1717 37.4908 36.5024 37.1782C39.8931 33.9739 41.7605 29.6489 41.7605 25C41.7604 15.7584 34.2417 8.23965 25 8.23965C15.7583 8.23965 8.23965 15.7584 8.23965 25.0001C8.23965 34.2418 15.7584 41.7605 25.0001 41.7605C28.2012 41.7605 31.315 40.8508 34.0056 39.1297C34.3888 38.8845 34.8985 38.9964 35.1437 39.3797C35.3889 39.763 35.2771 40.2726 34.8938 40.5178C31.9375 42.4088 28.5163 43.4083 25.0001 43.4083Z" fill="#2872C1"/>
<path d="M19.5252 25.5928C19.5024 26.0876 19.3689 26.5254 19.1248 26.9062C18.8807 27.2839 18.5372 27.5768 18.0945 27.7852C17.6551 27.9935 17.1521 28.0977 16.5857 28.0977C15.6515 28.0977 14.9158 27.7933 14.3787 27.1846C13.8416 26.5758 13.573 25.7165 13.573 24.6064V24.2549C13.573 23.5583 13.6935 22.9495 13.9344 22.4287C14.1785 21.9046 14.5285 21.501 14.9842 21.2178C15.4399 20.9313 15.9673 20.7881 16.5662 20.7881C17.4288 20.7881 18.1222 21.016 18.6463 21.4717C19.1704 21.9242 19.4682 22.5492 19.5398 23.3467H17.8309C17.8178 22.9137 17.7088 22.6029 17.5037 22.4141C17.2986 22.2253 16.9861 22.1309 16.5662 22.1309C16.1398 22.1309 15.8273 22.2904 15.6287 22.6094C15.4301 22.9284 15.326 23.4378 15.3162 24.1377V24.6406C15.3162 25.3991 15.4106 25.9411 15.5994 26.2666C15.7915 26.5921 16.1202 26.7549 16.5857 26.7549C16.9796 26.7549 17.2807 26.6621 17.4891 26.4766C17.6974 26.291 17.8081 25.9964 17.8211 25.5928H19.5252ZM23.3867 20.8906L24.9736 25.8369L26.5557 20.8906H28.8115V28H27.0928V26.3398L27.2588 22.9414L25.54 28H24.4072L22.6836 22.9365L22.8496 26.3398V28H21.1357V20.8906H23.3867ZM35.1145 24.9873H32.4191V26.6816H35.6027V28H30.7053V20.8906H35.6125V22.2139H32.4191V23.7129H35.1145V24.9873Z" fill="#2872C1"/>
</svg>
