<svg width="49" height="49" viewBox="0 0 49 49" fill="none" xmlns="http://www.w3.org/2000/svg">
<path d="M46.1983 46.491L44.0307 33.8004C43.797 32.4331 42.8271 31.3347 41.499 30.9341L35.6523 29.17C35.5313 27.7408 34.9453 26.3924 33.9701 25.3252C33.19 24.4715 32.2088 23.8499 31.1273 23.5069C31.3124 23.3015 31.484 23.0968 31.6414 22.8966C33.0318 21.1283 33.7762 19.1802 33.9657 17.8507H34.4167C35.5898 17.8507 36.5443 16.8964 36.5443 15.7232V14.6325C36.5443 13.8496 36.1039 13.1401 35.4415 12.772V10.1493C35.4415 9.75301 35.1202 9.43173 34.7239 9.43173C34.3276 9.43173 34.0064 9.75291 34.0064 10.1493V13.0935C33.727 13.142 33.3935 13.2259 33.0525 13.3695C33.0175 13.3823 32.9836 13.397 32.9514 13.4147C32.8744 13.4498 32.7972 13.4869 32.7204 13.5286V7.74602C32.7204 6.14845 31.4207 4.8488 29.8232 4.8488H27.8426C27.1594 4.8488 26.4921 5.08681 25.9633 5.5192L25.7689 5.67807C25.4119 5.96996 24.9613 6.13074 24.5001 6.13074C24.0389 6.13074 23.5883 5.96996 23.2313 5.67807L23.037 5.5192C22.5082 5.08691 21.8408 4.8488 21.1577 4.8488H19.1769C17.5794 4.8488 16.2797 6.14845 16.2797 7.74602V13.5286C16.2029 13.4869 16.1257 13.4498 16.0487 13.4147C16.0165 13.397 15.9827 13.3823 15.9477 13.3695C15.6066 13.2259 15.2731 13.142 14.9938 13.0935V5.64888C14.9938 3.3254 16.8841 1.43507 19.2076 1.43507H29.7924C32.116 1.43507 34.0062 3.3254 34.0062 5.64888V6.77683C34.0062 7.17314 34.3275 7.49442 34.7237 7.49442C35.1199 7.49442 35.4413 7.17324 35.4413 6.77683V5.64888C35.4413 2.53412 32.9072 0 29.7924 0H19.2076C16.0927 0 13.5587 2.53412 13.5587 5.64888V12.7721C12.8963 13.1402 12.4559 13.8496 12.4559 14.6326V15.7233C12.4559 16.8965 13.4104 17.8508 14.5835 17.8508H15.0345C15.2239 19.1802 15.9684 21.1284 17.3588 22.8967C17.516 23.0967 17.6875 23.3012 17.8724 23.5064C15.386 24.2962 13.5729 26.5316 13.3479 29.17L7.50097 30.9341C6.1729 31.3347 5.20285 32.4331 4.96934 33.8004L4.08906 38.9539C4.02235 39.3446 4.28496 39.7153 4.67553 39.782C5.066 39.8489 5.43685 39.5862 5.50365 39.1955L6.38392 34.042C6.52518 33.2147 7.11203 32.5504 7.91546 32.308L13.3232 30.6764V32.0958C12.0836 32.3239 11.0289 33.1754 10.5945 34.3551C10.4792 34.6683 10.4075 34.9961 10.3814 35.3296L9.85881 42.0379C9.81938 42.5432 9.99423 43.0464 10.3383 43.4182C10.6823 43.7901 11.1703 44.0035 11.6771 44.0035H12.5717C12.968 44.0035 13.2893 43.6824 13.2893 43.2859C13.2893 42.8895 12.968 42.5685 12.5717 42.5685H11.6771C11.569 42.5685 11.4651 42.5231 11.3917 42.4437C11.3184 42.3644 11.2811 42.2572 11.2896 42.1496L11.8122 35.4412C11.828 35.2391 11.8713 35.0406 11.9412 34.851C12.2434 34.0303 13.0596 33.4746 13.9723 33.4681L14.0905 33.4673C14.0961 33.4672 14.1015 33.4672 14.107 33.4672C14.994 33.4672 15.7793 33.9702 16.1105 34.7522C16.2034 34.9715 16.2599 35.2032 16.2785 35.4412L16.8013 42.1497C16.8096 42.2572 16.7724 42.3644 16.6991 42.4438C16.6258 42.523 16.5218 42.5685 16.4137 42.5685H15.5191C15.1228 42.5685 14.8015 42.8896 14.8015 43.2859C14.8015 43.6823 15.1228 44.0035 15.5191 44.0035H16.4137C16.9205 44.0035 17.4085 43.7902 17.7525 43.4182C18.0966 43.0462 18.2715 42.5431 18.2321 42.038L17.7092 35.3296C17.6786 34.937 17.5853 34.5543 17.4319 34.1922C16.9592 33.0766 15.9485 32.301 14.7581 32.0911V30.2434L17.2248 29.4991C17.4492 29.9718 17.8939 30.9933 18.7749 33.1951C19.6627 35.4168 20.7663 38.2644 21.8247 41.0327C21.8322 41.056 21.8409 41.0787 21.8507 41.1009C22.557 42.949 23.2421 44.7591 23.8281 46.3206C23.9332 46.6006 24.2009 46.7861 24.5 46.7861C24.799 46.7861 25.0667 46.6006 25.1718 46.3206C25.7577 44.7591 26.4428 42.949 27.1492 41.1009C27.1591 41.0787 27.1677 41.0559 27.1752 41.0327C28.2329 38.266 29.3358 35.4202 30.2233 33.1992C31.1054 30.9945 31.5505 29.9722 31.775 29.4991L34.2417 30.2434V34.4816C32.5326 34.8136 31.238 36.321 31.238 38.1257C31.238 40.1729 32.9035 41.8385 34.9508 41.8385C36.9981 41.8385 38.6636 40.173 38.6636 38.1257C38.6636 36.3269 37.3776 34.8232 35.6767 34.4847V30.6765L41.0845 32.3081C41.888 32.5505 42.4747 33.2148 42.6161 34.0421L44.7837 46.7326C44.8197 46.9431 44.7637 47.1488 44.626 47.312C44.4884 47.4751 44.295 47.565 44.0815 47.565H4.91842C4.70491 47.565 4.51159 47.4752 4.37387 47.312C4.23625 47.1488 4.18017 46.9431 4.21615 46.7326L4.93153 42.5444C4.99824 42.1538 4.73563 41.7831 4.34506 41.7164C3.9546 41.6494 3.58375 41.9123 3.51695 42.3029L2.80156 46.491C2.69486 47.1162 2.86817 47.7527 3.27702 48.2374C3.68605 48.7221 4.28429 49 4.91842 49H44.0815C44.7156 49 45.3139 48.7221 45.7229 48.2373C46.1317 47.7526 46.305 47.1161 46.1983 46.491ZM34.0148 14.5554C34.3972 14.4601 34.7041 14.4618 34.7075 14.4619C34.8312 14.4635 34.9514 14.4346 35.0582 14.3786C35.0902 14.4582 35.109 14.5436 35.109 14.6326V15.7233C35.109 16.1051 34.7984 16.4158 34.4165 16.4158H34.0148V14.5554ZM14.9851 16.4158H14.5834C14.2015 16.4158 13.8909 16.1051 13.8909 15.7233V14.6326C13.8909 14.5436 13.9098 14.4582 13.9417 14.3787C14.0484 14.4347 14.1686 14.4636 14.2924 14.4619C14.2978 14.4628 14.6039 14.4611 14.9851 14.5558V16.4158ZM16.4201 17.2203V15.3352C16.6376 15.4004 16.8754 15.3915 17.0949 15.2999C17.4715 15.1427 17.7148 14.7778 17.7148 14.37V7.74602C17.7148 6.93982 18.3707 6.28387 19.1769 6.28387H21.1575C21.5105 6.28387 21.8553 6.40685 22.1285 6.63022L22.3228 6.78908C22.9354 7.28999 23.7086 7.56571 24.5 7.56571C25.2913 7.56571 26.0645 7.2899 26.6771 6.78908L26.8714 6.63022C27.1445 6.40685 27.4894 6.28387 27.8424 6.28387H29.823C30.6292 6.28387 31.2851 6.93982 31.2851 7.74602V14.3701C31.2851 14.7778 31.5284 15.1428 31.905 15.3C32.0307 15.3524 32.1624 15.3779 32.293 15.3779C32.3903 15.3779 32.4869 15.3636 32.5798 15.3359V17.2203C32.5798 18.268 31.8555 20.3025 30.5132 22.0096C30.0685 22.5751 29.497 23.1826 28.7933 23.7136C28.771 23.7285 28.7496 23.7447 28.7293 23.7619C27.6391 24.5679 26.2373 25.1854 24.5 25.1854C22.7626 25.1854 21.3608 24.5679 20.2705 23.7618C20.2502 23.7447 20.2289 23.7285 20.2067 23.7137C19.503 23.1826 18.9315 22.5751 18.4867 22.0096C17.1445 20.3026 16.4201 18.268 16.4201 17.2203ZM29.2009 28.8133L24.5 32.327L19.799 28.8133C20.2652 28.2208 20.5264 27.4603 20.5264 26.7816V25.6249C21.6318 26.2194 22.9509 26.6206 24.5 26.6206C26.049 26.6206 27.3682 26.2194 28.4735 25.6249V26.7816C28.4735 27.4603 28.7347 28.2208 29.2009 28.8133ZM18.6015 28.0124C18.2183 27.8665 17.7935 27.8425 17.3916 27.9515C17.374 27.9557 17.3568 27.9603 17.34 27.9653L14.861 28.7133C15.2803 26.6517 16.9543 25.0108 19.0913 24.6929V26.7816C19.0913 27.2318 18.8903 27.6972 18.6015 28.0124ZM20.5489 33.7726C20.5476 33.7692 20.5463 33.7659 20.545 33.7626C20.5087 33.6707 20.4728 33.5799 20.4372 33.4903C20.4307 33.474 20.4243 33.4578 20.4179 33.4417C20.3831 33.354 20.3485 33.2669 20.3145 33.1812C20.3121 33.1752 20.3097 33.1693 20.3073 33.1631C20.201 32.8958 20.0985 32.6395 19.9999 32.3938C19.9927 32.376 19.9855 32.3579 19.9784 32.3402C19.95 32.2698 19.9222 32.2004 19.8945 32.1318C19.8844 32.1067 19.8743 32.0818 19.8643 32.0569C19.8375 31.9905 19.8109 31.9245 19.7847 31.8599C19.7768 31.8405 19.7692 31.8218 19.7614 31.8025C19.7138 31.6852 19.6673 31.5708 19.622 31.4593C19.6097 31.4292 19.5972 31.3985 19.585 31.3687C19.5672 31.3253 19.5499 31.283 19.5325 31.2404C19.5137 31.1944 19.495 31.1489 19.4766 31.1041C19.4697 31.0873 19.4625 31.0696 19.4556 31.053C19.4501 31.0396 19.445 31.0272 19.4396 31.0139C19.3567 30.8126 19.2779 30.6228 19.2032 30.4443L19.2013 30.44C19.1615 30.345 19.1226 30.2521 19.0852 30.1637C19.0657 30.1179 19.0466 30.0728 19.0278 30.0286L23.0708 33.0503L21.3815 33.768C21.3785 33.7692 21.3754 33.7705 21.3725 33.7718L20.6671 34.0715C20.6271 33.9703 20.588 33.8712 20.5489 33.7726ZM22.2611 38.1661C22.1193 37.7983 21.9765 37.4284 21.8335 37.0589C21.6097 36.481 21.396 35.9314 21.1915 35.408L21.4593 35.2942L22.5534 36.566L22.2611 38.1661ZM24.5138 43.9981C24.4932 43.9554 24.4688 43.9151 24.4404 43.8776C24.1162 43.0206 23.7047 41.9361 23.2492 40.743L23.9191 37.0752H25.0808L25.7507 40.743C25.2734 41.993 24.8448 43.1233 24.5138 43.9981ZM25.3499 35.6402H23.65L22.8456 34.7052L24.5 34.0025L26.1543 34.7052L25.3499 35.6402ZM27.1664 37.0589C27.0234 37.4284 26.8806 37.7983 26.7388 38.1661L26.4466 36.5659L27.5406 35.2941L27.8084 35.4079C27.6039 35.9314 27.3902 36.481 27.1664 37.0589ZM29.9148 30.1637C29.8793 30.2475 29.8424 30.3355 29.8048 30.4253C29.7999 30.4369 29.7949 30.4487 29.79 30.4605C29.7528 30.5495 29.7149 30.6404 29.6757 30.7351C29.6731 30.7413 29.6704 30.7479 29.6678 30.7542C29.6339 30.8358 29.5992 30.9201 29.5639 31.0059C29.5573 31.022 29.5511 31.0368 29.5445 31.053C29.5366 31.0722 29.5282 31.0926 29.5202 31.112C29.5046 31.1503 29.4886 31.1894 29.4725 31.2284C29.4528 31.2765 29.4332 31.3245 29.413 31.3738C29.4066 31.3895 29.3999 31.4058 29.3934 31.4216C29.3435 31.544 29.2922 31.6702 29.2397 31.7998C29.2315 31.82 29.2234 31.84 29.2151 31.8605C29.1892 31.9246 29.1628 31.9899 29.1363 32.0557C29.126 32.0814 29.1155 32.1071 29.1051 32.1331C29.0777 32.2009 29.0501 32.2697 29.0221 32.3393C29.0143 32.3588 29.0063 32.3787 28.9985 32.3982C28.9011 32.6405 28.8002 32.8933 28.6954 33.1566C28.6919 33.1653 28.6885 33.1739 28.685 33.1827C28.6512 33.2677 28.6169 33.3543 28.5823 33.4414C28.5758 33.4577 28.5693 33.474 28.5628 33.4904C28.527 33.5805 28.491 33.6716 28.4544 33.7642L28.4524 33.7692C28.413 33.869 28.3733 33.9692 28.333 34.0717L27.627 33.7717C27.6245 33.7707 27.622 33.7696 27.6196 33.7686L25.9293 33.0505L29.9723 30.0288C29.9533 30.0728 29.9342 30.1178 29.9148 30.1637ZM31.6599 27.9654L31.6577 27.9647C31.2414 27.8398 30.7973 27.8605 30.3985 28.0124C30.1096 27.6972 29.9087 27.2318 29.9087 26.7816V24.6919C32.0591 25.0089 33.728 26.6344 34.1418 28.7142L31.6599 27.9654ZM37.2286 38.1257C37.2286 39.3817 36.2067 40.4035 34.9508 40.4035C33.6949 40.4035 32.6731 39.3817 32.6731 38.1257C32.6731 36.8697 33.6949 35.848 34.9508 35.848C36.2067 35.848 37.2286 36.8697 37.2286 38.1257Z" fill="#2872C1"/>
</svg>
