<svg width="51" height="51" viewBox="0 0 51 51" fill="none" xmlns="http://www.w3.org/2000/svg">
<path d="M47.2646 15.8024H43.8803C43.4677 15.8024 43.1332 16.1369 43.1332 16.5495C43.1332 16.9621 43.4677 17.2966 43.8803 17.2966H47.2646C48.5005 17.2966 49.5059 18.3019 49.5059 19.5378V49.4561C49.5059 49.4835 49.4835 49.5059 49.4561 49.5059H41.1407V46.5176H44.9569C45.8044 46.5176 46.497 45.8281 46.5008 44.9806L46.5176 41.302C46.5254 40.4578 45.8153 39.7469 44.9736 39.7511H41.1407V36.8061H44.9569C45.8044 36.8061 46.497 36.1167 46.5008 35.2692L46.5176 31.5905C46.5254 30.7463 45.8153 30.0355 44.9736 30.0396H41.1407V27.0513H44.9569C45.8044 27.0513 46.497 26.3618 46.5008 25.5143L46.5176 21.8357C46.5254 20.9916 45.8153 20.2807 44.9736 20.2848H41.1407V12.5508C41.1407 10.4911 39.465 8.81543 37.4053 8.81543H35.0334C34.6511 3.89044 30.5214 0 25.5 0C20.4786 0 16.3489 3.89044 15.9666 8.81543H13.5469C11.4872 8.81543 9.81152 10.4911 9.81152 12.5508V15.8024H3.73535C1.67563 15.8024 0 17.4781 0 19.5378V49.4561C0 50.3074 0.692584 51 1.54395 51H49.4561C50.3074 51 51 50.3074 51 49.4561V19.5378C51 17.4781 49.3244 15.8024 47.2646 15.8024ZM41.1407 21.779H44.9736C44.9787 21.779 44.9944 21.779 45.0089 21.7936C45.0234 21.8083 45.0234 21.8238 45.0234 21.8289L45.0068 25.5075C45.0067 25.5349 44.9843 25.5571 44.957 25.5571H41.1407V21.779ZM41.1407 31.5337H44.9736C44.9787 31.5337 44.9944 31.5337 45.0089 31.5484C45.0234 31.563 45.0234 31.5787 45.0234 31.5837L45.0068 35.2623C45.0067 35.2896 44.9843 35.3119 44.957 35.3119H41.1407V31.5337ZM41.1407 41.2453H44.9736C44.9787 41.2453 44.9944 41.2453 45.0089 41.2599C45.0234 41.2745 45.0234 41.2902 45.0234 41.2953L45.0068 44.9738C45.0067 45.0011 44.9843 45.0234 44.957 45.0234H41.1407V41.2453ZM9.81152 45.0234H6.0433C6.01551 45.0234 5.9936 45.0018 5.9935 44.9741L5.97656 41.2957C5.97656 41.2904 5.97646 41.2745 5.99111 41.2599C6.00565 41.2453 6.02129 41.2453 6.02637 41.2453H9.81152V45.0234ZM9.81152 35.3115H6.0433C6.01551 35.3115 5.9936 35.2899 5.9935 35.2622L5.97656 31.5837C5.97656 31.5786 5.97646 31.563 5.9913 31.5481C6.00595 31.5333 6.02129 31.5333 6.02637 31.5333H9.81152V35.3115ZM9.81152 25.5568H6.0433C6.01551 25.5568 5.9936 25.5352 5.9935 25.5075L5.97656 21.829C5.97656 21.8238 5.97646 21.8083 5.9913 21.7933C6.00595 21.7786 6.02129 21.7786 6.02637 21.7786H9.81152V25.5568ZM9.81152 20.2845H6.02637C5.18158 20.2798 4.47495 20.9927 4.48242 21.8359L4.49936 25.5143C4.50324 26.3616 5.19582 27.0509 6.0433 27.0509H9.81152V30.0392H6.02637C5.18158 30.0345 4.47495 30.7475 4.48242 31.5906L4.49936 35.2692C4.50324 36.1165 5.19582 36.8058 6.0433 36.8058H9.81152V39.7512H6.02637C5.18108 39.7465 4.47495 40.4589 4.48242 41.3026L4.49936 44.9812C4.50314 45.8283 5.19582 46.5176 6.0433 46.5176H9.81152V49.5059H1.54395C1.51645 49.5059 1.49414 49.4835 1.49414 49.4561V19.5378C1.49414 18.3019 2.4995 17.2966 3.73535 17.2966H9.81152V20.2845ZM25.5 1.49414C29.949 1.49414 33.5684 5.11355 33.5684 9.5625C33.5684 14.0115 29.949 17.6309 25.5 17.6309C21.051 17.6309 17.4316 14.0115 17.4316 9.5625C17.4316 5.11355 21.051 1.49414 25.5 1.49414ZM32.1762 49.5059H26.2471V36.3501H32.1762V49.5059ZM17.3296 34.8559V33.3618H33.6705V34.8559H17.3296ZM39.6465 49.5059H33.6704V36.3501C34.4502 36.3953 35.1695 35.8249 35.1645 35.0053V33.2124C35.1645 32.4709 34.5613 31.8676 33.8198 31.8676H17.1802C16.4387 31.8676 15.8355 32.4709 15.8355 33.2124V35.0053C15.8302 35.7904 16.5366 36.4317 17.3296 36.3501V41.6402C17.3296 42.0528 17.6641 42.3873 18.0767 42.3873C18.4893 42.3873 18.8238 42.0528 18.8238 41.6402V36.3501H24.7529V49.5059H18.8238V45.1265C18.8238 44.714 18.4893 44.3795 18.0767 44.3795C17.6641 44.3795 17.3296 44.714 17.3296 45.1265V49.5059H11.3057V12.5508C11.3057 11.3149 12.311 10.3096 13.5469 10.3096H15.9666C16.3489 15.2346 20.4786 19.125 25.5 19.125C30.5214 19.125 34.6511 15.2346 35.0334 10.3096H37.4053C38.6412 10.3096 39.6465 11.3149 39.6465 12.5508V49.5059ZM23.2588 11.8037V14.792C23.2588 15.5335 23.862 16.1367 24.6035 16.1367H26.3965C27.138 16.1367 27.7412 15.5335 27.7412 14.792V11.8037H30.7295C31.471 11.8037 32.0742 11.2005 32.0742 10.459V8.66602C32.0742 7.92452 31.471 7.32129 30.7295 7.32129H27.7412V4.33301C27.7412 3.59152 27.138 2.98828 26.3965 2.98828H24.6035C23.862 2.98828 23.2588 3.59152 23.2588 4.33301V7.32129H20.2705C19.529 7.32129 18.9258 7.92452 18.9258 8.66602V10.459C18.9258 11.2005 19.529 11.8037 20.2705 11.8037H23.2588ZM20.4199 8.81543H23.707C24.2838 8.81543 24.7529 8.34627 24.7529 7.76953V4.48242H26.2471V7.76953C26.2471 8.34627 26.7162 8.81543 27.293 8.81543H30.5801V10.3096H27.293C26.7162 10.3096 26.2471 10.7787 26.2471 11.3555V14.6426H24.7529V11.3555C24.7529 10.7787 24.2838 10.3096 23.707 10.3096H20.4199V8.81543ZM22.5117 44.4396C22.9243 44.4396 23.2588 44.1051 23.2588 43.6926V42.1635C23.2588 41.7509 22.9243 41.4164 22.5117 41.4164C22.0991 41.4164 21.7646 41.7509 21.7646 42.1635V43.6926C21.7646 44.1051 22.0991 44.4396 22.5117 44.4396ZM22.4619 22.1133H15.8582C15.0106 22.1133 14.3181 22.8028 14.3143 23.6503L14.2976 27.3287C14.2887 28.1686 14.9981 28.8845 15.8416 28.8797H22.4619C23.3133 28.8797 24.0059 28.1872 24.0059 27.3358V23.6572C24.0059 22.8059 23.3133 22.1133 22.4619 22.1133ZM22.5117 27.3358C22.5117 27.3633 22.4894 27.3856 22.4619 27.3856H15.8415C15.8217 27.3882 15.789 27.3554 15.7917 27.3356L15.8083 23.6569C15.8084 23.6296 15.8307 23.6074 15.8581 23.6074H22.4619C22.4894 23.6074 22.5117 23.6297 22.5117 23.6572V27.3358ZM28.4883 44.4396C28.9009 44.4396 29.2354 44.1051 29.2354 43.6926V42.1635C29.2354 41.7509 28.9009 41.4164 28.4883 41.4164C28.0757 41.4164 27.7412 41.7509 27.7412 42.1635V43.6926C27.7412 44.1051 28.0757 44.4396 28.4883 44.4396ZM35.1346 22.1133H28.5381C27.6867 22.1133 26.9941 22.8059 26.9941 23.6572V27.3358C26.9941 28.1872 27.6867 28.8797 28.5381 28.8797H35.1179C35.9654 28.8797 36.6579 28.1903 36.6618 27.3428L36.6785 23.6641C36.6864 22.8201 35.9762 22.1092 35.1346 22.1133ZM35.1677 27.336C35.1676 27.3633 35.1452 27.3856 35.1179 27.3856H28.5381C28.5106 27.3856 28.4883 27.3633 28.4883 27.3358V23.6572C28.4883 23.6297 28.5106 23.6074 28.5381 23.6074H35.1346C35.1397 23.6074 35.1553 23.6074 35.1699 23.6221C35.1844 23.6367 35.1844 23.6522 35.1844 23.6573L35.1677 27.336Z" fill="#2872C1"/>
</svg>
