<svg width="50" height="50" viewBox="0 0 50 50" fill="none" xmlns="http://www.w3.org/2000/svg">
<g clip-path="url(#clip0)">
<path d="M32.0777 16.946C32.0777 16.5416 31.7499 16.2136 31.3453 16.2136H22.1748C21.7703 16.2136 21.4424 16.5416 21.4424 16.946C21.4424 17.3505 21.7703 17.6785 22.1748 17.6785H31.3453C31.7498 17.6785 32.0777 17.3505 32.0777 16.946Z" fill="#2872C1"/>
<path d="M10.6418 29.6718C10.6418 30.7419 11.5125 31.6124 12.5825 31.6124H16.9303C18.0003 31.6124 18.871 30.7418 18.871 29.6718V25.3441L19.5517 24.6634C19.8378 24.3773 19.8378 23.9136 19.5517 23.6276C19.2657 23.3415 18.8019 23.3416 18.516 23.6276L18.244 23.8996C17.898 23.5803 17.4374 23.3833 16.9304 23.3833H12.5826C11.5125 23.3833 10.6419 24.2539 10.6419 25.3239V29.6718H10.6418ZM12.1067 25.3239C12.1067 25.0616 12.3202 24.8481 12.5825 24.8481H16.9303C17.0333 24.8481 17.128 24.8818 17.2059 24.9376L14.9539 27.1896L14.4347 26.6705C14.1487 26.3845 13.6849 26.3845 13.399 26.6705C13.1129 26.9565 13.1129 27.4203 13.399 27.7063L14.4361 28.7434C14.5791 28.8864 14.7666 28.9579 14.954 28.9579C15.1414 28.9579 15.3289 28.8864 15.4718 28.7434L17.4062 26.809V29.6718C17.4062 29.9342 17.1927 30.1476 16.9304 30.1476H12.5826C12.3202 30.1476 12.1068 29.9341 12.1068 29.6718V25.3239H12.1067Z" fill="#2872C1"/>
<path d="M22.1748 26.7656C21.7703 26.7656 21.4424 27.0936 21.4424 27.498C21.4424 27.9025 21.7703 28.2305 22.1748 28.2305H25.5255C25.9301 28.2305 26.2579 27.9025 26.2579 27.498C26.2579 27.0936 25.9301 26.7656 25.5255 26.7656H22.1748Z" fill="#2872C1"/>
<path d="M10.6418 40.2234C10.6418 41.2936 11.5125 42.1641 12.5825 42.1641H16.9303C18.0003 42.1641 18.871 41.2935 18.871 40.2234V35.8757C18.871 34.8056 18.0003 33.9351 16.9303 33.9351H12.5825C11.5124 33.9351 10.6418 34.8057 10.6418 35.8757V40.2234ZM12.1067 35.8756C12.1067 35.6132 12.3202 35.3998 12.5825 35.3998H16.9303C17.1926 35.3998 17.4061 35.6133 17.4061 35.8756V40.2233C17.4061 40.4857 17.1926 40.6991 16.9303 40.6991H12.5825C12.3201 40.6991 12.1067 40.4856 12.1067 40.2233V35.8756Z" fill="#2872C1"/>
<path d="M46.2343 17.1335C46.2315 16.4255 45.9556 15.5524 45.3127 14.9111C44.1452 13.6729 41.8701 13.685 40.6774 15.1038V6.2002C40.6774 4.5374 39.3246 3.18457 37.6618 3.18457H30.6926V1.74541C30.6927 0.783008 29.9097 0 28.9473 0H15.4958C14.5334 0 13.7503 0.783008 13.7503 1.74541V3.18457H6.78101C5.11821 3.18457 3.76538 4.5374 3.76538 6.2002V46.9844C3.76538 48.6472 5.11821 50 6.78101 50H37.6619C39.3247 50 40.6775 48.6472 40.6775 46.9844V27.4978C40.6775 27.0933 40.3497 26.7653 39.9451 26.7653C39.5405 26.7653 39.2126 27.0933 39.2126 27.4978V46.9844C39.2126 47.8395 38.5169 48.5352 37.6619 48.5352H6.78101C5.92593 48.5352 5.23022 47.8395 5.23022 46.9844V6.2002C5.23022 5.34512 5.92593 4.64941 6.78101 4.64941H11.0917V6.17647C11.0485 7.96016 12.8321 9.58809 14.7233 9.21904L21.4805 8.0168C21.9675 7.93018 22.4614 7.93018 22.9481 8.0166L29.7205 9.21982C31.4159 9.59746 33.4205 8.07275 33.3515 6.17715V4.64941H36.2948V19.487L24.0542 31.7281C23.3494 32.3894 22.7726 33.1869 22.4524 34.2872L21.4687 37.855C21.4414 38.1666 21.4634 38.8881 22.3695 38.7558L25.9364 37.7723C26.8288 37.5452 27.8237 36.9112 28.4962 36.1722L36.2946 28.3733V45.4316C36.2946 45.5334 36.2118 45.6162 36.1099 45.6162H8.33374C8.23198 45.6162 8.14917 45.5334 8.14917 45.4316V7.37148C8.14917 6.96699 7.82124 6.63906 7.41675 6.63906C7.01226 6.63906 6.68433 6.96699 6.68433 7.37148V45.4316C6.68433 46.3411 7.42427 47.0811 8.33374 47.0811H36.1101C37.0196 47.0811 37.7596 46.3411 37.7596 45.4316V26.9084L45.3136 19.3544C45.819 18.8775 46.2438 17.9572 46.2343 17.1335ZM15.2152 1.74541C15.2152 1.59072 15.3411 1.46484 15.4958 1.46484H28.9473C29.102 1.46484 29.2279 1.59072 29.2279 1.74541V3.18457H15.2152V1.74541ZM31.8866 6.17705C31.9013 7.05371 31.0239 7.9708 29.9766 7.77744L23.2042 6.57422C22.876 6.51592 22.5454 6.48672 22.2147 6.48672C21.8836 6.48672 21.5526 6.51592 21.2238 6.57441L14.4667 7.77676C13.6059 7.94492 12.5495 7.24121 12.5565 6.17647V4.64961H31.8866V6.17705ZM44.2776 18.3183L42.1137 20.4822L39.7423 18.1108L41.9063 15.9468C42.4798 15.3716 43.5692 15.2429 44.2766 15.9468C44.8085 16.4801 45.0205 17.5832 44.2776 18.3183ZM27.9784 34.6185L25.607 32.2471L38.7066 19.1468L41.078 21.5182L27.9784 34.6185ZM37.7595 4.65439C38.5691 4.70518 39.2126 5.37813 39.2126 6.20029V16.5687L37.7595 18.0222V4.65439ZM23.8645 34.6767C23.9148 34.5569 24.0181 33.9855 24.5841 33.2958L26.9287 35.6403C26.3791 36.2668 24.0699 36.7479 23.2238 37.0007L23.8645 34.6767Z" fill="#2872C1"/>
<path d="M19.5516 13.0175C19.2656 12.7314 18.8018 12.7315 18.5159 13.0175L18.2133 13.3201C17.8709 13.0172 17.4224 12.8315 16.9303 12.8315H12.5825C11.5124 12.8315 10.6418 13.7021 10.6418 14.7721V19.12C10.6418 20.19 11.5125 21.0606 12.5825 21.0606H16.9303C18.0003 21.0606 18.871 20.19 18.871 19.12V14.7721C18.871 14.7599 18.8694 14.748 18.8691 14.7359L19.5517 14.0533C19.8378 13.7673 19.8377 13.3036 19.5516 13.0175ZM17.4061 19.12C17.4061 19.3823 17.1926 19.5958 16.9303 19.5958H12.5825C12.3201 19.5958 12.1067 19.3823 12.1067 19.12V14.7721C12.1067 14.5097 12.3202 14.2964 12.5825 14.2964H16.9303C17.018 14.2964 17.0993 14.3218 17.1699 14.3634L14.9538 16.5796L14.4346 16.0604C14.1486 15.7744 13.6848 15.7744 13.3989 16.0604C13.1128 16.3464 13.1128 16.8102 13.3989 17.0962L14.436 18.1333C14.579 18.2763 14.7665 18.3478 14.9539 18.3478C15.1413 18.3478 15.3288 18.2763 15.4717 18.1333L17.4061 16.1989V19.12Z" fill="#2872C1"/>
<rect x="10.0002" y="4.6499" width="24" height="6" fill="white"/>
</g>
<defs>
<clipPath id="clip0">
<rect width="50" height="50" fill="white"/>
</clipPath>
</defs>
</svg>
