<svg width="44" height="44" viewBox="0 0 44 44" fill="none" xmlns="http://www.w3.org/2000/svg">
<path d="M8.36313 43.9984C8.71896 43.9984 9.00766 43.7101 9.00766 43.3539V26.9704C9.00766 26.0066 8.22348 25.2224 7.25937 25.2224H1.74829C0.78418 25.2224 0 26.0066 0 26.9704V43.3539C0 43.7101 0.288696 43.9984 0.644531 43.9984H8.36313ZM1.28906 26.9704C1.28906 26.7173 1.49484 26.5115 1.74829 26.5115H7.25937C7.51248 26.5115 7.71826 26.7173 7.71826 26.9704V42.7094H1.28906V26.9704Z" fill="#2872C1"/>
<path d="M13.4123 20.8999C12.4485 20.8999 11.6643 21.6841 11.6643 22.6482V43.3538C11.6643 43.7099 11.9527 43.9983 12.3088 43.9983H20.0271C20.3833 43.9983 20.6716 43.7099 20.6716 43.3538V22.6482C20.6716 21.6841 19.8875 20.8999 18.9237 20.8999H13.4123ZM19.3826 22.6482V42.7092H12.953V22.6482C12.953 22.3951 13.1591 22.189 13.4123 22.189H18.9233C19.1768 22.189 19.3826 22.3951 19.3826 22.6482Z" fill="#2872C1"/>
<path d="M32.336 43.3538V18.3262C32.336 17.3621 31.5518 16.5779 30.5877 16.5779H25.0767C24.1125 16.5779 23.3284 17.3621 23.3284 18.3262V43.3538C23.3284 43.71 23.6171 43.9983 23.9729 43.9983H31.6915C32.0473 43.9983 32.336 43.71 32.336 43.3538ZM31.047 42.7093H24.6174V18.3262C24.6174 18.0731 24.8232 17.8669 25.0767 17.8669H30.5877C30.8409 17.8669 31.0466 18.0731 31.0466 18.3262V42.7093H31.047Z" fill="#2872C1"/>
<path d="M35.6372 43.9984H43.3555C43.7113 43.9984 44 43.71 44 43.3538V14.0038C44 13.04 43.2158 12.2559 42.2517 12.2559H36.7406C35.7769 12.2559 34.9927 13.04 34.9927 14.0038V43.3538C34.9927 43.71 35.281 43.9984 35.6372 43.9984ZM36.2817 14.0038C36.2817 13.7507 36.4875 13.5449 36.7406 13.5449H42.2517C42.5048 13.5449 42.7109 13.7507 42.7109 14.0038V42.7093H36.2817V14.0038Z" fill="#2872C1"/>
<path d="M38.0383 9.15193C38.3307 9.57289 38.8275 9.78874 39.3347 9.71589C39.842 9.64271 40.2576 9.29527 40.4194 8.80918L42.6222 2.18864C42.7571 1.78245 42.6947 1.34806 42.4503 0.996592C42.2063 0.645121 41.8209 0.434977 41.3932 0.41987L34.4205 0.1728C33.9062 0.154001 33.4376 0.422892 33.1919 0.872721C32.9465 1.32255 32.9757 1.86335 33.2681 2.28431L33.9962 3.33268C30.2284 5.50663 21.347 9.89582 9.24588 11.1809C8.89172 11.2185 8.63525 11.536 8.67285 11.8898C8.7081 12.2208 8.98773 12.4666 9.31301 12.4662C9.33584 12.4662 9.35867 12.4652 9.38183 12.4629C22.4289 11.0775 31.8209 6.14512 35.2534 4.08866C35.5686 3.9 35.6613 3.47032 35.4514 3.16819C35.4514 3.16819 34.347 1.57835 34.3269 1.54948C34.2993 1.50987 34.3282 1.46018 34.3745 1.46086C34.3745 1.46086 41.3187 1.70692 41.3476 1.70793C41.3848 1.70927 41.4103 1.74653 41.3989 1.78178C41.3989 1.78178 39.1998 8.39124 39.1961 8.40199C39.1817 8.44596 39.1226 8.45368 39.0967 8.41642L38.0994 6.98066C37.9047 6.70002 37.5254 6.62046 37.2343 6.79804C35.7307 7.7165 33.2161 9.11903 29.7722 10.5857C29.4445 10.7253 29.2921 11.1036 29.4318 11.4313C29.5714 11.7589 29.9498 11.9113 30.2774 11.7717C33.4222 10.4323 35.8133 9.14186 37.385 8.21165L38.0383 9.15193Z" fill="#2872C1"/>
<path d="M6.77826 12.6861C7.13342 12.663 7.40231 12.3558 7.37881 12.0006C7.35565 11.6455 7.04816 11.3769 6.69333 11.4001C5.29449 11.4921 3.88626 11.5391 2.50757 11.5391C2.1514 11.5391 1.86304 11.8274 1.86304 12.1836V16.8145C1.86304 17.1703 2.1514 17.459 2.50757 17.459C13.1796 17.459 22.0842 14.9353 27.6748 12.8184C28.0078 12.6925 28.1757 12.3202 28.0495 11.9875C27.9236 11.6545 27.5513 11.4867 27.2186 11.6129C21.8412 13.6489 13.3431 16.0682 3.1521 16.1666V12.8248C4.35153 12.8123 5.56842 12.766 6.77826 12.6861Z" fill="#2872C1"/>
</svg>
