<svg width="403" height="244" viewBox="0 0 403 244" fill="none" xmlns="http://www.w3.org/2000/svg">
<path d="M316.79 32.7749C316.79 32.0986 317.338 31.5497 318.015 31.5497C318.691 31.5497 319.24 32.0937 319.24 32.7749C319.24 33.4511 318.696 33.9951 318.02 34C317.343 34 316.79 33.4511 316.79 32.7749ZM312.766 33.1762C312.119 32.9655 311.767 32.2794 311.977 31.6331C312.183 30.9911 312.874 30.6382 313.521 30.844C314.163 31.0548 314.515 31.7458 314.309 32.3877C314.138 32.9072 313.658 33.235 313.143 33.235C313.016 33.235 312.889 33.2159 312.766 33.1762ZM321.724 32.3828C321.513 31.736 321.866 31.045 322.509 30.8392C323.15 30.6284 323.841 30.9813 324.052 31.6232C324.263 32.2652 323.91 32.9562 323.268 33.1669C323.14 33.2061 323.013 33.2257 322.885 33.2257C322.371 33.2257 321.891 32.8974 321.724 32.3828ZM308.022 30.7656C308.022 30.7656 308.022 30.7656 308.027 30.7656C307.479 30.3687 307.356 29.6042 307.752 29.0554C308.15 28.5065 308.914 28.384 309.463 28.7809C310.012 29.1779 310.134 29.9473 309.737 30.4912C309.498 30.8245 309.12 31.0009 308.743 31.0009C308.493 31.0009 308.243 30.9225 308.022 30.7656ZM326.292 30.4765C325.89 29.9325 326.013 29.1632 326.561 28.7662C327.105 28.3693 327.87 28.4869 328.272 29.0357C328.669 29.5846 328.546 30.3491 328.002 30.7461C327.786 30.9029 327.532 30.9813 327.282 30.9813C326.904 30.9813 326.532 30.8048 326.292 30.4765ZM304.263 27.0118C303.862 26.4679 303.979 25.6985 304.528 25.3015C305.077 24.8997 305.842 25.0222 306.243 25.5711C306.641 26.115 306.518 26.8795 305.974 27.2814C305.753 27.4382 305.503 27.5171 305.253 27.5171C304.876 27.5166 304.499 27.3402 304.263 27.0118ZM330.046 27.2569C329.502 26.8599 329.379 26.0954 329.776 25.5466C330.172 24.9977 330.942 24.8801 331.486 25.277C332.035 25.674 332.157 26.4385 331.761 26.9873C331.521 27.3157 331.143 27.4921 330.766 27.4921C330.516 27.4921 330.266 27.4137 330.046 27.2569ZM301.838 22.2828C301.627 21.6359 301.975 20.9449 302.622 20.7342C303.264 20.5235 303.955 20.8764 304.166 21.5183C304.376 22.1652 304.024 22.8562 303.381 23.0669C303.254 23.1061 303.126 23.1257 302.999 23.1257C302.484 23.1257 302.005 22.7974 301.838 22.2828ZM332.633 23.0375C331.986 22.8268 331.633 22.1358 331.844 21.4938C332.05 20.8519 332.746 20.499 333.388 20.7048C334.03 20.9155 334.382 21.6065 334.176 22.2485C334.005 22.768 333.524 23.0963 333.01 23.0963C332.883 23.0963 332.756 23.0767 332.633 23.0375ZM301 17.0343C301 16.358 301.543 15.8043 302.22 15.8043C302.896 15.8043 303.45 16.3482 303.45 17.0294C303.45 17.7057 302.906 18.2545 302.23 18.2545C301.548 18.2545 301 17.7106 301 17.0343ZM332.55 17C332.55 16.9951 332.55 16.9902 332.55 16.9853C332.55 16.9706 332.55 16.9559 332.55 16.9412C332.55 16.2649 333.093 15.7112 333.769 15.7112C334.446 15.7063 334.995 16.2502 335 16.9314C335 16.9412 335 16.9559 335 16.9657C335 16.9755 335 16.9853 335 17C335 17.6763 334.451 18.2251 333.775 18.2251C333.099 18.2251 332.55 17.6763 332.55 17ZM302.607 13.3197C301.961 13.1139 301.607 12.4229 301.818 11.7809C302.024 11.1341 302.715 10.7812 303.357 10.9871C304.004 11.1978 304.357 11.8887 304.151 12.5307C303.979 13.0502 303.499 13.3785 302.98 13.3785C302.857 13.3785 302.729 13.3638 302.607 13.3197ZM331.824 12.4474C331.614 11.8054 331.962 11.1145 332.609 10.8989C333.251 10.6881 333.942 11.041 334.152 11.6829C334.363 12.3249 334.015 13.0159 333.373 13.2315C333.246 13.2707 333.118 13.2903 332.991 13.2903C332.476 13.2903 331.996 12.962 331.824 12.4474ZM304.494 8.74751C303.95 8.35056 303.828 7.58608 304.22 7.03722C304.22 7.03722 304.22 7.03722 304.225 7.03722C304.622 6.48836 305.386 6.36585 305.935 6.76279C306.484 7.15974 306.601 7.92422 306.204 8.47308H306.21C305.97 8.80632 305.592 8.98272 305.215 8.98272C304.965 8.98272 304.714 8.90433 304.494 8.74751ZM329.742 8.40446C329.34 7.8556 329.462 7.09112 330.006 6.68927C330.55 6.29233 331.32 6.40994 331.717 6.95341C332.118 7.49737 332.001 8.26676 331.457 8.6686C331.236 8.82542 330.982 8.90382 330.732 8.90382C330.354 8.90431 329.982 8.7328 329.742 8.40446ZM307.704 4.98388C307.307 4.43502 307.425 3.67053 307.969 3.26869C308.517 2.87174 309.282 2.98936 309.684 3.53332C310.08 4.08218 309.963 4.84667 309.419 5.24851C309.199 5.40533 308.944 5.48373 308.694 5.48373C308.317 5.48373 307.944 5.30731 307.704 4.98388ZM326.512 5.19461C325.963 4.80257 325.841 4.03317 326.238 3.48431C326.635 2.93545 327.399 2.81294 327.948 3.20988C328.496 3.60683 328.619 4.37132 328.222 4.92018C327.982 5.25342 327.609 5.42983 327.227 5.42983C326.983 5.42983 326.728 5.35143 326.512 5.19461ZM311.918 2.3866C311.707 1.74462 312.06 1.04874 312.703 0.838021C312.703 0.838021 312.703 0.838021 312.697 0.838021C313.344 0.627298 314.035 0.98014 314.246 1.62211C314.457 2.26408 314.109 2.95506 313.462 3.16578C313.339 3.20988 313.206 3.22949 313.084 3.22949C312.565 3.22949 312.085 2.90115 311.918 2.3866ZM322.454 3.14128C321.808 2.93546 321.454 2.24448 321.66 1.60251C321.866 0.955633 322.557 0.602797 323.204 0.808619C323.846 1.01444 324.204 1.70493 323.993 2.35229C323.826 2.87175 323.346 3.20009 322.827 3.20009C322.705 3.20009 322.577 3.18049 322.454 3.14128ZM316.726 1.22517C316.726 0.548894 317.275 3.2563e-05 317.951 3.2563e-05C318.627 -0.00486798 319.176 0.543988 319.176 1.22026C319.181 1.89654 318.632 2.4454 317.956 2.4503C317.956 2.4503 317.956 2.4503 317.951 2.4503C317.28 2.4503 316.731 1.90144 316.726 1.22517Z" fill="#FF7B00"/>
<path d="M67.7945 32.7749C67.7896 32.0986 68.3384 31.5497 69.0147 31.5497C69.691 31.5497 70.2398 32.0937 70.2447 32.7749C70.2447 33.4462 69.6959 33.9951 69.0196 34C68.3433 34 67.7945 33.4511 67.7945 32.7749ZM63.7662 33.1762C63.1242 32.9655 62.7714 32.2794 62.9772 31.6331C63.188 30.9911 63.874 30.6382 64.5209 30.844C65.1629 31.0548 65.5157 31.7458 65.3099 32.3877C65.1433 32.9072 64.6581 33.235 64.1436 33.235C64.0161 33.235 63.8936 33.2159 63.7662 33.1762ZM72.7244 32.3828C72.5137 31.736 72.8665 31.045 73.5085 30.8343V30.8392C74.1505 30.6284 74.8464 30.9813 75.0522 31.6232C75.2629 32.2652 74.9101 32.9562 74.2681 33.1669C74.1407 33.2061 74.0133 33.2257 73.8907 33.2257C73.3713 33.2257 72.891 32.8974 72.7244 32.3828ZM59.0274 30.7656C58.4785 30.3687 58.356 29.6042 58.753 29.0554C59.1499 28.5065 59.9193 28.384 60.4681 28.7809C61.0121 29.1779 61.1346 29.9473 60.7377 30.4961C60.4975 30.825 60.1251 31.0009 59.7429 31.0009C59.4929 31.0009 59.243 30.9225 59.0274 30.7656ZM77.2917 30.4765C76.8948 29.9325 77.0124 29.1632 77.5613 28.7662C78.1052 28.3693 78.8746 28.4869 79.2716 29.0357C79.6685 29.5797 79.5509 30.3491 79.002 30.7461C78.7864 30.9078 78.5316 30.9813 78.2816 30.9813C77.9043 30.9813 77.5319 30.8048 77.2917 30.4765ZM55.2638 27.0118C54.8619 26.4679 54.9844 25.6985 55.5284 25.3015C56.0772 24.8997 56.8417 25.0222 57.2436 25.5662C57.6405 26.115 57.5229 26.8795 56.9741 27.2814C56.7584 27.4382 56.5036 27.5171 56.2537 27.5171C55.8763 27.5166 55.5039 27.3402 55.2638 27.0118ZM81.0456 27.2569C80.5016 26.8599 80.3791 26.0905 80.776 25.5466C81.1779 24.9977 81.9424 24.8752 82.4912 25.277C83.0352 25.674 83.1577 26.4385 82.7607 26.9873C82.5206 27.3157 82.1482 27.4921 81.7659 27.4921C81.516 27.4921 81.2661 27.4137 81.0456 27.2569ZM52.838 22.2828C52.6273 21.6359 52.9801 20.9449 53.6221 20.7342C54.2641 20.5235 54.955 20.8764 55.1658 21.5183C55.3765 22.1603 55.0285 22.8562 54.3817 23.0669C54.2591 23.1061 54.1317 23.1257 54.0043 23.1257C53.4898 23.1257 53.0095 22.7974 52.838 22.2828ZM83.633 23.0375C82.9862 22.8268 82.6333 22.1358 82.844 21.4938C83.0548 20.8519 83.7458 20.499 84.3877 20.7048C85.0297 20.9155 85.3825 21.6065 85.1767 22.2485C85.0052 22.768 84.5249 23.0963 84.0104 23.0963C83.883 23.0963 83.7556 23.0767 83.633 23.0375ZM52 17.0343C52 16.358 52.5489 15.8043 53.2251 15.8043C53.9014 15.8043 54.4503 16.3483 54.4503 17.0245C54.4552 17.7057 53.9063 18.2545 53.23 18.2545C53.2251 18.2545 53.2251 18.2545 53.2251 18.2545C52.5489 18.2545 52 17.7057 52 17.0343ZM83.5546 17C83.5546 16.9902 83.5546 16.9755 83.5546 16.9657C83.5546 16.9559 83.5546 16.951 83.5546 16.9412C83.5497 16.2649 84.0937 15.7112 84.77 15.7112C85.4511 15.7063 86 16.2551 86 16.9314C86 16.9412 86 16.9559 86 16.9657C86 16.9755 86 16.9902 86 17C86 17.6763 85.456 18.2251 84.7749 18.2251C84.0986 18.2251 83.5546 17.6763 83.5546 17ZM53.6074 13.3197C52.9654 13.1139 52.6077 12.4229 52.8184 11.7809C53.0242 11.1341 53.7152 10.7812 54.3572 10.9871C55.004 11.1978 55.3569 11.8838 55.151 12.5307C54.9844 13.0502 54.4993 13.3785 53.9847 13.3785C53.8573 13.3785 53.7348 13.3638 53.6074 13.3197ZM82.8245 12.4474C82.6137 11.8054 82.9666 11.1145 83.6085 10.9037C84.2505 10.6881 84.9415 11.041 85.1571 11.6829C85.3678 12.3249 85.015 13.0159 84.373 13.2315C84.2456 13.2707 84.1182 13.2903 83.9908 13.2903C83.4762 13.2903 82.996 12.962 82.8245 12.4474ZM55.499 8.74751C54.9501 8.35056 54.8276 7.58608 55.2246 7.03722C55.6215 6.48836 56.386 6.36585 56.9348 6.76279C57.4837 7.15974 57.6062 7.92422 57.2093 8.47308C56.9691 8.80632 56.5967 8.97782 56.2145 8.97782C55.9645 8.97782 55.7146 8.90433 55.499 8.74751ZM80.7466 8.40446C80.3448 7.8556 80.4624 7.09112 81.0063 6.69418C81.5552 6.29233 82.3197 6.40993 82.7215 6.95389C83.1185 7.49785 83.0009 8.26724 82.4569 8.66908C82.2364 8.8259 81.9865 8.90433 81.7316 8.90433C81.3543 8.90433 80.9867 8.7328 80.7466 8.40446ZM58.7088 4.98388C58.307 4.43502 58.4246 3.67053 58.9735 3.26869C59.5174 2.87174 60.2819 2.98936 60.6838 3.53332C61.0856 4.08218 60.968 4.84667 60.4191 5.24851C60.2035 5.40533 59.9487 5.48373 59.6988 5.48373C59.3165 5.48373 58.949 5.30731 58.7088 4.98388ZM77.5123 5.19461C76.9683 4.80257 76.8409 4.03317 77.2378 3.48431C77.6348 2.93545 78.3993 2.81294 78.9481 3.20988C79.497 3.60683 79.6195 4.37132 79.2225 4.92018C78.9873 5.25342 78.61 5.42983 78.2326 5.42983C77.9827 5.42983 77.7328 5.35143 77.5123 5.19461ZM62.9184 2.3866C62.7077 1.74462 63.0605 1.04874 63.7025 0.838021C63.7025 0.838021 63.7025 0.838026 63.7025 0.842927C64.3445 0.627303 65.0355 0.98014 65.2511 1.62211C65.4618 2.26408 65.109 2.95996 64.467 3.17069C64.3396 3.20989 64.2122 3.22949 64.0847 3.22949C63.5702 3.22949 63.0899 2.90115 62.9184 2.3866ZM73.4546 3.14128C72.8126 2.93546 72.4549 2.24448 72.6656 1.60251C72.8714 0.955633 73.5624 0.602797 74.2044 0.808619C74.8513 1.01444 75.2041 1.70494 74.9983 2.3474C74.8317 2.87176 74.3465 3.20009 73.8319 3.20009C73.7045 3.20009 73.582 3.18049 73.4546 3.14128ZM67.7308 1.22517C67.7259 0.548894 68.2747 3.2563e-05 68.951 3.2563e-05C69.6273 -0.00486798 70.1761 0.543988 70.181 1.22026C70.181 1.89654 69.6371 2.4454 68.9608 2.4503C68.9559 2.4503 68.9559 2.4503 68.9559 2.4503C68.2796 2.4503 67.7308 1.90144 67.7308 1.22517Z" fill="#FF7B00"/>
<path d="M193 33C201.837 33 209 25.8366 209 17C209 8.16345 201.837 1 193 1C184.163 1 177 8.16345 177 17C177 25.8366 184.163 33 193 33Z" fill="#FFD7B3"/>
<path opacity="0.7" d="M124 241C124 239.343 158.474 238 201 238C243.526 238 278 239.343 278 241C278 242.657 243.526 244 201 244C158.474 244 124 242.657 124 241Z" fill="url(#paint0_linear_8404_562)"/>
<path opacity="0.7" d="M0 241C0 239.343 25.072 238 56 238C86.928 238 112 239.343 112 241C112 242.657 86.928 244 56 244C25.072 244 0 242.657 0 241Z" fill="url(#paint1_linear_8404_562)"/>
<path opacity="0.7" d="M291 241C291 239.343 316.072 238 347 238C377.928 238 403 239.343 403 241C403 242.657 377.928 244 347 244C316.072 244 291 242.657 291 241Z" fill="url(#paint2_linear_8404_562)"/>
<path d="M286.604 145.768C287.136 145.591 286.907 145.651 287.533 145.441L288.896 143.788C288.945 143.728 289.001 143.674 289.063 143.625L291.13 142.019L290.024 140.595L288.172 142.035C288.046 142.132 287.876 142.15 287.732 142.08L286.084 141.272C285.862 141.164 285.616 141.114 285.37 141.126L282.29 141.29L282.29 141.311C282.318 141.777 282.705 142.14 283.171 142.138L284.827 142.131C284.858 142.131 284.886 142.151 284.896 142.18C284.907 142.21 284.897 142.242 284.872 142.262L283.27 143.507L286.082 145.504L286.604 145.768Z" fill="url(#paint3_linear_8404_562)"/>
<path d="M284.352 144.004C284.58 143.831 284.624 143.507 284.452 143.28C284.279 143.053 283.94 142.988 283.713 143.161L282.001 144.485C281.777 144.659 281.734 144.98 281.905 145.206L281.908 145.21C282.08 145.437 282.404 145.482 282.632 145.309L284.352 144.004Z" fill="#FFD6B2"/>
<path d="M285.347 144.534C285.575 144.361 285.619 144.037 285.447 143.81C285.275 143.583 284.951 143.538 284.724 143.71L283.003 145.016C282.776 145.188 282.732 145.512 282.904 145.74C283.076 145.967 283.4 146.012 283.627 145.84L285.347 144.534Z" fill="#FFD6B2"/>
<path d="M286.34 145.063C286.567 144.891 286.611 144.567 286.439 144.339C286.267 144.112 285.943 144.067 285.716 144.24L283.996 145.545C283.768 145.718 283.724 146.042 283.896 146.269C284.068 146.496 284.392 146.541 284.62 146.369L286.34 145.063Z" fill="#FFD6B2"/>
<path d="M287.342 145.595C287.567 145.421 287.609 145.099 287.438 144.873L287.435 144.87C287.263 144.642 286.939 144.598 286.712 144.77L284.991 146.075C284.764 146.248 284.72 146.572 284.892 146.799C285.064 147.027 285.403 147.091 285.631 146.919L287.342 145.595Z" fill="#FFD6B2"/>
<path d="M309.374 107.159L307.988 122.745L288.098 141.738L289.672 143.563L312.082 128.023C313.257 127.209 314.135 126.033 314.583 124.675L322.756 99.8953L310.196 95.2979C308.095 98.8622 308.688 103.974 309.374 107.159Z" fill="#243066"/>
<path opacity="0.5" d="M301.927 135.064L305.453 130.231L306.312 125.072L309.923 129.52L301.927 135.064Z" fill="#1A254D"/>
<path d="M315.762 83.1904C315.762 83.1904 307.662 87.3664 305.698 102.105C304.672 109.806 309.423 134.02 309.423 134.02L315.762 83.1904Z" fill="#243066"/>
<path d="M325 143.567C325 143.567 336.498 138.473 342.918 144.441L333.013 125.237L325 143.567Z" fill="#838DC6"/>
<path d="M306.838 116.518C307.254 114.34 307.362 112.072 307.145 109.866L307.072 109.118C305.593 94.357 315.064 83.668 315.064 83.668L319.357 83.2175L323.756 79.9141L329.654 83.3555C333.84 85.7982 336.348 90.3432 336.186 95.1897L335.577 113.357L329.946 135.905H309.698V135.904C305.34 128.817 306.036 120.716 306.838 116.518Z" fill="url(#paint4_linear_8404_562)"/>
<path d="M16.726 83.0492L16.7957 83.0296C17.1069 82.9411 17.4408 82.9893 17.7142 83.1622L17.7363 83.1765C17.7363 83.0821 17.7962 82.9903 17.9042 82.9765L17.9656 82.9687C18.2395 82.9338 18.5154 83.0168 18.724 83.1981L18.7461 83.2172C18.7741 83.1691 18.8222 83.1322 18.8865 83.1298L18.9405 83.1283C19.1805 83.1204 19.4132 83.2153 19.5797 83.3882L20.9984 84.8685L21.857 85.738C22.3749 86.0372 22.9959 86.1055 23.5649 85.9144L23.8806 85.8083C24.1314 85.7238 24.3076 85.4968 24.3268 85.2325L24.3401 85.0424C24.37 84.6292 24.5698 83.5056 24.7863 83.1519L24.8388 83.0669C24.9871 82.8247 25.3023 82.7461 25.5467 82.891C25.7181 82.9927 25.7451 83.1126 25.7608 83.3111C25.7608 83.3111 25.5148 85.794 25.6508 86.1502L25.778 86.4828C25.9346 86.8926 26.02 87.3259 26.0313 87.7641L26.4245 88.8106L28.123 90.5822L26.7686 91.6527L24.4093 89.1746C24.2762 89.0513 24.1093 88.9697 23.9301 88.9408C23.8133 88.9216 23.7024 88.8769 23.6052 88.8096L21.7539 87.5273L21.7392 87.548L21.615 87.431L21.3406 87.2409L20.6985 86.9614C20.6003 86.9186 20.5144 86.8528 20.4476 86.7698L19.9189 86.1119L18.5468 84.896C18.4918 84.8473 18.4344 84.8002 18.3754 84.756L16.6499 83.4614C16.4947 83.345 16.5399 83.1018 16.726 83.0492Z" fill="#FFD6B2"/>
<path d="M38.6421 97.2373C41.8968 92.2021 47.7647 89.5005 50.967 84.4938C54.3661 79.179 52.8452 72.3039 55.8692 66.8388C56.4127 65.8572 57.0946 64.6781 57.9414 63.9062L62.4342 67.4578C62.3852 70.6345 62.0945 73.4274 61.6242 75.8922C65.5785 85.3668 59.7695 101.93 59.7695 101.93C57.8452 105.902 52.3371 112.648 47.4191 112.592C40.5999 112.514 34.9484 102.953 38.6421 97.2373Z" fill="#32062F"/>
<path d="M69.3239 84.4197C68.94 83.668 68.2144 83.1512 67.3794 83.0338C66.5443 82.9169 65.7044 83.2146 65.129 83.8312L44.732 105.694L26.7901 88.9258L25.2094 90.3412L42.5475 112.956C43.3241 113.969 44.7566 114.197 45.8086 113.476L66.8119 99.0793C67.7643 98.4264 68.5428 97.5426 69.0657 96.5123C70.2979 94.0859 71.8752 89.4152 69.3239 84.4197Z" fill="url(#paint5_linear_8404_562)"/>
<path opacity="0.5" d="M47.7388 112.152L50.6656 107.699L50.4163 105.576C50.0422 100.955 52.5375 99.8311 52.5375 99.8311L53.9935 103.744L54.4678 107.54L47.7388 112.152Z" fill="#445A79"/>
<path d="M79.4483 150.876L80.2715 180.782C90.3147 197.487 94.5007 213.966 98.671 232.12C98.7171 232.201 98.7441 232.242 98.7441 232.242L96.7839 236.231C96.7044 236.393 96.5841 236.532 96.4349 236.634L94.9926 237.62L94.5483 237.083L95.106 236.497C95.3779 236.21 95.564 235.853 95.643 235.466L96.1374 233.05C96.1757 232.863 96.1855 232.674 96.1727 232.487L73.168 184.817C72.2839 182.985 71.5524 181.083 70.981 179.132L62.7233 150.942L79.4483 150.876Z" fill="#FFD6B2"/>
<path d="M54.1996 238.168C52.5167 238.83 51.6974 238.831 50.7686 239.187C50.6866 239.219 50.639 239.304 50.6542 239.39C50.6542 239.39 50.6625 239.416 50.6763 239.452C50.7278 239.588 50.8579 239.678 51.0032 239.678H54.0562C55.5275 239.699 57.175 239.369 58.1112 237.944L58.5132 237.513L58.8736 239.678H59.8682V235.187L56.1004 237.735C55.741 237.978 55.3213 238.117 54.8878 238.137L54.1996 238.168Z" fill="#CB3D3C"/>
<path d="M95.1497 236.553C94.0364 237.917 93.3399 238.299 92.721 239.044C92.6663 239.109 92.6666 239.206 92.7211 239.275C92.7211 239.275 92.7407 239.294 92.7698 239.319C92.879 239.415 93.0328 239.433 93.1564 239.365L95.7528 237.944C97.0139 237.278 98.2566 236.221 98.3685 234.535L98.5038 233.971L99.8497 235.702L100.696 235.239L98.5391 231.299L96.5582 235.288C96.3693 235.669 96.0791 235.986 95.7199 236.205L95.1497 236.553Z" fill="#CB3D3C"/>
<path d="M53.2114 183.344C53.1117 182.15 53.1117 180.95 53.2114 179.756L56.6596 138.474H77.9814L62.1234 181.55C65.1416 201.181 60.3287 230.767 59.7764 234.041C59.7882 234.821 59.8692 235.186 59.8692 235.186L56.5933 238.188C56.4603 238.311 56.2978 238.396 56.1215 238.436L54.4195 238.829L54.2011 238.168L54.934 237.824C55.2914 237.657 55.5943 237.392 55.8088 237.061L57.148 234.99C57.3125 234.735 57.4141 234.45 57.4603 234.154L53.2114 183.344Z" fill="#FFD6B2"/>
<path opacity="0.6" d="M54.3537 166.09L68.4297 164.421L62.1612 181.448C61.496 176.962 63.3237 171.547 63.3237 171.547C57.8048 170.074 55.336 168.602 54.2295 167.578L54.3537 166.09Z" fill="#F0D0B4"/>
<path d="M52.9279 109.976L50.7748 128.737C50.7748 128.737 50.9289 136.009 56.1262 137.939C61.3236 139.87 54.2058 109.733 54.2058 109.733L52.9279 109.976Z" fill="url(#paint6_linear_8404_562)"/>
<path d="M52.5431 167.075C52.5431 167.075 54.4351 142.869 54.4351 130.516C54.4351 129.012 54.3968 127.49 54.3369 125.957C60.951 126.526 67.3442 124.406 71.1036 122.795C73.0928 124.688 82.4634 137.935 84.1639 160.103C85.107 164.926 87.4025 164.715 88.1933 165.337C88.8998 165.893 84.9788 167.089 84.6646 167.166C79.1978 168.503 73.3672 169.165 67.7448 169.239C65.0138 169.275 62.2593 169.154 59.5514 168.785C58.9339 168.701 52.497 167.67 52.5431 167.075Z" fill="#445A79"/>
<path d="M60.0281 83.4619L54.9275 89.1285C54.9275 89.1285 47.6713 98.4163 53.8274 112.236L62.5234 84.9274L60.0281 83.4619Z" fill="url(#paint7_linear_8404_562)"/>
<path d="M52.7451 104.223C51.3784 103.079 50.1163 100.911 50.0726 99.189C49.996 96.1976 53.2763 93.3196 54.6602 91.7966C56.667 89.5887 60.3901 84.3014 60.3901 84.3014H66.1206C66.1206 84.3014 71.4774 84.2956 71.4907 84.3014C75.3615 86.0947 77.065 85.4157 78.2717 91.3687C79.12 95.552 79.576 100.514 77.0311 103.939C74.8814 106.833 72.8171 109.886 71.7121 113.32C71.1986 114.915 70.6453 116.488 70.3812 118.148C70.2236 119.139 70.23 121.972 71.0906 122.784C71.094 122.788 71.0989 122.793 71.1024 122.797C67.3434 124.407 60.9503 126.528 54.3357 125.958C54.3357 116.895 54.3357 109.498 54.3357 106.58C54.3357 105.719 53.8688 104.923 53.1177 104.504C53.0956 104.492 53.0775 104.481 53.0647 104.471C52.9582 104.395 52.8512 104.312 52.7451 104.223Z" fill="url(#paint8_linear_8404_562)"/>
<path d="M63.1089 75.4678L66.6543 84.4608C66.6543 84.4608 59.325 91.3291 56.7266 98.7309C56.7266 98.7309 57.7261 91.3291 60.5248 86.5282L57.5262 79.1264L63.1089 75.4678Z" fill="#FFD6B2"/>
<path opacity="0.5" d="M61.5821 124.496C61.0617 122.984 60.6184 121.447 60.2134 119.931C59.7284 118.117 59.2934 116.289 58.8246 114.47C57.9724 111.167 57.7991 107.568 59.4849 104.412C60.5217 102.471 63.9021 101.136 64.0155 98.8218C64.099 97.1205 63.0636 95.1239 62.9905 93.3306C64.9144 92.8059 67.3636 92.155 69.2875 91.6303C68.1883 89.2298 67.3861 87.6961 66.5648 85.7402C70.4867 86.3288 76.4592 86.3175 77.983 90.1299C77.9909 90.1501 77.9982 90.1726 78.0061 90.1933C78.0984 90.5549 78.1872 90.943 78.2736 91.3689C79.1219 95.5523 79.578 100.514 77.0331 103.94C74.8834 106.833 73.2015 110.09 72.0969 113.523C71.5834 115.119 71.0376 116.726 70.773 118.386C70.6306 119.279 70.3085 121.471 70.876 122.491C70.8937 123.412 71.0675 124.309 71.4863 125.144C71.6576 125.485 71.8687 125.816 72.1269 126.135C73.6365 128.001 75.1735 129.683 76.6237 131.459C77.3777 132.988 78.1455 134.705 78.8937 136.606C75.4072 138.11 71.3964 137.892 68.4514 135.45C65.0244 132.608 63.0106 128.646 61.5821 124.496Z" fill="#445A79"/>
<path d="M71.2189 122.743C71.3902 123.084 71.6013 123.415 71.8596 123.734C74.5939 127.113 77.4182 129.886 79.6553 133.72C68.9209 139.34 64.1065 130.5 61.354 122.082C60.5278 119.555 59.9259 116.963 59.3049 114.38C58.3452 110.389 57.355 106.582 59.6824 102.848C60.8464 100.981 63.6363 98.7349 63.7492 96.4205C63.8326 94.7191 62.7973 92.7225 62.7241 90.9293C64.648 90.4051 67.0972 89.7537 69.0211 89.229C67.9214 86.8285 67.1198 85.2947 66.2985 83.3389C70.2204 83.9274 76.1928 83.9161 77.7166 87.7285C79.1157 91.2295 79.6651 97.1849 78.3534 101.034C76.7623 105.702 73.32 109.463 71.8124 114.258C70.9533 116.987 69.9214 120.155 71.2189 122.743Z" fill="#445A79"/>
<path opacity="0.5" d="M72.7398 100.897L76.458 93.2531C76.5395 93.5724 78.0672 92.3894 78.4712 92.4145C78.6901 93.6432 78.86 94.92 78.9189 96.191C78.9189 96.1944 78.9194 96.1974 78.9194 96.1974C78.9272 96.3757 78.9307 96.5506 78.9341 96.725C78.9361 96.8184 78.9395 96.9117 78.94 97.0046C78.941 97.1549 78.9375 97.3048 78.9351 97.4551C78.9331 97.5715 78.9321 97.688 78.9277 97.8044C78.9228 97.9429 78.9135 98.081 78.9052 98.2191C78.8973 98.3448 78.8894 98.4706 78.8786 98.5954C78.8674 98.7265 78.8531 98.8567 78.8384 98.9869C78.8315 99.0469 78.8232 99.1068 78.8158 99.1668C78.6995 99.8251 78.5488 100.455 78.3519 101.034C78.0608 101.889 77.7063 102.712 77.3141 103.518C77.2238 103.657 77.1359 103.798 77.0362 103.932L77.0353 103.934C77.0353 103.934 77.0338 103.936 77.0328 103.937L77.0318 103.939C76.7756 104.284 76.5321 104.628 76.296 104.973L76.2954 104.973C76.2238 105.078 76.155 105.185 76.0844 105.291L76.0834 105.293C75.9199 105.538 75.7599 105.781 75.6067 106.024L75.6062 106.025C75.5227 106.157 75.4413 106.291 75.3598 106.425L75.3593 106.425C75.2243 106.647 75.0927 106.867 74.9656 107.087L74.9646 107.088C74.8792 107.236 74.7942 107.383 74.7108 107.532L74.7103 107.532C74.5959 107.737 74.4869 107.94 74.3794 108.143C73.9847 108.885 73.619 109.642 73.2817 110.411C73.2577 110.466 73.2331 110.52 73.2101 110.575C73.1055 110.816 73.0034 111.058 72.9047 111.303C72.8944 111.328 72.8851 111.353 72.8753 111.378C72.6921 111.835 72.5213 112.297 72.3573 112.761C72.1575 113.25 71.971 113.747 71.8105 114.258C71.2803 115.945 70.6848 117.799 70.6126 119.581C70.6092 119.615 70.6053 119.646 70.6023 119.68C70.5827 119.888 70.567 120.105 70.5582 120.323C70.5532 120.432 70.5503 120.541 70.5493 120.651C70.5444 121.197 70.5891 121.735 70.7285 122.161C70.8119 122.416 70.9298 122.631 71.0913 122.784C71.1718 122.859 71.2773 122.954 71.401 123.063C71.5356 123.291 71.6828 123.516 71.8586 123.733C74.593 127.113 77.4172 129.886 79.6543 133.719C77.7147 134.729 75.9165 135.178 74.2557 135.193C72.8831 130.624 71.5007 127.238 70.5238 125.455C69.0638 122.792 68.3471 119.827 68.4418 116.791C68.6092 111.433 70.1266 106.117 70.1266 106.117L72.7398 100.897Z" fill="url(#paint9_linear_8404_562)"/>
<path d="M57.6482 79.424L61.0596 78.9941C61.0596 78.9941 60.7262 80.0278 58.8274 80.7279L59.1818 83.2094L57.6482 79.424Z" fill="#FFD6B2"/>
<path d="M72.5541 149.085C72.5541 149.085 71.3032 149.547 71.1383 149.675C70.6803 150.031 70.8064 149.97 70.3867 150.37C69.7387 150.988 69.4613 151.62 69.0784 152.417C69.0288 152.521 68.3249 154.011 68.3195 154.009C68.3195 154.009 68.9631 154.39 69.3715 153.707L70.0926 152.46L69.8487 155.277C69.8006 155.528 69.965 155.77 70.2159 155.818C70.4667 155.866 70.7088 155.702 70.7569 155.451L70.8281 155.078C70.807 155.312 70.9591 155.529 71.1947 155.574C71.4456 155.623 71.6881 155.458 71.7358 155.207L71.8069 154.834C71.7858 155.068 71.938 155.286 72.1736 155.331C72.4245 155.379 72.6665 155.214 72.7146 154.963L72.775 154.647L72.7863 154.647C72.7937 154.859 72.9365 155.046 73.1525 155.087C73.4034 155.135 73.642 154.97 73.6935 154.72C73.938 153.537 74.2698 152.927 74.4044 151.834C74.4912 151.128 74.4397 150.407 74.4569 149.696L75.2139 147.6L73.5953 147.178L73.1707 148.619C73.129 148.761 73.0273 148.876 72.8923 148.936L72.5541 149.085Z" fill="#FFD6B2"/>
<path d="M68.1 92.0943C67.3926 90.1808 68.0843 88.0319 69.774 86.8911L71.2645 85.8849C72.48 85.0645 74.0229 84.9009 75.3837 85.4477C76.744 85.9945 77.745 87.1805 78.0562 88.6145L84.9644 120.464C85.1544 121.339 85.0901 122.25 84.7798 123.09L75.2355 148.915L72.7176 148.041L78.9257 121.974L80.3424 122.385L78.9443 121.426L68.1 92.0943Z" fill="url(#paint10_linear_8404_562)"/>
<path d="M53.3933 72.5299C53.2952 72.4075 53.2583 72.242 53.2932 72.0818C53.328 71.9212 53.4306 71.7836 53.5715 71.7094L56.4184 70.2056C56.6795 70.0675 56.869 69.8111 56.9304 69.5124L56.9441 69.4446C57.1444 68.4684 57.731 67.614 58.5538 67.0997L60.733 65.7373C60.0006 66.547 60.0467 68.0483 60.2489 69.2721C60.4394 70.4257 61.2342 71.3434 62.3049 71.6436L62.3108 71.6456L62.459 73.5184L62.8724 73.1838C63.0982 73.001 63.3864 72.9332 63.6559 73.0001C63.9254 73.0664 64.1463 73.2599 64.2563 73.5257C64.4281 73.9409 64.3157 74.4366 63.9794 74.7446L62.9131 75.7208C62.9131 75.7208 62.3893 76.5079 61.058 78.9933C60.163 80.6637 54.761 80.4303 54.0428 78.8076C53.8705 78.4185 53.8553 77.9665 54.0001 77.5518C54.1675 77.0733 54.2961 76.7574 54.2961 76.7574L54.2529 75.9335C53.9854 76.0298 53.7026 75.8834 53.6206 75.6054C53.5509 75.3686 53.6501 75.1141 53.8455 74.9819C53.7055 74.9308 53.5897 74.8159 53.5426 74.6547C53.4606 74.3757 53.6113 74.0701 53.8793 73.9723C53.9711 73.9389 54.0625 73.9428 54.1493 73.962L54.1219 73.4373L53.3933 72.5299Z" fill="#FFD6B2"/>
<path d="M61.0587 78.9931C62.3901 76.5077 62.9139 75.7207 62.9139 75.7207L63.9802 74.7445C64.316 74.4364 64.4288 73.9407 64.257 73.5256C64.1471 73.2598 63.9262 73.0662 63.6567 72.9999C63.3871 72.9331 63.099 73.0009 62.8732 73.1836L62.4598 73.5182L62.3115 71.6454L62.3057 71.6434C61.5884 71.4425 61.0003 70.96 60.6297 70.3194C60.4505 69.7421 60.1564 68.3257 60.1535 68.1513C60.1432 67.5746 60.2296 67.0032 60.3312 66.4362C60.4259 66.1719 60.5565 65.9336 60.7342 65.7371L60.424 65.9312C60.425 65.9273 60.4255 65.9228 60.4264 65.9184C60.2261 66.054 60.0199 66.1823 59.8147 66.312L58.7431 66.9821C58.6802 67.0209 58.6164 67.0597 58.5536 67.099C58.5271 67.1157 58.5035 67.1363 58.4775 67.154C58.3916 67.211 58.3071 67.2705 58.2266 67.3353C58.18 67.3727 58.1368 67.4129 58.0921 67.4522C58.0337 67.5038 57.9773 67.5569 57.9223 67.6124C57.8771 67.6586 57.8329 67.7052 57.7902 67.7534C57.7402 67.8099 57.693 67.8689 57.6469 67.9288C57.6086 67.9784 57.5688 68.0266 57.533 68.0777C57.4584 68.1848 57.3886 68.2953 57.3253 68.4097C57.3229 68.4147 57.3189 68.4191 57.3165 68.424C57.044 68.2378 56.803 68.0138 56.5949 67.7652C56.6057 67.7514 56.6125 67.7372 56.6194 67.7224C55.7593 66.7251 55.4402 65.3127 55.9331 63.9921C56.5801 62.2411 58.4102 61.2664 60.181 61.6319C60.368 61.6698 60.5482 61.7223 60.7293 61.7906C61.2654 61.9901 61.718 62.3084 62.0931 62.6946C62.3174 62.613 62.5452 62.5428 62.775 62.4774C62.7931 62.472 62.8118 62.4676 62.8299 62.4627C62.9777 62.4219 63.1265 62.3831 63.2762 62.3492C63.3204 62.3394 63.3646 62.331 63.4087 62.3217C63.5369 62.2947 63.6655 62.2681 63.7951 62.246C63.856 62.2357 63.9173 62.2278 63.9787 62.2185C64.095 62.2008 64.2114 62.1831 64.3287 62.1699C64.3994 62.162 64.4706 62.1571 64.5413 62.1507C64.6512 62.1409 64.7612 62.1301 64.8717 62.1237C64.9473 62.1198 65.0234 62.1188 65.099 62.1168C65.2065 62.1134 65.3135 62.1085 65.421 62.1085C65.5015 62.1085 65.5825 62.1129 65.6635 62.1154C65.7666 62.1183 65.8692 62.1188 65.9723 62.1252C66.1554 62.136 66.339 62.1522 66.5226 62.1733C67.0474 62.2313 67.5746 62.3379 68.0921 62.4902C68.4833 62.6008 68.8726 62.7393 69.256 62.9083C69.3689 62.9589 69.4818 63.0095 69.5903 63.0635C69.6733 63.1009 69.7523 63.1436 69.8314 63.1854C70.0832 63.3156 70.3296 63.4536 70.5672 63.6045C70.5726 63.6079 70.5785 63.6108 70.5839 63.6143C70.6757 63.6727 70.7666 63.7346 70.8574 63.797C70.9227 63.8408 70.986 63.8869 71.0493 63.9331C71.0847 63.9587 71.12 63.9832 71.1563 64.0088C72.3439 64.8808 73.2854 66.0059 73.9447 67.269C73.9624 67.3004 73.9835 67.3324 74.0036 67.3751C74.2565 67.8153 74.4764 68.2707 74.581 68.7659C74.6487 68.9625 74.7076 69.1614 74.7597 69.3589C75.2152 71.1015 75.1858 72.9812 74.5903 74.7916C75.3075 77.0761 76.6418 79.2869 76.1136 81.6741C76.0601 81.9158 75.9756 82.1418 75.8716 82.3575C75.8053 82.4955 75.7321 82.6297 75.6492 82.7589C75.552 82.9097 75.4435 83.0536 75.3276 83.1942C75.3163 83.2074 75.3065 83.2217 75.2952 83.2349C75.2515 83.287 75.2054 83.3376 75.1597 83.3882C75.1381 83.4118 75.118 83.4364 75.0964 83.4599C75.065 83.4938 75.0321 83.5268 74.9997 83.5602C74.4027 84.1807 73.6831 84.7186 73.092 85.2787C71.5162 86.7712 74.4032 87.545 75.3924 88.5168C76.3551 89.462 77.1401 90.7168 77.1911 92.0949C77.2495 93.6724 76.0463 94.7518 76.4273 96.3755C76.4361 96.4133 76.4479 96.4516 76.4572 96.4895C77.3556 98.1736 77.6644 99.8887 78.2245 101.766C78.7478 103.526 80.4822 104.624 82.2986 104.347C82.9834 104.243 83.6962 104.256 84.4145 104.401C87.7026 105.065 89.8302 108.271 89.167 111.562C88.5725 114.509 86.5573 115.693 83.7615 116.055C80.2117 116.511 78.2275 114.623 74.9531 114.049C71.7052 113.48 68.4097 116.184 65.3896 114.11C64.3984 113.429 63.5064 112.628 62.6159 111.82C63.1667 113.741 63.7646 115.091 63.7646 115.091C58.7657 112.582 57.045 103.535 56.5143 99.4657C55.6646 92.9379 57.3032 86.9206 59.9915 81.2187C60.1432 80.893 60.8555 79.3729 61.0587 78.9931Z" fill="#32062F"/>
<path opacity="0.3" d="M62.718 94.3137C60.7406 91.1075 62.2836 86.285 65.3022 84.1513C67.8127 82.3773 70.0763 80.027 71.2472 77.1411C71.6787 76.078 72.229 74.8365 72.7297 73.5439C73.8333 67.8223 70.4578 63.5879 70.4578 63.5879L70.5589 63.6007C70.5614 63.6021 70.5638 63.6036 70.5638 63.6036C70.5716 63.6085 70.5775 63.6115 70.5829 63.6149C70.6747 63.6734 70.7656 63.7353 70.8564 63.7977C70.9217 63.8414 70.985 63.8881 71.0483 63.9338C71.0837 63.9593 71.119 63.9839 71.1553 64.0094C72.3429 64.8815 73.2844 66.0065 73.9437 67.2696C73.9614 67.3011 73.9825 67.333 74.0026 67.3757C74.2555 67.8159 74.4754 68.2714 74.58 68.7666C74.6477 68.9631 74.7066 69.1621 74.7587 69.3596C75.2142 71.1022 75.1848 72.9819 74.5893 74.7923C75.3065 77.0768 76.6408 79.2876 76.1126 81.6747C76.0591 81.9165 75.9746 82.1425 75.8706 82.3582C75.8043 82.4962 75.7312 82.6303 75.6482 82.7595C75.551 82.9103 75.4425 83.0543 75.3266 83.1948C75.3154 83.2081 75.3055 83.2223 75.2943 83.2356C75.2506 83.2876 75.2044 83.3383 75.1588 83.3889C75.1372 83.4124 75.117 83.437 75.0954 83.4606C75.064 83.4945 75.0311 83.5274 74.9987 83.5608C74.4018 84.1813 73.6821 84.7193 73.091 85.2794C71.5152 86.7719 74.4023 87.5457 75.3915 88.5175C76.3541 89.4627 77.1391 90.7174 77.1902 92.0955C77.2486 93.673 76.0453 94.7524 76.4263 96.3761C76.4351 96.4139 76.4469 96.4523 76.4563 96.4906C77.3546 98.1747 77.6634 99.8898 78.2235 101.767C78.7468 103.527 80.4813 104.625 82.2976 104.348C82.9825 104.244 83.6953 104.257 84.4135 104.402C87.7016 105.066 89.8292 108.272 89.166 111.563C88.5715 114.51 86.5563 115.694 83.7605 116.056C80.3531 116.494 78.3855 114.775 75.3374 114.128C75.7061 111.635 75.8568 108.973 74.6178 106.398C73.7906 104.68 72.2815 103.164 70.8927 101.9C68.2536 99.4944 64.6232 97.4024 62.718 94.3137Z" fill="#32062F"/>
<path d="M159.937 145.758C160.469 145.58 160.24 145.64 160.866 145.43L162.229 143.777C162.278 143.717 162.334 143.663 162.396 143.615L164.463 142.008L163.357 140.584L161.505 142.024C161.379 142.122 161.209 142.139 161.065 142.069L159.417 141.261C159.195 141.153 158.949 141.102 158.703 141.116L155.623 141.28L155.623 141.3C155.651 141.767 156.038 142.13 156.504 142.128L158.16 142.12C158.191 142.12 158.219 142.14 158.229 142.169C158.24 142.199 158.23 142.232 158.205 142.251L156.603 143.496L159.415 145.493L159.937 145.758Z" fill="url(#paint11_linear_8404_562)"/>
<path d="M157.685 143.993C157.912 143.821 157.957 143.497 157.785 143.269C157.612 143.042 157.273 142.977 157.046 143.15L155.334 144.474C155.11 144.648 155.068 144.97 155.238 145.196L155.241 145.2C155.414 145.427 155.738 145.472 155.964 145.299L157.685 143.993Z" fill="#FFD6B2"/>
<path d="M158.68 144.524C158.908 144.351 158.952 144.027 158.78 143.8C158.608 143.573 158.284 143.529 158.056 143.7L156.336 145.006C156.109 145.178 156.065 145.503 156.236 145.729C156.409 145.957 156.733 146.002 156.96 145.829L158.68 144.524Z" fill="#FFD6B2"/>
<path d="M159.673 145.054C159.901 144.881 159.945 144.557 159.773 144.329C159.601 144.102 159.277 144.058 159.049 144.23L157.329 145.535C157.102 145.708 157.058 146.032 157.23 146.26C157.402 146.487 157.726 146.532 157.954 146.359L159.673 145.054Z" fill="#FFD6B2"/>
<path d="M160.676 145.584C160.899 145.411 160.942 145.089 160.771 144.864L160.768 144.86C160.596 144.632 160.272 144.588 160.045 144.76L158.325 146.065C158.097 146.238 158.053 146.562 158.225 146.79C158.397 147.017 158.736 147.081 158.964 146.909L160.676 145.584Z" fill="#FFD6B2"/>
<path d="M182.705 107.148L181.32 122.735L161.43 141.727L163.004 143.552L185.414 128.012C186.589 127.198 187.467 126.022 187.915 124.664L196.088 99.8846L183.528 95.2871C181.426 98.8514 182.019 103.963 182.705 107.148Z" fill="#002842"/>
<path opacity="0.5" d="M175.258 135.054L180.408 129.784L180.822 123.314L183.254 129.51L175.258 135.054Z" fill="#002842"/>
<path d="M223.264 141.372L223.237 144.118C223.234 144.419 223.127 144.709 222.935 144.94L222.681 145.244C222.464 145.504 222.32 145.816 222.261 146.149L221.778 148.898C221.731 149.168 221.909 149.444 222.174 149.513C222.438 149.582 222.713 149.422 222.785 149.158L223.091 147.72L223.41 150.146C223.443 150.388 223.638 150.583 223.89 150.591C224.17 150.6 224.407 150.377 224.416 150.097L224.287 149.384C224.439 149.974 224.668 150.018 224.913 150.008C225.167 149.999 225.382 149.815 225.39 149.56L225.429 149.132C225.429 149.348 225.605 149.525 225.821 149.524C226.036 149.524 226.212 149.348 226.213 149.132V148.777C226.255 148.931 226.388 149.048 226.556 149.053C226.761 149.06 226.934 148.897 226.941 148.691L227.062 146.44C227.071 146.279 226.992 146.045 226.887 145.922L225.178 143.909V141.371L223.264 141.372Z" fill="#FFD6B2"/>
<path d="M188.278 82.9777V75.2993L195.989 71.708L197.382 79.4621C197.382 79.4621 195.59 83.8871 188.278 82.9777Z" fill="#FFD6B2"/>
<path d="M186.933 105.822L185.98 103.907L188.744 91.1933L193.58 86.333L186.933 105.822Z" fill="#223166"/>
<path d="M198.332 143.567C198.332 143.567 209.83 138.473 216.25 144.441L206.345 125.237L198.332 143.567Z" fill="#476477"/>
<path d="M197.138 148.914L195.279 158.225L195.094 159.16L188.917 190.103C190.44 195.258 190.417 202.59 189.838 210.609C189.82 210.87 189.801 211.131 189.78 211.392C189.152 219.652 187.972 228.58 187.307 236.572C187.313 238.555 187.313 238.099 187.32 241.094H185.712L185.704 240.039C185.704 240.039 184.471 241.085 182.956 241.094H176.613C176.613 241.094 176.463 239.698 179.083 239.542C179.083 239.542 181.651 239.526 183.305 238.733C183.546 238.617 183.779 238.344 183.967 238.073C183.971 238.069 183.973 238.065 183.979 238.059C183.979 238.059 183.981 238.055 183.985 238.049C184.168 237.774 184.356 236.58 184.356 236.58L181.272 191.649L181.167 190.125L181.193 189.377L183.03 135.906H203.277C203.277 135.906 204.929 142.118 197.138 148.914Z" fill="#002842"/>
<path d="M189.121 82.8633C189.121 82.8633 179.69 87.4804 178.387 102.052C177.695 109.789 182.756 134.02 182.756 134.02L189.121 82.8633Z" fill="#002842"/>
<path d="M188.395 83.668C188.395 83.668 178.924 94.357 180.404 109.118L183.03 135.905H203.277L208.908 113.357L209.517 95.1897C209.679 90.3432 207.171 85.7982 202.985 83.3555L197.088 79.9141L192.689 83.2175L188.395 83.668Z" fill="url(#paint12_linear_8404_562)"/>
<path d="M187.624 84.7115L188.133 87.3212L190.35 85.334L188.76 83.6611L187.624 84.7115Z" fill="#CB3D3C"/>
<path opacity="0.5" d="M192.656 171.401L183.029 135.906L189.773 174.17L188.916 190.104L192.656 171.401Z" fill="#223166"/>
<path opacity="0.5" d="M206.963 121.626L192.723 92.0117C192.723 92.0117 189.655 110.972 198.858 122.581L201.593 127.305L200.703 135.907H203.278L206.963 121.626Z" fill="#DEF2F9"/>
<path d="M198.211 79.9316C198.211 79.9316 185.254 94.3623 197.85 116.365L217.458 147.449C217.458 147.449 225.394 139.158 208.931 117.559L213.079 99.0954C213.673 96.4532 213.439 93.6922 212.41 91.1876L212.354 91.051C211.212 88.2713 209.155 85.9652 206.525 84.5149L198.211 79.9316Z" fill="#002842"/>
<path opacity="0.4" d="M208.938 117.527L208.931 117.558C209.159 117.857 209.38 118.151 209.599 118.445L205.487 119.701L208.938 117.527Z" fill="#B0C6DD"/>
<path d="M188.745 85.9923C187.969 90.074 187.652 94.2602 187.741 98.4126C187.849 103.424 188.568 108.55 190.533 113.194C191.506 115.492 192.793 117.653 194.45 119.524C196.055 121.336 198.022 122.819 200.19 123.891C201.584 124.581 203.047 125.096 204.55 125.489C205.87 125.834 208.561 126.206 208.561 126.206L210.798 131.354L206.928 134.752C206.928 134.752 202.82 133.53 200.881 132.609C198.687 131.567 196.605 130.318 194.727 128.768C192.867 127.235 191.219 125.433 189.871 123.433C188.466 121.349 187.409 119.084 186.594 116.711C185.771 114.312 185.305 111.776 185.053 109.257C184.799 106.717 184.786 104.157 184.952 101.611C185.242 97.1677 186.053 92.7461 187.286 88.4689C187.492 87.7561 187.705 87.0432 187.948 86.3421C188.002 86.1864 188.055 86.0311 188.109 85.8754C188.133 85.8076 188.125 85.814 188.194 85.8336C188.377 85.8872 188.561 85.9398 188.745 85.9923Z" fill="#CB3D3C"/>
<path d="M211.293 241.11L209.687 241.114L209.679 239.973C209.679 239.973 208.446 241.104 206.928 241.114H200.586C200.586 241.114 200.437 239.633 203.055 239.479C203.055 239.479 205.626 239.461 207.28 238.668C207.521 238.552 207.754 238.28 207.942 238.01C207.943 238.006 207.947 238 207.951 237.996C207.951 237.996 207.955 237.99 207.957 237.984C208.143 237.709 208.42 237.088 208.347 236.647L197.568 193.809L197.051 191.754L196.873 191.046L183.03 135.906H203.277C203.277 135.906 208.075 141.074 203.597 148.239C204.129 152.51 203.939 157.887 204.255 161.877C204.272 162.091 204.288 162.304 204.304 162.518C204.972 171.225 205.164 179.842 205.016 190.659C206.786 194.305 208.017 200.771 208.918 208.034C208.943 208.248 208.971 208.461 208.997 208.675C210.149 218.232 210.753 229.058 211.281 236.639C211.287 238.623 211.285 238.114 211.293 241.11Z" fill="#002842"/>
<path d="M188.85 83.7316L191.778 78.8398L188.279 78.859V83.8481C188.477 83.8102 188.662 83.7704 188.85 83.7316Z" fill="#FFD6B2"/>
<path d="M194.891 65.7375C191.955 64.5166 187.586 63.1135 185.769 64.6414L185.189 65.906L184.278 67.8962C184.278 67.8962 184.533 68.3654 184.561 68.8999C184.577 69.1976 184.259 69.5322 183.973 69.77C183.628 70.0579 183.307 70.3914 183.034 70.7481L181.564 72.6622C181.384 72.897 181.427 73.2336 181.661 73.4149C181.665 73.4183 181.668 73.4203 181.668 73.4203L183.163 73.4827L183.247 74.6264C182.993 74.6298 182.775 74.818 182.743 75.0774C182.718 75.2817 182.817 75.4724 182.98 75.5755C182.914 75.6507 182.868 75.746 182.855 75.8536C182.821 76.1366 183.021 76.3935 183.304 76.4284C183.334 76.4319 183.363 76.4319 183.392 76.4304L183.461 77.2656L183.09 80.3076L184.062 81.4755L191.776 78.8392L192.422 74.7507L196.407 73.8801L197.776 67.0728C197.776 67.0728 196.568 66.4346 194.891 65.7375Z" fill="#FFD6B2"/>
<path d="M197.901 71.1613L196.408 73.8805L192.423 74.7511L191.777 78.8396L184.063 81.4759L183.091 80.3076L183.462 77.2655L186.82 79.0248L189.825 75.9282L191.222 73.2148L191.73 69.0197L190.518 68.0371L190.987 64.8865C190.987 64.8865 187.422 65.8769 185.19 65.9064C185.135 65.9069 185.08 65.9074 185.026 65.9069C182.803 65.8951 182.257 63.6357 182.652 61.9677C182.976 60.6029 184.092 59.2789 185.934 60.2035C187.76 61.1198 197.345 59.1237 199.68 61.222C202.015 63.3212 200.05 64.83 200.05 64.83C200.05 64.83 200.638 66.153 200.599 67.7419C200.561 69.3317 197.901 71.1613 197.901 71.1613Z" fill="#4A3649"/>
<path d="M197.901 71.1609L196.409 73.8802L192.423 74.7508L191.777 78.8393L184.063 81.4756L183.091 80.3073L183.463 77.2652L186.82 79.0245L189.825 75.9279L191.223 73.2145L191.73 69.0194L190.519 68.0368L190.533 67.9336L194.338 66.224L192.533 63.9925L195.377 65.658L193.039 63.3858C195.992 64.5777 198.273 64.3664 198.926 64.2681C197.259 64.4887 194.153 63.0026 194.153 63.0026C196.569 62.8542 198.454 62.1684 199.856 61.3867C201.913 63.399 200.05 64.8297 200.05 64.8297C200.05 64.8297 200.638 66.1527 200.599 67.7416C200.562 69.3314 197.901 71.1609 197.901 71.1609Z" fill="#32062F"/>
<path d="M191.604 69.0246C191.604 69.0246 192.351 68.4297 193.024 68.9819C193.372 69.2673 193.518 69.7311 193.398 70.1644C193.137 71.1033 192.442 73.0223 191.201 72.5639L191.604 69.0246Z" fill="#FFD6B2"/>
<path d="M193.221 87.1073C196.636 82.3403 196.896 82.1413 198.211 79.9315L197.241 78.917C194.579 80.9106 192.933 82.0819 188.277 82.977L185.311 85.3141C187.057 85.4688 187.623 84.7113 187.623 84.7113L188.758 83.6604C189.355 84.6735 190.707 86.4711 193.221 87.1073Z" fill="white"/>
<path opacity="0.5" d="M200.048 92.7949L212.04 103.719L209.398 115.477L209.331 106.894L200.048 92.7949Z" fill="#002842"/>
<path d="M200.233 87.1498C198.385 89.1641 198.44 92.2739 200.357 94.2214L222.839 117.065V143.551H225.491L228.055 116.178C228.173 114.918 227.852 113.657 227.146 112.607L210.498 87.8553C209.383 86.1976 207.571 85.1428 205.58 84.993C203.59 84.8432 201.64 85.615 200.29 87.0869L200.233 87.1498Z" fill="#002842"/>
<path d="M198.623 80.5742C198.623 80.5742 184.32 97.9654 203.194 123.315C203.194 123.315 192.707 101.554 200.36 90.1239L197.402 88.1194L202.777 88.228L198.623 80.5742Z" fill="#335368"/>
<path d="M350.065 140.425L351.142 143.658C351.305 144.148 351.142 144.688 350.735 145.005C350.468 145.212 350.26 145.486 350.132 145.799L349.075 148.382C348.972 148.636 349.087 148.944 349.332 149.068C349.576 149.191 349.878 149.093 350.004 148.85L350.61 147.51L350.405 149.949C350.386 150.193 350.535 150.424 350.779 150.486C351.051 150.554 351.33 150.387 351.398 150.115L351.424 149.39C351.446 150 351.661 150.091 351.902 150.135C352.152 150.179 352.402 150.045 352.464 149.799L352.593 149.389C352.547 149.6 352.682 149.809 352.893 149.855C353.103 149.901 353.313 149.766 353.358 149.555L353.434 149.208C353.443 149.367 353.548 149.511 353.71 149.551C353.91 149.602 354.113 149.479 354.164 149.28L354.76 147.106C354.803 146.95 354.776 146.705 354.7 146.562L353.458 144.231L351.968 139.873L350.065 140.425Z" fill="#FFD6B2"/>
<path d="M314.946 82.9772L313.921 76.0663L322.657 71.707L324.05 79.4611C324.05 79.4611 322.258 83.8866 314.946 82.9772Z" fill="#FFD6B2"/>
<path d="M323.806 148.914L321.947 158.225L321.761 159.16L315.585 190.103C317.108 195.258 317.084 202.59 316.506 210.609C316.488 210.87 316.468 211.131 316.448 211.392C315.82 219.652 314.64 228.58 313.974 236.572C313.98 238.555 313.98 238.099 313.988 241.094H312.38L312.372 240.039C312.372 240.039 311.139 241.085 309.623 241.094H303.281C303.281 241.094 303.131 239.698 305.751 239.542C305.751 239.542 308.319 239.526 309.973 238.733C310.214 238.617 310.447 238.344 310.635 238.073C310.639 238.069 310.641 238.065 310.646 238.059C310.646 238.059 310.648 238.055 310.652 238.049C310.836 237.774 311.024 236.58 311.024 236.58L307.94 191.649L307.835 190.125L307.86 189.377L309.698 135.906H329.945C329.946 135.906 331.597 142.118 323.806 148.914Z" fill="url(#paint13_linear_8404_562)"/>
<path d="M314.292 84.7115L314.801 87.3212L317.018 85.334L315.428 83.6611L314.292 84.7115Z" fill="#783477"/>
<path opacity="0.7" d="M319.324 171.401L309.697 135.906L316.441 174.17L315.584 190.104L319.324 171.401Z" fill="#223166"/>
<path opacity="0.8" d="M333.63 121.626L319.39 92.0117C319.39 92.0117 316.322 110.972 325.525 122.581L328.26 127.305L327.37 135.907H329.945L333.63 121.626Z" fill="#EBEBEB"/>
<path d="M324.878 79.9316C324.878 79.9316 311.921 94.3623 324.517 116.365L344.125 147.449C344.125 147.449 352.061 139.158 335.598 117.558C336.968 111.461 338.215 105.319 339.668 99.2447C340.658 95.1061 339.417 92.0139 337.876 88.2629C337.475 87.2872 336.753 86.4776 335.83 85.9686L324.878 79.9316Z" fill="#243066"/>
<path d="M337.962 241.11L336.356 241.114L336.348 239.973C336.348 239.973 335.115 241.104 333.597 241.114H327.255C327.255 241.114 327.106 239.633 329.724 239.479C329.724 239.479 332.295 239.461 333.949 238.668C334.19 238.552 334.423 238.28 334.61 238.01C334.612 238.006 334.616 238 334.62 237.996C334.62 237.996 334.624 237.99 334.626 237.984C334.812 237.709 335.089 237.088 335.015 236.647L324.237 193.809L323.72 191.754L323.542 191.046L309.699 135.906H329.945C329.945 135.906 334.743 141.074 330.265 148.239C330.797 152.51 330.607 157.887 330.923 161.877C330.941 162.091 330.957 162.304 330.973 162.518C331.64 171.225 331.832 179.842 331.684 190.659C333.454 194.305 334.686 200.771 335.586 208.034C335.612 208.248 335.64 208.461 335.665 208.675C336.818 218.232 337.422 229.058 337.95 236.639C337.956 238.623 337.954 238.114 337.962 241.11Z" fill="#243066"/>
<path d="M319.889 87.1073C323.304 82.3403 323.564 82.1413 324.879 79.9315L323.909 78.917C321.247 80.9106 319.601 82.0819 314.945 82.977L311.979 85.3141C313.725 85.4688 314.291 84.7113 314.291 84.7113L315.426 83.6604C316.023 84.6735 317.375 86.4711 319.889 87.1073Z" fill="white"/>
<path opacity="0.7" d="M325.29 80.5742C325.29 80.5742 310.987 97.9654 329.861 123.315C329.861 123.315 319.374 101.554 327.027 90.1239L324.069 88.1194L330.611 87.3663L325.29 80.5742Z" fill="#838DC6"/>
<path opacity="0.5" d="M333.45 118.643L330.12 119.628L334.251 116.5L329.016 93.5078L338.648 103.655C337.607 108.283 336.638 112.934 335.598 117.559C337.865 120.533 339.667 123.253 341.093 125.735C337.918 122.058 334.355 119.316 333.45 118.643Z" fill="#002842"/>
<path d="M334.95 86.8368C336.775 87.1876 338.244 88.543 338.741 90.3353L353.303 142.866L350.902 143.701L328.833 93.4761C328.102 91.8111 328.353 89.8769 329.486 88.4546C330.619 87.0323 332.447 86.3563 334.232 86.6992L334.95 86.8368Z" fill="#243066"/>
<path d="M314.243 78.2395L318.503 75.248C318.503 75.248 318.994 78.605 315.558 80.3246L314.788 81.9129L314.243 78.2395Z" fill="#FFD6B2"/>
<path d="M306.706 72.7721C306.522 72.6302 306.475 72.3727 306.596 72.1747L308.373 69.2653C310.539 68.1619 309.582 66.265 309.582 66.265L310.584 64.2158C310.864 63.5427 311.228 62.9021 311.651 62.3091C312.283 61.4263 313.308 60.7606 314.35 60.456C315.391 60.1514 316.495 60.1361 317.578 60.2039C318.457 60.259 319.336 60.3675 320.179 60.6196C321.798 61.1035 323.251 62.1249 324.255 63.4843C325.26 64.8437 325.809 66.5337 325.797 68.2242C325.789 69.2982 325.546 70.3815 325.067 71.339C323.742 71.2187 322.356 71.6741 321.417 72.6248C321.128 72.9176 320.872 73.2565 320.514 73.4604C320.157 73.6643 319.623 73.7213 319.353 73.4103C319.566 73.6555 318.336 75.7253 317.412 77.1982C316.763 78.2343 315.686 78.9324 314.475 79.0995C312.909 79.3156 310.915 79.3078 310.472 77.9906L310.401 77.7794C310.19 77.1535 310.172 76.4814 310.158 75.8211C310.154 75.6393 310.149 75.4673 310.145 75.2969C310.085 75.3136 310.024 75.3273 309.958 75.3239C309.636 75.3052 309.39 75.0291 309.408 74.7073C309.418 74.5432 309.495 74.3998 309.611 74.3C309.336 74.2391 309.135 73.9969 309.151 73.7071C309.165 73.4585 309.333 73.2585 309.557 73.1873C308.883 72.4218 307.693 72.7225 307.199 72.8935C307.055 72.9436 306.893 72.9176 306.772 72.8232L306.706 72.7721ZM310.118 74.1782C310.117 74.1792 310.115 74.1792 310.114 74.1802C310.115 74.1802 310.117 74.1807 310.118 74.1811C310.118 74.1802 310.118 74.1792 310.118 74.1782Z" fill="#FFD6B2"/>
<path d="M318.46 72.1271C318.898 72.0412 319.296 71.7665 319.532 71.3877C319.769 71.009 319.84 70.5304 319.726 70.0986C319.655 69.8323 319.504 69.5734 319.261 69.4427C319.032 69.3194 318.743 69.3297 318.511 69.4466C318.278 69.564 318.103 69.7797 318.011 70.0234C317.754 70.7078 318.287 71.4162 318.46 72.1271Z" fill="#FACAD4"/>
<path d="M325.889 67.3889C326.934 68.4344 327.002 70.1057 326.044 71.2308L323.177 74.6005L323.433 76.0346L317.789 74.9882C322.015 74.745 319.786 71.444 319.786 71.444C318.821 73.0657 317.326 72.8039 317.326 72.8039L318.238 73.2372C316.836 73.8882 316.333 73.445 316.333 73.445L317.91 69.529L317.954 69.4209C317.954 69.4209 317.114 69.6238 316.632 68.1882C316.149 66.7527 318.9 63.4414 318.9 63.4414L315.614 61.2438C315.614 61.2438 314.713 61.5357 312.66 60.8719C310.609 60.2121 310.136 57.708 310.136 57.708L321.906 60.5511L319.795 58.9136C319.795 58.9136 322.717 60.1458 325.61 61.8275C328.503 63.5126 325.882 67.3845 325.882 67.3845L325.889 67.3889Z" fill="#606060"/>
<path d="M316.725 69.9133C316.65 69.9045 316.586 69.845 316.576 69.766C316.565 69.6726 316.63 69.5876 316.724 69.5753L320.911 69.0413C321.003 69.03 321.089 69.0953 321.101 69.1887C321.113 69.282 321.047 69.367 320.954 69.3793L316.767 69.9133C316.753 69.9148 316.739 69.9148 316.725 69.9133Z" fill="#FFD6B2"/>
<path d="M316.357 69.1244C316.281 69.1156 316.218 69.0561 316.208 68.977C316.196 68.8837 316.262 68.7987 316.355 68.7864L320.542 68.2523C320.635 68.2406 320.72 68.3064 320.732 68.3998C320.744 68.4931 320.678 68.5781 320.585 68.5904L316.398 69.1244C316.384 69.1259 316.37 69.1259 316.357 69.1244Z" fill="#FFD6B2"/>
<path d="M315.773 68.2561C315.697 68.2473 315.634 68.1878 315.624 68.1087C315.612 68.0154 315.678 67.9304 315.771 67.9181L319.958 67.3841C320.05 67.3728 320.136 67.4381 320.148 67.5315C320.16 67.6248 320.094 67.7098 320.001 67.7221L315.814 68.2561C315.8 68.2581 315.786 68.2581 315.773 68.2561Z" fill="#FFD6B2"/>
<path d="M314.74 86.5479C314.74 86.5479 313.964 87.3771 313.39 88.7886C313.247 89.1414 313.088 89.5324 312.916 89.9579C312.74 90.3814 312.605 90.8746 312.43 91.3841C312.262 91.899 312.082 92.4468 311.894 93.0245C311.8 93.3144 311.702 93.6116 311.603 93.9162C311.526 94.2243 311.448 94.5397 311.367 94.8615C311.066 96.154 310.64 97.5424 310.431 99.0595C310.303 99.8156 310.171 100.592 310.036 101.387C309.943 102.186 309.881 103.008 309.8 103.844C309.761 104.263 309.723 104.685 309.684 105.111C309.636 105.537 309.66 105.967 309.645 106.399C309.634 107.268 309.622 108.146 309.611 109.031C309.625 109.917 309.713 110.806 309.763 111.704L309.852 113.054C309.882 113.506 309.97 113.948 310.027 114.396C310.156 115.292 310.285 116.188 310.414 117.081C310.549 117.936 310.707 118.787 310.851 119.632C311.144 121.321 311.433 122.983 311.713 124.592C312.272 127.81 312.794 130.813 313.241 133.387C314.123 138.546 314.711 141.985 314.711 141.985L318.667 144.603L321.29 140.441C321.29 140.441 320.351 137.093 318.943 132.071C318.231 129.558 317.401 126.626 316.51 123.486C316.066 121.915 315.606 120.292 315.138 118.643C314.908 117.817 314.663 116.99 314.439 116.15C314.236 115.342 314.031 114.532 313.827 113.721C313.732 113.313 313.604 112.91 313.535 112.498L313.324 111.263C313.193 110.439 313.022 109.618 312.922 108.797C312.847 107.972 312.773 107.153 312.699 106.344C312.671 105.938 312.604 105.535 312.608 105.133C312.603 104.731 312.598 104.333 312.593 103.937C312.588 103.144 312.564 102.362 312.572 101.596C312.622 100.832 312.67 100.084 312.718 99.3558C312.763 97.8888 313.034 96.5279 313.193 95.254C313.238 94.9361 313.282 94.6247 313.324 94.3201C313.389 94.0219 313.451 93.731 313.512 93.447C313.635 92.8771 313.751 92.3367 313.86 91.8287C313.977 91.3198 314.053 90.8408 314.184 90.3996C314.311 89.9584 314.429 89.5531 314.534 89.1875C314.957 87.724 315.199 86.8873 315.199 86.8873L314.74 86.5479Z" fill="url(#paint14_linear_8404_562)"/>
<path d="M314.836 85.4551C314.836 85.4551 314.454 86.2377 313.786 87.6069C313.619 87.9494 313.434 88.3281 313.232 88.7408C313.028 89.1515 312.859 89.634 312.65 90.1302C312.447 90.6323 312.231 91.1663 312.003 91.7298C311.889 92.0123 311.772 92.3027 311.652 92.5994C311.554 92.9016 311.454 93.2106 311.351 93.5265C310.963 94.7955 310.442 96.1514 310.13 97.6504C309.95 98.3962 309.765 99.1621 309.577 99.9447C309.429 100.736 309.311 101.551 309.173 102.38C309.106 102.795 309.039 103.214 308.971 103.636C308.894 104.057 308.889 104.488 308.844 104.919C308.774 105.784 308.702 106.659 308.63 107.542C308.584 108.427 308.611 109.32 308.599 110.219L308.595 111.572C308.594 112.025 308.652 112.472 308.677 112.923C308.745 113.826 308.813 114.728 308.881 115.628C308.957 116.49 309.056 117.35 309.141 118.203C309.318 119.908 309.493 121.586 309.662 123.21C309.999 126.459 310.314 129.49 310.584 132.089C311.111 137.296 311.462 140.767 311.462 140.767L315.4 144.328L318.131 139.679C318.131 139.679 317.423 136.274 316.362 131.168C315.824 128.612 315.196 125.63 314.523 122.435C314.187 120.837 313.839 119.187 313.486 117.51C313.312 116.67 313.125 115.828 312.959 114.975C312.811 114.156 312.663 113.333 312.514 112.51C312.447 112.097 312.347 111.686 312.307 111.27L312.181 110.023C312.107 109.192 311.992 108.361 311.949 107.536C311.931 106.707 311.912 105.885 311.894 105.073C311.894 104.666 311.855 104.259 311.887 103.859C311.91 103.458 311.932 103.059 311.954 102.664C312.003 101.874 312.032 101.091 312.093 100.328C312.195 99.5689 312.294 98.826 312.391 98.1029C312.536 96.6423 312.901 95.3035 313.146 94.0433C313.212 93.7289 313.278 93.4213 313.342 93.1207C313.426 92.8279 313.508 92.5415 313.588 92.2624C313.749 91.7023 313.902 91.1707 314.045 90.6716C314.197 90.1719 314.306 89.6993 314.467 89.268C314.624 88.8366 314.769 88.4407 314.9 88.0825C315.422 86.6514 315.721 85.8334 315.721 85.8334L314.836 85.4551Z" fill="#783477"/>
<path d="M193.689 24.2854C193.386 24.6943 192.931 24.9511 192.436 24.9937C191.941 25.0364 191.451 24.8598 191.088 24.5081L184.831 18.4546C183.776 17.4332 183.718 15.7171 184.702 14.6214C185.175 14.0952 185.829 13.7857 186.522 13.7606C187.215 13.7355 187.889 13.9969 188.396 14.4875L191.873 17.8526L204.316 1.05853C204.739 0.488147 205.363 0.114926 206.051 0.0226203C206.738 -0.0701868 207.434 0.124952 207.983 0.564406C209.124 1.47843 209.337 3.17956 208.458 4.36599L193.689 24.2854Z" fill="#FF7B00"/>
<defs>
<linearGradient id="paint0_linear_8404_562" x1="278" y1="241" x2="124" y2="241" gradientUnits="userSpaceOnUse">
<stop stop-color="white"/>
<stop offset="0.5" stop-color="#9FB6C6"/>
<stop offset="1" stop-color="white"/>
</linearGradient>
<linearGradient id="paint1_linear_8404_562" x1="112" y1="241" x2="-4.63196e-06" y2="241" gradientUnits="userSpaceOnUse">
<stop stop-color="white"/>
<stop offset="0.5" stop-color="#9FB6C6"/>
<stop offset="1" stop-color="white"/>
</linearGradient>
<linearGradient id="paint2_linear_8404_562" x1="403" y1="241" x2="291" y2="241" gradientUnits="userSpaceOnUse">
<stop stop-color="white"/>
<stop offset="0.5" stop-color="#9FB6C6"/>
<stop offset="1" stop-color="white"/>
</linearGradient>
<linearGradient id="paint3_linear_8404_562" x1="287.639" y1="140.799" x2="283.796" y2="144.409" gradientUnits="userSpaceOnUse">
<stop stop-color="#FFE9D5"/>
<stop offset="1" stop-color="#F0D0B4"/>
</linearGradient>
<linearGradient id="paint4_linear_8404_562" x1="321.217" y1="153.693" x2="321.217" y2="95.7181" gradientUnits="userSpaceOnUse">
<stop stop-color="#EBEBEB"/>
<stop offset="0.4512" stop-color="#F0F0F0"/>
<stop offset="0.9968" stop-color="white"/>
<stop offset="1" stop-color="white"/>
</linearGradient>
<linearGradient id="paint5_linear_8404_562" x1="64.9958" y1="101.655" x2="44.9283" y2="94.7137" gradientUnits="userSpaceOnUse">
<stop stop-color="#304868"/>
<stop offset="1" stop-color="#445A79"/>
</linearGradient>
<linearGradient id="paint6_linear_8404_562" x1="54.4002" y1="85.5277" x2="54.4002" y2="137.908" gradientUnits="userSpaceOnUse">
<stop stop-color="#445A79"/>
<stop offset="1" stop-color="#304868"/>
</linearGradient>
<linearGradient id="paint7_linear_8404_562" x1="56.9368" y1="85.5354" x2="56.9368" y2="138.103" gradientUnits="userSpaceOnUse">
<stop stop-color="#445A79"/>
<stop offset="1" stop-color="#304868"/>
</linearGradient>
<linearGradient id="paint8_linear_8404_562" x1="64.5064" y1="131.182" x2="64.5064" y2="98.1171" gradientUnits="userSpaceOnUse">
<stop offset="0.0062" stop-color="#DEF2F9"/>
<stop offset="0.1003" stop-color="#E9F6FB"/>
<stop offset="0.2724" stop-color="#F5FBFD"/>
<stop offset="0.5003" stop-color="#FDFEFF"/>
<stop offset="1" stop-color="white"/>
</linearGradient>
<linearGradient id="paint9_linear_8404_562" x1="74.0444" y1="93.2053" x2="74.0444" y2="135.719" gradientUnits="userSpaceOnUse">
<stop stop-color="#233166"/>
<stop offset="1" stop-color="white"/>
</linearGradient>
<linearGradient id="paint10_linear_8404_562" x1="76.4481" y1="137.038" x2="76.4481" y2="96.2472" gradientUnits="userSpaceOnUse">
<stop stop-color="#304868"/>
<stop offset="1" stop-color="#445A79"/>
</linearGradient>
<linearGradient id="paint11_linear_8404_562" x1="160.971" y1="140.789" x2="157.129" y2="144.398" gradientUnits="userSpaceOnUse">
<stop stop-color="#FFE9D5"/>
<stop offset="1" stop-color="#F0D0B4"/>
</linearGradient>
<linearGradient id="paint12_linear_8404_562" x1="198.635" y1="83.313" x2="184.322" y2="171.597" gradientUnits="userSpaceOnUse">
<stop stop-color="white"/>
<stop offset="0.2562" stop-color="#F2FAFD"/>
<stop offset="0.6633" stop-color="#E3F4FA"/>
<stop offset="1" stop-color="#DEF2F9"/>
</linearGradient>
<linearGradient id="paint13_linear_8404_562" x1="319.711" y1="138.336" x2="312.337" y2="191.885" gradientUnits="userSpaceOnUse">
<stop stop-color="#111A40"/>
<stop offset="0.3761" stop-color="#121C43"/>
<stop offset="0.6503" stop-color="#17214C"/>
<stop offset="0.8914" stop-color="#1F2A5C"/>
<stop offset="1" stop-color="#243066"/>
</linearGradient>
<linearGradient id="paint14_linear_8404_562" x1="315.451" y1="135.595" x2="315.451" y2="99.3497" gradientUnits="userSpaceOnUse">
<stop stop-color="white"/>
<stop offset="1" stop-color="#EBEBEB"/>
</linearGradient>
</defs>
</svg>
