<svg width="16" height="13" viewBox="0 0 16 13" fill="none" xmlns="http://www.w3.org/2000/svg">
<g clip-path="url(#clip0_8390_529)">
<path d="M13.2 11.4446H2.8C2.58 11.4446 2.4 11.6196 2.4 11.8334V12.6112C2.4 12.8251 2.58 13.0001 2.8 13.0001H13.2C13.42 13.0001 13.6 12.8251 13.6 12.6112V11.8334C13.6 11.6196 13.42 11.4446 13.2 11.4446ZM14.8 3.66678C14.1375 3.66678 13.6 4.18934 13.6 4.83344C13.6 5.00601 13.64 5.16643 13.71 5.31469L11.9 6.36955C11.515 6.59316 11.0175 6.46678 10.795 6.08761L8.7575 2.62164C9.025 2.40775 9.2 2.08691 9.2 1.72233C9.2 1.07823 8.6625 0.555664 8 0.555664C7.3375 0.555664 6.8 1.07823 6.8 1.72233C6.8 2.08691 6.975 2.40775 7.2425 2.62164L5.205 6.08761C4.9825 6.46678 4.4825 6.59316 4.1 6.36955L2.2925 5.31469C2.36 5.16886 2.4025 5.00601 2.4025 4.83344C2.4025 4.18934 1.865 3.66678 1.2025 3.66678C0.54 3.66678 0 4.18934 0 4.83344C0 5.47754 0.5375 6.00011 1.2 6.00011C1.265 6.00011 1.33 5.99039 1.3925 5.98066L3.2 10.6668H12.8L14.6075 5.98066C14.67 5.99039 14.735 6.00011 14.8 6.00011C15.4625 6.00011 16 5.47754 16 4.83344C16 4.18934 15.4625 3.66678 14.8 3.66678Z" fill="url(#paint0_linear_8390_529)"/>
</g>
<defs>
<linearGradient id="paint0_linear_8390_529" x1="8" y1="0.555664" x2="8" y2="13.0001" gradientUnits="userSpaceOnUse">
<stop stop-color="#FF7B00"/>
<stop offset="1" stop-color="#FF4000"/>
</linearGradient>
<clipPath id="clip0_8390_529">
<rect width="16" height="12.4444" fill="white" transform="translate(0 0.555664)"/>
</clipPath>
</defs>
</svg>
