<svg width="283" height="65" viewBox="0 0 283 65" fill="none" xmlns="http://www.w3.org/2000/svg">
<path d="M177.35 40.1922C172.345 40.2972 170.789 47.5807 175.18 49.8026C172.817 65.3418 151.888 62.3246 153.584 46.8422C157.323 46.7366 164.77 39.2277 162.318 34.1542C160.914 31.6581 157.933 33.9088 159.497 36.2516C156.247 47.1297 146.151 44.8633 145.533 34.5486C147.669 32.6977 145.431 29.7067 143.388 31.7434L142.461 32.961C141.251 38.6844 145.013 45.1202 150.177 46.6647C148.417 66.4839 175.336 70.1053 178.529 50.3703C184.674 49.2733 183.619 39.8329 177.35 40.1922ZM177.724 47.0177C175.534 47.1716 175.344 43.7015 177.537 43.6111C179.727 43.4572 179.917 46.9273 177.724 47.0177Z" fill="#1C5087"/>
<path d="M25.738 17.892C28.05 17.892 29.9087 18.606 31.314 20.034C32.742 21.4393 33.456 23.4113 33.456 25.95V37H28.696V26.596C28.696 25.1227 28.322 24.0007 27.574 23.23C26.826 22.4367 25.806 22.04 24.514 22.04C23.222 22.04 22.1907 22.4367 21.42 23.23C20.672 24.0007 20.298 25.1227 20.298 26.596V37H15.538V26.596C15.538 25.1227 15.164 24.0007 14.416 23.23C13.668 22.4367 12.648 22.04 11.356 22.04C10.0413 22.04 8.99867 22.4367 8.228 23.23C7.48 24.0007 7.106 25.1227 7.106 26.596V37H2.346V18.164H7.106V20.442C7.718 19.6487 8.5 19.0253 9.452 18.572C10.4267 18.1187 11.492 17.892 12.648 17.892C14.1213 17.892 15.436 18.2093 16.592 18.844C17.748 19.456 18.6433 20.34 19.278 21.496C19.89 20.408 20.774 19.5353 21.93 18.878C23.1087 18.2207 24.378 17.892 25.738 17.892ZM55.483 27.174C55.483 27.854 55.4376 28.466 55.347 29.01H41.577C41.6903 30.37 42.1663 31.4353 43.005 32.206C43.8436 32.9767 44.875 33.362 46.099 33.362C47.867 33.362 49.125 32.6027 49.873 31.084H55.007C54.463 32.8973 53.4203 34.3933 51.879 35.572C50.3376 36.728 48.445 37.306 46.201 37.306C44.3876 37.306 42.7556 36.9093 41.305 36.116C39.877 35.3 38.755 34.1553 37.939 32.682C37.1456 31.2087 36.749 29.5087 36.749 27.582C36.749 25.6327 37.1456 23.9213 37.939 22.448C38.7323 20.9747 39.843 19.8413 41.271 19.048C42.699 18.2547 44.3423 17.858 46.201 17.858C47.9916 17.858 49.5896 18.2433 50.995 19.014C52.423 19.7847 53.5223 20.884 54.293 22.312C55.0863 23.7173 55.483 25.338 55.483 27.174ZM50.553 25.814C50.5303 24.59 50.0883 23.6153 49.227 22.89C48.3656 22.142 47.3116 21.768 46.065 21.768C44.8863 21.768 43.889 22.1307 43.073 22.856C42.2796 23.5587 41.7923 24.5447 41.611 25.814H50.553ZM57.7333 27.514C57.7333 25.61 58.1073 23.9213 58.8553 22.448C59.626 20.9747 60.6687 19.8413 61.9833 19.048C63.298 18.2547 64.76 17.858 66.3693 17.858C67.5933 17.858 68.7607 18.13 69.8713 18.674C70.982 19.1953 71.866 19.898 72.5233 20.782V11.84H77.3513V37H72.5233V34.212C71.934 35.1413 71.1067 35.8893 70.0413 36.456C68.976 37.0227 67.7407 37.306 66.3353 37.306C64.7487 37.306 63.298 36.898 61.9833 36.082C60.6687 35.266 59.626 34.1213 58.8553 32.648C58.1073 31.152 57.7333 29.4407 57.7333 27.514ZM72.5573 27.582C72.5573 26.426 72.3307 25.44 71.8773 24.624C71.424 23.7853 70.812 23.1507 70.0413 22.72C69.2707 22.2667 68.4433 22.04 67.5593 22.04C66.6753 22.04 65.8593 22.2553 65.1113 22.686C64.3633 23.1167 63.7513 23.7513 63.2753 24.59C62.822 25.406 62.5953 26.3807 62.5953 27.514C62.5953 28.6473 62.822 29.6447 63.2753 30.506C63.7513 31.3447 64.3633 31.9907 65.1113 32.444C65.882 32.8973 66.698 33.124 67.5593 33.124C68.4433 33.124 69.2707 32.9087 70.0413 32.478C70.812 32.0247 71.424 31.39 71.8773 30.574C72.3307 29.7353 72.5573 28.738 72.5573 27.582ZM87.5423 22.074V31.186C87.5423 31.8207 87.6896 32.2853 87.9843 32.58C88.3016 32.852 88.823 32.988 89.5483 32.988H91.7583V37H88.7663C84.7543 37 82.7483 35.0507 82.7483 31.152V22.074H80.5043V18.164H82.7483V13.506H87.5423V18.164H91.7583V22.074H87.5423ZM97.5959 15.92C96.7573 15.92 96.0546 15.6593 95.4879 15.138C94.9439 14.594 94.6719 13.9253 94.6719 13.132C94.6719 12.3387 94.9439 11.6813 95.4879 11.16C96.0546 10.616 96.7573 10.344 97.5959 10.344C98.4346 10.344 99.1259 10.616 99.6699 11.16C100.237 11.6813 100.52 12.3387 100.52 13.132C100.52 13.9253 100.237 14.594 99.6699 15.138C99.1259 15.6593 98.4346 15.92 97.5959 15.92ZM99.9419 18.164V37H95.1819V18.164H99.9419ZM112.023 17.858C113.428 17.858 114.663 18.1413 115.729 18.708C116.794 19.252 117.633 19.966 118.245 20.85V18.164H123.039V37.136C123.039 38.8813 122.687 40.434 121.985 41.794C121.282 43.1767 120.228 44.2647 118.823 45.058C117.417 45.874 115.717 46.282 113.723 46.282C111.048 46.282 108.849 45.6587 107.127 44.412C105.427 43.1653 104.463 41.4653 104.237 39.312H108.963C109.212 40.1733 109.745 40.8533 110.561 41.352C111.399 41.8733 112.408 42.134 113.587 42.134C114.969 42.134 116.091 41.7147 116.953 40.876C117.814 40.06 118.245 38.8133 118.245 37.136V34.212C117.633 35.096 116.783 35.8327 115.695 36.422C114.629 37.0113 113.405 37.306 112.023 37.306C110.436 37.306 108.985 36.898 107.671 36.082C106.356 35.266 105.313 34.1213 104.543 32.648C103.795 31.152 103.421 29.4407 103.421 27.514C103.421 25.61 103.795 23.9213 104.543 22.448C105.313 20.9747 106.345 19.8413 107.637 19.048C108.951 18.2547 110.413 17.858 112.023 17.858ZM118.245 27.582C118.245 26.426 118.018 25.44 117.565 24.624C117.111 23.7853 116.499 23.1507 115.729 22.72C114.958 22.2667 114.131 22.04 113.247 22.04C112.363 22.04 111.547 22.2553 110.799 22.686C110.051 23.1167 109.439 23.7513 108.963 24.59C108.509 25.406 108.283 26.3807 108.283 27.514C108.283 28.6473 108.509 29.6447 108.963 30.506C109.439 31.3447 110.051 31.9907 110.799 32.444C111.569 32.8973 112.385 33.124 113.247 33.124C114.131 33.124 114.958 32.9087 115.729 32.478C116.499 32.0247 117.111 31.39 117.565 30.574C118.018 29.7353 118.245 28.738 118.245 27.582ZM138.704 37.238C136.482 37.238 134.442 36.7167 132.584 35.674C130.725 34.6313 129.252 33.192 128.164 31.356C127.076 29.4973 126.532 27.4007 126.532 25.066C126.532 22.754 127.076 20.68 128.164 18.844C129.252 16.9853 130.725 15.5347 132.584 14.492C134.442 13.4493 136.482 12.928 138.704 12.928C140.948 12.928 142.988 13.4493 144.824 14.492C146.682 15.5347 148.144 16.9853 149.21 18.844C150.298 20.68 150.842 22.754 150.842 25.066C150.842 27.4007 150.298 29.4973 149.21 31.356C148.144 33.192 146.682 34.6313 144.824 35.674C142.965 36.7167 140.925 37.238 138.704 37.238ZM138.704 32.988C140.132 32.988 141.39 32.6707 142.478 32.036C143.566 31.3787 144.416 30.4493 145.028 29.248C145.64 28.0467 145.946 26.6527 145.946 25.066C145.946 23.4793 145.64 22.0967 145.028 20.918C144.416 19.7167 143.566 18.7987 142.478 18.164C141.39 17.5293 140.132 17.212 138.704 17.212C137.276 17.212 136.006 17.5293 134.896 18.164C133.808 18.7987 132.958 19.7167 132.346 20.918C131.734 22.0967 131.428 23.4793 131.428 25.066C131.428 26.6527 131.734 28.0467 132.346 29.248C132.958 30.4493 133.808 31.3787 134.896 32.036C136.006 32.6707 137.276 32.988 138.704 32.988Z" fill="#1C5087"/>
<path d="M165.399 37.238C163.178 37.238 161.138 36.7167 159.279 35.674C157.42 34.6313 155.947 33.192 154.859 31.356C153.771 29.4973 153.227 27.4007 153.227 25.066C153.227 22.754 153.771 20.68 154.859 18.844C155.947 16.9853 157.42 15.5347 159.279 14.492C161.138 13.4493 163.178 12.928 165.399 12.928C167.643 12.928 169.683 13.4493 171.519 14.492C173.378 15.5347 174.84 16.9853 175.905 18.844C176.993 20.68 177.537 22.754 177.537 25.066C177.537 27.4007 176.993 29.4973 175.905 31.356C174.84 33.192 173.378 34.6313 171.519 35.674C169.66 36.7167 167.62 37.238 165.399 37.238ZM165.399 32.988C166.827 32.988 168.085 32.6707 169.173 32.036C170.261 31.3787 171.111 30.4493 171.723 29.248C172.335 28.0467 172.641 26.6527 172.641 25.066C172.641 23.4793 172.335 22.0967 171.723 20.918C171.111 19.7167 170.261 18.7987 169.173 18.164C168.085 17.5293 166.827 17.212 165.399 17.212C163.971 17.212 162.702 17.5293 161.591 18.164C160.503 18.7987 159.653 19.7167 159.041 20.918C158.429 22.0967 158.123 23.4793 158.123 25.066C158.123 26.6527 158.429 28.0467 159.041 29.248C159.653 30.4493 160.503 31.3787 161.591 32.036C162.702 32.6707 163.971 32.988 165.399 32.988ZM185.838 21.088C186.45 20.0907 187.244 19.3087 188.218 18.742C189.216 18.1753 190.349 17.892 191.618 17.892V22.89H190.36C188.864 22.89 187.731 23.2413 186.96 23.944C186.212 24.6467 185.838 25.8707 185.838 27.616V37H181.078V18.164H185.838V21.088ZM193.601 27.514C193.601 25.61 193.975 23.9213 194.723 22.448C195.493 20.9747 196.525 19.8413 197.817 19.048C199.131 18.2547 200.593 17.858 202.203 17.858C203.608 17.858 204.832 18.1413 205.875 18.708C206.94 19.2747 207.79 19.9887 208.425 20.85V18.164H213.219V37H208.425V34.246C207.813 35.13 206.963 35.8667 205.875 36.456C204.809 37.0227 203.574 37.306 202.169 37.306C200.582 37.306 199.131 36.898 197.817 36.082C196.525 35.266 195.493 34.1213 194.723 32.648C193.975 31.152 193.601 29.4407 193.601 27.514ZM208.425 27.582C208.425 26.426 208.198 25.44 207.745 24.624C207.291 23.7853 206.679 23.1507 205.909 22.72C205.138 22.2667 204.311 22.04 203.427 22.04C202.543 22.04 201.727 22.2553 200.979 22.686C200.231 23.1167 199.619 23.7513 199.143 24.59C198.689 25.406 198.463 26.3807 198.463 27.514C198.463 28.6473 198.689 29.6447 199.143 30.506C199.619 31.3447 200.231 31.9907 200.979 32.444C201.749 32.8973 202.565 33.124 203.427 33.124C204.311 33.124 205.138 32.9087 205.909 32.478C206.679 32.0247 207.291 31.39 207.745 30.574C208.198 29.7353 208.425 28.738 208.425 27.582ZM228.305 17.892C230.549 17.892 232.363 18.606 233.745 20.034C235.128 21.4393 235.819 23.4113 235.819 25.95V37H231.059V26.596C231.059 25.1 230.685 23.9553 229.937 23.162C229.189 22.346 228.169 21.938 226.877 21.938C225.563 21.938 224.52 22.346 223.749 23.162C223.001 23.9553 222.627 25.1 222.627 26.596V37H217.867V18.164H222.627V20.51C223.262 19.694 224.067 19.0593 225.041 18.606C226.039 18.13 227.127 17.892 228.305 17.892ZM247.724 17.858C249.129 17.858 250.365 18.1413 251.43 18.708C252.495 19.252 253.334 19.966 253.946 20.85V18.164H258.74V37.136C258.74 38.8813 258.389 40.434 257.686 41.794C256.983 43.1767 255.929 44.2647 254.524 45.058C253.119 45.874 251.419 46.282 249.424 46.282C246.749 46.282 244.551 45.6587 242.828 44.412C241.128 43.1653 240.165 41.4653 239.938 39.312H244.664C244.913 40.1733 245.446 40.8533 246.262 41.352C247.101 41.8733 248.109 42.134 249.288 42.134C250.671 42.134 251.793 41.7147 252.654 40.876C253.515 40.06 253.946 38.8133 253.946 37.136V34.212C253.334 35.096 252.484 35.8327 251.396 36.422C250.331 37.0113 249.107 37.306 247.724 37.306C246.137 37.306 244.687 36.898 243.372 36.082C242.057 35.266 241.015 34.1213 240.244 32.648C239.496 31.152 239.122 29.4407 239.122 27.514C239.122 25.61 239.496 23.9213 240.244 22.448C241.015 20.9747 242.046 19.8413 243.338 19.048C244.653 18.2547 246.115 17.858 247.724 17.858ZM253.946 27.582C253.946 26.426 253.719 25.44 253.266 24.624C252.813 23.7853 252.201 23.1507 251.43 22.72C250.659 22.2667 249.832 22.04 248.948 22.04C248.064 22.04 247.248 22.2553 246.5 22.686C245.752 23.1167 245.14 23.7513 244.664 24.59C244.211 25.406 243.984 26.3807 243.984 27.514C243.984 28.6473 244.211 29.6447 244.664 30.506C245.14 31.3447 245.752 31.9907 246.5 32.444C247.271 32.8973 248.087 33.124 248.948 33.124C249.832 33.124 250.659 32.9087 251.43 32.478C252.201 32.0247 252.813 31.39 253.266 30.574C253.719 29.7353 253.946 28.738 253.946 27.582ZM280.899 27.174C280.899 27.854 280.854 28.466 280.763 29.01H266.993C267.106 30.37 267.582 31.4353 268.421 32.206C269.26 32.9767 270.291 33.362 271.515 33.362C273.283 33.362 274.541 32.6027 275.289 31.084H280.423C279.879 32.8973 278.836 34.3933 277.295 35.572C275.754 36.728 273.861 37.306 271.617 37.306C269.804 37.306 268.172 36.9093 266.721 36.116C265.293 35.3 264.171 34.1553 263.355 32.682C262.562 31.2087 262.165 29.5087 262.165 27.582C262.165 25.6327 262.562 23.9213 263.355 22.448C264.148 20.9747 265.259 19.8413 266.687 19.048C268.115 18.2547 269.758 17.858 271.617 17.858C273.408 17.858 275.006 18.2433 276.411 19.014C277.839 19.7847 278.938 20.884 279.709 22.312C280.502 23.7173 280.899 25.338 280.899 27.174ZM275.969 25.814C275.946 24.59 275.504 23.6153 274.643 22.89C273.782 22.142 272.728 21.768 271.481 21.768C270.302 21.768 269.305 22.1307 268.489 22.856C267.696 23.5587 267.208 24.5447 267.027 25.814H275.969Z" fill="#FF7B00"/>
<ellipse cx="138.5" cy="26" rx="5.5" ry="6" fill="white"/>
</svg>
