<svg width="26" height="34" viewBox="0 0 26 34" fill="none" xmlns="http://www.w3.org/2000/svg">
<g clip-path="url(#clip0_8834_11555)">
<path fill-rule="evenodd" clip-rule="evenodd" d="M11.5 11C17.847 11 23 16.153 23 22.5C23 28.847 17.847 34 11.5 34C5.15305 34 0 28.847 0 22.5C0 16.153 5.15305 11 11.5 11ZM11.5 12.6047C6.03882 12.6047 1.60465 17.0388 1.60465 22.5C1.60465 27.9612 6.03882 32.3953 11.5 32.3953C16.9612 32.3953 21.3953 27.9611 21.3953 22.5C21.3953 17.0389 16.9611 12.6047 11.5 12.6047Z" fill="white"/>
<path d="M11.5005 24.372C14.1592 24.372 16.3144 22.2168 16.3144 19.5581C16.3144 16.8994 14.1592 14.7441 11.5005 14.7441C8.8418 14.7441 6.68652 16.8994 6.68652 19.5581C6.68652 22.2168 8.8418 24.372 11.5005 24.372Z" fill="white"/>
<path fill-rule="evenodd" clip-rule="evenodd" d="M15.4966 23.875C17.7496 25.2326 19.2558 27.7016 19.2558 30.5236C19.2558 30.8114 19.1392 30.9965 18.9958 31.1152C18.9562 31.1516 18.9134 31.1837 18.8664 31.2115L18.8514 31.2201L16.192 32.8162C16.0925 32.8761 15.9812 32.9135 15.8667 32.9253L15.1072 33.3596C14.9863 33.4292 14.8494 33.4655 14.7093 33.4655H8.29065C8.15053 33.4655 8.0136 33.4292 7.8927 33.3596L7.13316 32.9253C7.01868 32.9135 6.90746 32.8761 6.80795 32.8162L4.14851 31.2201L4.13354 31.2115C3.89177 31.0671 3.74414 30.805 3.74414 30.5237C3.74414 27.7016 5.25037 25.2326 7.5033 23.875C8.55381 24.8475 9.95735 25.4423 11.5 25.4423C13.0426 25.4423 14.4461 24.8474 15.4966 23.875Z" fill="white"/>
</g>
<g clip-path="url(#clip1_8834_11555)">
<path d="M20.1234 13.2381L11.858 10.2804C11.6832 10.2178 11.4903 10.3057 11.4295 10.4757L11.2083 11.0938C11.1475 11.2638 11.2408 11.4541 11.4156 11.5167L19.681 14.4744C19.8559 14.537 20.0487 14.4491 20.1096 14.2791L20.3307 13.661C20.3916 13.491 20.2983 13.3007 20.1234 13.2381ZM23.607 7.51175C23.0805 7.32334 22.5047 7.58579 22.3215 8.09769C22.2725 8.23484 22.2586 8.37371 22.2721 8.51145L20.5336 8.83504C20.164 8.90326 19.8046 8.66132 19.7356 8.2967L19.102 4.96264C19.3754 4.86873 19.6057 4.66352 19.7094 4.37376C19.8926 3.86187 19.614 3.29369 19.0875 3.10527C18.561 2.91686 17.9852 3.17931 17.802 3.69121C17.6983 3.98096 17.7462 4.28571 17.8979 4.53178L15.2929 6.70691C15.0082 6.94497 14.5749 6.90322 14.3345 6.61672L13.198 5.26432C13.2931 5.16761 13.3732 5.05028 13.4223 4.91313C13.6055 4.40123 13.3269 3.83305 12.8004 3.64464C12.2739 3.45622 11.6961 3.71796 11.5129 4.22986C11.3297 4.74176 11.6083 5.30993 12.1348 5.49835C12.1865 5.51684 12.2409 5.52759 12.2933 5.53764L12.3971 9.776L20.0267 12.5062L22.796 9.29598C22.8429 9.32148 22.8918 9.34769 22.9434 9.36618C23.47 9.55459 24.0458 9.29214 24.229 8.78025C24.4121 8.26835 24.1336 7.70017 23.607 7.51175Z" fill="url(#paint0_linear_8834_11555)"/>
</g>
<defs>
<linearGradient id="paint0_linear_8834_11555" x1="19.0875" y1="3.10527" x2="15.5483" y2="12.9955" gradientUnits="userSpaceOnUse">
<stop stop-color="#FF7B00"/>
<stop offset="1" stop-color="#FF4000"/>
</linearGradient>
<clipPath id="clip0_8834_11555">
<rect width="23" height="23" fill="white" transform="translate(0 11)"/>
</clipPath>
<clipPath id="clip1_8834_11555">
<rect width="13.5057" height="10.5044" fill="white" transform="translate(12.7295 0.830078) rotate(19.6895)"/>
</clipPath>
</defs>
</svg>
