<svg width="54" height="55" viewBox="0 0 54 55" fill="none" xmlns="http://www.w3.org/2000/svg">
<path d="M41.0208 54.7813C47.3902 55.2694 47.0822 50.5864 46.9517 46.0377C47.1264 41.0647 47.1508 37.3095 40.9449 37.3507C38.3323 37.3708 36.1301 36.438 33.5574 36.0271C32.3643 35.9246 31.1787 36.2956 30.256 37.0603C28.701 38.25 27.2164 39.417 25.6232 40.569C22.0837 38.6837 19.0005 36.043 16.5913 32.8333C16.4389 32.6303 16.2122 32.4961 15.9611 32.4603C15.71 32.4244 15.455 32.4898 15.2519 32.6421C15.0489 32.7944 14.9145 33.0212 14.8781 33.2726C14.8417 33.5241 14.9064 33.7797 15.058 33.9835C17.6347 37.4167 20.932 40.2417 24.7172 42.2595C25.0409 42.463 25.4215 42.5568 25.8025 42.527C26.1836 42.4971 26.5449 42.3452 26.8331 42.0937C28.3515 40.9006 29.9187 39.7639 31.436 38.571C31.9668 38.1145 32.6557 37.8857 33.3536 37.9341C35.8036 38.372 38.3242 39.3031 40.8834 39.2678C42.2915 39.3128 43.5074 39.3522 44.2802 40.1521C45.7445 41.9618 44.7535 45.3564 45.0527 47.7144C45.1296 50.5299 45.0408 52.2889 43.1746 52.7929C21.9613 54.5891 1.08099 33.7947 1.94064 12.6458C2.02305 9.91957 3.76677 9.66012 7.4646 9.75004C9.7101 10.0323 12.9914 9.11176 14.6817 10.502C15.5227 11.3395 15.5624 12.604 15.6082 14.0679C15.6418 15.7782 15.91 17.4756 16.4053 19.1126C16.9513 21.0158 17.2388 22.24 16.2894 23.3949C15.092 24.9244 13.9663 26.4837 12.7654 28.0171C12.5169 28.3057 12.3674 28.6667 12.3391 29.0468C12.3109 29.4269 12.4052 29.806 12.6084 30.1283C12.6685 30.2405 12.7504 30.3397 12.8492 30.4199C12.9479 30.5001 13.0617 30.5598 13.1838 30.5955C13.3058 30.6312 13.4338 30.6421 13.5601 30.6278C13.6865 30.6134 13.8087 30.574 13.9197 30.5118C14.0307 30.4496 14.1282 30.3659 14.2065 30.2655C14.2848 30.1652 14.3424 30.0502 14.3759 29.9273C14.4094 29.8044 14.4182 29.6761 14.4016 29.5498C14.3851 29.4235 14.3436 29.3017 14.2796 29.1917C15.4608 27.6827 16.6087 26.0977 17.782 24.5966C19.4052 22.6222 18.789 20.4764 18.2453 18.5825C18.0063 17.8525 17.8409 17.1004 17.7517 16.3374C17.2129 13.9468 18.056 11.1765 16.0023 9.11413C13.8692 7.20922 11.2133 8.01351 8.75675 7.85062C5.39807 7.87119 0.310646 7.04473 0.0258539 12.5983C-0.825382 34.0335 19.4781 55.1847 41.0208 54.7813Z" fill="#2872C1"/>
<path d="M45.2296 34.1031C45.0328 34.2594 44.905 34.4866 44.8737 34.7361C44.8425 34.9855 44.9102 35.2373 45.0623 35.4374C45.2145 35.6374 45.439 35.7699 45.6877 35.8063C45.9363 35.8427 46.1894 35.7801 46.3925 35.632C61.0812 24.4883 53.0563 0.827016 34.6322 0.816585C31.6407 0.803691 28.6875 1.48941 26.0076 2.81919C23.3277 4.14896 20.995 6.08608 19.1953 8.47639C19.0413 8.6794 18.9743 8.93526 19.0089 9.1877C19.0436 9.44013 19.177 9.66847 19.38 9.82246C19.5829 9.97646 19.8387 10.0435 20.0911 10.0089C20.3434 9.9742 20.5717 9.84068 20.7256 9.63768C22.347 7.48432 24.4485 5.73926 26.8628 4.54137C29.277 3.34347 31.9375 2.72581 34.6325 2.73755C51.2329 2.7477 58.4617 24.066 45.2296 34.1031Z" fill="#2872C1"/>
<path d="M33.0835 29.8164H35.917C36.5577 29.8157 37.172 29.5608 37.6251 29.1076C38.0781 28.6545 38.3329 28.0402 38.3335 27.3994V24.1494H41.5835C42.2242 24.1487 42.8385 23.8938 43.2916 23.4406C43.7446 22.9875 43.9994 22.3732 44 21.7324V18.8994C43.9994 18.2586 43.7446 17.6443 43.2916 17.1912C42.8385 16.738 42.2242 16.4831 41.5835 16.4824H38.3335V13.2324C38.3327 12.5918 38.0778 11.9777 37.6248 11.5248C37.1718 11.0718 36.5576 10.8171 35.917 10.8164H33.0835C32.4429 10.8171 31.8287 11.0718 31.3757 11.5248C30.9227 11.9777 30.6678 12.5918 30.667 13.2324V16.4824H27.417C26.7762 16.4831 26.1618 16.738 25.7087 17.1911C25.2556 17.6442 25.0007 18.2586 25 18.8994V21.7324C25.0007 22.3732 25.2556 22.9876 25.7087 23.4407C26.1618 23.8938 26.7762 24.1487 27.417 24.1494H30.667V27.3994C30.6676 28.0402 30.9224 28.6545 31.3754 29.1076C31.8284 29.5608 32.4427 29.8157 33.0835 29.8164ZM27.417 22.1494C27.3065 22.1492 27.2005 22.1052 27.1223 22.0271C27.0442 21.9489 27.0002 21.8429 27 21.7324V18.8994C27.0002 18.7889 27.0442 18.6829 27.1223 18.6048C27.2005 18.5266 27.3065 18.4826 27.417 18.4824H31.667C31.7983 18.4824 31.9284 18.4566 32.0497 18.4064C32.1711 18.3561 32.2813 18.2825 32.3742 18.1896C32.467 18.0967 32.5407 17.9865 32.5909 17.8651C32.6412 17.7438 32.667 17.6137 32.667 17.4824V13.2324C32.6672 13.1221 32.7112 13.0163 32.7892 12.9383C32.8673 12.8603 32.9731 12.8165 33.0835 12.8164H35.917C36.0273 12.8165 36.1332 12.8603 36.2112 12.9383C36.2893 13.0163 36.3333 13.1221 36.3335 13.2324V17.4824C36.3335 17.6137 36.3593 17.7438 36.4095 17.8651C36.4598 17.9865 36.5334 18.0967 36.6263 18.1896C36.7192 18.2825 36.8294 18.3561 36.9508 18.4064C37.0721 18.4566 37.2022 18.4824 37.3335 18.4824H41.5835C41.694 18.4827 41.7998 18.5267 41.8779 18.6049C41.9559 18.683 41.9998 18.7889 42 18.8994V21.7324C41.9998 21.8429 41.9559 21.9488 41.8779 22.0269C41.7998 22.1051 41.694 22.1491 41.5835 22.1494H37.3335C37.2022 22.1494 37.0721 22.1752 36.9508 22.2255C36.8294 22.2757 36.7192 22.3494 36.6263 22.4422C36.5334 22.5351 36.4598 22.6453 36.4095 22.7667C36.3593 22.888 36.3335 23.0181 36.3335 23.1494V27.3994C36.3333 27.5099 36.2894 27.6158 36.2114 27.6939C36.1333 27.7721 36.0275 27.8161 35.917 27.8164H33.0835C32.973 27.8161 32.8672 27.7721 32.7891 27.6939C32.7111 27.6158 32.6672 27.5099 32.667 27.3994V23.1494C32.667 23.0181 32.6412 22.888 32.5909 22.7667C32.5407 22.6453 32.467 22.5351 32.3742 22.4422C32.2813 22.3494 32.1711 22.2757 32.0497 22.2255C31.9284 22.1752 31.7983 22.1494 31.667 22.1494H27.417Z" fill="#2872C1"/>
</svg>
