<svg width="48" height="49" viewBox="0 0 48 49" fill="none" xmlns="http://www.w3.org/2000/svg">
<path d="M1.2 48.8164H46.8C47.1183 48.8164 47.4235 48.69 47.6485 48.4649C47.8736 48.2399 48 47.9347 48 47.6164V18.8164C48 18.4981 47.8736 18.1929 47.6485 17.9679C47.4235 17.7428 47.1183 17.6164 46.8 17.6164H40.8V6.81641C40.8 6.49815 40.6736 6.19292 40.4485 5.96788C40.2235 5.74284 39.9183 5.61641 39.6 5.61641H33.6V4.41641C33.6 3.46163 33.2207 2.54595 32.5456 1.87082C31.8705 1.19569 30.9548 0.816406 30 0.816406H18C17.0452 0.816406 16.1295 1.19569 15.4544 1.87082C14.7793 2.54595 14.4 3.46163 14.4 4.41641V5.61641H8.4C8.08174 5.61641 7.77652 5.74284 7.55147 5.96788C7.32643 6.19292 7.2 6.49815 7.2 6.81641V17.6164H1.2C0.88174 17.6164 0.576516 17.7428 0.351472 17.9679C0.126428 18.1929 0 18.4981 0 18.8164V47.6164C0 47.9347 0.126428 48.2399 0.351472 48.4649C0.576516 48.69 0.88174 48.8164 1.2 48.8164ZM40.8 20.0164H45.6V46.4164H40.8V20.0164ZM27.6 46.4164H20.4V38.0164H27.6V46.4164ZM16.8 4.41641C16.8 4.09815 16.9264 3.79292 17.1515 3.56788C17.3765 3.34283 17.6817 3.21641 18 3.21641H30C30.3183 3.21641 30.6235 3.34283 30.8485 3.56788C31.0736 3.79292 31.2 4.09815 31.2 4.41641V16.4164C31.2 16.7347 31.0736 17.0399 30.8485 17.2649C30.6235 17.49 30.3183 17.6164 30 17.6164H18C17.6817 17.6164 17.3765 17.49 17.1515 17.2649C16.9264 17.0399 16.8 16.7347 16.8 16.4164V4.41641ZM9.6 8.01641H14.4V16.4164C14.4 17.3712 14.7793 18.2869 15.4544 18.962C16.1295 19.6371 17.0452 20.0164 18 20.0164H30C30.9548 20.0164 31.8705 19.6371 32.5456 18.962C33.2207 18.2869 33.6 17.3712 33.6 16.4164V8.01641H38.4V46.4164H30V36.8164C30 36.4981 29.8736 36.1929 29.6485 35.9679C29.4235 35.7428 29.1183 35.6164 28.8 35.6164H19.2C18.8817 35.6164 18.5765 35.7428 18.3515 35.9679C18.1264 36.1929 18 36.4981 18 36.8164V46.4164H9.6V8.01641ZM2.4 20.0164H7.2V46.4164H2.4V20.0164Z" fill="#2872C1"/>
<path d="M20.2593 11.5836H22.6429V14.0494C22.6429 14.3763 22.7684 14.6899 22.9919 14.9211C23.2154 15.1523 23.5186 15.2822 23.8347 15.2822C24.1507 15.2822 24.4539 15.1523 24.6774 14.9211C24.9009 14.6899 25.0264 14.3763 25.0264 14.0494V11.5836H27.41C27.7261 11.5836 28.0292 11.4537 28.2527 11.2225C28.4762 10.9913 28.6018 10.6777 28.6018 10.3507C28.6018 10.0237 28.4762 9.71016 28.2527 9.47895C28.0292 9.24774 27.7261 9.11785 27.41 9.11785H25.0264V6.6521C25.0264 6.32512 24.9009 6.01153 24.6774 5.78032C24.4539 5.54911 24.1507 5.41922 23.8347 5.41922C23.5186 5.41922 23.2154 5.54911 22.9919 5.78032C22.7684 6.01153 22.6429 6.32512 22.6429 6.6521V9.11785H20.2593C19.9432 9.11785 19.6401 9.24774 19.4166 9.47895C19.1931 9.71016 19.0675 10.0237 19.0675 10.3507C19.0675 10.6777 19.1931 10.9913 19.4166 11.2225C19.6401 11.4537 19.9432 11.5836 20.2593 11.5836Z" fill="#2872C1"/>
<path d="M15.6154 25.8026H17.9168C18.222 25.8026 18.5146 25.6814 18.7304 25.4656C18.9462 25.2498 19.0675 24.9571 19.0675 24.6519C19.0675 24.3468 18.9462 24.0541 18.7304 23.8383C18.5146 23.6225 18.222 23.5013 17.9168 23.5013H15.6154C15.3102 23.5013 15.0175 23.6225 14.8017 23.8383C14.586 24.0541 14.4647 24.3468 14.4647 24.6519C14.4647 24.9571 14.586 25.2498 14.8017 25.4656C15.0175 25.6814 15.3102 25.8026 15.6154 25.8026Z" fill="#2872C1"/>
<path d="M19.0675 30.7343C19.0675 30.3855 18.9462 30.051 18.7304 29.8044C18.5146 29.5578 18.222 29.4192 17.9168 29.4192H15.6154C15.3102 29.4192 15.0175 29.5578 14.8017 29.8044C14.586 30.051 14.4647 30.3855 14.4647 30.7343C14.4647 31.0831 14.586 31.4176 14.8017 31.6642C15.0175 31.9108 15.3102 32.0494 15.6154 32.0494H17.9168C18.222 32.0494 18.5146 31.9108 18.7304 31.6642C18.9462 31.4176 19.0675 31.0831 19.0675 30.7343Z" fill="#2872C1"/>
<path d="M22.8493 25.8026H25.1506C25.4558 25.8026 25.7485 25.6814 25.9643 25.4656C26.1801 25.2498 26.3013 24.9571 26.3013 24.6519C26.3013 24.3468 26.1801 24.0541 25.9643 23.8383C25.7485 23.6225 25.4558 23.5013 25.1506 23.5013H22.8493C22.5441 23.5013 22.2514 23.6225 22.0356 23.8383C21.8198 24.0541 21.6986 24.3468 21.6986 24.6519C21.6986 24.9571 21.8198 25.2498 22.0356 25.4656C22.2514 25.6814 22.5441 25.8026 22.8493 25.8026Z" fill="#2872C1"/>
<path d="M22.8493 32.0494H25.1506C25.4558 32.0494 25.7485 31.9108 25.9643 31.6642C26.1801 31.4176 26.3013 31.0831 26.3013 30.7343C26.3013 30.3855 26.1801 30.051 25.9643 29.8044C25.7485 29.5578 25.4558 29.4192 25.1506 29.4192H22.8493C22.5441 29.4192 22.2514 29.5578 22.0356 29.8044C21.8198 30.051 21.6986 30.3855 21.6986 30.7343C21.6986 31.0831 21.8198 31.4176 22.0356 31.6642C22.2514 31.9108 22.5441 32.0494 22.8493 32.0494Z" fill="#2872C1"/>
<path d="M29.8357 25.8026H32.3014C32.6284 25.8026 32.942 25.6814 33.1732 25.4656C33.4044 25.2498 33.5343 24.9571 33.5343 24.6519C33.5343 24.3468 33.4044 24.0541 33.1732 23.8383C32.942 23.6225 32.6284 23.5013 32.3014 23.5013H29.8357C29.5087 23.5013 29.1951 23.6225 28.9639 23.8383C28.7327 24.0541 28.6028 24.3468 28.6028 24.6519C28.6028 24.9571 28.7327 25.2498 28.9639 25.4656C29.1951 25.6814 29.5087 25.8026 29.8357 25.8026Z" fill="#2872C1"/>
<path d="M29.8357 32.0494H32.3014C32.6284 32.0494 32.942 31.9108 33.1732 31.6642C33.4044 31.4176 33.5343 31.0831 33.5343 30.7343C33.5343 30.3855 33.4044 30.051 33.1732 29.8044C32.942 29.5578 32.6284 29.4192 32.3014 29.4192H29.8357C29.5087 29.4192 29.1951 29.5578 28.9639 29.8044C28.7327 30.051 28.6028 30.3855 28.6028 30.7343C28.6028 31.0831 28.7327 31.4176 28.9639 31.6642C29.1951 31.9108 29.5087 32.0494 29.8357 32.0494Z" fill="#2872C1"/>
</svg>
