<svg width="56" height="53" viewBox="0 0 56 53" fill="none" xmlns="http://www.w3.org/2000/svg">
<path d="M28.0012 52.4391C27.7287 52.4391 27.4562 52.3558 27.2235 52.1892C27.1081 52.1058 24.3494 50.1188 20.6411 46.802C20.1976 46.4123 19.7279 45.9956 19.2566 45.5615C16.0639 42.6188 11.4972 38.0042 7.87995 32.7317C7.46324 32.125 7.61702 31.2942 8.22448 30.8784C8.8339 30.4617 9.66199 30.6155 10.0778 31.2229C12.8303 35.2334 16.6298 39.5137 21.0648 43.6004C21.5197 44.0214 21.9735 44.4225 22.4102 44.8061C24.8754 47.0109 26.9362 48.6317 28.0004 49.4415C29.4258 48.3556 32.6366 45.8173 36.2165 42.3912C38.7043 40.0214 41.0047 37.5502 43.0584 35.044C44.2077 33.6126 45.121 32.3957 45.9229 31.2238C46.3396 30.6171 47.1659 30.459 47.7771 30.8775C48.3848 31.2933 48.5392 32.1232 48.1243 32.7308C47.2806 33.96 46.3291 35.2291 45.1295 36.7239C42.9994 39.3246 40.6225 41.8774 38.0584 44.3201C33.1088 49.0571 28.9552 52.0622 28.7806 52.1872C28.5479 52.3547 28.2747 52.4391 28.0012 52.4391Z" fill="#2872C1"/>
<path d="M52.1956 22.6443C52.0827 22.6443 51.9698 22.6304 51.8553 22.6009C51.1435 22.4142 50.7182 21.6852 50.9038 20.9733C52.2094 15.9908 51.5515 11.7026 48.8933 7.86587C45.7702 3.33025 40.1867 2.90928 36.0028 4.02127C35.8934 4.0586 35.8136 4.08296 35.7441 4.09931C35.7251 4.10447 35.7059 4.10891 35.6851 4.11229C33.0983 4.86233 30.7685 6.2225 28.9404 8.04898C28.4195 8.56986 27.5758 8.56986 27.0551 8.04898C23.8919 4.8858 19.2244 3.1619 14.8633 3.56029C12.5343 3.77203 9.29663 4.68971 7.10393 7.86409C4.44421 11.7026 3.78715 15.9899 5.09274 20.9733C5.27941 21.6852 4.8531 22.4142 4.14057 22.6009C3.43053 22.7815 2.6988 22.3596 2.51302 21.6487C1.01917 15.9474 1.82645 10.799 4.91052 6.34677C7.07886 3.20972 10.5286 1.2764 14.6232 0.905022C19.3236 0.481381 24.3383 2.14288 27.9971 5.28864C30.0014 3.56118 32.4147 2.26875 35.0465 1.52137C35.0829 1.51177 35.1176 1.50306 35.1541 1.49613L35.3277 1.44137C41.7757 -0.274703 47.8173 1.60191 51.088 6.35014C54.1696 10.7997 54.9769 15.9481 53.4839 21.6487C53.3276 22.2476 52.7858 22.6443 52.1956 22.6443Z" fill="#2872C1"/>
<path d="M27.7255 38.6444C27.0823 38.6444 26.5301 38.1852 26.4139 37.5516L23.5805 22.1247L21.1785 31.3252C21.0361 31.872 20.564 32.2695 20.0006 32.3174C19.4529 32.3581 18.906 32.0518 18.6733 31.5369L15.9702 25.5439L15.2262 27.1931C15.0109 27.6706 14.5352 27.9778 14.0109 27.9778H1.33332C0.597152 27.9778 0 27.3807 0 26.6445C0 25.9083 0.597152 25.3112 1.33332 25.3112H13.1501L14.7551 21.7521C15.1857 20.7973 16.7551 20.7973 17.1857 21.7521L19.5521 26.9986L22.5174 15.641C22.6754 15.0361 23.2093 14.5985 23.8567 14.6453C24.4809 14.6688 25.0061 15.1219 25.119 15.7374L27.7257 29.9309L28.3733 26.404C28.4896 25.7704 29.0418 25.3112 29.685 25.3112H32.6217L34.2901 19.9457C34.4638 19.3884 34.9793 19.0083 35.5626 19.0083C36.1459 19.0083 36.6632 19.3886 36.8351 19.9457L39.5869 28.7981L42.1476 21.8397C42.3352 21.332 42.8107 20.9873 43.3524 20.9683C43.8767 20.9197 44.3924 21.2591 44.6146 21.753L46.2187 25.3112H54.6667C55.4028 25.3112 56 25.9083 56 26.6445C56 27.3807 55.4028 27.9778 54.6667 27.9778H45.3578C44.8335 27.9778 44.3578 27.6705 44.1425 27.1922L43.5243 25.8216L40.7327 33.4084C40.5382 33.9335 40.0383 34.2807 39.481 34.2807C39.4705 34.2807 39.4584 34.2807 39.4463 34.2798C38.8751 34.266 38.3768 33.8884 38.2085 33.3431L35.5626 24.8328L34.8752 27.0402C34.7015 27.5976 34.1859 27.9777 33.6026 27.9777H30.7954L29.0375 37.5515C28.9212 38.1851 28.3687 38.6444 27.7255 38.6444Z" fill="#2872C1"/>
</svg>
