<svg width="56" height="56" viewBox="0 0 56 56" fill="none" xmlns="http://www.w3.org/2000/svg">
<path d="M54.6886 1.13648C54.2618 0.709714 53.5594 0.709714 53.1326 1.13648L45.9754 8.28488C44.3216 7.32465 42.17 7.53804 40.7563 8.95171L40.1606 9.54741C38.249 7.96481 35.4128 8.04483 33.6257 9.84082L26.9485 16.518L15.6836 27.7918L15.3546 27.4629C13.9676 26.0759 11.5403 26.067 10.1444 27.4629C9.45094 28.1564 9.06863 29.081 9.06863 30.0679C9.06863 31.0548 9.45094 31.9795 10.1444 32.673L13.4697 35.9983L7.6105 41.8575L6.62359 40.8706C5.23659 39.4836 2.80933 39.4836 1.41344 40.8706C-0.0180208 42.302 -0.0180208 44.6404 1.41344 46.0807L10.0733 54.7406C10.7668 55.4341 11.6915 55.8164 12.6784 55.8164C13.6653 55.8164 14.59 55.4341 15.2835 54.7406C15.977 54.0471 16.3593 53.1224 16.3593 52.1355C16.3593 51.1486 15.977 50.2239 15.2835 49.5304L14.2165 48.4635L20.0757 42.6043L22.6986 45.2272C23.3921 45.9207 24.3168 46.303 25.3037 46.303C26.2906 46.303 27.2152 45.9207 27.9087 45.2272C28.6022 44.5337 28.9846 43.609 28.9846 42.6221C28.9846 41.6796 28.6289 40.7994 27.9888 40.1148L45.9487 22.1549C47.7269 20.3767 47.8158 17.5671 46.2688 15.6556L46.8645 15.0599C48.2781 13.6462 48.4915 11.4946 47.5313 9.84082L54.6886 2.69242C55.1242 2.25676 55.1242 1.56325 54.6886 1.13648ZM13.7275 53.1669C13.1674 53.727 12.1983 53.727 11.6381 53.1669L2.97826 44.507C2.40034 43.9291 2.40034 42.9955 2.97826 42.4176C3.25388 42.142 3.62731 41.9819 4.0274 41.9819C4.41861 41.9819 4.79203 42.1331 5.06766 42.4176L13.7275 51.0775C14.0032 51.3531 14.1632 51.7265 14.1632 52.1177C14.1632 52.5178 14.012 52.8913 13.7275 53.1669ZM42.3211 10.5076C43.148 9.68078 44.4906 9.68078 45.3085 10.5076C46.1354 11.3345 46.1354 12.6771 45.3085 13.495L44.7484 14.0552L41.761 11.0678L42.3211 10.5076ZM12.6606 46.8987L9.16643 43.4045L15.0167 37.5542L18.5109 41.0484L12.6606 46.8987ZM26.3528 43.6623C25.7927 44.2225 24.8236 44.2225 24.2634 43.6623L20.8582 40.2571L15.808 35.207L11.7004 31.0993C11.4248 30.8237 11.2647 30.4503 11.2647 30.0591C11.2647 29.6678 11.4159 29.2944 11.7004 29.0099C11.976 28.7343 12.3494 28.5742 12.7406 28.5742C13.1318 28.5742 13.5053 28.7254 13.7898 29.0099L26.3528 41.573C26.6284 41.8486 26.7885 42.222 26.7885 42.6132C26.7796 43.0133 26.6284 43.3867 26.3528 43.6623ZM44.3927 20.5901L26.4417 38.55L17.2395 29.3478L19.1955 27.3917L19.9779 28.1742C20.1913 28.3875 20.4758 28.4942 20.7603 28.4942C21.0449 28.4942 21.3205 28.3875 21.5428 28.1742C21.9695 27.7474 21.9695 27.045 21.5428 26.6182L20.7603 25.8358L23.4721 23.124L25.8194 25.4624C26.0327 25.6758 26.3173 25.7825 26.6018 25.7825C26.8863 25.7825 27.1619 25.6758 27.3842 25.4624C27.8109 25.0356 27.8109 24.3332 27.3842 23.9064L25.0369 21.5681L27.7487 18.8563L29.3135 20.4212C29.5269 20.6345 29.8114 20.7412 30.0959 20.7412C30.3805 20.7412 30.6561 20.6345 30.8784 20.4212C31.3051 19.9944 31.3051 19.292 30.8784 18.8652L29.3135 17.3004L32.0253 14.5886L34.3725 16.9359C34.5859 17.1493 34.8704 17.2559 35.155 17.2559C35.4395 17.2559 35.7151 17.1493 35.9374 16.9359C36.3641 16.5091 36.3641 15.8067 35.9374 15.3799L33.5901 13.0327L35.2172 11.4056C36.2574 10.3654 37.9467 10.3654 38.987 11.4056L39.4404 11.8591L43.9926 16.4113L44.4105 16.8292C45.433 17.8605 45.433 19.5498 44.3927 20.5901Z" fill="#2872C1"/>
</svg>
