<svg width="62" height="59" viewBox="0 0 62 59" fill="none" xmlns="http://www.w3.org/2000/svg">
<path d="M47.5932 51.2628H14.411C13.8231 51.2628 13.3466 50.7863 13.3466 50.1984V30.0264C13.3466 25.2986 15.2146 20.8451 18.5177 17.542C27.3821 8.67772 42.4018 11.6443 47.2697 23.1537C48.1907 25.331 48.6576 27.6434 48.6576 30.0264V50.1984C48.6576 50.7863 48.181 51.2628 47.5932 51.2628ZM46.5288 49.134V30.0264C46.5288 21.4649 39.5636 14.4997 31.0021 14.4997C22.4406 14.4997 15.4754 21.4649 15.4754 30.0264V49.134H46.5288Z" fill="#2872C1"/>
<path d="M51.745 58.0303C51.1572 58.0303 50.6806 57.5538 50.6806 56.9659V54.6018C50.6806 52.7607 49.1828 51.2629 47.3417 51.2629H14.6364C12.7953 51.2629 11.2974 52.7607 11.2974 54.6018V56.9659C11.2974 57.5538 10.8209 58.0303 10.233 58.0303C9.64516 58.0303 9.16859 57.5538 9.16859 56.9659V54.6018C9.16859 51.5869 11.6214 49.1341 14.6363 49.1341H47.3417C50.3566 49.1341 52.8094 51.5869 52.8094 54.6018V56.9659C52.8094 57.5537 52.3329 58.0303 51.745 58.0303Z" fill="#2872C1"/>
<path d="M54.9246 58.031H7.05752C6.46967 58.031 5.99311 57.5545 5.99311 56.9666C5.99311 56.3788 6.46965 55.9022 7.05752 55.9022H54.9246C55.5124 55.9022 55.989 56.3788 55.989 56.9666C55.989 57.5545 55.5124 58.031 54.9246 58.031Z" fill="#2872C1"/>
<path d="M30.9948 8.9607C30.4069 8.9607 29.9304 8.48416 29.9304 7.89629V1.88082C29.9304 1.29297 30.4069 0.816406 30.9948 0.816406C31.5826 0.816406 32.0592 1.29295 32.0592 1.88082V7.89629C32.0592 8.48414 31.5826 8.9607 30.9948 8.9607Z" fill="#2872C1"/>
<path d="M47.9142 15.9671C46.9743 15.9671 46.4891 14.8225 47.1615 14.1501L51.4152 9.89648C51.8308 9.4808 52.5047 9.4808 52.9205 9.89648C53.3361 10.3122 53.3361 10.9861 52.9204 11.4018L48.6668 15.6554C48.459 15.8632 48.1865 15.9671 47.9142 15.9671Z" fill="#2872C1"/>
<path d="M60.9382 32.8816H54.9227C54.3348 32.8816 53.8583 32.4051 53.8583 31.8172C53.8583 31.2294 54.3348 30.7528 54.9227 30.7528H60.9382C61.526 30.7528 62.0026 31.2294 62.0026 31.8172C62.0026 32.4051 61.526 32.8816 60.9382 32.8816Z" fill="#2872C1"/>
<path d="M7.07989 32.8814H1.06441C0.476565 32.8814 0 32.4049 0 31.817C0 31.2292 0.476547 30.7526 1.06441 30.7526H7.07989C7.66773 30.7526 8.1443 31.2292 8.1443 31.817C8.1443 32.4049 7.66775 32.8814 7.07989 32.8814Z" fill="#2872C1"/>
<path d="M13.3323 15.6554L9.07873 11.4018C8.66305 10.9861 8.66305 10.3122 9.07873 9.89648C9.49441 9.4808 10.1683 9.4808 10.584 9.89648L14.8376 14.1501C15.2533 14.5657 15.2533 15.2397 14.8376 15.6554C14.422 16.071 13.748 16.0711 13.3323 15.6554Z" fill="#2872C1"/>
<path d="M19.6063 31.2725C19.0185 31.2725 18.5419 30.7959 18.5419 30.2081C18.5419 23.343 24.102 17.749 31.001 17.749C31.5889 17.749 32.0654 18.2255 32.0654 18.8134C32.0654 19.4012 31.5889 19.8778 31.001 19.8778C25.3049 19.8778 20.6707 24.5119 20.6707 30.2081C20.6707 30.7959 20.1942 31.2725 19.6063 31.2725Z" fill="#2872C1"/>
<path d="M33.6354 44.866H28.3644C27.7765 44.866 27.2999 44.3894 27.2999 43.8016V41.165H24.6633C24.0755 41.165 23.5989 40.6884 23.5989 40.1006V34.8295C23.5989 34.2416 24.0755 33.7651 24.6633 33.7651H27.2999V31.1285C27.2999 30.5406 27.7765 30.0641 28.3644 30.0641H33.6355C34.2233 30.0641 34.6998 30.5406 34.6998 31.1285V33.7651H37.3364C37.9243 33.7651 38.4008 34.2416 38.4008 34.8295V40.1006C38.4008 40.6884 37.9243 41.165 37.3364 41.165H34.6998V43.8016C34.6998 44.3894 34.2233 44.866 33.6354 44.866ZM29.4288 42.7372H32.571V40.1006C32.571 39.5127 33.0476 39.0362 33.6355 39.0362H36.272V35.8939H33.6355C33.0476 35.8939 32.571 35.4173 32.571 34.8295V32.1929H29.4288V34.8295C29.4288 35.4173 28.9522 35.8939 28.3644 35.8939H25.7278V39.0362H28.3644C28.9522 39.0362 29.4288 39.5127 29.4288 40.1006V42.7372Z" fill="#2872C1"/>
</svg>
