<svg width="45" height="55" viewBox="0 0 45 55" fill="none" xmlns="http://www.w3.org/2000/svg">
<path d="M30.0312 41.8164C29.7743 41.8164 29.5279 41.9218 29.3462 42.1093C29.1646 42.2968 29.0625 42.5512 29.0625 42.8164V49.8164C29.0617 50.6118 28.7552 51.3743 28.2103 51.9368C27.6655 52.4992 26.9268 52.8155 26.1562 52.8164H4.84375C4.07322 52.8155 3.3345 52.4992 2.78966 51.9368C2.24481 51.3743 1.93835 50.6118 1.9375 49.8164V5.81641C1.93835 5.02102 2.24481 4.25847 2.78966 3.69605C3.3345 3.13363 4.07322 2.81728 4.84375 2.81641H8.11987L9.7897 6.26371C9.87018 6.42981 9.99387 6.56949 10.1469 6.66711C10.3 6.76473 10.4763 6.81643 10.6562 6.81641H20.3438C20.5237 6.81643 20.7 6.76473 20.8531 6.66711C21.0061 6.56949 21.1298 6.42981 21.2103 6.26371L22.8801 2.81641H26.1562C26.9268 2.81728 27.6655 3.13363 28.2103 3.69605C28.7552 4.25847 29.0617 5.02102 29.0625 5.81641V10.8164C29.0625 11.0816 29.1646 11.336 29.3462 11.5235C29.5279 11.711 29.7743 11.8164 30.0312 11.8164C30.2882 11.8164 30.5346 11.711 30.7163 11.5235C30.8979 11.336 31 11.0816 31 10.8164V5.81641C30.9985 4.4908 30.4877 3.21994 29.5796 2.2826C28.6716 1.34525 27.4404 0.817968 26.1562 0.816406H4.84375C3.55957 0.817968 2.32842 1.34525 1.42037 2.2826C0.51232 3.21994 0.00151265 4.4908 0 5.81641V49.8164C0.00151265 51.142 0.51232 52.4129 1.42037 53.3502C2.32842 54.2876 3.55957 54.8148 4.84375 54.8164H26.1562C27.4404 54.8148 28.6716 54.2876 29.5796 53.3502C30.4877 52.4129 30.9985 51.142 31 49.8164V42.8164C31 42.5512 30.8979 42.2968 30.7163 42.1093C30.5346 41.9218 30.2882 41.8164 30.0312 41.8164ZM20.7136 2.81641L19.7449 4.81641H11.2551L10.2864 2.81641H20.7136Z" fill="#2872C1"/>
<path d="M13 50.8164H19C19.2652 50.8164 19.5196 50.6584 19.7071 50.3771C19.8946 50.0958 20 49.7142 20 49.3164C20 48.9186 19.8946 48.537 19.7071 48.2557C19.5196 47.9744 19.2652 47.8164 19 47.8164H13C12.7348 47.8164 12.4804 47.9744 12.2929 48.2557C12.1054 48.537 12 48.9186 12 49.3164C12 49.7142 12.1054 50.0958 12.2929 50.3771C12.4804 50.6584 12.7348 50.8164 13 50.8164Z" fill="#2872C1"/>
<path d="M31.0002 11.8164C28.5665 11.8163 26.1749 12.4733 24.0612 13.7224C21.9475 14.9716 20.1847 16.7699 18.9467 18.94C17.7087 21.11 17.0383 23.5767 17.0016 26.097C16.9648 28.6172 17.5631 31.1038 18.7373 33.3115L16.0893 39.3528C16.0202 39.5106 15.9904 39.6838 16.0027 39.8565C16.0149 40.0293 16.0688 40.1961 16.1594 40.3417C16.25 40.4873 16.3744 40.6071 16.5213 40.69C16.6681 40.7729 16.8327 40.8164 16.9999 40.8164C17.0818 40.8165 17.1633 40.8061 17.2426 40.7853L24.1988 38.982C26.0669 40.0582 28.1482 40.6769 30.283 40.7908C32.4178 40.9047 34.5495 40.5106 36.5145 39.6388C38.4794 38.767 40.2255 37.4407 41.6187 35.7615C43.0119 34.0824 44.0153 32.0951 44.5519 29.952C45.0885 27.8089 45.1439 25.567 44.7141 23.3982C44.2843 21.2295 43.3805 19.1915 42.0722 17.4406C40.7639 15.6898 39.0857 14.2725 37.1665 13.2976C35.2472 12.3227 33.1379 11.816 31.0002 11.8164ZM31.0002 38.745C28.8395 38.7482 26.7188 38.1408 24.8668 36.9881C24.7108 36.8907 24.5322 36.8393 24.3501 36.8393C24.2682 36.8391 24.1867 36.8495 24.1074 36.8703L18.7673 38.254L20.7707 33.6833C20.8376 33.5305 20.8677 33.3631 20.8583 33.1956C20.8489 33.028 20.8005 32.8653 20.717 32.7215C19.3509 30.3687 18.7754 27.6136 19.0804 24.8863C19.3854 22.1591 20.5538 19.6132 22.403 17.6462C24.2523 15.6791 26.6783 14.4015 29.3025 14.0129C31.9267 13.6244 34.6012 14.1466 36.9086 15.4982C39.2159 16.8498 41.0263 18.9546 42.057 21.484C43.0876 24.0135 43.2806 26.8252 42.6058 29.4802C41.931 32.1352 40.4264 34.4841 38.3269 36.1602C36.2273 37.8363 33.651 38.7452 31.0002 38.745Z" fill="#2872C1"/>
<path d="M38 23.8164H34V19.8164C34 19.5512 33.8946 19.2968 33.7071 19.1093C33.5196 18.9218 33.2652 18.8164 33 18.8164H29C28.7348 18.8164 28.4804 18.9218 28.2929 19.1093C28.1054 19.2968 28 19.5512 28 19.8164V23.8164H24C23.7348 23.8164 23.4804 23.9218 23.2929 24.1093C23.1054 24.2968 23 24.5512 23 24.8164V28.8164C23 29.0816 23.1054 29.336 23.2929 29.5235C23.4804 29.7111 23.7348 29.8164 24 29.8164H28V33.8164C28 34.0816 28.1054 34.336 28.2929 34.5235C28.4804 34.7111 28.7348 34.8164 29 34.8164H33C33.2652 34.8164 33.5196 34.7111 33.7071 34.5235C33.8946 34.336 34 34.0816 34 33.8164V29.8164H38C38.2652 29.8164 38.5196 29.7111 38.7071 29.5235C38.8946 29.336 39 29.0816 39 28.8164V24.8164C39 24.5512 38.8946 24.2968 38.7071 24.1093C38.5196 23.9218 38.2652 23.8164 38 23.8164ZM37 27.8164H33C32.7348 27.8164 32.4804 27.9218 32.2929 28.1093C32.1054 28.2968 32 28.5512 32 28.8164V32.8164H30V28.8164C30 28.5512 29.8946 28.2968 29.7071 28.1093C29.5196 27.9218 29.2652 27.8164 29 27.8164H25V25.8164H29C29.2652 25.8164 29.5196 25.7111 29.7071 25.5235C29.8946 25.336 30 25.0816 30 24.8164V20.8164H32V24.8164C32 25.0816 32.1054 25.336 32.2929 25.5235C32.4804 25.7111 32.7348 25.8164 33 25.8164H37V27.8164Z" fill="#2872C1"/>
</svg>
