<svg width="55" height="56" viewBox="0 0 55 56" fill="none" xmlns="http://www.w3.org/2000/svg">
<path d="M27.5 0.816406C12.3363 0.816406 0 13.1532 0 28.3164C0 43.4801 12.3363 55.8164 27.5 55.8164C42.6637 55.8164 55 43.4801 55 28.3164C55.0001 13.1532 42.6638 0.816406 27.5 0.816406ZM27.5 54.0977C13.2842 54.0977 1.7187 42.5322 1.7187 28.3164C1.7187 14.1006 13.2843 2.5352 27.5 2.5352C41.7157 2.5352 53.2813 14.1007 53.2813 28.3165C53.2813 42.5323 41.7158 54.0977 27.5 54.0977Z" fill="#2872C1"/>
<path d="M27.4954 5.13861C14.7152 5.13861 4.3175 15.5363 4.3175 28.3165C4.3175 41.0972 14.7152 51.4945 27.4954 51.4945C40.2757 51.4945 50.6735 41.0972 50.6735 28.3165C50.6735 15.5363 40.2758 5.13861 27.4954 5.13861ZM27.4954 49.7758C15.6626 49.7758 6.0362 40.1494 6.0362 28.3165C6.0362 16.4842 15.6626 6.85731 27.4954 6.85731C39.3283 6.85731 48.9547 16.4842 48.9547 28.3165C48.9547 40.1494 39.3283 49.7758 27.4954 49.7758Z" fill="#2872C1"/>
<path d="M34.0202 27.2334C33.9592 25.6162 33.3109 24.0922 32.1907 22.9386L35.6158 15.9197V15.9201C36.2301 14.66 35.7192 13.0762 34.3838 12.4793C29.6757 10.3732 24.2467 10.3673 19.8629 12.4629C19.2616 12.7504 18.8084 13.259 18.5864 13.8951C18.3628 14.5375 18.4051 15.2559 18.7031 15.8665L22.3884 23.4267C21.5227 24.5186 21.0355 25.8445 20.9829 27.2334L12.5737 27.2498C11.8944 27.251 11.2305 27.5288 10.7526 28.0122C10.2789 28.4906 10.0215 29.1212 10.0275 29.7872C10.0711 34.6522 12.468 39.5273 16.4397 42.828C16.8907 43.2028 17.4463 43.4017 18.0288 43.4017C18.1215 43.4017 18.2146 43.3966 18.3086 43.3866C18.9951 43.312 19.6325 42.9565 20.0563 42.411L26.6427 33.9407C27.2928 34.027 27.7526 34.0182 28.3599 33.9373L34.9418 42.4102C35.3653 42.9557 36.0022 43.3111 36.6891 43.3863C36.7831 43.3964 36.8768 43.4013 36.9698 43.4013C37.5519 43.4013 38.1078 43.2024 38.5589 42.8277C42.5331 39.5257 44.9324 34.6506 44.9773 29.7872C44.9832 29.1213 44.726 28.4906 44.2523 28.0123C43.7743 27.5289 43.1105 27.2511 42.4311 27.2499L34.0202 27.2334ZM20.2096 14.4611C20.2793 14.2605 20.4194 14.1019 20.604 14.0134C22.559 13.0789 24.7494 12.6124 26.9809 12.6124C29.2402 12.6124 31.5417 13.0911 33.6822 14.0483C33.8794 14.1364 34.0296 14.2996 34.1052 14.5077C34.1841 14.7255 34.1719 14.9592 34.0708 15.1661L30.8091 21.8502C30.803 21.8464 30.7963 21.8448 30.7902 21.841C29.8811 21.3097 28.707 20.9459 27.4992 20.9459C26.0992 20.9459 24.6847 21.445 23.6912 22.1771L20.2482 15.1133C20.1496 14.9109 20.1353 14.6734 20.2096 14.4611ZM18.6994 41.3561C18.5596 41.5361 18.3494 41.6532 18.1228 41.6779C17.908 41.7006 17.6999 41.6406 17.5383 41.5063C13.9506 38.5245 11.7854 34.1378 11.7464 29.7717C11.7443 29.5673 11.8257 29.3714 11.9746 29.2207C12.1328 29.0608 12.3523 28.9689 12.5772 28.9686L21.1345 28.9522C21.6036 30.9766 23.0451 32.6506 24.8518 33.4438L18.6994 41.3561ZM26.4615 32.1693C24.4465 31.7304 22.9415 30.0566 22.7143 28.0038C22.4938 24.7856 24.9092 22.6646 27.4992 22.6646C30.1141 22.6646 32.5076 24.7983 32.2921 27.9971C31.9693 30.9405 29.1234 32.7873 26.4615 32.1693ZM43.2587 29.7717C43.2184 34.1361 41.0511 38.5228 37.4604 41.5055C37.2993 41.6397 37.0907 41.7019 36.8755 41.6776C36.6489 41.6528 36.4387 41.5357 36.2989 41.3557L30.1516 33.4421C32.0768 32.5881 33.4299 30.8338 33.8702 28.9522L42.4278 28.9686C42.6527 28.969 42.8722 29.0609 43.0304 29.2207C43.1794 29.3718 43.2609 29.5673 43.2587 29.7717Z" fill="#2872C1"/>
</svg>
