<svg width="48" height="54" viewBox="0 0 48 54" fill="none" xmlns="http://www.w3.org/2000/svg">
<path d="M0.0255719 33.8837C0.0638641 34.1181 0.153694 34.3411 0.288584 34.5366C0.423475 34.7321 0.600065 34.8952 0.805621 35.0142C2.50138 36.0203 4.88109 36.1843 6.15856 36.1899V45.9688C6.15789 46.1447 6.21193 46.3164 6.31321 46.4603C6.41448 46.6041 6.55798 46.7128 6.72382 46.7715C6.94427 46.8449 11.6924 48.4672 16.384 46.3419V52.537C16.384 52.7619 16.4733 52.9776 16.6323 53.1366C16.7913 53.2956 17.007 53.3849 17.2319 53.3849H39.6611C39.7743 53.3879 39.887 53.3682 39.9925 53.327C40.098 53.2857 40.1942 53.2238 40.2753 53.1447C40.3565 53.0657 40.4209 52.9712 40.465 52.8668C40.509 52.7624 40.5316 52.6503 40.5316 52.537V44.1939C48.4451 28.8473 50.0674 17.1861 45.4097 9.54391C41.9617 3.9253 35.0543 0.816406 25.9424 0.816406C19.3346 0.816406 14.2473 2.79479 10.8219 6.69503C5.48591 12.8054 5.93812 21.5612 6.12465 23.5226C4.30453 25.6423 -0.387063 31.3966 0.0255719 33.8837ZM7.64518 24.3535C7.72046 24.2654 7.77686 24.1627 7.81089 24.0518C7.84492 23.941 7.85585 23.8244 7.84302 23.7091C7.84302 23.6131 6.66729 14.0094 12.105 7.83119C15.197 4.29271 19.849 2.51216 25.9424 2.51216C34.4212 2.51216 40.8312 5.33843 43.9401 10.4257C48.2247 17.4574 46.4837 28.9321 38.9093 43.6004C38.8465 43.7208 38.8135 43.8546 38.8132 43.9904V51.6892H18.0797V45.4092C18.4348 45.1685 18.7746 44.9061 19.0972 44.6235C19.2674 44.4736 19.371 44.2622 19.3853 44.0359C19.3996 43.8096 19.3234 43.5868 19.1735 43.4167C19.0236 43.2465 18.8122 43.1429 18.5859 43.1286C18.3596 43.1143 18.1368 43.1905 17.9667 43.3404C17.5976 43.6636 17.2046 43.9584 16.791 44.2222C13.2864 46.3814 9.31833 45.6975 7.87128 45.3527V35.3364C7.87096 35.2197 7.84671 35.1043 7.80005 34.9974C7.75338 34.8904 7.68528 34.7942 7.59996 34.7146C7.51383 34.6364 7.413 34.5761 7.30333 34.5373C7.19367 34.4985 7.07737 34.4819 6.96122 34.4885C6.92731 34.4885 3.68276 34.7146 1.71002 33.5841C1.45001 32.7532 3.79015 28.7964 7.64518 24.3535ZM39.695 10.4314C39.6126 10.3529 39.5468 10.2587 39.5016 10.1543C39.4564 10.0499 39.4327 9.93745 39.4318 9.82368C39.4309 9.70992 39.453 9.59714 39.4966 9.49207C39.5402 9.387 39.6046 9.29178 39.6858 9.2121C39.767 9.13241 39.8634 9.06988 39.9693 9.02824C40.0751 8.98659 40.1883 8.96668 40.3021 8.96969C40.4158 8.97269 40.5277 8.99856 40.6313 9.04574C40.7348 9.09292 40.8278 9.16046 40.9047 9.24432C43.3239 11.6474 44.7384 14.8807 44.8614 18.2884C45.0186 20.7884 44.7081 23.2958 43.9457 25.6819C43.8857 25.8468 43.7766 25.9894 43.6331 26.0904C43.4896 26.1915 43.3186 26.2462 43.1431 26.2471C43.049 26.2459 42.9556 26.2307 42.8661 26.2019C42.7606 26.1657 42.6633 26.109 42.5797 26.0351C42.4962 25.9612 42.428 25.8715 42.3792 25.7712C42.3303 25.6709 42.3018 25.5619 42.2951 25.4506C42.2885 25.3392 42.3039 25.2277 42.3404 25.1223C43.0379 22.9328 43.3197 20.6323 43.1713 18.3392C43.0524 15.359 41.8105 12.534 39.695 10.4314ZM33.822 5.90933C33.8543 5.80293 33.9073 5.70396 33.978 5.61814C34.0487 5.53233 34.1357 5.46136 34.234 5.40933C34.3322 5.35731 34.4398 5.32526 34.5506 5.31503C34.6613 5.3048 34.7729 5.31659 34.8791 5.34973C35.8292 5.69615 36.7419 6.13739 37.6036 6.66677C37.699 6.7243 37.7821 6.80005 37.8482 6.88971C37.9143 6.97936 37.9621 7.08115 37.9889 7.18928C38.0156 7.29741 38.0209 7.40975 38.0042 7.51989C37.9876 7.63002 37.9494 7.73581 37.8919 7.83119C37.8343 7.92658 37.7586 8.0097 37.6689 8.07581C37.5793 8.14192 37.4775 8.18972 37.3694 8.21649C37.2612 8.24326 37.1489 8.24847 37.0387 8.23182C36.9286 8.21518 36.8228 8.177 36.7274 8.11947C35.9717 7.65533 35.1729 7.26537 34.3421 6.95505C34.2373 6.91885 34.1407 6.86232 34.0578 6.7887C33.9749 6.71508 33.9074 6.62582 33.859 6.52604C33.8107 6.42626 33.7826 6.31793 33.7762 6.20725C33.7699 6.09657 33.7854 5.98572 33.822 5.88107V5.90933ZM26.5925 32.951C29.2297 32.951 31.8078 32.169 34.0006 30.7038C36.1934 29.2386 37.9025 27.1561 38.9118 24.7195C39.921 22.283 40.1851 19.6019 39.6705 17.0153C39.156 14.4287 37.8861 12.0528 36.0212 10.1879C34.1564 8.32309 31.7805 7.05312 29.1938 6.53862C26.6072 6.02411 23.9262 6.28817 21.4896 7.29741C19.0531 8.30666 16.9706 10.0157 15.5054 12.2086C14.0402 14.4014 13.2581 16.9794 13.2581 19.6167C13.2611 23.1523 14.667 26.5422 17.167 29.0422C19.667 31.5422 23.0569 32.948 26.5925 32.951ZM26.5925 7.98381C28.8946 7.98381 31.145 8.66654 33.0591 9.94565C34.9731 11.2248 36.4649 13.0428 37.3456 15.1698C38.2263 17.2968 38.4565 19.6372 38.007 21.895C37.5574 24.1528 36.4484 26.2266 34.8202 27.8541C33.1919 29.4815 31.1176 30.5895 28.8596 31.038C26.6015 31.4864 24.2612 31.2551 22.1347 30.3734C20.0081 29.4916 18.1908 27.999 16.9126 26.0843C15.6344 24.1696 14.9528 21.9188 14.9539 19.6167C14.9584 16.5319 16.1862 13.5748 18.368 11.394C20.5499 9.21319 23.5076 7.9868 26.5925 7.98381ZM19.6851 22.7652H23.444V26.5354C23.444 26.7603 23.5333 26.9759 23.6923 27.1349C23.8513 27.294 24.067 27.3833 24.2919 27.3833H28.893C29.1174 27.3818 29.3322 27.292 29.4909 27.1333C29.6496 26.9746 29.7394 26.7598 29.7409 26.5354V22.7652H33.4942C33.7191 22.7652 33.9347 22.6758 34.0937 22.5168C34.2527 22.3578 34.3421 22.1422 34.3421 21.9173V17.3161C34.3421 17.0913 34.2527 16.8756 34.0937 16.7166C33.9347 16.5576 33.7191 16.4683 33.4942 16.4683H29.7409V12.715C29.7409 12.4901 29.6516 12.2744 29.4926 12.1154C29.3336 11.9564 29.1179 11.8671 28.893 11.8671H24.2919C24.067 11.8671 23.8513 11.9564 23.6923 12.1154C23.5333 12.2744 23.444 12.4901 23.444 12.715V16.4683H19.6851C19.4606 16.4697 19.2458 16.5595 19.0872 16.7182C18.9285 16.8769 18.8387 17.0917 18.8372 17.3161V21.9173C18.8372 22.1422 18.9265 22.3578 19.0855 22.5168C19.2445 22.6758 19.4602 22.7652 19.6851 22.7652ZM20.5329 18.164H24.2919C24.5167 18.164 24.7324 18.0747 24.8914 17.9157C25.0504 17.7567 25.1398 17.541 25.1398 17.3161V13.5629H28.0452V17.3161C28.0452 17.541 28.1345 17.7567 28.2935 17.9157C28.4525 18.0747 28.6682 18.164 28.893 18.164H32.6463V21.0694H28.893C28.6682 21.0694 28.4525 21.1587 28.2935 21.3178C28.1345 21.4768 28.0452 21.6924 28.0452 21.9173V25.6762H25.1398V21.9173C25.1383 21.6929 25.0485 21.4781 24.8898 21.3194C24.7311 21.1607 24.5163 21.0709 24.2919 21.0694H20.5329V18.164Z" fill="#2872C1"/>
</svg>
