<svg width="149" height="149" viewBox="0 0 149 149" fill="none" xmlns="http://www.w3.org/2000/svg">
<circle cx="74.5" cy="74.5" r="72.5" stroke="#BFDEFF" stroke-width="4"/>
<path d="M106.392 49.473V105.751C106.392 108.416 104.233 110.575 101.568 110.575H56.5455C53.8812 110.575 51.7217 108.416 51.7217 105.751C51.7217 103.696 51.7217 44.7434 51.7217 41.4332C51.7217 38.7689 53.8812 36.6094 56.5455 36.6094H93.5285L96.7444 46.2571L106.392 49.473Z" fill="#BFDEFF"/>
<path d="M51.722 62.3359V71.9837H43.6823C41.0195 71.9837 38.8584 69.8227 38.8584 67.1598C38.8584 64.4954 41.0179 62.3359 43.6823 62.3359H51.722Z" fill="white"/>
<path d="M98.3527 76.0081V95.3035C98.3527 97.5241 96.5534 99.3234 94.3328 99.3234C92.753 99.3234 48.4561 99.3234 45.9865 99.3234C42.0502 99.3234 38.8584 96.1316 38.8584 92.1953V67.1643C38.8584 69.8271 41.0193 71.9882 43.6823 71.9882H94.3328C96.5534 71.9882 98.3527 73.7875 98.3527 76.0081Z" fill="white"/>
<path d="M106.393 49.473H93.5293V36.6094L106.393 49.473Z" fill="white"/>
<path d="M107.529 48.3346L94.6654 35.471C94.3673 35.1729 93.9558 35 93.5284 35H56.5455C52.9989 35 50.1136 37.8853 50.1136 41.4318V60.7273H43.6818C40.1353 60.7273 37.25 63.6126 37.25 67.1591V92.1901C37.25 97.0072 41.1689 100.926 45.986 100.926H50.1136V105.75C50.1136 109.297 52.9989 112.182 56.5455 112.182H101.568C105.115 112.182 108 109.297 108 105.75V49.4716C108 49.0429 107.827 48.6318 107.529 48.3346ZM95.1364 40.49L102.51 47.8636H95.1364V40.49ZM43.6818 63.9432H50.1136V70.375H43.6818C41.9058 70.375 40.4659 68.9352 40.4659 67.1591C40.4659 65.3858 41.9086 63.9432 43.6818 63.9432ZM45.986 97.7102C42.9422 97.7102 40.4659 95.234 40.4659 92.1901V72.7298C41.4333 73.2907 42.5344 73.5909 43.6818 73.5909H94.3324C95.6625 73.5909 96.7443 74.6729 96.7443 76.0028V95.2983C96.7443 96.6284 95.6625 97.7102 94.3324 97.7102H45.986ZM104.784 105.75C104.784 107.523 103.341 108.966 101.568 108.966H56.5455C54.7722 108.966 53.3295 107.523 53.3295 105.75V100.926H94.3324C97.4356 100.926 99.9602 98.4015 99.9602 95.2983V76.0028C99.9602 72.8996 97.4356 70.375 94.3324 70.375H53.3295V41.4318C53.3295 39.6586 54.7722 38.2159 56.5455 38.2159H91.9205V49.4716C91.9205 50.3597 92.6405 51.0795 93.5284 51.0795H104.784V105.75Z" fill="#BFDEFF"/>
<path d="M59.7613 49.4737H72.6249C73.5128 49.4737 74.2329 48.7538 74.2329 47.8658C74.2329 46.9777 73.5128 46.2578 72.6249 46.2578H59.7613C58.8732 46.2578 58.1533 46.9777 58.1533 47.8658C58.1533 48.7538 58.8732 49.4737 59.7613 49.4737Z" fill="#2872C1"/>
<path d="M85.4885 52.6875H59.7613C58.8732 52.6875 58.1533 53.4074 58.1533 54.2955C58.1533 55.1835 58.8732 55.9034 59.7613 55.9034H85.4885C86.3765 55.9034 87.0965 55.1835 87.0965 54.2955C87.0965 53.4074 86.3765 52.6875 85.4885 52.6875Z" fill="#2872C1"/>
<path d="M85.4885 59.1172H59.7613C58.8732 59.1172 58.1533 59.8371 58.1533 60.7251C58.1533 61.6132 58.8732 62.3331 59.7613 62.3331H85.4885C86.3765 62.3331 87.0965 61.6132 87.0965 60.7251C87.0965 59.8371 86.3765 59.1172 85.4885 59.1172Z" fill="#2872C1"/>
<path d="M55.56 85.4C55.56 84.3013 55.8053 83.32 56.296 82.456C56.7973 81.5813 57.4747 80.904 58.328 80.424C59.192 79.9333 60.1573 79.688 61.224 79.688C62.472 79.688 63.5653 80.008 64.504 80.648C65.4427 81.288 66.0987 82.1733 66.472 83.304H63.896C63.64 82.7707 63.2773 82.3707 62.808 82.104C62.3493 81.8373 61.816 81.704 61.208 81.704C60.5573 81.704 59.976 81.8587 59.464 82.168C58.9627 82.4667 58.568 82.8933 58.28 83.448C58.0027 84.0027 57.864 84.6533 57.864 85.4C57.864 86.136 58.0027 86.7867 58.28 87.352C58.568 87.9067 58.9627 88.3387 59.464 88.648C59.976 88.9467 60.5573 89.096 61.208 89.096C61.816 89.096 62.3493 88.9627 62.808 88.696C63.2773 88.4187 63.64 88.0133 63.896 87.48H66.472C66.0987 88.6213 65.4427 89.512 64.504 90.152C63.576 90.7813 62.4827 91.096 61.224 91.096C60.1573 91.096 59.192 90.856 58.328 90.376C57.4747 89.8853 56.7973 89.208 56.296 88.344C55.8053 87.48 55.56 86.4987 55.56 85.4ZM80.5613 79.832V91H78.3213V83.736L75.3293 91H73.6333L70.6253 83.736V91H68.3853V79.832H70.9293L74.4813 88.136L78.0333 79.832H80.5613ZM85.0159 81.64V84.44H88.7759V86.216H85.0159V89.176H89.2559V91H82.7759V79.816H89.2559V81.64H85.0159Z" fill="#2872C1"/>
</svg>
