<svg width="149" height="149" viewBox="0 0 149 149" fill="none" xmlns="http://www.w3.org/2000/svg">
<path fill-rule="evenodd" clip-rule="evenodd" d="M117.647 42H32.245C31.36 42 30.475 42.295 29.885 42.885C29.295 43.475 29 44.36 29 45.245V52.03H120.892V45.245C120.892 45.0975 120.892 44.8025 120.745 44.655C120.745 44.5075 120.745 44.36 120.745 44.2125C120.45 43.475 120.007 43.0325 119.417 42.59C118.975 42.1475 118.237 42 117.647 42ZM39.62 69.2874H50.5349C51.2724 69.2874 51.8624 69.8774 51.8624 70.6149V78.7274C51.8624 79.4649 51.2724 80.0549 50.5349 80.0549H39.62C38.8825 80.0549 38.2925 79.4649 38.2925 78.7274V70.6149C38.2925 69.8774 38.8825 69.2874 39.62 69.2874ZM29 57.635V92.7399C29 93.6249 29.295 94.5099 29.885 95.0999C30.475 95.6899 31.36 95.9849 32.245 95.9849H70.4474C72.0699 88.0199 79.1499 81.9724 87.7049 81.9724C96.2598 81.9724 103.34 88.0199 105.11 95.9849H117.647C118.237 95.9849 118.975 95.8374 119.417 95.3949C120.007 95.0999 120.45 94.5099 120.745 93.9199C120.745 93.6249 120.745 93.4774 120.745 93.3299C120.892 93.1824 120.892 93.0349 120.892 92.7399V57.635H29Z" fill="#BFDEFF"/>
<path fill-rule="evenodd" clip-rule="evenodd" d="M72.6603 99.5249C72.6603 91.2649 79.4453 84.6274 87.7052 84.6274C95.9652 84.6274 102.75 91.2649 102.75 99.5249C102.75 107.932 95.9652 114.57 87.7052 114.57C79.4453 114.57 72.6603 107.932 72.6603 99.5249ZM79.7403 100.852L87.1152 110.587C87.2627 110.735 87.5577 110.882 87.7052 110.882C88.0002 110.882 88.1477 110.735 88.2952 110.587L95.6702 100.852C95.8177 100.557 95.8177 100.262 95.8177 100.115C95.6702 99.8199 95.3752 99.6724 95.0802 99.6724H92.4252C91.9827 99.6724 91.6877 99.3774 91.6877 98.9349V89.0524C91.6877 88.6099 91.3927 88.3149 90.9502 88.3149H84.4602C84.1652 88.3149 83.7228 88.6099 83.7228 89.0524V98.9349C83.7228 99.3774 83.4278 99.6724 82.9853 99.6724H80.3303C80.0353 99.6724 79.8878 99.8199 79.7403 100.115C79.5928 100.262 79.5928 100.557 79.7403 100.852Z" fill="#2872C1"/>
<path d="M56.56 72.4C56.56 71.3013 56.8053 70.32 57.296 69.456C57.7973 68.5813 58.4747 67.904 59.328 67.424C60.192 66.9333 61.1573 66.688 62.224 66.688C63.472 66.688 64.5653 67.008 65.504 67.648C66.4427 68.288 67.0987 69.1733 67.472 70.304H64.896C64.64 69.7707 64.2773 69.3707 63.808 69.104C63.3493 68.8373 62.816 68.704 62.208 68.704C61.5573 68.704 60.976 68.8587 60.464 69.168C59.9627 69.4667 59.568 69.8933 59.28 70.448C59.0027 71.0027 58.864 71.6533 58.864 72.4C58.864 73.136 59.0027 73.7867 59.28 74.352C59.568 74.9067 59.9627 75.3387 60.464 75.648C60.976 75.9467 61.5573 76.096 62.208 76.096C62.816 76.096 63.3493 75.9627 63.808 75.696C64.2773 75.4187 64.64 75.0133 64.896 74.48H67.472C67.0987 75.6213 66.4427 76.512 65.504 77.152C64.576 77.7813 63.4827 78.096 62.224 78.096C61.1573 78.096 60.192 77.856 59.328 77.376C58.4747 76.8853 57.7973 76.208 57.296 75.344C56.8053 74.48 56.56 73.4987 56.56 72.4ZM76.2333 75.872H71.7853L71.0493 78H68.6973L72.7133 66.816H75.3213L79.3373 78H76.9693L76.2333 75.872ZM75.6253 74.08L74.0093 69.408L72.3932 74.08H75.6253ZM86.5984 78L84.1344 73.648H83.0784V78H80.8384V66.832H85.0304C85.8944 66.832 86.6304 66.9867 87.2384 67.296C87.8464 67.5947 88.2997 68.0053 88.5984 68.528C88.9077 69.04 89.0624 69.616 89.0624 70.256C89.0624 70.992 88.849 71.6587 88.4224 72.256C87.9957 72.8427 87.361 73.248 86.5184 73.472L89.1904 78H86.5984ZM83.0784 71.968H84.9504C85.5584 71.968 86.0117 71.824 86.3104 71.536C86.609 71.2373 86.7584 70.8267 86.7584 70.304C86.7584 69.792 86.609 69.3973 86.3104 69.12C86.0117 68.832 85.5584 68.688 84.9504 68.688H83.0784V71.968ZM94.9924 66.832C96.1657 66.832 97.195 67.0613 98.0804 67.52C98.9764 67.9787 99.6644 68.6347 100.144 69.488C100.635 70.3307 100.88 71.312 100.88 72.432C100.88 73.552 100.635 74.5333 100.144 75.376C99.6644 76.208 98.9764 76.8533 98.0804 77.312C97.195 77.7707 96.1657 78 94.9924 78H91.0884V66.832H94.9924ZM94.9124 76.096C96.0857 76.096 96.9924 75.776 97.6324 75.136C98.2724 74.496 98.5924 73.5947 98.5924 72.432C98.5924 71.2693 98.2724 70.3627 97.6324 69.712C96.9924 69.0507 96.0857 68.72 94.9124 68.72H93.3284V76.096H94.9124Z" fill="#6BA2DC"/>
<circle cx="74.5" cy="74.5" r="72.5" stroke="#BFDEFF" stroke-width="4"/>
</svg>
