<svg width="149" height="149" viewBox="0 0 149 149" fill="none" xmlns="http://www.w3.org/2000/svg">
<path fill-rule="evenodd" clip-rule="evenodd" d="M116.36 43H31.7477C30.8709 43 29.9941 43.2923 29.4095 43.8768C28.825 44.4614 28.5327 45.3382 28.5327 46.215V52.9372H119.575V46.215C119.575 46.0688 119.575 45.7766 119.429 45.6304C119.429 45.4843 119.429 45.3382 119.429 45.192C119.137 44.4614 118.698 44.0229 118.114 43.5845C117.675 43.1461 116.945 43 116.36 43ZM39.0545 70.035H49.8685C50.5991 70.035 51.1837 70.6196 51.1837 71.3503V79.3877C51.1837 80.1184 50.5991 80.7029 49.8685 80.7029H39.0545C38.3238 80.7029 37.7392 80.1184 37.7392 79.3877V71.3503C37.7392 70.6196 38.3238 70.035 39.0545 70.035ZM28.5327 58.4903V93.2705C28.5327 94.1474 28.825 95.0242 29.4095 95.6087C29.9941 96.1933 30.8709 96.4855 31.7477 96.4855H69.5967C71.2042 88.5942 78.2187 82.6027 86.6946 82.6027C95.1704 82.6027 102.185 88.5942 103.939 96.4855H116.36C116.945 96.4855 117.675 96.3394 118.114 95.901C118.698 95.6087 119.137 95.0242 119.429 94.4396C119.429 94.1474 119.429 94.0012 119.429 93.8551C119.575 93.709 119.575 93.5628 119.575 93.2705V58.4903H28.5327Z" fill="#BFDEFF"/>
<path fill-rule="evenodd" clip-rule="evenodd" d="M71.7893 99.9933C71.7893 91.8097 78.5115 85.2336 86.6951 85.2336C94.8786 85.2336 101.601 91.8097 101.601 99.9933C101.601 108.323 94.8786 114.899 86.6951 114.899C78.5115 114.899 71.7893 108.323 71.7893 99.9933ZM78.8038 101.309L86.1105 110.953C86.2567 111.1 86.5489 111.246 86.6951 111.246C86.9873 111.246 87.1335 111.1 87.2796 110.953L94.5864 101.309C94.7325 101.016 94.7325 100.724 94.7325 100.578C94.5864 100.286 94.2941 100.139 94.0018 100.139H91.3714C90.933 100.139 90.6407 99.8472 90.6407 99.4088V89.6177C90.6407 89.1793 90.3484 88.887 89.91 88.887H83.4801C83.1878 88.887 82.7494 89.1793 82.7494 89.6177V99.4088C82.7494 99.8472 82.4571 100.139 82.0187 100.139H79.3883C79.096 100.139 78.9499 100.286 78.8038 100.578C78.6576 100.724 78.6576 101.016 78.8038 101.309Z" fill="#2872C1"/>
<circle cx="74.5" cy="74.5" r="72.5" stroke="#BFDEFF" stroke-width="4"/>
<path d="M56.56 73.4C56.56 72.3013 56.8053 71.32 57.296 70.456C57.7973 69.5813 58.4747 68.904 59.328 68.424C60.192 67.9333 61.1573 67.688 62.224 67.688C63.472 67.688 64.5653 68.008 65.504 68.648C66.4427 69.288 67.0987 70.1733 67.472 71.304H64.896C64.64 70.7707 64.2773 70.3707 63.808 70.104C63.3493 69.8373 62.816 69.704 62.208 69.704C61.5573 69.704 60.976 69.8587 60.464 70.168C59.9627 70.4667 59.568 70.8933 59.28 71.448C59.0027 72.0027 58.864 72.6533 58.864 73.4C58.864 74.136 59.0027 74.7867 59.28 75.352C59.568 75.9067 59.9627 76.3387 60.464 76.648C60.976 76.9467 61.5573 77.096 62.208 77.096C62.816 77.096 63.3493 76.9627 63.808 76.696C64.2773 76.4187 64.64 76.0133 64.896 75.48H67.472C67.0987 76.6213 66.4427 77.512 65.504 78.152C64.576 78.7813 63.4827 79.096 62.224 79.096C61.1573 79.096 60.192 78.856 59.328 78.376C58.4747 77.8853 57.7973 77.208 57.296 76.344C56.8053 75.48 56.56 74.4987 56.56 73.4ZM81.5613 67.832V79H79.3213V71.736L76.3293 79H74.6333L71.6253 71.736V79H69.3853V67.832H71.9293L75.4813 76.136L79.0333 67.832H81.5613ZM86.0159 69.64V72.44H89.7759V74.216H86.0159V77.176H90.2559V79H83.7759V67.816H90.2559V69.64H86.0159Z" fill="#6BA2DC"/>
</svg>
