<svg width="70" height="70" viewBox="0 0 70 70" fill="none" xmlns="http://www.w3.org/2000/svg">
<path d="M14.0156 8.90976L16.3008 13.5403L21.4109 14.2829L17.7132 17.8871L18.5861 22.9766L14.0156 20.5738L9.44502 22.9766L10.3179 17.8871L6.62012 14.2829L11.7303 13.5403L14.0156 8.90976Z" stroke="#3A3A3A" stroke-width="4" stroke-miterlimit="10" stroke-linecap="round" stroke-linejoin="round"/>
<path d="M34.5232 8.90976L36.8085 13.5403L41.9185 14.2829L38.2209 17.8871L39.0938 22.9766L34.5232 20.5738L29.9527 22.9766L30.8256 17.8871L27.1279 14.2829L32.238 13.5403L34.5232 8.90976Z" stroke="#3A3A3A" stroke-width="4" stroke-miterlimit="10" stroke-linecap="round" stroke-linejoin="round"/>
<path d="M55.0301 8.90976L57.3153 13.5403L62.4254 14.2829L58.7277 17.8871L59.6006 22.9766L55.0301 20.5738L50.4595 22.9766L51.3324 17.8871L47.6348 14.2829L52.7448 13.5403L55.0301 8.90976Z" stroke="#3A3A3A" stroke-width="4" stroke-miterlimit="10" stroke-linecap="round" stroke-linejoin="round"/>
<mask id="mask0_1008_2792" style="mask-type:luminance" maskUnits="userSpaceOnUse" x="0" y="0" width="70" height="70">
<path d="M0 0.0032959H69.3326V69.3359H0V0.0032959Z" fill="white"/>
</mask>
<g mask="url(#mask0_1008_2792)">
<path d="M52.5584 53.5926L52.4636 54.313C52.2537 55.3083 51.3749 56.0329 50.3444 56.0329H49.7743C51.0255 56.0329 52.0032 57.085 51.9368 58.3105L51.8542 58.9348C51.6389 59.9194 50.7642 60.6342 49.7391 60.6342H49.173C49.2211 60.6342 49.2688 60.6358 49.316 60.6388C50.8343 60.7374 51.6477 62.4745 50.8407 63.7641C50.1035 64.9423 48.7955 65.7109 47.3273 65.7109H34.8352L26.667 62.5654V47.7007L36.6363 36.0997C37.5666 35.0177 39.0751 34.6305 40.4116 35.1329C41.7617 35.6393 42.6189 36.9257 42.6189 38.3152C42.6189 38.5737 42.5891 38.8352 42.5282 39.0951L40.7542 46.6541H50.7777C52.3928 46.6541 52.9672 47.5026 52.9672 48.8886C52.9672 50.1111 52.2191 51.299 50.9967 51.3121C50.9887 51.3122 50.9807 51.3122 50.9727 51.3122H50.3958C51.6484 51.3122 52.6261 52.3671 52.5584 53.5926Z" stroke="#3A3A3A" stroke-width="4" stroke-miterlimit="10" stroke-linecap="round" stroke-linejoin="round"/>
<path d="M26.6672 65.7109H17.9443V45.1224H26.6672V65.7109Z" stroke="#3A3A3A" stroke-width="4" stroke-miterlimit="10" stroke-linecap="round" stroke-linejoin="round"/>
<path d="M44.6484 3.63059H5.00187C2.98689 3.63059 1.35352 5.2641 1.35352 7.27881V26.0857C1.35352 28.1007 2.98689 29.7341 5.00187 29.7341H19.9861V38.6719L29.1926 29.7341H64.3296C66.3445 29.7341 67.9779 28.1007 67.9779 26.0857V7.27881C67.9779 5.2641 66.3445 3.63059 64.3296 3.63059H56.5621" stroke="#3A3A3A" stroke-width="4" stroke-miterlimit="10" stroke-linecap="round" stroke-linejoin="round"/>
</g>
</svg>
