<svg width="48" height="48" viewBox="0 0 48 48" fill="none" xmlns="http://www.w3.org/2000/svg">
<path d="M46.1132 14.6573C45.4135 13.0023 44.5385 11.4455 43.4977 10.0002C42.789 11.2697 42.0634 12.5814 41.3299 13.9169C43.099 16.9454 44.0416 20.4001 44.0416 24C44.0416 29.3531 41.9568 34.3862 38.1715 38.1715C34.3863 41.9567 29.3532 44.0415 24.0001 44.0415C18.647 44.0415 13.6139 41.9567 9.82862 38.1715C6.04335 34.3862 3.95854 29.3531 3.95854 24C3.95854 18.6469 6.04335 13.6138 9.82862 9.82854C13.6139 6.04328 18.647 3.95845 24.0001 3.95845C27.4764 3.95845 30.8181 4.8377 33.77 6.49107C34.5009 5.26273 35.1968 4.12421 35.838 3.11721C35.0343 2.66044 34.2015 2.25012 33.3428 1.88679C30.3824 0.634761 27.2392 0 24 0C20.7608 0 17.6177 0.634761 14.6573 1.88679C11.7993 3.09554 9.23288 4.82555 7.02922 7.02921C4.82555 9.23288 3.09554 11.7993 1.88679 14.6573C0.634768 17.6177 0 20.7608 0 24C0 27.2392 0.634768 30.3823 1.88679 33.3427C3.09554 36.2007 4.82555 38.7671 7.02922 40.9708C9.23288 43.1739 11.7993 44.9044 14.6573 46.1132C17.6176 47.3652 20.7608 48 24 48C27.2392 48 30.3823 47.3652 33.3427 46.1132C36.2007 44.9045 38.7671 43.1739 40.9708 40.9708C43.1739 38.7671 44.9045 36.2007 46.1132 33.3427C47.3652 30.3824 48 27.2392 48 24C48 20.7608 47.3652 17.6177 46.1132 14.6573Z" fill="#379137"/>
<path d="M44.7907 4.502C39.6694 13.4138 32.8435 26.2333 28.7294 34.2365C28.0476 35.5628 26.6994 36.4153 25.2088 36.4636C24.0899 36.4998 22.9537 36.5259 21.8504 36.5178C20.9953 36.5116 20.2043 36.0621 19.7585 35.3323C16.9215 30.6884 14.4641 26.8454 11.8252 22.1495C11.2558 21.1362 11.6675 19.8489 12.7215 19.3589C13.5401 18.9784 14.3962 18.631 15.2906 18.3224C17.0084 17.7297 18.9028 18.4474 19.8015 20.0268C21.1801 22.45 22.5227 24.9011 23.8288 27.3784C27.3226 21.1299 33.4997 9.6932 37.3654 3.67377C38.3594 2.12592 40.1753 1.30179 41.9907 1.59916C42.5801 1.6957 43.1701 1.8157 43.7328 1.96342C44.8352 2.25273 45.3585 3.51382 44.7907 4.502Z" fill="#379137"/>
</svg>
