<svg xmlns="http://www.w3.org/2000/svg" id="Layer_1" version="1.1" viewBox="12.75 183.68 1068.51 649.28">
  <!-- Generator: Adobe Illustrator 29.1.0, SVG Export Plug-In . SVG Version: 2.1.0 Build 142)  -->
  <defs>
    <style>
      .st0 {
        fill: #ed7d2b;
      }

      .st1 {
        fill: #2b478b;
      }

      .st2 {
        fill: #233862;
      }

      .st3 {
        fill: #82b378;
      }

      .st4 {
        fill: #ed975d;
      }

      .st5 {
        fill: #e58f8f;
      }

      .st6 {
        fill: #fff;
      }

      .st7 {
        fill: #f1a34f;
      }

      .st8 {
        fill: #283250;
      }

      .st9 {
        fill: #ebf3fa;
      }

      .st10 {
        fill: #a8c3f7;
      }

      .st11 {
        fill: #ffb27d;
      }

      .st12 {
        fill: #912f2f;
      }

      .st13 {
        fill: #bc3f3f;
      }

      .st14 {
        fill: #599dad;
      }

      .st15 {
        fill: #a8d29f;
      }

      .st16 {
        fill: #f99746;
      }

      .st17 {
        fill: #739af0;
      }

      .st18 {
        fill: #6bb7bf;
      }
    </style>
  </defs>
  <path class="st9" d="M119.38,829S-.91,691.19,49.32,529.2c45.08-145.39,248.91-239.48,357.22-167.47,52.4,34.83,94.73-105.17,268.62-156.42,128.59-37.9,318.74,47.1,270.45,307.4-36.72,197.9,145.42,99.24,105.64,317.87l-931.87-1.57Z"/>
  <g>
    <rect class="st17" x="333.22" y="230.14" width="427.57" height="600.43"/>
    <g>
      <rect class="st6" x="348.25" y="246.77" width="397.52" height="572.69"/>
      <rect class="st10" x="389.19" y="317.04" width="324.53" height="18.56"/>
      <rect class="st10" x="389.19" y="430.32" width="324.53" height="8.51"/>
      <rect class="st10" x="389.19" y="450.35" width="324.53" height="8.51"/>
      <rect class="st10" x="389.19" y="470.38" width="324.53" height="8.51"/>
      <rect class="st10" x="389.19" y="490.41" width="324.53" height="8.51"/>
      <rect class="st10" x="389.19" y="510.45" width="324.53" height="8.51"/>
      <rect class="st10" x="389.19" y="530.48" width="324.53" height="8.51"/>
      <g>
        <circle class="st10" cx="459.18" cy="646.82" r="25.04"/>
        <path class="st10" d="M589.06,670.9c-.07,0-.14,0-.21-.02-.68-.12-1.14-.76-1.02-1.44.23-1.37,5.93-33.77,23.9-44.8,1.28-.78,2.08-.38,2.45-.06,1.58,1.35.38,4.79-5.03,17.76-2.16,5.17-4.71,11.3-5.76,15.03,1.91-2.51,4.78-6.81,7.05-10.22,7.11-10.67,8.49-12.41,9.88-12.41.51,0,.98.24,1.27.66.76,1.08.18,2.89-1.78,8.21-.75,2.04-1.91,5.16-2.24,6.84,1.02-.92,2.52-2.87,3.42-4.05,2.46-3.21,3.71-4.74,5.18-4.51.31.05,1.06.27,1.42,1.26.15.41.22.88.29,1.37.19,1.28.41,2.74,1.96,3.61,3.12,1.76,12.11,1.66,37.22-8.81.64-.27,1.37.04,1.64.67.27.64-.04,1.37-.67,1.64-21.2,8.84-34.1,11.68-39.41,8.68-2.59-1.46-2.97-3.9-3.2-5.38-.71.75-1.71,2.04-2.43,2.99-2.72,3.54-4.5,5.67-6.33,5.52-.56-.05-1.03-.33-1.33-.8-.87-1.37-.02-4.07,2.13-9.89.34-.93.74-2,1.08-3-1.74,2.38-4.1,5.92-6.01,8.79-7.96,11.95-9.4,13.68-11,13.24-.25-.07-1.05-.38-1.12-1.54-.16-2.8,2.45-9.28,6.44-18.87,2.03-4.87,4.69-11.25,5.34-14.05-16.34,10.98-21.83,42.21-21.88,42.53-.1.61-.63,1.04-1.23,1.04ZM616.79,650.94h0Z"/>
      </g>
    </g>
    <path class="st16" d="M640.66,220.41h-50.42c1.13-2.98,1.75-6.22,1.75-9.6,0-14.98-12.15-27.13-27.13-27.13s-27.13,12.15-27.13,27.13c0,3.38.62,6.61,1.75,9.6h-50.42c-4.06,0-7.35,3.29-7.35,7.35v20.37c0,4.06,3.29,7.35,7.35,7.35h151.58c4.06,0,7.35-3.29,7.35-7.35v-20.37c0-4.06-3.29-7.35-7.35-7.35ZM564.87,220.82c-5.53,0-10.02-4.48-10.02-10.02s4.48-10.02,10.02-10.02,10.02,4.48,10.02,10.02-4.48,10.02-10.02,10.02Z"/>
    <path class="st0" d="M489.08,255.46h151.58c4.06,0,7.35-3.29,7.35-7.35v-20.37l-158.93,27.71Z"/>
  </g>
  <g>
    <g>
      <path class="st3" d="M758.5,743.4s-13.99-16.32-.86-26.68c0,0,9.59-5.8,17.4-5.33,0,0-11.08,18.57-7.49,20.42,3.58,1.85,10.85-21.59,10.85-21.59,0,0,21.81-2.12,28.83,1.26,0,0-18.65,15.26-14.72,16.17,3.93.91,24.07-14.07,24.07-14.07,0,0,20.3,3.46,19.22,15.84-1.08,12.39-8.08,16.21-11.15,15.88-3.07-.33-21.06-7.2-21.45-4.68-.39,2.52,10.44,10.75,18.02,11.14,0,0-14.31,15.79-23.83,11.23-9.51-4.56-10.32-11.78-16.26-14.49-5.93-2.71-10.99-2.7-8.55.06,2.45,2.76,13.18,5.45,16.57,11.45,3.39,6,6.43,10.04-3.41,8.56-9.84-1.48-25.84-8.68-26.54-16.93l-.7-8.25Z"/>
      <g>
        <path class="st3" d="M825.83,729.76s-55.15-2.13-67.32,13.65c0,0-7.11,10.84-10.75,17.37l1.79,2.93s6.48-11.56,9.9-12.17c0,0-5.59-19.42,66.38-21.77Z"/>
        <path class="st3" d="M756.37,750.37s-11.84,8.75-12.66,24.4l2.15.19s3.78-16.17,10.61-22.5c6.83-6.32-.1-2.09-.1-2.09Z"/>
      </g>
    </g>
    <g>
      <path class="st15" d="M709.6,722.88s22.25-12.46,11.87-29.37c0,0-8.31-10.38-17.21-13.05,0,0,4.75,25.22,0,25.81-4.75.59-3.26-28.48-3.26-28.48,0,0-23.43-11.27-32.63-10.38,0,0,14.54,24.62,9.79,24.03-4.75-.59-21.06-25.51-21.06-25.51,0,0-24.03-4.45-27.88,9.79-3.86,14.24,2.37,21.36,5.93,22.25,3.56.89,26.4.59,25.81,3.56-.59,2.97-16.02,7.71-24.62,5.04,0,0,9.49,23.44,21.95,22.25,12.46-1.19,16.31-8.9,24.03-9.49,7.71-.59,13.35,1.48,9.49,3.56-3.86,2.08-16.91.68-23.14,5.98-6.23,5.3-11.27,8.56.3,10.93,11.57,2.37,32.34.89,36.49-8.01l4.15-8.9Z"/>
      <g>
        <path class="st3" d="M640.18,680.16s62.3,20.17,69.42,42.72c0,0-.3,10.09,5.93,21.66v4.45s-6.53-15.13-10.09-17.21c0,0,13.94-19.58-65.26-51.62Z"/>
        <path class="st3" d="M715.53,744.54s9.61,14.59,4.13,32.35l-2.47-.66s2.4-19.56-2.63-29.4c-5.03-9.84.97-2.29.97-2.29Z"/>
      </g>
    </g>
    <g>
      <path class="st15" d="M745,705.7s-29.33-16.42-15.64-38.71c0,0,10.95-13.69,22.68-17.21,0,0-6.26,33.24,0,34.02,6.26.78,4.3-37.54,4.3-37.54,0,0,30.89-14.86,43.01-13.69,0,0-19.16,32.46-12.9,31.67s27.76-33.63,27.76-33.63c0,0,31.67-5.87,36.76,12.9,5.08,18.77-3.13,28.15-7.82,29.33-4.69,1.17-34.8.78-34.02,4.69.78,3.91,21.12,10.17,32.46,6.65,0,0-12.51,30.89-28.94,29.33-16.42-1.56-21.51-11.73-31.67-12.51-10.17-.78-17.6,1.96-12.51,4.69,5.08,2.74,22.29.9,30.5,7.88,8.21,6.98,14.86,11.28-.39,14.41-15.25,3.13-42.62,1.17-48.1-10.56l-5.47-11.73Z"/>
      <g>
        <path class="st3" d="M836.5,649.39s-82.12,26.59-91.5,56.31c0,0,.39,13.3-7.82,28.55v5.87s8.6-19.94,13.3-22.68c0,0-18.38-25.81,86.03-68.04Z"/>
        <path class="st3" d="M737.18,734.24s-12.66,19.23-5.44,42.64l3.26-.87s-3.16-25.78,3.46-38.75c6.63-12.97-1.28-3.01-1.28-3.01Z"/>
      </g>
    </g>
    <path class="st13" d="M744.01,827.65c31.73,0,57.45-25.72,57.45-57.45h-114.9c0,31.73,25.72,57.45,57.45,57.45Z"/>
    <path class="st5" d="M758.14,827.21c-2.34.29-4.72.44-7.14.44-31.73,0-57.45-25.72-57.45-57.45h14.27c0,29.31,21.95,53.49,50.31,57.01Z"/>
    <path class="st13" d="M802.25,830.57h-116.48c0-3.91,3.17-7.09,7.09-7.09h102.31c3.91,0,7.09,3.17,7.09,7.09h0Z"/>
    <rect class="st12" x="684.67" y="770.2" width="118.09" height="1.76"/>
  </g>
  <g>
    <path class="st11" d="M495.01,406.74c-2.91,5.86-7.58,12.53-11.89,13.86-4.89,1.51-7.13,4.12-7.13,4.12l-3.55-2.59-4.24-3.09s.16-.49.47-1.28c.3-.79.76-1.89,1.35-3.09,0,0,1.57-1.63.96-3.96-.61-2.32-.08-5.75,1.58-7.71,1.67-1.95,3.61-6.99,4.46-6.74,2.07.58-1.82,7.38-1.05,8.79.69,1.28,1.76.98,1.95.91.01,0,.02,0,.04-.02,6.19-1.98,14.84-15.27,17.82-13.04,1.11.83.48,11.34-.76,13.84Z"/>
    <path class="st2" d="M374.42,392.12s28.88,44.24,41.87,57.24l52.68-34.47s7.17,2.69,9.92,10.22c0,0-34.42,60.45-64.7,61.24-30.28.79-67.81-79.14-67.81-79.14l28.03-15.09Z"/>
    <g>
      <path class="st2" d="M271.14,830.57h-21.92c-2.76-1.5-5.22-4.93-6-10.04-1.07-7.06-8.99-10.91-10.7-16.69-1.71-5.77,7.06-13.9,7.06-13.9l1.47-1.89,1.53-1.96,14.55,3.43s.36,3.47.58,7.88c.16,3.18.24,6.86.06,10.09-.43,7.7,2.15,16,9,17.5,5.06,1.11,4.83,4.11,4.37,5.6Z"/>
      <path class="st2" d="M398.36,830.57h-50.13c-2.41-2.94-1.52-13.8-1.16-17.35.08-.71.13-1.13.13-1.13,0,0,17.12-13.69,19.47-3.21.07.33.16.65.25.97,2.96,9.81,16.25,14.26,23.92,15.51,4.99.81,6.83,3.4,7.51,5.21Z"/>
      <path class="st18" d="M388.81,550.73s-2.6,32.43-5.65,71.42c-4.15,52.96-9.15,118.01-9.64,130.33-.85,21.4-4.28,55.63-4.28,55.63,0,0-8.13,8.13-24.39,4.7,0,0-14.49-48.86-18.63-100.56-.06-.85-.13-1.7-.19-2.55-3.85-52.63-9.84-163.46-9.84-163.46l72.63,4.49Z"/>
      <path class="st14" d="M388.81,550.73s-2.6,32.43-5.65,71.42l-56.94,90.1c-.06-.85-.13-1.7-.19-2.55-3.85-52.63-9.84-163.46-9.84-163.46l72.63,4.49Z"/>
      <path class="st18" d="M376.94,554.59s-46.85,117.46-77.66,172.66c-30.81,55.2-40.44,70.6-40.44,70.6,0,0-17.65-7.06-19.26-11.87,0,0,11.78-106.56,32.41-132.54,11.66-14.68,25.35-58.73,25.99-74.13.64-15.41,4.17-45.89,4.17-45.89l74.78,21.18Z"/>
    </g>
    <path class="st11" d="M365.27,383.36c-18.31,5.78-49.99-9.82-49.99-9.82,0,0,16.88-12.67,16-39.01l14.16,11.41,9.62,7.75s-.04,4.57-1.09,12.57c-.28,2.11-.62,4.45-1.06,7.02,7.86,4.31,12.37,10.08,12.37,10.08Z"/>
    <path class="st4" d="M355.05,353.69s-.04,4.57-1.09,12.57c-10.65-1.83-22.74-19.05-22.74-19.05,5.43-1.57,10.18-1.85,14.22-1.27l9.62,7.75Z"/>
    <path class="st11" d="M360.65,353.25s-30.24,5.02-33.08-13.86c-2.84-18.88-8.65-30.95,10.54-34.96,19.19-4.01,24.03,2.63,26.51,8.71,2.48,6.07,3.83,38.32-3.97,40.11Z"/>
    <path class="st1" d="M390.83,553.44c-.55.46-1.19.73-1.92.73-6.88-.09-26.93,3.73-43.89,1.98-14.3-1.37-26.96-5.61-40.55-11.7-1.81-.81-5.96-3.03-5.87-5.04.06-2.21.28-5.41.56-9.45.96-14.03,2.64-38.17,1-66.01-.29-5.18-.45-10.33-.47-15.39-.14-37.74,7.34-70.93,22.38-82.16,1.28-.92,9.17,2.93,16.41,6.51,6.69,3.3,13.39,3.67,19.71,2.39l6.32,5.59c7.7,7.15,16.14,16.87,19.8,31.63,3.12,12.56,4.95,35.21,5.96,58.68.46,10.64.83,21.37.92,31.54v.36c.09,1.01.09,2.11.09,3.12.37,26.13,0,46.85-.46,47.22Z"/>
    <path class="st2" d="M299.15,529.95c.96-14.03,2.64-38.17,1-66.01-.29-5.18-.45-10.33-.47-15.39,6.26-15.19,11.38-26.21,11.38-26.21h15.79s11.57,79.06-27.71,107.61Z"/>
    <path class="st2" d="M327.55,337.58s3.1-.52,2.6-4.79c-.5-4.27-.49-9.86,2.98-8.82,3.48,1.04,3.65,3.82,5.08,2.2,1.43-1.62,1.45-8.47,11.79-8.95,10.34-.48,14.54,3.12,19.35,1.01,4.81-2.11,5.06-9.39,5.06-9.39,0,0-1.37,2.6-3.43,3.43,0,0,8.02-10.97-1.27-18.5-9.29-7.52-18.76-2.6-24.14-2.27-11.84.72-19.49,1.43-23.36,9.21-3.87,7.78-2.27,29.39,5.33,36.88Z"/>
    <g>
      <path class="st2" d="M623.89,301.64l-28.42,17.57-3.18-5.15,28.42-17.57c1.42-.88,3.29-.44,4.17.98h0c.88,1.42.44,3.29-.98,4.17Z"/>
      <path class="st13" d="M319.59,462.47l7.62,18.38-.15.09.36.42.21.51.15-.09,13.03,15.03s195.26-120.63,268.61-182.56c2.35-1.98,2.88-5.39,1.27-8.01h0c-1.62-2.62-4.91-3.66-7.73-2.45-88.19,37.93-283.38,158.67-283.38,158.67Z"/>
      <path class="st12" d="M606.46,303.39c-.34,1.11-.98,2.14-1.93,2.94-73.35,61.93-268.61,182.56-268.61,182.56l-10.3-11.89,1.6,3.85-.15.09.36.42.21.51.15-.09,13.03,15.03s195.26-120.63,268.61-182.56c2.35-1.98,2.89-5.39,1.27-8.01-.97-1.56-2.53-2.56-4.24-2.85Z"/>
      <path class="st2" d="M137.11,609.59l33.8-20.89-9.47-15.32-33.8,20.89c-4.23,2.61-5.54,8.16-2.92,12.39h0c2.61,4.23,8.16,5.54,12.39,2.92Z"/>
      <path class="st13" d="M346.24,498.49l-153.49,94.88c-11.5,7.11-26.58,3.55-33.69-7.95h0c-7.11-11.5-3.55-26.58,7.95-33.69l153.49-94.88c1.98-1.22,4.58-.61,5.8,1.37l21.31,34.47c1.22,1.98.61,4.58-1.37,5.8Z"/>
      <path class="st12" d="M157,581.23c.55,1.44,1.23,2.84,2.07,4.2h0c7.11,11.5,22.19,15.06,33.69,7.95l153.49-94.88c1.98-1.22,2.59-3.82,1.37-5.8l-2.68-4.34-157.07,97.1c-10.14,6.27-23.07,4.23-30.86-4.22Z"/>
      <path class="st7" d="M299.11,464.32l-15.17,9.65c-1.52,5.26-5.8,10.77-12.06,14.75-6.25,3.98-13.06,5.52-18.47,4.67l-90.64,57.65c-12.64,8.04-16.38,24.86-8.34,37.5l8.68,13.64c1.38,2.17.74,5.05-1.43,6.43-2.17,1.38-5.05.74-6.43-1.43l-8.68-13.64c-10.79-16.97-5.77-39.56,11.2-50.35l136.34-86.72c2.17-1.38,5.05-.74,6.43,1.43,1.38,2.17.74,5.05-1.43,6.43Z"/>
      <polygon class="st12" points="345.25 494.97 344.93 488.36 326.34 458.29 352.48 487.6 345.25 494.97"/>
    </g>
    <path class="st11" d="M268.53,540.37c.02-.36.04-.73.07-1.11.14-1.88,3.68-6.59,3.68-6.59l-8.87-4.6-3.51,5.8c-5.3,4.22-5.4,4.29-4.43,12.37.84,7-3.74,7.09-3.63,12.09.11,5,6.55,2.54,6.55,2.54,9.98-4.69,10.81-7.05,10.5-11.8.95,1.34,2.01,2.13,2.91,1.54.79-.52-.79-2.56-1.48-7.3-.1-.71-.94-1.89-1.79-2.94Z"/>
    <path class="st1" d="M263.28,536.28c5.69,1.11,11.85.66,11.85.66,0,0,16.88-52.14,19.05-56.9,2.17-4.76,50.13-61.14,50.13-61.14l-19.98-50s-51.87,86.65-57.14,98.83c-8.7,20.12-11.73,65.23-11.73,65.23,0,0,3.35,2.45,7.82,3.32Z"/>
    <path class="st11" d="M496.27,399.25s.47-7.69-2.55-7.69-18.46,19.92-18.46,19.92l1.23,4.29,19.78-16.52Z"/>
  </g>
  <path class="st8" d="M13.7,832.96h1066.61c.52,0,.95-.55.95-1.23h0c0-.67-.43-1.23-.95-1.23H13.7c-.52,0-.95.55-.95,1.23h0c0,.67.43,1.23.95,1.23Z"/>
</svg>