<svg width="82" height="95" viewBox="0 0 82 95" fill="none" xmlns="http://www.w3.org/2000/svg">
<path d="M40.7165 61.0715C46.1156 61.0715 51.2935 63.2163 55.1112 67.034C58.9289 70.8517 61.0737 76.0296 61.0737 81.4287C61.0737 82.3285 60.7162 83.1915 60.0799 83.8278C59.4436 84.4641 58.5806 84.8215 57.6808 84.8215H23.7522C22.8524 84.8215 21.9894 84.4641 21.3531 83.8278C20.7168 83.1915 20.3594 82.3285 20.3594 81.4287C20.3594 76.0296 22.5041 70.8517 26.3218 67.034C30.1396 63.2163 35.3175 61.0715 40.7165 61.0715Z" fill="#76BDFF"/>
<path d="M78.0357 88.2143H71.25V82.787C71.25 68.3873 64.5438 56.6281 53.7456 52.0956C52.8303 51.7252 52.0464 51.0899 51.4944 50.2711C50.9425 49.4524 50.6476 48.4874 50.6476 47.5C50.6476 46.5125 50.9425 45.5476 51.4944 44.7288C52.0464 43.91 52.8303 43.2747 53.7456 42.9043C64.5438 38.3718 71.25 26.6127 71.25 12.213V6.78571H78.0357C78.9356 6.78571 79.7985 6.42825 80.4348 5.79197C81.0711 5.15569 81.4286 4.2927 81.4286 3.39286C81.4286 2.49302 81.0711 1.63003 80.4348 0.993745C79.7985 0.357461 78.9356 0 78.0357 0H3.39286C2.49302 0 1.63003 0.357461 0.993746 0.993745C0.357461 1.63003 0 2.49302 0 3.39286C0 4.2927 0.357461 5.15569 0.993746 5.79197C1.63003 6.42825 2.49302 6.78571 3.39286 6.78571H10.1786V12.213C10.1786 26.6127 16.8848 38.3719 27.6829 42.9044C28.5983 43.2748 29.3822 43.9101 29.9342 44.7289C30.4861 45.5476 30.781 46.5126 30.781 47.5C30.781 48.4875 30.4861 49.4524 29.9342 50.2712C29.3822 51.09 28.5983 51.7253 27.6829 52.0957C16.8848 56.6282 10.1786 68.3873 10.1786 82.787V88.2143H3.39286C2.49302 88.2143 1.63003 88.5717 0.993746 89.208C0.357461 89.8443 0 90.7073 0 91.6071C0 92.507 0.357461 93.37 0.993746 94.0063C1.63003 94.6425 2.49302 95 3.39286 95H78.0357C78.9356 95 79.7985 94.6425 80.4348 94.0063C81.0711 93.37 81.4286 92.507 81.4286 91.6071C81.4286 90.7073 81.0711 89.8443 80.4348 89.208C79.7985 88.5717 78.9356 88.2143 78.0357 88.2143ZM16.9643 88.2143V82.787C16.9643 71.1705 22.0768 61.807 30.3071 58.3512C32.4554 57.4642 34.292 55.9595 35.5844 54.0278C36.8767 52.0961 37.5666 49.8242 37.5666 47.5C37.5666 45.1758 36.8767 42.9039 35.5844 40.9722C34.292 39.0405 32.4554 37.5358 30.3071 36.6488C22.0768 33.193 16.9643 23.8295 16.9643 12.213V6.78571H64.4643V12.213C64.4643 23.8295 59.3518 33.193 51.1215 36.6488C48.9732 37.5358 47.1365 39.0405 45.8442 40.9722C44.5518 42.9039 43.8619 45.1758 43.8619 47.5C43.8619 49.8242 44.5518 52.0961 45.8442 54.0278C47.1365 55.9595 48.9732 57.4642 51.1215 58.3512C59.3518 61.807 64.4643 71.1705 64.4643 82.787V88.2143H16.9643Z" fill="#1C5087"/>
</svg>
