<svg width="60" height="57" viewBox="0 0 60 57" fill="none" xmlns="http://www.w3.org/2000/svg">
<path d="M24.5567 10.8509C24.2679 10.8509 23.991 10.9633 23.7869 11.1634C23.5827 11.3635 23.468 11.6349 23.468 11.9179V22.0552C22.9099 22.2346 22.407 22.5491 22.006 22.9697C21.605 23.3903 21.3189 23.9033 21.1741 24.4611C21.0293 25.019 21.0305 25.6036 21.1778 26.1609C21.325 26.7181 21.6133 27.2299 22.0162 27.6488C22.419 28.0677 22.9232 28.3802 23.4821 28.5572C24.0409 28.7343 24.6364 28.7702 25.2132 28.6616C25.79 28.553 26.3295 28.3035 26.7817 27.9362C27.2338 27.5688 27.584 27.0955 27.7998 26.5601C27.8671 26.5739 27.9356 26.581 28.0043 26.5815L35.3833 26.6526H35.3942C35.6641 26.6288 35.9153 26.5072 36.0986 26.3116C36.2819 26.1159 36.3841 25.8603 36.3853 25.5947C36.3866 25.3291 36.2866 25.0726 36.1051 24.8754C35.9236 24.6781 35.6736 24.5543 35.4039 24.5282L28.0248 24.457C27.9934 24.457 27.9619 24.457 27.9317 24.457C27.7844 23.9005 27.4967 23.3892 27.0951 22.9702C26.6935 22.5511 26.1908 22.2377 25.6333 22.0587V11.9214C25.6343 11.6399 25.5217 11.3693 25.32 11.1688C25.1183 10.9683 24.844 10.854 24.5567 10.8509ZM24.5567 26.5933C24.2954 26.5933 24.0399 26.5174 23.8227 26.3751C23.6054 26.2328 23.4361 26.0305 23.3362 25.7939C23.2362 25.5573 23.2101 25.2969 23.2612 25.0458C23.3123 24.7946 23.4382 24.5639 23.6231 24.3829C23.8079 24.2019 24.0434 24.0787 24.2997 24.0289C24.556 23.9791 24.8217 24.0049 25.063 24.1031C25.3044 24.2012 25.5106 24.3673 25.6556 24.5804C25.8006 24.7934 25.8779 25.0438 25.8777 25.2999C25.8773 25.6434 25.7379 25.9727 25.49 26.2154C25.2421 26.4582 24.9059 26.5945 24.5555 26.5945L24.5567 26.5933Z" fill="#1C5087"/>
<path d="M27.5149 47.5409C26.99 47.6017 26.4628 47.6415 25.9274 47.6648V42.3424C25.9403 42.197 25.9227 42.0505 25.8759 41.9123C25.8291 41.774 25.754 41.647 25.6554 41.5393C25.5569 41.4316 25.437 41.3457 25.3034 41.2868C25.1698 41.228 25.0254 41.1976 24.8794 41.1976C24.7334 41.1976 24.5891 41.228 24.4555 41.2868C24.3219 41.3457 24.202 41.4316 24.1034 41.5393C24.0048 41.647 23.9297 41.774 23.8829 41.9123C23.8361 42.0505 23.8185 42.197 23.8314 42.3424V47.6648C12.0935 47.1259 2.6434 37.67 2.11502 25.9321H7.43861C7.58402 25.945 7.73052 25.9274 7.86878 25.8806C8.00704 25.8338 8.13405 25.7587 8.24172 25.6601C8.3494 25.5615 8.43538 25.4416 8.4942 25.308C8.55303 25.1744 8.5834 25.0301 8.5834 24.8841C8.5834 24.7381 8.55303 24.5937 8.4942 24.4601C8.43538 24.3265 8.3494 24.2066 8.24172 24.1081C8.13405 24.0095 8.00704 23.9344 7.86878 23.8876C7.73052 23.8408 7.58402 23.8232 7.43861 23.8361H2.11502C2.65392 12.0959 12.1111 2.64574 23.8513 2.11735V7.44095C23.8384 7.58636 23.856 7.73286 23.9028 7.87112C23.9496 8.00938 24.0247 8.13639 24.1233 8.24406C24.2218 8.35173 24.3417 8.43772 24.4753 8.49654C24.6089 8.55536 24.7533 8.58574 24.8993 8.58574C25.0453 8.58574 25.1896 8.55536 25.3232 8.49654C25.4568 8.43772 25.5767 8.35173 25.6753 8.24406C25.7739 8.13639 25.849 8.00938 25.8958 7.87112C25.9426 7.73286 25.9601 7.58636 25.9473 7.44095V2.11735C37.6852 2.65626 47.1353 12.1134 47.6637 23.8536H42.3389C42.077 23.8768 41.8332 23.9972 41.6556 24.1912C41.478 24.3852 41.3795 24.6386 41.3795 24.9016C41.3795 25.1646 41.478 25.4181 41.6556 25.612C41.8332 25.806 42.077 25.9265 42.3389 25.9496H47.6637C47.6461 26.3319 47.6193 26.713 47.5842 27.0906C47.5567 27.2344 47.5595 27.3825 47.5926 27.5252C47.6256 27.6679 47.688 27.8021 47.7759 27.9193C47.8638 28.0365 47.9752 28.134 48.1029 28.2057C48.2307 28.2773 48.372 28.3215 48.5178 28.3354C48.6636 28.3493 48.8107 28.3326 48.9497 28.2864C49.0887 28.2401 49.2165 28.1654 49.3249 28.0669C49.4333 27.9684 49.52 27.8484 49.5794 27.7145C49.6387 27.5806 49.6695 27.4358 49.6697 27.2893C49.7457 26.4979 49.7866 25.6913 49.7866 24.8917C49.785 19.9683 48.3239 15.1559 45.588 11.0627C42.852 6.96951 38.964 3.77929 34.4154 1.89525C29.8667 0.0112155 24.8616 -0.482058 20.0327 0.477776C15.2038 1.43761 10.7678 3.80747 7.28548 7.28781C3.80565 10.7706 1.4364 15.2068 0.477179 20.0357C-0.482045 24.8647 0.0118117 29.8696 1.89633 34.418C3.78085 38.9663 6.97144 42.8539 11.0648 45.5894C15.1583 48.3249 19.9707 49.7855 24.894 49.7866C25.851 49.7866 26.8073 49.7319 27.7581 49.6229C27.9044 49.6202 28.0487 49.5869 28.1815 49.5253C28.3143 49.4636 28.4327 49.3749 28.5293 49.2649C28.6258 49.1548 28.6984 49.0258 28.7422 48.8861C28.7861 48.7464 28.8003 48.5991 28.7839 48.4536C28.7676 48.3081 28.7211 48.1676 28.6473 48.0411C28.5736 47.9146 28.4743 47.8049 28.3557 47.719C28.2371 47.6331 28.1019 47.5729 27.9588 47.5422C27.8156 47.5116 27.6676 47.5111 27.5243 47.5409H27.5149Z" fill="#1C5087"/>
<path d="M17.126 9.07769L16.1113 7.08137C16.0461 6.92814 15.9538 6.79184 15.8401 6.68102C15.7264 6.5702 15.5938 6.48723 15.4506 6.43731C15.3074 6.3874 15.1566 6.37161 15.0078 6.39093C14.859 6.41025 14.7152 6.46427 14.5856 6.54961C14.456 6.63494 14.3433 6.74976 14.2546 6.88686C14.1658 7.02397 14.1029 7.18041 14.0698 7.3464C14.0368 7.51239 14.0342 7.68435 14.0623 7.85152C14.0904 8.01869 14.1486 8.17746 14.2332 8.31791L15.2478 10.3129C15.4029 10.5702 15.6379 10.7515 15.9057 10.8204C16.1734 10.8893 16.4542 10.8407 16.6917 10.6843C16.9293 10.5279 17.106 10.2753 17.1865 9.97709C17.2671 9.67889 17.2454 9.35714 17.126 9.07632V9.07769Z" fill="#1C5087"/>
<path d="M10.2954 15.1925L8.22683 14.1537C7.93564 14.0311 7.60202 14.0088 7.29283 14.0915C6.98363 14.1741 6.72171 14.3555 6.55954 14.5993C6.39738 14.8431 6.34695 15.1313 6.41838 15.4061C6.4898 15.6809 6.67779 15.922 6.94468 16.0812L9.01464 17.1225C9.30582 17.2451 9.63944 17.2673 9.94864 17.1847C10.2578 17.102 10.5198 16.9207 10.6819 16.6769C10.8441 16.4331 10.8945 16.1449 10.8231 15.8701C10.7517 15.5953 10.5637 15.3541 10.2968 15.195L10.2954 15.1925Z" fill="#1C5087"/>
<path d="M9.08407 32.6828L7.09068 33.8993C6.93666 33.9768 6.79951 34.0872 6.68787 34.2235C6.57623 34.3599 6.49253 34.5191 6.44204 34.6913C6.39155 34.8636 6.37537 35.0449 6.39453 35.2241C6.41368 35.4032 6.46775 35.5763 6.55332 35.7322C6.63889 35.8882 6.75412 36.0237 6.89172 36.1302C7.02932 36.2368 7.18632 36.3121 7.35282 36.3513C7.51932 36.3905 7.6917 36.3928 7.85909 36.3581C8.02649 36.3234 8.18526 36.2524 8.3254 36.1497L10.3174 34.9346C10.5744 34.7487 10.7555 34.467 10.8243 34.1459C10.893 33.8249 10.8445 33.4882 10.6883 33.2034C10.5321 32.9186 10.2799 32.7067 9.98215 32.6102C9.6844 32.5136 9.36312 32.5396 9.0827 32.6828H9.08407Z" fill="#1C5087"/>
<path d="M43.2599 14.59C43.1162 14.3383 42.8809 14.1549 42.6054 14.0797C42.3299 14.0046 42.0364 14.0437 41.7891 14.1887L40.0445 15.2182C39.8195 15.3755 39.6611 15.6139 39.6009 15.8856C39.5407 16.1573 39.5832 16.4422 39.7199 16.6832C39.8566 16.9242 40.0773 17.1035 40.3379 17.1852C40.5985 17.2669 40.8797 17.245 41.1251 17.1238L42.8685 16.0943C43.1149 15.9472 43.2943 15.7064 43.3677 15.4246C43.441 15.1427 43.4023 14.8427 43.2599 14.59Z" fill="#1C5087"/>
<path d="M16.6836 39.716C16.4307 39.5747 16.131 39.537 15.8498 39.6109C15.5686 39.6849 15.3286 39.8646 15.1821 40.1108L14.153 41.8535C14.0318 42.0988 14.0098 42.3798 14.0915 42.6403C14.1732 42.9008 14.3525 43.1214 14.5934 43.2581C14.8343 43.3947 15.1192 43.4371 15.3908 43.377C15.6624 43.3168 15.9007 43.1584 16.058 42.9336L17.0871 41.1898C17.233 40.9419 17.2725 40.6475 17.1968 40.3712C17.1211 40.0949 16.9366 39.8593 16.6836 39.716Z" fill="#1C5087"/>
<path d="M33.8369 10.851C34.0629 10.8505 34.2847 10.7944 34.4803 10.6882C34.676 10.5819 34.8385 10.4294 34.9517 10.2456L36.154 8.28807C36.2557 8.15036 36.3259 7.99433 36.3603 7.82983C36.3946 7.66533 36.3923 7.49594 36.3535 7.33232C36.3147 7.1687 36.2402 7.01442 36.1348 6.8792C36.0294 6.74397 35.8953 6.63075 35.7409 6.54665C35.5866 6.46256 35.4154 6.40943 35.2382 6.39061C35.0609 6.37179 34.8814 6.38768 34.711 6.4373C34.5406 6.48691 34.383 6.56917 34.2481 6.67887C34.1132 6.78858 34.004 6.92336 33.9273 7.07471L32.7236 9.03362C32.6122 9.21755 32.554 9.42565 32.5547 9.63727C32.5554 9.84889 32.615 10.0567 32.7275 10.24C32.84 10.4232 33.0016 10.5757 33.1962 10.6822C33.3909 10.7886 33.6117 10.8454 33.8369 10.8469V10.851Z" fill="#1C5087"/>
<path d="M59.5427 51.0135L48.0621 31.0933C47.7637 30.5757 47.3353 30.144 46.8186 29.8404C46.3019 29.5369 45.7148 29.372 45.1147 29.3618C44.5147 29.3517 43.9222 29.4966 43.3955 29.7825C42.8687 30.0684 42.4257 30.4854 42.1098 30.9926L29.8815 50.643C29.5584 51.1622 29.3799 51.7574 29.3644 52.3677C29.3488 52.9779 29.4968 53.5813 29.793 54.1161C30.0892 54.6508 30.5232 55.0977 31.0503 55.4109C31.5775 55.7241 32.1789 55.8924 32.793 55.8986L56.5066 56.1695H56.5473C57.1536 56.1676 57.7488 56.0076 58.2734 55.7055C58.798 55.4034 59.2337 54.9697 59.5369 54.4478C59.84 53.9259 60.0001 53.3341 60.0012 52.7314C60.0022 52.1288 59.8441 51.5364 59.5427 51.0135ZM57.7247 53.419C57.6039 53.6287 57.4283 53.8021 57.2166 53.9208C57.0048 54.0396 56.7648 54.0994 56.5217 54.0939L32.8082 53.8242C32.5642 53.8212 32.3254 53.754 32.1162 53.6293C31.907 53.5046 31.7348 53.3269 31.6173 53.1144C31.4998 52.9019 31.4412 52.6622 31.4475 52.4198C31.4537 52.1773 31.5246 51.9409 31.6529 51.7347L43.8812 32.0854C44.0019 31.886 44.1727 31.7212 44.3769 31.6073C44.5811 31.4935 44.8116 31.4344 45.0458 31.436H45.0714C45.3106 31.4372 45.5451 31.5016 45.751 31.6227C45.9569 31.7437 46.1267 31.917 46.243 32.1247L57.7247 52.0449C57.8479 52.2532 57.9129 52.4904 57.9129 52.732C57.9129 52.9735 57.8479 53.2107 57.7247 53.419Z" fill="#1C5087"/>
<path d="M44.3674 37.6591C44.1135 37.6591 43.87 37.7766 43.6904 37.9859C43.5108 38.1951 43.41 38.4788 43.41 38.7747V46.0196C43.3983 46.1738 43.4142 46.3291 43.4568 46.4757C43.4995 46.6223 43.5678 46.757 43.6575 46.8712C43.7472 46.9853 43.8563 47.0765 43.9779 47.1389C44.0994 47.2012 44.2308 47.2335 44.3637 47.2335C44.4965 47.2335 44.6279 47.2012 44.7495 47.1389C44.8711 47.0765 44.9802 46.9853 45.0699 46.8712C45.1596 46.757 45.2279 46.6223 45.2705 46.4757C45.3131 46.3291 45.3291 46.1738 45.3174 46.0196V38.7697C45.3163 38.4762 45.2159 38.195 45.0381 37.9871C44.8603 37.7793 44.6193 37.6614 44.3674 37.6591Z" fill="#1C5087"/>
<path d="M44.3674 49.1483C44.1125 49.1483 43.868 49.2472 43.6878 49.4231C43.5075 49.5991 43.4062 49.8378 43.4062 50.0866V50.2076C43.4274 50.4412 43.5374 50.6586 43.7147 50.817C43.8919 50.9753 44.1234 51.0632 44.3637 51.0632C44.6039 51.0632 44.8355 50.9753 45.0127 50.817C45.1899 50.6586 45.3 50.4412 45.3211 50.2076V50.0866C45.3211 49.839 45.2209 49.6015 45.0422 49.4257C44.8636 49.2499 44.621 49.1502 44.3674 49.1483Z" fill="#1C5087"/>
</svg>
