<svg width="17" height="17" viewBox="0 0 17 17" fill="none" xmlns="http://www.w3.org/2000/svg">
<path fill-rule="evenodd" clip-rule="evenodd" d="M0.523438 8.32861C0.523438 4.55741 0.523438 2.67181 1.69464 1.49981C2.86744 0.328613 4.75224 0.328613 8.52344 0.328613C12.2946 0.328613 14.1802 0.328613 15.3514 1.49981C16.5234 2.67261 16.5234 4.55741 16.5234 8.32861C16.5234 12.0998 16.5234 13.9854 15.3514 15.1566C14.181 16.3286 12.2946 16.3286 8.52344 16.3286C4.75224 16.3286 2.86664 16.3286 1.69464 15.1566C0.523438 13.9862 0.523438 12.0998 0.523438 8.32861ZM8.52344 12.9286C8.68257 12.9286 8.83518 12.8654 8.9477 12.7529C9.06022 12.6404 9.12344 12.4877 9.12344 12.3286V8.17661L10.4994 9.55261C10.5544 9.61156 10.6206 9.65884 10.6942 9.69164C10.7678 9.72443 10.8473 9.74207 10.9278 9.74349C11.0084 9.74491 11.0884 9.73009 11.1631 9.69991C11.2378 9.66973 11.3057 9.62482 11.3627 9.56784C11.4196 9.51087 11.4646 9.443 11.4947 9.36829C11.5249 9.29358 11.5397 9.21356 11.5383 9.133C11.5369 9.05243 11.5193 8.97298 11.4865 8.89938C11.4537 8.82578 11.4064 8.75954 11.3474 8.70461L8.94744 6.30461C8.83494 6.19225 8.68244 6.12914 8.52344 6.12914C8.36444 6.12914 8.21194 6.19225 8.09944 6.30461L5.69944 8.70461C5.64049 8.75954 5.59321 8.82578 5.56041 8.89938C5.52762 8.97298 5.50999 9.05243 5.50856 9.133C5.50714 9.21356 5.52196 9.29358 5.55214 9.36829C5.58232 9.443 5.62723 9.51087 5.68421 9.56784C5.74118 9.62482 5.80905 9.66973 5.88376 9.69991C5.95847 9.73009 6.03849 9.74491 6.11906 9.74349C6.19962 9.74207 6.27907 9.72443 6.35267 9.69164C6.42627 9.65884 6.49251 9.61156 6.54744 9.55261L7.92344 8.17661V12.3286C7.92344 12.6598 8.19224 12.9286 8.52344 12.9286ZM5.32344 4.92861C5.16431 4.92861 5.0117 4.8654 4.89917 4.75288C4.78665 4.64036 4.72344 4.48774 4.72344 4.32861C4.72344 4.16948 4.78665 4.01687 4.89917 3.90435C5.0117 3.79183 5.16431 3.72861 5.32344 3.72861H11.7234C11.8826 3.72861 12.0352 3.79183 12.1477 3.90435C12.2602 4.01687 12.3234 4.16948 12.3234 4.32861C12.3234 4.48774 12.2602 4.64036 12.1477 4.75288C12.0352 4.8654 11.8826 4.92861 11.7234 4.92861H5.32344Z" fill="#2872C1"/>
</svg>
