<svg width="14" height="14" viewBox="0 0 14 14" fill="none" xmlns="http://www.w3.org/2000/svg">
<path fill-rule="evenodd" clip-rule="evenodd" d="M13.4221 6.60571C13.4221 10.2539 10.4174 13.2114 6.71103 13.2114C3.00463 13.2114 0 10.2539 0 6.60571C0 2.95748 3.00463 0 6.71103 0C10.4174 0 13.4221 2.95748 13.4221 6.60571ZM6.5652 9.87554C6.37991 9.87554 6.22965 9.72764 6.22965 9.54526V5.67193C6.22965 5.48948 6.37991 5.34164 6.5652 5.34164H6.85606C7.04141 5.34164 7.19161 5.48948 7.19161 5.67193V9.54526C7.19161 9.72764 7.04141 9.87554 6.85606 9.87554H6.5652ZM6.71546 4.2608C6.54815 4.2608 6.40447 4.20591 6.28434 4.09613C6.16636 3.98424 6.10737 3.85123 6.10737 3.69711C6.10737 3.54089 6.16636 3.40788 6.28434 3.29809C6.40447 3.1862 6.54815 3.13026 6.71546 3.13026C6.88277 3.13026 7.02537 3.1862 7.14335 3.29809C7.26348 3.40788 7.32355 3.54089 7.32355 3.69711C7.32355 3.85123 7.26348 3.98424 7.14335 4.09613C7.02537 4.20591 6.88277 4.2608 6.71546 4.2608Z" fill="#8E8981"/>
</svg>
