<svg width="29" height="22" viewBox="0 0 29 22" fill="none" xmlns="http://www.w3.org/2000/svg">
<path d="M26.1449 21.1943H2.85515C2.09813 21.1934 1.37238 20.888 0.837114 20.3452C0.30185 19.8023 0.000794307 19.0662 0 18.2985V3.7117C0.000794307 2.94399 0.30185 2.20794 0.837114 1.66506C1.37238 1.12218 2.09813 0.816797 2.85515 0.815918H26.1449C26.9019 0.816797 27.6276 1.12218 28.1629 1.66506C28.6982 2.20794 28.9992 2.94399 29 3.7117V18.2985C28.9992 19.0662 28.6982 19.8023 28.1629 20.3452C27.6276 20.888 26.9019 21.1934 26.1449 21.1943ZM2.85515 1.92266C2.38746 1.92317 1.93907 2.11183 1.60839 2.44724C1.27771 2.78265 1.09175 3.2374 1.09131 3.7117V18.2985C1.09175 18.7728 1.27771 19.2276 1.60839 19.563C1.93907 19.8984 2.38746 20.087 2.85515 20.0876H26.1449C26.6125 20.087 27.0609 19.8984 27.3916 19.563C27.7223 19.2276 27.9083 18.7728 27.9087 18.2985V3.7117C27.9083 3.2374 27.7223 2.78265 27.3916 2.44724C27.0609 2.11183 26.6125 1.92317 26.1449 1.92266H2.85515Z" fill="#2872C1"/>
<path d="M14.8927 14.1402C14.7615 14.1403 14.6348 14.0919 14.5364 14.004L1.5686 2.41668L2.28076 1.59967L14.8927 12.87L27.5051 1.60103L28.2173 2.41804L15.2494 14.0054C15.1508 14.093 15.0239 14.1409 14.8927 14.1402Z" fill="#2872C1"/>
<path d="M0.922363 19.3883L9.68386 9.40551L10.4978 10.1198L1.73627 20.1026L0.922363 19.3883Z" fill="#2872C1"/>
<path d="M18.7676 10.1093L19.5815 9.39492L28.3432 19.3779L27.5293 20.0923L18.7676 10.1093Z" fill="#2872C1"/>
</svg>
