<svg width="26" height="27" viewBox="0 0 26 27" fill="none" xmlns="http://www.w3.org/2000/svg">
<path d="M5.24889 18.099C7.81333 21.1644 10.9004 23.578 14.4238 25.2859C15.7653 25.9216 17.5593 26.6758 19.558 26.8051C19.682 26.8105 19.8005 26.8159 19.9244 26.8159C21.2659 26.8159 22.3434 26.3526 23.2215 25.399C23.2269 25.3936 23.2377 25.3828 23.2431 25.3721C23.5556 24.9949 23.9111 24.6555 24.2829 24.2946C24.5361 24.0521 24.7947 23.7989 25.0425 23.5403C26.19 22.3443 26.19 20.825 25.0317 19.6667L21.7938 16.4288C21.2443 15.8578 20.5871 15.5561 19.8975 15.5561C19.2079 15.5561 18.5452 15.8578 17.9795 16.4235L16.0508 18.3522C15.873 18.2498 15.6898 18.1582 15.5174 18.072C15.3019 17.9643 15.1026 17.8619 14.9248 17.7488C13.1685 16.6336 11.5738 15.179 10.0491 13.3095C9.27872 12.3344 8.76153 11.5155 8.40056 10.6804C8.90699 10.2225 9.38109 9.74298 9.83902 9.27427C10.0006 9.10726 10.1677 8.94024 10.3347 8.77323C10.9165 8.19138 11.229 7.51795 11.229 6.83374C11.229 6.14953 10.9219 5.47609 10.3347 4.89424L8.7292 3.28877C8.54064 3.10021 8.36285 2.91704 8.17968 2.72847C7.8241 2.36213 7.45237 1.985 7.08602 1.64559C6.53111 1.10145 5.87922 0.815918 5.18962 0.815918C4.50541 0.815918 3.84814 1.10145 3.27168 1.65098L1.25676 3.6659C0.524062 4.3986 0.109225 5.28753 0.0230256 6.31654C-0.0793366 7.60415 0.157713 8.97257 0.771886 10.6265C1.7147 13.1856 3.13699 15.5615 5.24889 18.099ZM1.33757 6.42968C1.40222 5.71314 1.67698 5.11513 2.19418 4.59793L4.19833 2.59379C4.5108 2.29209 4.8556 2.13585 5.18962 2.13585C5.51826 2.13585 5.85228 2.29209 6.15937 2.60456C6.52033 2.93859 6.85974 3.28877 7.22609 3.66051C7.40927 3.84907 7.59783 4.03763 7.78639 4.23158L9.39186 5.83705C9.72588 6.17108 9.89828 6.51049 9.89828 6.84451C9.89828 7.17854 9.72588 7.51795 9.39186 7.85197C9.22485 8.01898 9.05784 8.19138 8.89082 8.3584C8.38979 8.86482 7.92108 9.34431 7.40388 9.80224C7.3931 9.81302 7.38772 9.8184 7.37694 9.82918C6.92978 10.2763 6.99982 10.702 7.10757 11.0252C7.11296 11.0414 7.11834 11.0521 7.12373 11.0683C7.53857 12.065 8.11503 13.0132 9.01474 14.1446C10.631 16.1379 12.3334 17.6841 14.2083 18.8748C14.4399 19.0256 14.6878 19.1441 14.9194 19.2627C15.1349 19.3704 15.3343 19.4728 15.512 19.5859C15.5336 19.5967 15.5498 19.6075 15.5713 19.6182C15.7491 19.7098 15.9215 19.7529 16.0939 19.7529C16.5249 19.7529 16.805 19.4782 16.8966 19.3866L18.9115 17.3717C19.224 17.0592 19.5634 16.8922 19.8975 16.8922C20.3069 16.8922 20.6409 17.1454 20.851 17.3717L24.0997 20.6149C24.7462 21.2614 24.7408 21.9618 24.0835 22.646C23.8573 22.8884 23.6202 23.1201 23.367 23.3625C22.9899 23.7289 22.5966 24.106 22.241 24.5316C21.6215 25.1997 20.8834 25.5121 19.9298 25.5121C19.8382 25.5121 19.7412 25.5068 19.6496 25.5014C17.8825 25.3882 16.2394 24.6986 15.0056 24.1114C11.6546 22.4898 8.71304 20.1893 6.27251 17.2693C4.26298 14.8503 2.91072 12.5983 2.01639 10.1848C1.46148 8.70319 1.25137 7.51256 1.33757 6.42968Z" fill="#2872C1"/>
</svg>
