<svg width="13" height="12" viewBox="0 0 13 12" fill="none" xmlns="http://www.w3.org/2000/svg">
<path d="M2.58062 0C2.08449 0.002286 1.61388 0.22026 1.29127 0.597193C1.02463 0.908738 0.87372 1.30618 0.899286 1.71546C1.06044 4.29495 2.12644 6.82819 4.09736 8.79913C6.0683 10.7701 8.60156 11.836 11.181 11.9972C11.5903 12.0228 11.9877 11.8719 12.2993 11.6052C12.6762 11.2826 12.8942 10.812 12.8965 10.3159V9.10736C12.8965 8.55685 12.522 8.07697 11.988 7.94329L10.1264 7.47709C9.81362 7.39879 9.48254 7.44961 9.20768 7.61809L7.82312 8.46691C7.61942 8.59183 7.36034 8.58469 7.17248 8.43709C6.69104 8.05891 6.11366 7.53493 5.73758 7.15891C5.36155 6.78283 4.83758 6.20545 4.45942 5.72401C4.31181 5.53615 4.30468 5.27707 4.42957 5.07337L5.27837 3.68878C5.44687 3.41393 5.49769 3.08284 5.41938 2.77011L4.95323 0.908515C4.81951 0.374527 4.33964 0 3.78917 0H2.58062Z" fill="#6B6B6B"/>
<path d="M2.58062 0C2.08449 0.002286 1.61388 0.22026 1.29127 0.597193C1.02463 0.908738 0.87372 1.30618 0.899286 1.71546C1.06044 4.29495 2.12644 6.82819 4.09736 8.79913C6.0683 10.7701 8.60156 11.836 11.181 11.9972C11.5903 12.0228 11.9877 11.8719 12.2993 11.6052C12.6762 11.2826 12.8942 10.812 12.8965 10.3159V9.10736C12.8965 8.55685 12.522 8.07697 11.988 7.94329L10.1264 7.47709C9.81362 7.39879 9.48254 7.44961 9.20768 7.61809L7.82312 8.46691C7.61942 8.59183 7.36034 8.58469 7.17248 8.43709C6.69104 8.05891 6.11366 7.53493 5.73758 7.15891C5.36155 6.78283 4.83758 6.20545 4.45942 5.72401C4.31181 5.53615 4.30468 5.27707 4.42957 5.07337L5.27837 3.68878C5.44687 3.41393 5.49769 3.08284 5.41938 2.77011L4.95323 0.908515C4.81951 0.374527 4.33964 0 3.78917 0H2.58062Z" fill="url(#paint0_linear_2471_347)"/>
<defs>
<linearGradient id="paint0_linear_2471_347" x1="6.89648" y1="0" x2="6.89648" y2="12" gradientUnits="userSpaceOnUse">
<stop stop-color="#2872C1"/>
<stop offset="0.985" stop-color="#A55CAB"/>
</linearGradient>
</defs>
</svg>
