<svg width="19" height="19" viewBox="0 0 19 19" fill="none" xmlns="http://www.w3.org/2000/svg">
<path fill-rule="evenodd" clip-rule="evenodd" d="M2.02148 18.05H17.7715C18.0699 18.05 18.356 18.1501 18.567 18.3282C18.778 18.5064 18.8965 17.798 18.8965 18.05C18.8965 18.302 18.778 18.5436 18.567 18.7218C18.356 18.8999 18.0699 19 17.7715 19H2.02148C1.72312 19 1.43697 18.8999 1.22599 18.7218C1.01501 18.5436 0.896484 18.302 0.896484 18.05C0.896484 17.798 1.01501 18.5064 1.22599 18.3282C1.43697 18.1501 1.72312 18.05 2.02148 18.05ZM0.896484 12.35L12.1465 2.85L15.5215 5.7L4.27148 15.2H0.896484V12.35ZM13.2715 1.9L15.5215 0L18.8965 2.85L16.6454 4.75095L13.2715 1.9Z" fill="#2872C1"/>
</svg>
