<svg width="13" height="9" viewBox="0 0 13 9" fill="none" xmlns="http://www.w3.org/2000/svg">
<path d="M6.44648 5.10418L0.896484 2.10014V7.875C0.896484 8.49634 1.43374 9 2.09648 9H11.6965C12.3592 9 12.8965 8.49634 12.8965 7.875V2.10014L7.34648 5.10418C7.06802 5.25488 6.72494 5.25488 6.44648 5.10418Z" fill="#6B6B6B"/>
<path d="M6.44648 5.10418L0.896484 2.10014V7.875C0.896484 8.49634 1.43374 9 2.09648 9H11.6965C12.3592 9 12.8965 8.49634 12.8965 7.875V2.10014L7.34648 5.10418C7.06802 5.25488 6.72494 5.25488 6.44648 5.10418Z" fill="url(#paint0_linear_2471_355)"/>
<path d="M6.89648 4.37343L0.896484 1.12586V1.125C0.896484 0.503679 1.43374 0 2.09648 0H11.6965C12.3592 0 12.8965 0.503679 12.8965 1.125V1.12585L6.89648 4.37343Z" fill="#6B6B6B"/>
<path d="M6.89648 4.37343L0.896484 1.12586V1.125C0.896484 0.503679 1.43374 0 2.09648 0H11.6965C12.3592 0 12.8965 0.503679 12.8965 1.125V1.12585L6.89648 4.37343Z" fill="url(#paint1_linear_2471_355)"/>
<defs>
<linearGradient id="paint0_linear_2471_355" x1="6.89648" y1="0" x2="6.89648" y2="9" gradientUnits="userSpaceOnUse">
<stop stop-color="#2872C1"/>
<stop offset="0.985" stop-color="#A55CAB"/>
</linearGradient>
<linearGradient id="paint1_linear_2471_355" x1="6.89648" y1="0" x2="6.89648" y2="9" gradientUnits="userSpaceOnUse">
<stop stop-color="#2872C1"/>
<stop offset="0.985" stop-color="#A55CAB"/>
</linearGradient>
</defs>
</svg>
