<svg width="16" height="12" viewBox="0 0 16 12" fill="none" xmlns="http://www.w3.org/2000/svg">
<path d="M8.73238 0.1605C8.32655 -0.0535 7.82471 -0.0535 7.41881 0.1605L1.21983 3.42919C0.788702 3.65652 0.788702 4.2196 1.21983 4.44694L7.41881 7.71564C7.82471 7.92961 8.32655 7.92961 8.73238 7.71564L14.9189 4.45355V7.62009C14.9189 7.8641 15.1377 8.06193 15.4077 8.06193C15.6776 8.06193 15.8965 7.8641 15.8965 7.62009V4.27644C15.8965 4.06691 15.7734 3.87315 15.5732 3.76756L8.73238 0.1605Z" fill="url(#paint0_linear_2471_354)"/>
<path d="M3.50841 9.77758C3.10796 9.56644 2.86172 9.17891 2.86172 8.75981V6.1964L7.41881 8.59933C7.82471 8.8133 8.32655 8.8133 8.73238 8.59933L13.2895 6.1964V8.75981C13.2895 9.17891 13.0433 9.56644 12.6428 9.77758L8.73238 11.8395C8.32655 12.0535 7.82471 12.0535 7.41881 11.8395L3.50841 9.77758Z" fill="url(#paint1_linear_2471_354)"/>
<defs>
<linearGradient id="paint0_linear_2471_354" x1="8.39648" y1="0" x2="8.39648" y2="12" gradientUnits="userSpaceOnUse">
<stop stop-color="#2872C1"/>
<stop offset="0.985" stop-color="#A55CAB"/>
</linearGradient>
<linearGradient id="paint1_linear_2471_354" x1="8.39648" y1="0" x2="8.39648" y2="12" gradientUnits="userSpaceOnUse">
<stop stop-color="#2872C1"/>
<stop offset="0.985" stop-color="#A55CAB"/>
</linearGradient>
</defs>
</svg>
