<svg width="35" height="35" viewBox="0 0 35 35" fill="none" xmlns="http://www.w3.org/2000/svg">
<circle opacity="0.2" cx="17.1748" cy="17.1748" r="17.1748" fill="#FF9500"/>
<path d="M18.5514 11.1L18.2914 20.8H16.3914L16.1314 11.1H18.5514ZM17.4114 25.14C16.9981 25.14 16.6514 25 16.3714 24.72C16.0914 24.44 15.9514 24.0933 15.9514 23.68C15.9514 23.2667 16.0914 22.92 16.3714 22.64C16.6514 22.36 16.9981 22.22 17.4114 22.22C17.8114 22.22 18.1514 22.36 18.4314 22.64C18.7114 22.92 18.8514 23.2667 18.8514 23.68C18.8514 24.0933 18.7114 24.44 18.4314 24.72C18.1514 25 17.8114 25.14 17.4114 25.14Z" fill="#4B3A5A"/>
</svg>
