<svg width="40" height="24" viewBox="0 0 40 24" fill="none" xmlns="http://www.w3.org/2000/svg">
<path d="M0.198 19.888C0.198 19.472 0.288 19.102 0.468 18.778C0.648 18.45 0.898 18.196 1.218 18.016C1.542 17.832 1.908 17.74 2.316 17.74C2.816 17.74 3.244 17.872 3.6 18.136C3.956 18.4 4.194 18.76 4.314 19.216H3.186C3.102 19.04 2.982 18.906 2.826 18.814C2.674 18.722 2.5 18.676 2.304 18.676C1.988 18.676 1.732 18.786 1.536 19.006C1.34 19.226 1.242 19.52 1.242 19.888C1.242 20.256 1.34 20.55 1.536 20.77C1.732 20.99 1.988 21.1 2.304 21.1C2.5 21.1 2.674 21.054 2.826 20.962C2.982 20.87 3.102 20.736 3.186 20.56H4.314C4.194 21.016 3.956 21.376 3.6 21.64C3.244 21.9 2.816 22.03 2.316 22.03C1.908 22.03 1.542 21.94 1.218 21.76C0.898 21.576 0.648 21.322 0.468 20.998C0.288 20.674 0.198 20.304 0.198 19.888ZM6.14831 18.61V19.462H7.52231V20.254H6.14831V21.178H7.70231V22H5.12231V17.788H7.70231V18.61H6.14831ZM10.6964 22L9.82041 20.41H9.57441V22H8.54841V17.788H10.2704C10.6024 17.788 10.8844 17.846 11.1164 17.962C11.3524 18.078 11.5284 18.238 11.6444 18.442C11.7604 18.642 11.8184 18.866 11.8184 19.114C11.8184 19.394 11.7384 19.644 11.5784 19.864C11.4224 20.084 11.1904 20.24 10.8824 20.332L11.8544 22H10.6964ZM9.57441 19.684H10.2104C10.3984 19.684 10.5384 19.638 10.6304 19.546C10.7264 19.454 10.7744 19.324 10.7744 19.156C10.7744 18.996 10.7264 18.87 10.6304 18.778C10.5384 18.686 10.3984 18.64 10.2104 18.64H9.57441V19.684ZM15.6725 17.788V18.61H14.5565V22H13.5305V18.61H12.4145V17.788H15.6725ZM17.3934 17.788V22H16.3674V17.788H17.3934ZM21.0589 17.788V18.61H19.3429V19.498H20.6269V20.296H19.3429V22H18.3169V17.788H21.0589ZM22.8042 17.788V22H21.7782V17.788H22.8042ZM23.5537 19.888C23.5537 19.472 23.6437 19.102 23.8237 18.778C24.0037 18.45 24.2537 18.196 24.5737 18.016C24.8977 17.832 25.2637 17.74 25.6717 17.74C26.1717 17.74 26.5997 17.872 26.9557 18.136C27.3117 18.4 27.5497 18.76 27.6697 19.216H26.5417C26.4577 19.04 26.3377 18.906 26.1817 18.814C26.0297 18.722 25.8557 18.676 25.6597 18.676C25.3437 18.676 25.0877 18.786 24.8917 19.006C24.6957 19.226 24.5977 19.52 24.5977 19.888C24.5977 20.256 24.6957 20.55 24.8917 20.77C25.0877 20.99 25.3437 21.1 25.6597 21.1C25.8557 21.1 26.0297 21.054 26.1817 20.962C26.3377 20.87 26.4577 20.736 26.5417 20.56H27.6697C27.5497 21.016 27.3117 21.376 26.9557 21.64C26.5997 21.9 26.1717 22.03 25.6717 22.03C25.2637 22.03 24.8977 21.94 24.5737 21.76C24.2537 21.576 24.0037 21.322 23.8237 20.998C23.6437 20.674 23.5537 20.304 23.5537 19.888ZM31.1 21.256H29.528L29.276 22H28.202L29.726 17.788H30.914L32.438 22H31.352L31.1 21.256ZM30.836 20.464L30.314 18.922L29.798 20.464H30.836ZM36.1118 17.788V18.61H34.9958V22H33.9698V18.61H32.8538V17.788H36.1118ZM37.8328 18.61V19.462H39.2068V20.254H37.8328V21.178H39.3868V22H36.8068V17.788H39.3868V18.61H37.8328Z" fill="#3A3A3A"/>
<path d="M0 22.6H4.752V22.9H0V22.6ZM4.75031 22.6H15.9965V22.9H4.75031V22.6ZM15.9954 22.6H17.9454V22.9H15.9954V22.6ZM17.9449 22.6H21.4069V22.9H17.9449V22.6ZM21.4062 22.6H23.3562V22.9H21.4062V22.6ZM23.3557 22.6H28.1077V22.9H23.3557V22.6ZM28.106 22.6H36.4358V22.9H28.106V22.6ZM36.4348 22.6H39.6808V22.9H36.4348V22.6Z" fill="#3A3A3A"/>
<g clip-path="url(#clip0_6158_22778)">
<path d="M27.7533 1.8946C27.5148 1.87427 27.3663 1.72807 27.3467 1.47083C27.3287 1.23393 27.5531 1.02126 27.7932 1.02596C28.0379 1.03065 28.2357 1.24331 28.2224 1.48725C28.2099 1.72103 28.0152 1.89929 27.7533 1.89382V1.8946Z" fill="white"/>
<path d="M12.9007 11.538C12.9061 11.7913 12.7107 12.0048 12.4683 11.9899C12.2087 11.9735 12.0594 11.8109 12.0297 11.563C12.0015 11.3332 12.2322 11.1174 12.4761 11.1182C12.7201 11.1189 12.8952 11.2925 12.9007 11.538Z" fill="white"/>
<path d="M27.3438 11.5347C27.3774 11.3072 27.4939 11.136 27.7644 11.1195C28.0162 11.1039 28.228 11.2986 28.2218 11.5456C28.2147 11.8091 28.0599 11.9585 27.8074 11.989C27.5767 12.0163 27.3484 11.7904 27.3445 11.5347H27.3438Z" fill="white"/>
<path d="M12.9029 1.43531C12.9014 1.71444 12.7622 1.86456 12.5026 1.89192C12.2587 1.91772 12.0358 1.716 12.0257 1.47753C12.0163 1.24923 12.2376 1.01702 12.4737 1.02875C12.7317 1.04126 12.8842 1.18043 12.9029 1.4361V1.43531Z" fill="white"/>
<path d="M20.0086 13.1454C17.3815 13.1454 14.7545 13.1454 12.1274 13.1454C11.3417 13.1454 11.0008 12.8077 11.0008 12.0313C11 8.38702 11 4.74199 11 1.09773C11 0.342455 11.3456 0 12.1095 0C17.3636 0 22.6185 0 27.8726 0C28.6591 0 28.9992 0.3362 28.9992 1.11337C28.9992 4.75762 28.9992 8.40266 28.9992 12.0469C28.9992 12.8006 28.6521 13.1446 27.8898 13.1454C25.2627 13.1462 22.6357 13.1454 20.0086 13.1454ZM12.4394 10.4597C13.0524 10.5543 13.4347 10.8882 13.5066 11.5285H26.4949C26.5653 10.8796 26.9578 10.5559 27.5543 10.4574V2.70289C26.7615 2.42064 26.6998 2.35887 26.466 1.62392H13.5004C13.4347 2.28616 13.0195 2.58796 12.4394 2.69195V10.459V10.4597ZM27.7537 1.89445C28.0156 1.89914 28.2103 1.72088 28.2228 1.48788C28.2361 1.24316 28.0391 1.03127 27.7936 1.02658C27.5528 1.02189 27.3284 1.23456 27.3471 1.47146C27.3667 1.72791 27.5152 1.87412 27.7537 1.89523V1.89445ZM12.8999 11.5379C12.8944 11.2924 12.7185 11.1188 12.4754 11.1181C12.2314 11.1173 12.0008 11.3331 12.0289 11.5629C12.0594 11.8108 12.208 11.9734 12.4676 11.9898C12.7099 12.0055 12.9054 11.7912 12.8999 11.5379ZM27.344 11.5348C27.3479 11.7905 27.5762 12.0164 27.8069 11.9891C28.0594 11.9586 28.2142 11.81 28.2213 11.5457C28.2283 11.2987 28.0156 11.104 27.7639 11.1196C27.4941 11.136 27.3776 11.3073 27.3432 11.5348H27.344ZM12.9023 1.4355C12.8835 1.17983 12.731 1.04066 12.473 1.02815C12.2377 1.01642 12.0156 1.24863 12.025 1.47694C12.0352 1.71618 12.258 1.9179 12.502 1.89132C12.7615 1.86396 12.9007 1.71384 12.9023 1.43471V1.4355Z" fill="#3A3A3A"/>
<rect x="12" y="2" width="16" height="9" fill="#3A3A3A"/>
<rect x="13" y="1" width="14" height="11" fill="#3A3A3A"/>
<path d="M19.9977 4.22741C18.7585 4.22741 17.5184 4.22741 16.2792 4.22741C16.1791 4.22741 16.0563 4.2579 15.9829 4.21178C15.8726 4.14375 15.7155 4.00927 15.7272 3.92327C15.7428 3.8099 15.8922 3.702 16.004 3.61912C16.0556 3.5816 16.1556 3.60974 16.2338 3.60974C18.7467 3.60974 21.2588 3.60974 23.7717 3.60974C23.8499 3.60974 23.9477 3.58316 24.0024 3.61912C24.1111 3.69106 24.2667 3.79504 24.2729 3.89278C24.2792 3.99442 24.1486 4.12968 24.0446 4.20474C23.9766 4.254 23.8507 4.22585 23.7499 4.22585C22.4989 4.22663 21.2487 4.22585 19.9977 4.22585V4.22741Z" fill="white"/>
<path d="M20.0318 4.94197C21.2938 4.94197 22.5549 4.94275 23.8168 4.94119C24.0397 4.94119 24.2813 4.9451 24.2852 5.23438C24.2891 5.53696 24.0436 5.5612 23.8051 5.5612C21.2711 5.56042 18.7363 5.5612 16.2023 5.55964C16.1139 5.55964 15.9959 5.57918 15.9427 5.53149C15.845 5.44549 15.7175 5.30866 15.7293 5.2078C15.7402 5.11163 15.9013 5.01155 16.017 4.95448C16.0983 4.9146 16.214 4.94275 16.3149 4.94275C17.5541 4.94275 18.7934 4.94275 20.0326 4.94275L20.0318 4.94197Z" fill="white"/>
<path d="M16.0455 9.71382C15.9852 9.99365 15.9115 10.2717 15.8689 10.5542C15.8345 10.7826 15.791 10.9857 15.5215 10.9814C15.257 10.9779 15.2052 10.7782 15.1742 10.5498C15.1365 10.2735 15.0704 10.0024 15.0168 9.72864L14.8796 9.71208C14.8126 9.91781 14.7365 10.1209 14.6829 10.3302C14.6553 10.4356 14.7063 10.5821 14.6536 10.6579C14.5615 10.7896 14.4226 10.9508 14.2895 10.9657C14.1991 10.9753 13.9857 10.739 14.0008 10.6414C14.066 10.2186 14.1305 9.77223 14.3155 9.39912C14.5607 8.90221 15.0227 8.89611 15.5249 9.29538C16.0137 8.85601 16.6799 8.80283 16.9377 9.86551C17.0289 10.2404 17.1695 10.3406 17.5085 10.3153C17.8776 10.2874 18.2492 10.3066 18.62 10.311C18.8351 10.3136 18.9966 10.3982 19 10.6562C19.0033 10.9221 18.8309 10.9953 18.62 10.997C18.0098 11.0014 17.4005 11.0005 16.7904 10.997C16.5292 10.9962 16.4146 10.8558 16.3869 10.5821C16.3577 10.2927 16.2781 10.0085 16.2204 9.72167C16.1626 9.71905 16.1041 9.71644 16.0463 9.71382H16.0455Z" fill="white"/>
<path d="M19.9647 6.88681C19.1945 6.88681 18.4252 6.88681 17.655 6.88681C17.555 6.88681 17.4314 6.91183 17.3603 6.86335C17.2571 6.7922 17.1374 6.67102 17.1273 6.56156C17.1195 6.47477 17.2516 6.35436 17.3478 6.28634C17.4103 6.24256 17.5206 6.26132 17.6089 6.26132C19.2047 6.26054 20.8005 6.26054 22.3955 6.26054C22.4181 6.26054 22.44 6.26054 22.4627 6.26054C22.6762 6.26445 22.8833 6.28947 22.888 6.56781C22.8927 6.84459 22.6918 6.88603 22.4752 6.88681C21.9952 6.88916 21.5159 6.88759 21.0358 6.88759C20.6785 6.88759 20.322 6.88759 19.9647 6.88759V6.88681Z" fill="white"/>
<path d="M20.0032 3.0956C19.1885 3.0956 18.3738 3.0956 17.5599 3.0956C17.3355 3.0956 17.1064 3.08778 17.1134 2.78364C17.1197 2.48653 17.3464 2.47949 17.5716 2.47949C19.201 2.48106 20.8296 2.47558 22.459 2.48887C22.599 2.48966 22.796 2.57644 22.864 2.68669C22.9923 2.8931 22.8148 3.08934 22.5145 3.09169C21.6779 3.09716 20.8406 3.09403 20.004 3.09403L20.0032 3.0956Z" fill="white"/>
<path d="M23.5387 7.75717C24.3379 8.42699 25.0648 8.4825 25.89 7.63135C25.89 8.21605 25.7479 8.6663 25.9296 8.94261C26.1195 9.2325 26.621 9.35585 27.106 9.61613C26.0827 9.85791 25.558 10.3575 25.9023 11.3863C25.0894 10.7177 24.3434 10.677 23.5455 11.4208C23.8187 10.4315 23.4826 9.83694 22.3691 9.5927C23.3802 9.28801 23.8939 8.78225 23.5373 7.75717H23.5387Z" fill="white"/>
</g>
<defs>
<clipPath id="clip0_6158_22778">
<rect width="18" height="13.1462" fill="white" transform="translate(11)"/>
</clipPath>
</defs>
</svg>
