<svg width="49" height="50" viewBox="0 0 49 50" fill="none" xmlns="http://www.w3.org/2000/svg">
<circle opacity="0.2" cx="24.459" cy="25.3374" r="24.3496" fill="#FF9500"/>
<g clip-path="url(#clip0_4592_468)">
<path d="M36.6348 32.886C36.6348 33.4286 36.4342 33.8426 36.0331 34.1278C35.632 34.413 35.1398 34.5557 34.5564 34.5557H14.3635C13.7801 34.5557 13.2879 34.4096 12.8868 34.1174C12.4857 33.8252 12.2852 33.4147 12.2852 32.886C12.2852 32.4686 12.4164 32.0442 12.679 31.6128L22.7645 14.8325C23.2458 14.0672 23.8146 13.6846 24.4709 13.6846C25.1272 13.6846 25.6815 14.0672 26.1336 14.8325L36.241 31.6337C36.5035 32.079 36.6348 32.4964 36.6348 32.886ZM25.9804 22.2208V19.1737H22.9395V22.2208C22.9395 22.4156 22.9541 22.6 22.9832 22.7739C23.0124 22.9479 23.0525 23.1427 23.1036 23.3583C23.1546 23.574 23.1947 23.7584 23.2239 23.9114L23.7927 27.2925H25.0835L25.6742 23.9114C25.7033 23.7723 25.7471 23.5914 25.8054 23.3688C25.8638 23.1461 25.9075 22.9479 25.9367 22.7739C25.9659 22.6 25.9804 22.4156 25.9804 22.2208ZM25.9804 30.298C25.9804 29.8945 25.8309 29.5536 25.532 29.2753C25.233 28.997 24.872 28.8579 24.449 28.8579C24.0406 28.8579 23.687 28.997 23.388 29.2753C23.089 29.5536 22.9395 29.8945 22.9395 30.298C22.9395 30.7015 23.089 31.0458 23.388 31.3311C23.687 31.6163 24.0406 31.7589 24.449 31.7589C24.872 31.7589 25.233 31.6163 25.532 31.3311C25.8309 31.0458 25.9804 30.7015 25.9804 30.298Z" fill="#FF9500"/>
</g>
<defs>
<clipPath id="clip0_4592_468">
<rect width="24.3496" height="20.8711" fill="white" transform="translate(12.2852 13.6846)"/>
</clipPath>
</defs>
</svg>
