<svg width="23" height="20" viewBox="0 0 23 20" fill="none" xmlns="http://www.w3.org/2000/svg">
<path d="M13.733 11.5151L13.7262 11.522H13.9686C15.0344 11.522 15.9062 10.6501 15.9062 9.58435L15.907 2.23215C15.907 1.16636 15.0352 0.294531 13.9694 0.294531H2.94113C1.87534 0.294531 1.00352 1.16636 1.00352 2.23214V9.58346C1.00352 10.6492 1.87534 11.5211 2.94113 11.5211H3.45366V13.008C3.45366 13.5446 3.77173 14.0223 4.2694 14.2273L4.27044 14.2277C4.43521 14.2935 4.60715 14.327 4.7796 14.327C5.12431 14.327 5.46179 14.1946 5.72044 13.9359L8.14122 11.5151H13.733ZM4.87876 12.773V10.8154C4.87876 10.4233 4.5583 10.1028 4.16623 10.1028H2.94115C2.65953 10.1028 2.42862 9.87192 2.42862 9.5903V2.23214C2.42862 1.95053 2.65953 1.71961 2.94115 1.71961H13.9686C14.2502 1.71961 14.4811 1.95053 14.4811 2.23214V9.58346C14.4811 9.86508 14.2502 10.096 13.9686 10.096H7.8424C7.64932 10.096 7.47186 10.1745 7.33852 10.3009L7.30773 10.3301L7.30765 10.3386L4.87876 12.773ZM22.0332 7.49516V7.44878L22.0257 7.4424C22.0006 6.39804 21.1388 5.55165 20.0887 5.55165H17.025C16.6329 5.55165 16.3125 5.87211 16.3125 6.26418C16.3125 6.65625 16.6329 6.97671 17.025 6.97671H20.0887C20.3703 6.97671 20.6012 7.20762 20.6012 7.48924V14.8406C20.6012 15.1222 20.3703 15.3531 20.0887 15.3531H18.8636C18.4715 15.3531 18.151 15.6735 18.151 16.0656V18.0176L15.6933 15.5598L15.6933 15.5598L15.6914 15.558C15.558 15.4316 15.3806 15.3531 15.1875 15.3531H9.0613C8.77969 15.3531 8.54877 15.1222 8.54877 14.8405V13.3639C8.54877 12.9718 8.22831 12.6514 7.83624 12.6514C7.44417 12.6514 7.12371 12.9718 7.12371 13.3639V14.8405C7.12371 15.9063 7.99554 16.7781 9.06132 16.7781H14.8955L17.3163 19.1989C17.575 19.4576 17.9124 19.5901 18.2572 19.5901C18.4296 19.5901 18.6015 19.5565 18.7663 19.4908L18.7674 19.4903C19.265 19.2853 19.5831 18.8076 19.5831 18.271V16.7841H20.0956C21.1614 16.7841 22.0332 15.9123 22.0332 14.8465V7.49516ZM12.3396 3.17985C12.0606 2.97066 11.6642 2.99259 11.4106 3.24615L7.58471 7.07209L5.48699 4.97437L5.48685 4.97424C5.20839 4.6968 4.75921 4.69661 4.48145 4.97437L4.48132 4.9745C4.20388 5.25297 4.2037 5.70215 4.48145 5.9799L7.07885 8.5773L7.07883 8.57733L7.08076 8.57916C7.2141 8.70557 7.39156 8.78407 7.58464 8.78407C7.77549 8.78407 7.95462 8.71311 8.09043 8.5773L12.4222 4.24551L12.4224 4.24538C12.6998 3.96691 12.7 3.51774 12.4222 3.23998L12.3507 3.1685L12.3396 3.17985Z" fill="#3A3A3A" stroke="#3A3A3A" stroke-width="0.2"/>
</svg>
