<svg width="88" height="89" viewBox="0 0 88 89" fill="none" xmlns="http://www.w3.org/2000/svg">
<circle cx="43.7626" cy="44.4305" r="43.5897" fill="#2872C1"/>
<path d="M30.7929 40.1954C29.8097 41.3383 28.9058 42.3883 28.0019 43.4411C27.7015 43.7907 27.4079 44.1621 26.8644 43.99C26.2909 43.8084 26.2513 43.3469 26.2554 42.8376C26.2691 41.2673 26.2513 39.697 26.2664 38.1267C26.2704 37.7567 26.1762 37.5887 25.783 37.4645C23.9724 36.8882 22.7817 35.2975 22.7462 33.3681C22.7066 31.2298 22.7066 29.0901 22.7448 26.9518C22.7844 24.7083 24.3356 22.9769 26.5422 22.6355C26.7866 22.5973 27.046 22.5836 27.2891 22.6205C27.7533 22.6915 28.0879 23.0206 28.0019 23.4562C27.9418 23.7607 27.6154 24.0802 27.3246 24.2536C27.0747 24.4038 26.6978 24.3232 26.392 24.4024C25.2818 24.6933 24.5063 25.6983 24.5008 26.8616C24.4899 29.0232 24.4912 31.1847 24.4994 33.3476C24.5049 34.7472 25.4662 35.7972 26.8658 35.9625C27.7684 36.069 27.9254 36.2478 27.9281 37.1777C27.9309 38.2933 27.9309 39.4075 27.9349 40.5231C27.9349 40.5641 27.9609 40.6037 28.0223 40.7826C28.7938 39.88 29.5325 39.0443 30.2303 38.1745C30.3491 38.027 30.3122 37.7389 30.3136 37.515C30.3341 35.3767 30.2795 33.2343 30.3805 31.1C30.4788 29.0177 32.2594 27.3286 34.3554 27.233C35.7413 27.1702 37.13 27.2016 38.5187 27.2003C43.3429 27.1975 48.167 27.2003 52.9912 27.2003H53.7832C54.0522 25.8512 53.1046 24.5581 51.7473 24.3615C51.4114 24.3123 51.0673 24.3109 50.7259 24.3109C45.5604 24.3082 40.3948 24.3096 35.2293 24.3082C34.2652 24.3082 33.8515 24.0638 33.8283 23.4862C33.8024 22.884 34.2516 22.6 35.2293 22.6C40.3265 22.6 45.4266 22.6806 50.5211 22.5672C53.2329 22.5072 55.4846 23.9327 55.688 27.1989C56.4937 27.1989 57.3075 27.1989 58.1213 27.1989C58.8723 27.1989 59.6233 27.2167 60.3743 27.2003C62.4949 27.1566 64.6469 28.791 64.7506 31.5179C64.8353 33.7682 64.8203 36.0239 64.7493 38.2756C64.7015 39.7858 63.9996 41.0065 62.7161 41.8749C62.5195 42.0087 62.3597 42.3283 62.3433 42.5727C62.2942 43.2745 62.3761 43.9873 62.3037 44.6851C62.2696 45.0196 62.0689 45.518 61.8244 45.604C61.5227 45.7105 61.0133 45.5685 60.7403 45.3514C59.7803 44.5881 58.9023 43.7224 57.9479 42.9509C57.6625 42.7202 57.2296 42.5549 56.8637 42.5536C49.7865 42.5304 42.7093 42.4976 35.6321 42.5604C33.5907 42.5781 31.9194 42.0975 30.7929 40.1913V40.1954ZM60.6611 43.0287C60.6611 42.5809 60.6829 42.331 60.657 42.0866C60.5778 41.3246 60.8031 40.8344 61.5882 40.5067C62.5427 40.1094 63.0042 39.2628 63.0083 38.2141C63.0165 36.0307 63.0165 33.8474 63.0097 31.664C63.0042 30.02 61.8695 28.8825 60.2268 28.8825C51.7664 28.8784 43.3074 28.8784 34.8469 28.8825C33.1824 28.8825 32.0259 30.0445 32.0204 31.7145C32.0136 33.7163 32.0177 35.7167 32.0191 37.7185C32.0191 39.8213 33.0964 40.8891 35.2183 40.8891C42.6315 40.8891 50.0459 40.8932 57.459 40.8809C57.9957 40.8809 58.4135 41.0147 58.8013 41.3916C59.3502 41.9241 59.9469 42.4061 60.6611 43.0301V43.0287Z" fill="white"/>
<path d="M50.9183 56.0332C50.6575 55.3232 50.4309 54.6883 50.1892 54.0601C50.1195 53.8785 50.0253 53.6983 49.9079 53.5426C49.1978 52.6086 49.1896 51.6692 49.8382 50.7093C50.0035 50.4649 50.0786 50.1358 50.1209 49.8354C50.4035 47.8063 51.3607 46.7235 53.4021 46.4258C54.6761 46.2401 55.9815 46.2142 57.224 46.7563C58.6387 47.3735 59.3501 48.4508 59.4661 49.9719C59.4866 50.2437 59.5904 50.5372 59.7406 50.7653C60.2554 51.5422 60.2772 52.326 59.8894 53.1521C59.6259 53.7133 59.391 54.2882 59.1302 54.8507C58.95 55.2399 58.7452 55.6181 58.5363 56.0291C60.3933 56.3992 61.9281 57.284 63.1065 58.7751C64.0309 59.9453 64.4569 61.278 64.5033 62.7472C64.5211 63.2934 64.5184 63.8396 64.5033 64.3858C64.4719 65.5628 63.7387 66.2906 62.5644 66.292C57.377 66.2974 52.1882 66.2961 47.0008 66.292C46.0136 66.292 45.2284 65.7909 45.1383 64.9374C44.9157 62.8333 44.9239 60.7482 46.3085 58.9458C47.3968 57.5298 48.7691 56.5467 50.5333 56.1534C50.6848 56.1193 50.8323 56.0605 50.9197 56.0319L50.9183 56.0332ZM62.6777 64.5565C63.3523 60.4232 60.9559 58.3805 58.7179 57.8971C58.1061 59.7814 56.7912 60.7659 54.814 60.7837C52.774 60.8014 51.4317 59.7869 50.8009 57.8548C47.5961 58.8215 46.3112 61.3326 46.8643 64.5442H48.9452C48.9452 64.17 48.9411 63.8341 48.9452 63.4982C48.9548 62.9411 49.2197 62.5615 49.7891 62.5424C50.3721 62.5233 50.637 62.9206 50.6794 63.46C50.708 63.8123 50.6848 64.17 50.6848 64.5155H59.0333C59.0333 64.1072 59.0333 63.7686 59.0333 63.43C59.0319 62.881 59.3132 62.5424 59.8498 62.5451C60.411 62.5492 60.7101 62.8933 60.7005 63.4737C60.6951 63.8259 60.7005 64.1769 60.7005 64.5565H62.6791H62.6777ZM57.7265 50.5017C57.8057 49.1786 57.2923 48.4453 56.0852 48.1763C55.6237 48.0739 55.1417 47.9988 54.6734 48.0125C52.4586 48.078 51.627 48.7908 51.8031 50.8335C51.8264 51.1053 51.6243 51.4876 51.4031 51.6692C51.0098 51.9942 51.0508 52.2263 51.3525 52.5595C51.5396 52.7657 51.7977 53.0238 51.8031 53.2627C51.8482 55.0187 53.2451 56.1848 55.4039 55.9049C56.6273 55.7465 57.5244 54.7811 57.702 53.63C57.7607 53.2477 57.9955 52.8667 58.2277 52.5417C58.4434 52.24 58.5909 51.9546 58.2318 51.7402C57.702 51.4234 57.6364 50.9837 57.7252 50.5017H57.7265ZM52.6252 57.7059C53.1113 58.7915 53.9879 59.2243 55.2277 59.0577C56.088 58.943 56.7229 58.4064 56.8199 57.7059H52.6252Z" fill="white"/>
<path d="M37.1405 56.0273C39.1887 56.4083 40.8327 57.3805 42.0398 59.0395C42.7935 60.0759 43.2072 61.2366 43.2086 62.5297C43.2086 63.1209 43.2113 63.7135 43.2086 64.3048C43.2045 65.6197 42.5204 66.2915 41.1782 66.2943C38.6302 66.297 36.0809 66.2943 33.5329 66.2943C30.9167 66.2943 28.2991 66.2956 25.6829 66.2943C24.2996 66.2943 23.6319 65.6375 23.6374 64.2461C23.6401 63.338 23.5609 62.4 23.7535 61.5274C24.3911 58.6217 26.3178 56.9326 29.1293 56.168C29.2822 56.127 29.4338 56.0765 29.625 56.0191C29.147 55.0292 28.6473 54.0624 28.2103 53.0684C27.8608 52.2737 27.8949 51.4817 28.4234 50.7416C28.5599 50.5504 28.691 50.3142 28.7101 50.0889C28.9013 47.911 29.8175 46.79 31.9544 46.439C33.2257 46.2301 34.5338 46.2096 35.7764 46.7367C37.191 47.3361 37.9557 48.3739 38.0431 49.9237C38.0594 50.2132 38.1987 50.5218 38.3585 50.773C38.861 51.5582 38.8514 52.3529 38.4882 53.1735C38.2451 53.7224 37.9966 54.27 37.7413 54.8148C37.5583 55.2026 37.3617 55.5835 37.1391 56.0287L37.1405 56.0273ZM29.1907 64.5178H37.7413C37.7413 64.0658 37.6348 63.6357 37.7713 63.3093C37.9038 62.9953 38.2547 62.6471 38.5729 62.5679C39.0002 62.4614 39.3471 62.77 39.3962 63.2643C39.4235 63.5347 39.4386 63.8105 39.4194 64.0808C39.3921 64.4741 39.5696 64.5765 39.9397 64.5929C41.5537 64.6639 41.5523 64.6748 41.5441 63.0526C41.5441 62.9612 41.5455 62.871 41.5427 62.7796C41.4622 60.3995 39.7212 58.3473 37.3767 57.8844C36.765 59.7619 35.461 60.7628 33.4824 60.7832C31.4492 60.8051 30.096 59.8083 29.4597 57.8789C26.4899 58.6436 24.8417 60.9935 25.4002 64.5205H27.3487C27.574 63.7709 27.0278 62.587 28.2513 62.5747C29.528 62.5611 28.975 63.7763 29.1866 64.5178H29.1907ZM33.354 47.9588C31.2512 48.0489 30.1356 48.7166 30.4279 50.9014C30.4606 51.1417 30.2258 51.5117 30.0059 51.6701C29.5731 51.9815 29.6755 52.2013 29.9349 52.5563C30.1739 52.8827 30.4087 53.2718 30.4661 53.6596C30.6682 55.0087 31.7346 55.914 33.2489 55.9304C34.9475 55.9481 36.0372 55.1138 36.2775 53.7019C36.3471 53.2923 36.6639 52.9304 36.8128 52.5263C36.8974 52.2955 36.9698 51.8463 36.8838 51.7998C36.2652 51.4667 36.3239 50.9492 36.3553 50.3852C36.4222 49.1754 35.8638 48.4435 34.6922 48.1732C34.2525 48.0721 33.8006 48.0284 33.354 47.9588ZM35.5702 57.7178H31.3263C31.5981 58.5548 32.2439 59.0204 33.1629 59.0669C34.3973 59.1297 35.0882 58.7596 35.5702 57.7178Z" fill="white"/>
<path d="M31.0082 24.2883C30.4947 24.2733 30.208 23.9948 30.1561 23.5005C30.1083 23.0376 30.5221 22.6115 30.985 22.6075C31.4437 22.6034 31.8616 23.0239 31.8479 23.4773C31.8343 23.9197 31.4574 24.2842 31.0082 24.2897V24.2883Z" fill="white"/>
<path d="M47.6368 33.6535C44.4539 33.6535 41.2723 33.6535 38.0894 33.6535C37.8846 33.6535 37.617 33.7231 37.49 33.6207C37.2183 33.4036 36.8496 33.1018 36.8387 32.8205C36.8264 32.5502 37.1882 32.2361 37.4395 31.9972C37.5433 31.8975 37.785 31.9221 37.9638 31.9207C44.4648 31.918 50.9658 31.918 57.4668 31.918C57.9338 31.918 58.4048 31.9521 58.6151 32.4601C58.8828 33.1114 58.4212 33.648 57.5938 33.6507C55.0936 33.6576 52.5934 33.6535 50.0933 33.6535C49.2753 33.6535 48.4561 33.6535 47.6382 33.6535H47.6368Z" fill="white"/>
<path d="M41.1454 36.128C42.2569 36.128 43.3683 36.1308 44.4812 36.128C45.0492 36.1253 45.4684 36.3151 45.5203 36.9446C45.5667 37.4894 45.1858 37.8526 44.4976 37.8581C42.2746 37.8745 40.0503 37.8745 37.8273 37.8581C37.1213 37.8526 36.7745 37.5208 36.7895 36.9623C36.8046 36.4066 37.1527 36.1335 37.8778 36.1308C38.9674 36.1253 40.0557 36.1294 41.1454 36.1294V36.128Z" fill="white"/>
<path d="M48.4684 37.8341C47.9413 37.7782 47.6409 37.4982 47.5931 37.008C47.5495 36.5711 48.0219 36.1068 48.463 36.1382C48.9641 36.1737 49.2522 36.4864 49.3068 36.9671C49.3573 37.4095 48.8958 37.841 48.4684 37.8341Z" fill="white"/>
</svg>
