<svg width="25" height="21" viewBox="0 0 25 21" fill="none" xmlns="http://www.w3.org/2000/svg">
<mask id="path-1-outside-1_15856_4627" maskUnits="userSpaceOnUse" x="0.0429688" y="-0.780273" width="25" height="22" fill="black">
<rect fill="white" x="0.0429688" y="-0.780273" width="25" height="22"/>
<path fill-rule="evenodd" clip-rule="evenodd" d="M2.38196 11.3961H3.47258C4.21129 11.3978 4.80946 11.9147 4.81145 12.5531V12.6074H5.30891C5.53321 12.6117 5.75155 12.5436 5.92101 12.4161C6.78633 11.8191 7.49015 11.0661 7.98462 10.2097C8.43921 9.38096 8.66053 8.47033 8.63061 7.55279C8.62962 7.52866 8.6346 7.5054 8.64258 7.483C8.7652 7.11945 9.06728 6.82136 9.46803 6.66887C9.70231 6.58616 9.95753 6.56118 10.2067 6.59736C10.457 6.63182 10.6922 6.7197 10.8936 6.85236C11.2705 7.10306 11.5007 7.48386 11.5257 7.89394C11.6613 8.53404 11.6981 9.18623 11.6363 9.83495C11.5825 10.382 11.421 10.917 11.1588 11.4176C11.111 11.527 11.1 11.6459 11.1249 11.7604C11.1478 11.8561 11.1987 11.9448 11.2725 12.0189C11.3522 12.0964 11.4519 12.1559 11.5646 12.1912C11.727 12.2403 11.9025 12.2515 12.072 12.2239C12.2873 12.1025 12.5395 12.0379 12.7978 12.0387H14.8793C15.4077 12.0379 15.8872 12.3066 16.1025 12.7245C16.3169 13.1423 16.2262 13.63 15.8713 13.9685C16.4345 14.0917 16.8413 14.5147 16.8791 15.0161C16.917 15.5167 16.5761 15.981 16.0357 16.1662L16.0397 16.1697C16.292 16.3859 16.4335 16.6797 16.4335 16.9864C16.4335 17.2931 16.292 17.5869 16.0397 17.8031C15.951 17.8798 15.8503 17.9461 15.7407 17.9987C15.7696 18.0202 15.7975 18.0418 15.8244 18.065C16.2062 18.395 16.3199 18.8921 16.1135 19.3237C15.9071 19.7553 15.4206 20.037 14.8803 20.0379H12.7977C12.4428 20.0379 12.1029 19.9156 11.8537 19.6984C11.8088 19.6605 11.7679 19.62 11.731 19.577H7.9835C7.76617 19.5778 7.55084 19.5356 7.35545 19.4521L5.88301 18.8361C5.75341 18.7801 5.60985 18.7516 5.46431 18.7542H4.76845C4.61392 19.2634 4.08157 19.6192 3.47246 19.6209H2.38183C1.64312 19.6192 1.04496 19.1023 1.04297 18.4639V12.553C1.04496 11.9146 1.64325 11.3978 2.38196 11.3961ZM18.5399 1.16041L19.0264 2.05467L20.1609 2.17786C20.2566 2.1882 20.3364 2.24592 20.3643 2.32604C20.3912 2.40616 20.3603 2.49232 20.2855 2.54573L19.4621 3.2134L19.6774 4.18346C19.6953 4.26272 19.6574 4.34284 19.5817 4.39022C19.5069 4.4376 19.4062 4.44277 19.3245 4.40401L18.3216 3.92846L17.3187 4.40575H17.3197C17.2379 4.44452 17.1382 4.43935 17.0625 4.39196C16.9867 4.34458 16.9498 4.26446 16.9668 4.1852L17.1821 3.21514L16.3467 2.53627C16.2789 2.48113 16.254 2.3967 16.2829 2.32003C16.3118 2.24335 16.3896 2.18821 16.4823 2.17788L17.6178 2.05468L18.1022 1.16042V1.16128C18.1421 1.08806 18.2269 1.04153 18.3206 1.04153C18.4133 1.04153 18.498 1.08806 18.5379 1.16128L18.5399 1.16041ZM18.6476 2.33465L18.3216 1.73677L18.0056 2.31915C17.9747 2.39238 17.8979 2.44493 17.8082 2.45441L17.0515 2.53625L17.6018 2.98165L17.6008 2.98251C17.6666 3.03075 17.6965 3.1057 17.6806 3.17893L17.537 3.82765L18.204 3.51062L18.203 3.50975C18.2758 3.47443 18.3645 3.47357 18.4382 3.50889L19.1082 3.82765L18.9646 3.17893H18.9636C18.9487 3.10829 18.9756 3.03678 19.0354 2.98767L19.5927 2.53623L18.836 2.45439C18.7533 2.44577 18.6825 2.40097 18.6476 2.33636L18.6476 2.33465ZM14.1416 1.16041L14.6261 2.05467L15.7616 2.17786C15.8573 2.1882 15.937 2.24592 15.9639 2.32604C15.9908 2.40616 15.9599 2.49232 15.8862 2.54573L15.0627 3.2134L15.278 4.18346H15.277C15.295 4.26272 15.2571 4.34284 15.1823 4.39022C15.1066 4.4376 15.0059 4.44277 14.9241 4.40401L13.9222 3.92846L12.9193 4.40575C12.8386 4.44452 12.7379 4.43849 12.6631 4.39196C12.5873 4.34458 12.5505 4.26446 12.5674 4.1852L12.7827 3.21514L11.9483 2.53885L11.9473 2.53799C11.8795 2.48285 11.8546 2.39842 11.8835 2.32175C11.9134 2.24507 11.9912 2.18993 12.0839 2.18046L13.2194 2.05726L13.7039 1.163C13.7428 1.08978 13.8275 1.04325 13.9212 1.04325C14.0149 1.04325 14.0997 1.08978 14.1396 1.163L14.1416 1.16041ZM14.2492 2.33465L13.9223 1.73677L13.6062 2.31915C13.5743 2.39238 13.4986 2.44493 13.4088 2.45441L12.6512 2.53625L13.2015 2.98165V2.98251C13.2663 3.03075 13.2972 3.1057 13.2802 3.17893L13.1367 3.82765L13.8036 3.51062V3.50975C13.8764 3.47443 13.9651 3.47357 14.0379 3.50889L14.7068 3.82765L14.5633 3.17893H14.5643C14.5483 3.10915 14.5752 3.03678 14.636 2.98767L15.1933 2.53623L14.4367 2.45439C14.3549 2.44577 14.2831 2.40097 14.2482 2.33636L14.2492 2.33465ZM9.74221 1.16041L10.2267 2.05467L11.3622 2.17786C11.4579 2.1882 11.5376 2.24592 11.5646 2.32604C11.5925 2.40616 11.5616 2.49232 11.4868 2.54573L10.6633 3.2134L10.8787 4.18346C10.8956 4.26272 10.8587 4.34284 10.783 4.39022C10.7072 4.4376 10.6075 4.44277 10.5258 4.40401L9.52385 3.92758L8.52095 4.40487V4.404C8.4392 4.44277 8.33951 4.4376 8.26375 4.39022C8.18898 4.34284 8.15109 4.26272 8.16804 4.18346L8.38338 3.21339L7.54896 2.53711C7.48117 2.48197 7.45625 2.39754 7.48516 2.32C7.51407 2.24333 7.59183 2.18819 7.68454 2.17871L8.82003 2.05552L9.30452 1.16126C9.3444 1.08803 9.42914 1.04151 9.52285 1.04151C9.61656 1.04151 9.7013 1.08803 9.74018 1.16126L9.74221 1.16041ZM9.84987 2.33465L9.52489 1.73677L9.20786 2.31915C9.17696 2.39238 9.10119 2.44493 9.01147 2.45441L8.25482 2.53625L8.80511 2.98165L8.80411 2.98251C8.86891 3.03075 8.89881 3.1057 8.88286 3.17893L8.73931 3.82765L9.40526 3.50976C9.47803 3.47443 9.56676 3.47357 9.63953 3.50889L10.3085 3.82765L10.1649 3.17893H10.1659C10.15 3.10915 10.1769 3.03678 10.2367 2.98767L10.794 2.53623L10.0383 2.45439C9.95657 2.44577 9.88479 2.40098 9.8499 2.33636L9.84987 2.33465ZM14.1645 5.45431V7.73743L16.262 5.33808C16.3069 5.28036 16.3826 5.2459 16.4624 5.2459H21.8568C22.769 5.24331 23.5087 4.60494 23.5107 3.81577V2.06775C23.5077 1.27861 22.769 0.640207 21.8568 0.637626H5.99081C5.07763 0.640211 4.3389 1.27858 4.33591 2.06775V3.81577C4.33791 4.60492 5.07761 5.24332 5.99081 5.2459H13.9223C13.9861 5.2459 14.0479 5.26744 14.0927 5.30621C14.1386 5.34584 14.1635 5.39925 14.1635 5.45439L14.1645 5.45431ZM16.582 5.6628H21.8567C23.0351 5.65935 23.9902 4.83402 23.9941 3.8157V2.06768C23.9902 1.0485 23.0351 0.223167 21.8567 0.219727H5.99074C4.81138 0.223173 3.85633 1.0485 3.85334 2.06768V3.8157C3.85633 4.83402 4.81138 5.65936 5.99074 5.6628H13.6821V8.35856C13.6821 8.45074 13.7518 8.53173 13.8535 8.55843C13.9552 8.58514 14.0649 8.55068 14.1237 8.47487L16.582 5.6628ZM11.4977 19.161C11.385 18.7708 11.5166 18.3572 11.8446 18.0721C11.6642 18.0135 11.5007 17.9222 11.3641 17.805C10.8567 17.3691 10.8387 16.6644 11.3223 16.2086C10.6752 16.0578 10.2565 15.516 10.3443 14.9413C10.432 14.3667 10.9983 13.9368 11.6692 13.9359H11.7709C11.417 13.5698 11.3601 13.0529 11.6283 12.6359C11.5506 12.6238 11.4738 12.6057 11.399 12.5816C11.2096 12.5222 11.0411 12.4222 10.9085 12.2913C10.7809 12.1638 10.6922 12.0096 10.6533 11.8442C10.6104 11.6546 10.6294 11.4582 10.7062 11.2764C10.7101 11.267 10.7141 11.2575 10.7191 11.2489C10.9604 10.7906 11.1089 10.2995 11.1578 9.79808C11.2156 9.18295 11.1787 8.56352 11.0481 7.95701C11.0471 7.94926 11.0461 7.94237 11.0451 7.93461C11.0332 7.64084 10.8707 7.36602 10.6015 7.1851C10.4639 7.09378 10.3024 7.03347 10.1309 7.00849C9.96943 6.98523 9.80293 7.00074 9.65041 7.05415C9.39222 7.15581 9.19583 7.34878 9.11107 7.58311C9.136 8.55231 8.89873 9.51291 8.4172 10.3883C7.89382 11.2998 7.14612 12.101 6.22797 12.7376C5.97077 12.9245 5.64476 13.0262 5.3088 13.0236H4.81134V18.3366H5.46532H5.46433C5.68265 18.3357 5.89699 18.3788 6.09238 18.4615L7.56482 19.0792H7.56582C7.69542 19.1361 7.83897 19.1645 7.98352 19.1619L11.4977 19.161ZM14.8782 18.1436H12.7977C12.4896 18.1436 12.2055 18.2857 12.054 18.5175C11.9014 18.7484 11.9054 19.0318 12.0629 19.2601V19.2618C12.0998 19.3135 12.1427 19.3618 12.1925 19.404C12.352 19.5435 12.5694 19.6219 12.7967 19.6219H14.8782C15.3358 19.6047 15.6977 19.279 15.6977 18.8827C15.6977 18.4864 15.3358 18.1608 14.8782 18.1444L14.8782 18.1436ZM15.0936 16.2465H12.3092C11.8516 16.2637 11.4897 16.5894 11.4897 16.9857C11.4897 17.382 11.8516 17.7076 12.3092 17.7249H15.0946C15.5532 17.7077 15.914 17.382 15.914 16.9857C15.914 16.5894 15.5532 16.2637 15.0946 16.2465H15.0936ZM14.8782 13.9334V13.9342C15.3388 13.9205 15.7037 13.5939 15.7037 13.1951C15.7037 12.797 15.3388 12.4705 14.8782 12.4567H12.7977C12.3371 12.4705 11.9712 12.797 11.9712 13.1951C11.9712 13.5939 12.3371 13.9205 12.7977 13.9342L14.8782 13.9334ZM11.6682 15.8305H15.5451C16.0057 15.8167 16.3706 15.4902 16.3706 15.0921C16.3706 14.6932 16.0057 14.3667 15.5451 14.3529H11.6689C11.2084 14.3667 10.8425 14.6932 10.8425 15.0921C10.8425 15.4902 11.2084 15.8167 11.6689 15.8305H11.6682ZM3.47257 11.814H2.38194C1.91039 11.8149 1.52757 12.1457 1.52658 12.5532V18.4642C1.52757 18.8717 1.90939 19.2025 2.38194 19.2034H3.47257C3.94512 19.2016 4.32694 18.8717 4.32893 18.4642V12.5532C4.32694 12.1457 3.94512 11.8149 3.47257 11.814Z"/>
</mask>
<path fill-rule="evenodd" clip-rule="evenodd" d="M2.38196 11.3961H3.47258C4.21129 11.3978 4.80946 11.9147 4.81145 12.5531V12.6074H5.30891C5.53321 12.6117 5.75155 12.5436 5.92101 12.4161C6.78633 11.8191 7.49015 11.0661 7.98462 10.2097C8.43921 9.38096 8.66053 8.47033 8.63061 7.55279C8.62962 7.52866 8.6346 7.5054 8.64258 7.483C8.7652 7.11945 9.06728 6.82136 9.46803 6.66887C9.70231 6.58616 9.95753 6.56118 10.2067 6.59736C10.457 6.63182 10.6922 6.7197 10.8936 6.85236C11.2705 7.10306 11.5007 7.48386 11.5257 7.89394C11.6613 8.53404 11.6981 9.18623 11.6363 9.83495C11.5825 10.382 11.421 10.917 11.1588 11.4176C11.111 11.527 11.1 11.6459 11.1249 11.7604C11.1478 11.8561 11.1987 11.9448 11.2725 12.0189C11.3522 12.0964 11.4519 12.1559 11.5646 12.1912C11.727 12.2403 11.9025 12.2515 12.072 12.2239C12.2873 12.1025 12.5395 12.0379 12.7978 12.0387H14.8793C15.4077 12.0379 15.8872 12.3066 16.1025 12.7245C16.3169 13.1423 16.2262 13.63 15.8713 13.9685C16.4345 14.0917 16.8413 14.5147 16.8791 15.0161C16.917 15.5167 16.5761 15.981 16.0357 16.1662L16.0397 16.1697C16.292 16.3859 16.4335 16.6797 16.4335 16.9864C16.4335 17.2931 16.292 17.5869 16.0397 17.8031C15.951 17.8798 15.8503 17.9461 15.7407 17.9987C15.7696 18.0202 15.7975 18.0418 15.8244 18.065C16.2062 18.395 16.3199 18.8921 16.1135 19.3237C15.9071 19.7553 15.4206 20.037 14.8803 20.0379H12.7977C12.4428 20.0379 12.1029 19.9156 11.8537 19.6984C11.8088 19.6605 11.7679 19.62 11.731 19.577H7.9835C7.76617 19.5778 7.55084 19.5356 7.35545 19.4521L5.88301 18.8361C5.75341 18.7801 5.60985 18.7516 5.46431 18.7542H4.76845C4.61392 19.2634 4.08157 19.6192 3.47246 19.6209H2.38183C1.64312 19.6192 1.04496 19.1023 1.04297 18.4639V12.553C1.04496 11.9146 1.64325 11.3978 2.38196 11.3961ZM18.5399 1.16041L19.0264 2.05467L20.1609 2.17786C20.2566 2.1882 20.3364 2.24592 20.3643 2.32604C20.3912 2.40616 20.3603 2.49232 20.2855 2.54573L19.4621 3.2134L19.6774 4.18346C19.6953 4.26272 19.6574 4.34284 19.5817 4.39022C19.5069 4.4376 19.4062 4.44277 19.3245 4.40401L18.3216 3.92846L17.3187 4.40575H17.3197C17.2379 4.44452 17.1382 4.43935 17.0625 4.39196C16.9867 4.34458 16.9498 4.26446 16.9668 4.1852L17.1821 3.21514L16.3467 2.53627C16.2789 2.48113 16.254 2.3967 16.2829 2.32003C16.3118 2.24335 16.3896 2.18821 16.4823 2.17788L17.6178 2.05468L18.1022 1.16042V1.16128C18.1421 1.08806 18.2269 1.04153 18.3206 1.04153C18.4133 1.04153 18.498 1.08806 18.5379 1.16128L18.5399 1.16041ZM18.6476 2.33465L18.3216 1.73677L18.0056 2.31915C17.9747 2.39238 17.8979 2.44493 17.8082 2.45441L17.0515 2.53625L17.6018 2.98165L17.6008 2.98251C17.6666 3.03075 17.6965 3.1057 17.6806 3.17893L17.537 3.82765L18.204 3.51062L18.203 3.50975C18.2758 3.47443 18.3645 3.47357 18.4382 3.50889L19.1082 3.82765L18.9646 3.17893H18.9636C18.9487 3.10829 18.9756 3.03678 19.0354 2.98767L19.5927 2.53623L18.836 2.45439C18.7533 2.44577 18.6825 2.40097 18.6476 2.33636L18.6476 2.33465ZM14.1416 1.16041L14.6261 2.05467L15.7616 2.17786C15.8573 2.1882 15.937 2.24592 15.9639 2.32604C15.9908 2.40616 15.9599 2.49232 15.8862 2.54573L15.0627 3.2134L15.278 4.18346H15.277C15.295 4.26272 15.2571 4.34284 15.1823 4.39022C15.1066 4.4376 15.0059 4.44277 14.9241 4.40401L13.9222 3.92846L12.9193 4.40575C12.8386 4.44452 12.7379 4.43849 12.6631 4.39196C12.5873 4.34458 12.5505 4.26446 12.5674 4.1852L12.7827 3.21514L11.9483 2.53885L11.9473 2.53799C11.8795 2.48285 11.8546 2.39842 11.8835 2.32175C11.9134 2.24507 11.9912 2.18993 12.0839 2.18046L13.2194 2.05726L13.7039 1.163C13.7428 1.08978 13.8275 1.04325 13.9212 1.04325C14.0149 1.04325 14.0997 1.08978 14.1396 1.163L14.1416 1.16041ZM14.2492 2.33465L13.9223 1.73677L13.6062 2.31915C13.5743 2.39238 13.4986 2.44493 13.4088 2.45441L12.6512 2.53625L13.2015 2.98165V2.98251C13.2663 3.03075 13.2972 3.1057 13.2802 3.17893L13.1367 3.82765L13.8036 3.51062V3.50975C13.8764 3.47443 13.9651 3.47357 14.0379 3.50889L14.7068 3.82765L14.5633 3.17893H14.5643C14.5483 3.10915 14.5752 3.03678 14.636 2.98767L15.1933 2.53623L14.4367 2.45439C14.3549 2.44577 14.2831 2.40097 14.2482 2.33636L14.2492 2.33465ZM9.74221 1.16041L10.2267 2.05467L11.3622 2.17786C11.4579 2.1882 11.5376 2.24592 11.5646 2.32604C11.5925 2.40616 11.5616 2.49232 11.4868 2.54573L10.6633 3.2134L10.8787 4.18346C10.8956 4.26272 10.8587 4.34284 10.783 4.39022C10.7072 4.4376 10.6075 4.44277 10.5258 4.40401L9.52385 3.92758L8.52095 4.40487V4.404C8.4392 4.44277 8.33951 4.4376 8.26375 4.39022C8.18898 4.34284 8.15109 4.26272 8.16804 4.18346L8.38338 3.21339L7.54896 2.53711C7.48117 2.48197 7.45625 2.39754 7.48516 2.32C7.51407 2.24333 7.59183 2.18819 7.68454 2.17871L8.82003 2.05552L9.30452 1.16126C9.3444 1.08803 9.42914 1.04151 9.52285 1.04151C9.61656 1.04151 9.7013 1.08803 9.74018 1.16126L9.74221 1.16041ZM9.84987 2.33465L9.52489 1.73677L9.20786 2.31915C9.17696 2.39238 9.10119 2.44493 9.01147 2.45441L8.25482 2.53625L8.80511 2.98165L8.80411 2.98251C8.86891 3.03075 8.89881 3.1057 8.88286 3.17893L8.73931 3.82765L9.40526 3.50976C9.47803 3.47443 9.56676 3.47357 9.63953 3.50889L10.3085 3.82765L10.1649 3.17893H10.1659C10.15 3.10915 10.1769 3.03678 10.2367 2.98767L10.794 2.53623L10.0383 2.45439C9.95657 2.44577 9.88479 2.40098 9.8499 2.33636L9.84987 2.33465ZM14.1645 5.45431V7.73743L16.262 5.33808C16.3069 5.28036 16.3826 5.2459 16.4624 5.2459H21.8568C22.769 5.24331 23.5087 4.60494 23.5107 3.81577V2.06775C23.5077 1.27861 22.769 0.640207 21.8568 0.637626H5.99081C5.07763 0.640211 4.3389 1.27858 4.33591 2.06775V3.81577C4.33791 4.60492 5.07761 5.24332 5.99081 5.2459H13.9223C13.9861 5.2459 14.0479 5.26744 14.0927 5.30621C14.1386 5.34584 14.1635 5.39925 14.1635 5.45439L14.1645 5.45431ZM16.582 5.6628H21.8567C23.0351 5.65935 23.9902 4.83402 23.9941 3.8157V2.06768C23.9902 1.0485 23.0351 0.223167 21.8567 0.219727H5.99074C4.81138 0.223173 3.85633 1.0485 3.85334 2.06768V3.8157C3.85633 4.83402 4.81138 5.65936 5.99074 5.6628H13.6821V8.35856C13.6821 8.45074 13.7518 8.53173 13.8535 8.55843C13.9552 8.58514 14.0649 8.55068 14.1237 8.47487L16.582 5.6628ZM11.4977 19.161C11.385 18.7708 11.5166 18.3572 11.8446 18.0721C11.6642 18.0135 11.5007 17.9222 11.3641 17.805C10.8567 17.3691 10.8387 16.6644 11.3223 16.2086C10.6752 16.0578 10.2565 15.516 10.3443 14.9413C10.432 14.3667 10.9983 13.9368 11.6692 13.9359H11.7709C11.417 13.5698 11.3601 13.0529 11.6283 12.6359C11.5506 12.6238 11.4738 12.6057 11.399 12.5816C11.2096 12.5222 11.0411 12.4222 10.9085 12.2913C10.7809 12.1638 10.6922 12.0096 10.6533 11.8442C10.6104 11.6546 10.6294 11.4582 10.7062 11.2764C10.7101 11.267 10.7141 11.2575 10.7191 11.2489C10.9604 10.7906 11.1089 10.2995 11.1578 9.79808C11.2156 9.18295 11.1787 8.56352 11.0481 7.95701C11.0471 7.94926 11.0461 7.94237 11.0451 7.93461C11.0332 7.64084 10.8707 7.36602 10.6015 7.1851C10.4639 7.09378 10.3024 7.03347 10.1309 7.00849C9.96943 6.98523 9.80293 7.00074 9.65041 7.05415C9.39222 7.15581 9.19583 7.34878 9.11107 7.58311C9.136 8.55231 8.89873 9.51291 8.4172 10.3883C7.89382 11.2998 7.14612 12.101 6.22797 12.7376C5.97077 12.9245 5.64476 13.0262 5.3088 13.0236H4.81134V18.3366H5.46532H5.46433C5.68265 18.3357 5.89699 18.3788 6.09238 18.4615L7.56482 19.0792H7.56582C7.69542 19.1361 7.83897 19.1645 7.98352 19.1619L11.4977 19.161ZM14.8782 18.1436H12.7977C12.4896 18.1436 12.2055 18.2857 12.054 18.5175C11.9014 18.7484 11.9054 19.0318 12.0629 19.2601V19.2618C12.0998 19.3135 12.1427 19.3618 12.1925 19.404C12.352 19.5435 12.5694 19.6219 12.7967 19.6219H14.8782C15.3358 19.6047 15.6977 19.279 15.6977 18.8827C15.6977 18.4864 15.3358 18.1608 14.8782 18.1444L14.8782 18.1436ZM15.0936 16.2465H12.3092C11.8516 16.2637 11.4897 16.5894 11.4897 16.9857C11.4897 17.382 11.8516 17.7076 12.3092 17.7249H15.0946C15.5532 17.7077 15.914 17.382 15.914 16.9857C15.914 16.5894 15.5532 16.2637 15.0946 16.2465H15.0936ZM14.8782 13.9334V13.9342C15.3388 13.9205 15.7037 13.5939 15.7037 13.1951C15.7037 12.797 15.3388 12.4705 14.8782 12.4567H12.7977C12.3371 12.4705 11.9712 12.797 11.9712 13.1951C11.9712 13.5939 12.3371 13.9205 12.7977 13.9342L14.8782 13.9334ZM11.6682 15.8305H15.5451C16.0057 15.8167 16.3706 15.4902 16.3706 15.0921C16.3706 14.6932 16.0057 14.3667 15.5451 14.3529H11.6689C11.2084 14.3667 10.8425 14.6932 10.8425 15.0921C10.8425 15.4902 11.2084 15.8167 11.6689 15.8305H11.6682ZM3.47257 11.814H2.38194C1.91039 11.8149 1.52757 12.1457 1.52658 12.5532V18.4642C1.52757 18.8717 1.90939 19.2025 2.38194 19.2034H3.47257C3.94512 19.2016 4.32694 18.8717 4.32893 18.4642V12.5532C4.32694 12.1457 3.94512 11.8149 3.47257 11.814Z" fill="#3A3A3A"/>
<path fill-rule="evenodd" clip-rule="evenodd" d="M2.38196 11.3961H3.47258C4.21129 11.3978 4.80946 11.9147 4.81145 12.5531V12.6074H5.30891C5.53321 12.6117 5.75155 12.5436 5.92101 12.4161C6.78633 11.8191 7.49015 11.0661 7.98462 10.2097C8.43921 9.38096 8.66053 8.47033 8.63061 7.55279C8.62962 7.52866 8.6346 7.5054 8.64258 7.483C8.7652 7.11945 9.06728 6.82136 9.46803 6.66887C9.70231 6.58616 9.95753 6.56118 10.2067 6.59736C10.457 6.63182 10.6922 6.7197 10.8936 6.85236C11.2705 7.10306 11.5007 7.48386 11.5257 7.89394C11.6613 8.53404 11.6981 9.18623 11.6363 9.83495C11.5825 10.382 11.421 10.917 11.1588 11.4176C11.111 11.527 11.1 11.6459 11.1249 11.7604C11.1478 11.8561 11.1987 11.9448 11.2725 12.0189C11.3522 12.0964 11.4519 12.1559 11.5646 12.1912C11.727 12.2403 11.9025 12.2515 12.072 12.2239C12.2873 12.1025 12.5395 12.0379 12.7978 12.0387H14.8793C15.4077 12.0379 15.8872 12.3066 16.1025 12.7245C16.3169 13.1423 16.2262 13.63 15.8713 13.9685C16.4345 14.0917 16.8413 14.5147 16.8791 15.0161C16.917 15.5167 16.5761 15.981 16.0357 16.1662L16.0397 16.1697C16.292 16.3859 16.4335 16.6797 16.4335 16.9864C16.4335 17.2931 16.292 17.5869 16.0397 17.8031C15.951 17.8798 15.8503 17.9461 15.7407 17.9987C15.7696 18.0202 15.7975 18.0418 15.8244 18.065C16.2062 18.395 16.3199 18.8921 16.1135 19.3237C15.9071 19.7553 15.4206 20.037 14.8803 20.0379H12.7977C12.4428 20.0379 12.1029 19.9156 11.8537 19.6984C11.8088 19.6605 11.7679 19.62 11.731 19.577H7.9835C7.76617 19.5778 7.55084 19.5356 7.35545 19.4521L5.88301 18.8361C5.75341 18.7801 5.60985 18.7516 5.46431 18.7542H4.76845C4.61392 19.2634 4.08157 19.6192 3.47246 19.6209H2.38183C1.64312 19.6192 1.04496 19.1023 1.04297 18.4639V12.553C1.04496 11.9146 1.64325 11.3978 2.38196 11.3961ZM18.5399 1.16041L19.0264 2.05467L20.1609 2.17786C20.2566 2.1882 20.3364 2.24592 20.3643 2.32604C20.3912 2.40616 20.3603 2.49232 20.2855 2.54573L19.4621 3.2134L19.6774 4.18346C19.6953 4.26272 19.6574 4.34284 19.5817 4.39022C19.5069 4.4376 19.4062 4.44277 19.3245 4.40401L18.3216 3.92846L17.3187 4.40575H17.3197C17.2379 4.44452 17.1382 4.43935 17.0625 4.39196C16.9867 4.34458 16.9498 4.26446 16.9668 4.1852L17.1821 3.21514L16.3467 2.53627C16.2789 2.48113 16.254 2.3967 16.2829 2.32003C16.3118 2.24335 16.3896 2.18821 16.4823 2.17788L17.6178 2.05468L18.1022 1.16042V1.16128C18.1421 1.08806 18.2269 1.04153 18.3206 1.04153C18.4133 1.04153 18.498 1.08806 18.5379 1.16128L18.5399 1.16041ZM18.6476 2.33465L18.3216 1.73677L18.0056 2.31915C17.9747 2.39238 17.8979 2.44493 17.8082 2.45441L17.0515 2.53625L17.6018 2.98165L17.6008 2.98251C17.6666 3.03075 17.6965 3.1057 17.6806 3.17893L17.537 3.82765L18.204 3.51062L18.203 3.50975C18.2758 3.47443 18.3645 3.47357 18.4382 3.50889L19.1082 3.82765L18.9646 3.17893H18.9636C18.9487 3.10829 18.9756 3.03678 19.0354 2.98767L19.5927 2.53623L18.836 2.45439C18.7533 2.44577 18.6825 2.40097 18.6476 2.33636L18.6476 2.33465ZM14.1416 1.16041L14.6261 2.05467L15.7616 2.17786C15.8573 2.1882 15.937 2.24592 15.9639 2.32604C15.9908 2.40616 15.9599 2.49232 15.8862 2.54573L15.0627 3.2134L15.278 4.18346H15.277C15.295 4.26272 15.2571 4.34284 15.1823 4.39022C15.1066 4.4376 15.0059 4.44277 14.9241 4.40401L13.9222 3.92846L12.9193 4.40575C12.8386 4.44452 12.7379 4.43849 12.6631 4.39196C12.5873 4.34458 12.5505 4.26446 12.5674 4.1852L12.7827 3.21514L11.9483 2.53885L11.9473 2.53799C11.8795 2.48285 11.8546 2.39842 11.8835 2.32175C11.9134 2.24507 11.9912 2.18993 12.0839 2.18046L13.2194 2.05726L13.7039 1.163C13.7428 1.08978 13.8275 1.04325 13.9212 1.04325C14.0149 1.04325 14.0997 1.08978 14.1396 1.163L14.1416 1.16041ZM14.2492 2.33465L13.9223 1.73677L13.6062 2.31915C13.5743 2.39238 13.4986 2.44493 13.4088 2.45441L12.6512 2.53625L13.2015 2.98165V2.98251C13.2663 3.03075 13.2972 3.1057 13.2802 3.17893L13.1367 3.82765L13.8036 3.51062V3.50975C13.8764 3.47443 13.9651 3.47357 14.0379 3.50889L14.7068 3.82765L14.5633 3.17893H14.5643C14.5483 3.10915 14.5752 3.03678 14.636 2.98767L15.1933 2.53623L14.4367 2.45439C14.3549 2.44577 14.2831 2.40097 14.2482 2.33636L14.2492 2.33465ZM9.74221 1.16041L10.2267 2.05467L11.3622 2.17786C11.4579 2.1882 11.5376 2.24592 11.5646 2.32604C11.5925 2.40616 11.5616 2.49232 11.4868 2.54573L10.6633 3.2134L10.8787 4.18346C10.8956 4.26272 10.8587 4.34284 10.783 4.39022C10.7072 4.4376 10.6075 4.44277 10.5258 4.40401L9.52385 3.92758L8.52095 4.40487V4.404C8.4392 4.44277 8.33951 4.4376 8.26375 4.39022C8.18898 4.34284 8.15109 4.26272 8.16804 4.18346L8.38338 3.21339L7.54896 2.53711C7.48117 2.48197 7.45625 2.39754 7.48516 2.32C7.51407 2.24333 7.59183 2.18819 7.68454 2.17871L8.82003 2.05552L9.30452 1.16126C9.3444 1.08803 9.42914 1.04151 9.52285 1.04151C9.61656 1.04151 9.7013 1.08803 9.74018 1.16126L9.74221 1.16041ZM9.84987 2.33465L9.52489 1.73677L9.20786 2.31915C9.17696 2.39238 9.10119 2.44493 9.01147 2.45441L8.25482 2.53625L8.80511 2.98165L8.80411 2.98251C8.86891 3.03075 8.89881 3.1057 8.88286 3.17893L8.73931 3.82765L9.40526 3.50976C9.47803 3.47443 9.56676 3.47357 9.63953 3.50889L10.3085 3.82765L10.1649 3.17893H10.1659C10.15 3.10915 10.1769 3.03678 10.2367 2.98767L10.794 2.53623L10.0383 2.45439C9.95657 2.44577 9.88479 2.40098 9.8499 2.33636L9.84987 2.33465ZM14.1645 5.45431V7.73743L16.262 5.33808C16.3069 5.28036 16.3826 5.2459 16.4624 5.2459H21.8568C22.769 5.24331 23.5087 4.60494 23.5107 3.81577V2.06775C23.5077 1.27861 22.769 0.640207 21.8568 0.637626H5.99081C5.07763 0.640211 4.3389 1.27858 4.33591 2.06775V3.81577C4.33791 4.60492 5.07761 5.24332 5.99081 5.2459H13.9223C13.9861 5.2459 14.0479 5.26744 14.0927 5.30621C14.1386 5.34584 14.1635 5.39925 14.1635 5.45439L14.1645 5.45431ZM16.582 5.6628H21.8567C23.0351 5.65935 23.9902 4.83402 23.9941 3.8157V2.06768C23.9902 1.0485 23.0351 0.223167 21.8567 0.219727H5.99074C4.81138 0.223173 3.85633 1.0485 3.85334 2.06768V3.8157C3.85633 4.83402 4.81138 5.65936 5.99074 5.6628H13.6821V8.35856C13.6821 8.45074 13.7518 8.53173 13.8535 8.55843C13.9552 8.58514 14.0649 8.55068 14.1237 8.47487L16.582 5.6628ZM11.4977 19.161C11.385 18.7708 11.5166 18.3572 11.8446 18.0721C11.6642 18.0135 11.5007 17.9222 11.3641 17.805C10.8567 17.3691 10.8387 16.6644 11.3223 16.2086C10.6752 16.0578 10.2565 15.516 10.3443 14.9413C10.432 14.3667 10.9983 13.9368 11.6692 13.9359H11.7709C11.417 13.5698 11.3601 13.0529 11.6283 12.6359C11.5506 12.6238 11.4738 12.6057 11.399 12.5816C11.2096 12.5222 11.0411 12.4222 10.9085 12.2913C10.7809 12.1638 10.6922 12.0096 10.6533 11.8442C10.6104 11.6546 10.6294 11.4582 10.7062 11.2764C10.7101 11.267 10.7141 11.2575 10.7191 11.2489C10.9604 10.7906 11.1089 10.2995 11.1578 9.79808C11.2156 9.18295 11.1787 8.56352 11.0481 7.95701C11.0471 7.94926 11.0461 7.94237 11.0451 7.93461C11.0332 7.64084 10.8707 7.36602 10.6015 7.1851C10.4639 7.09378 10.3024 7.03347 10.1309 7.00849C9.96943 6.98523 9.80293 7.00074 9.65041 7.05415C9.39222 7.15581 9.19583 7.34878 9.11107 7.58311C9.136 8.55231 8.89873 9.51291 8.4172 10.3883C7.89382 11.2998 7.14612 12.101 6.22797 12.7376C5.97077 12.9245 5.64476 13.0262 5.3088 13.0236H4.81134V18.3366H5.46532H5.46433C5.68265 18.3357 5.89699 18.3788 6.09238 18.4615L7.56482 19.0792H7.56582C7.69542 19.1361 7.83897 19.1645 7.98352 19.1619L11.4977 19.161ZM14.8782 18.1436H12.7977C12.4896 18.1436 12.2055 18.2857 12.054 18.5175C11.9014 18.7484 11.9054 19.0318 12.0629 19.2601V19.2618C12.0998 19.3135 12.1427 19.3618 12.1925 19.404C12.352 19.5435 12.5694 19.6219 12.7967 19.6219H14.8782C15.3358 19.6047 15.6977 19.279 15.6977 18.8827C15.6977 18.4864 15.3358 18.1608 14.8782 18.1444L14.8782 18.1436ZM15.0936 16.2465H12.3092C11.8516 16.2637 11.4897 16.5894 11.4897 16.9857C11.4897 17.382 11.8516 17.7076 12.3092 17.7249H15.0946C15.5532 17.7077 15.914 17.382 15.914 16.9857C15.914 16.5894 15.5532 16.2637 15.0946 16.2465H15.0936ZM14.8782 13.9334V13.9342C15.3388 13.9205 15.7037 13.5939 15.7037 13.1951C15.7037 12.797 15.3388 12.4705 14.8782 12.4567H12.7977C12.3371 12.4705 11.9712 12.797 11.9712 13.1951C11.9712 13.5939 12.3371 13.9205 12.7977 13.9342L14.8782 13.9334ZM11.6682 15.8305H15.5451C16.0057 15.8167 16.3706 15.4902 16.3706 15.0921C16.3706 14.6932 16.0057 14.3667 15.5451 14.3529H11.6689C11.2084 14.3667 10.8425 14.6932 10.8425 15.0921C10.8425 15.4902 11.2084 15.8167 11.6689 15.8305H11.6682ZM3.47257 11.814H2.38194C1.91039 11.8149 1.52757 12.1457 1.52658 12.5532V18.4642C1.52757 18.8717 1.90939 19.2025 2.38194 19.2034H3.47257C3.94512 19.2016 4.32694 18.8717 4.32893 18.4642V12.5532C4.32694 12.1457 3.94512 11.8149 3.47257 11.814Z" stroke="#3A3A3A" stroke-width="0.4" mask="url(#path-1-outside-1_15856_4627)"/>
<ellipse cx="9.47363" cy="2.89917" rx="0.950195" ry="0.884521" fill="#3A3A3A"/>
<ellipse cx="13.8799" cy="2.89917" rx="0.950195" ry="0.884521" fill="#3A3A3A"/>
<ellipse cx="18.2041" cy="2.89917" rx="0.950195" ry="0.884521" fill="#3A3A3A"/>
</svg>
