<svg width="88" height="89" viewBox="0 0 88 89" fill="none" xmlns="http://www.w3.org/2000/svg">
<circle cx="44.2015" cy="44.4305" r="43.5897" fill="#2872C1"/>
<path d="M59.5105 51.8491C60.5136 51.8491 61.4669 51.8796 62.4165 51.8389C63.0767 51.8095 63.4017 51.4055 63.4132 50.679C63.431 49.5956 63.4183 48.5123 63.4183 47.4289C63.4183 42.6494 63.4183 37.8711 63.4183 33.0915C63.4183 32.9003 63.3596 32.6773 63.4387 32.5256C63.5508 32.3115 63.7828 31.9877 63.9294 32.0056C64.16 32.0324 64.3882 32.2822 64.5641 32.4823C64.6393 32.5677 64.5845 32.769 64.5845 32.9169C64.5845 38.8219 64.5857 44.7269 64.5845 50.6319C64.5845 52.1753 63.6859 53.065 62.1259 53.0726C61.3191 53.0777 60.511 53.0917 59.7042 53.065C59.3321 53.0522 59.1383 53.1606 59.0109 53.5276C58.8018 54.1241 58.524 54.6964 58.213 55.4216C58.5724 55.7492 58.9816 56.1456 59.4225 56.5037C59.5309 56.5917 59.7756 56.6197 59.9018 56.5598C60.4231 56.3087 60.8551 56.4374 61.235 56.8121C62.2622 57.8267 63.2781 58.8527 64.3002 59.8723C64.5908 60.1617 64.7285 60.4943 64.4035 60.8168C64.0848 61.1341 63.7547 61.0182 63.4603 60.7186C62.4776 59.7194 61.4911 58.7265 60.5454 57.7706C59.5551 58.775 58.5954 59.7474 57.5184 60.8385C58.0269 61.31 58.6489 61.8747 59.2569 62.4546C59.6877 62.865 60.0955 63.2983 60.5199 63.7151C60.8054 63.9955 60.8845 64.3142 60.6066 64.6137C60.3275 64.9157 59.9961 64.8673 59.7119 64.5844C58.6438 63.5201 57.5719 62.461 56.5191 61.3814C56.1814 61.036 56.11 60.618 56.319 60.1464C56.3815 60.0036 56.3471 59.7398 56.2502 59.6187C55.9073 59.1905 55.5173 58.7992 55.3134 58.5774C53.5851 59.0808 52.0556 59.5269 50.4727 59.9883V61.0398C51.3075 61.0398 52.1092 61.0322 52.9096 61.0411C54.0134 61.0539 54.4238 61.4872 54.4582 62.5935C54.5066 64.1319 54.4225 64.8533 52.3016 64.8303C46.7166 64.7717 41.1289 64.8112 35.5426 64.8099C34.3636 64.8099 33.9405 64.3855 33.929 63.2002C33.9112 61.2871 34.1571 61.0386 36.0779 61.0386C36.6706 61.0386 37.2632 61.0386 37.9464 61.0386C37.9464 60.3223 37.9528 59.6506 37.9438 58.9776C37.9375 58.5264 38.0369 58.1415 38.5786 58.1479C39.096 58.153 39.1661 58.5557 39.1712 58.9598C39.1789 59.6162 39.1738 60.2713 39.1738 60.9825H49.1611V59.7857C48.464 59.5932 47.7387 59.4479 47.0556 59.1917C44.3829 58.1887 42.5335 56.3316 41.533 53.6589C41.366 53.2141 41.1761 53.0076 40.6854 53.0612C40.2444 53.1096 39.7945 53.079 39.3497 53.0879C39.3127 53.0879 39.277 53.1236 39.175 53.1784C39.175 53.9661 39.175 54.7894 39.175 55.6128C39.175 56.0449 39.1075 56.4897 38.5798 56.4961C38.0229 56.5037 37.9349 56.0691 37.9426 55.5975C37.9566 54.792 37.9464 53.9852 37.9464 53.0701C37.6787 53.0701 37.4353 53.0701 37.1931 53.0701C33.5823 53.0701 29.9715 53.0713 26.3607 53.0701C24.672 53.0701 23.8027 52.2059 23.8014 50.5375C23.8014 49.4325 23.8053 48.3287 23.7989 47.2237C23.7963 46.798 23.8779 46.4373 24.3966 46.4322C24.9371 46.4271 24.974 46.8133 24.9715 47.2275C24.9651 48.353 24.9613 49.4797 24.9727 50.6051C24.9817 51.4514 25.3347 51.8516 26.1568 51.8542C31.0205 51.8656 35.8854 51.858 40.7491 51.8554C40.8103 51.8554 40.8715 51.8325 41.0155 51.8032C40.6765 48.2982 41.7815 45.3361 44.583 43.1209C46.5152 41.594 48.7533 41.032 51.2042 41.2244C55.1974 41.5392 60.1784 45.3463 59.5079 51.844L59.5105 51.8491ZM58.3417 50.5324C58.3494 46.0397 54.7628 42.3957 50.3223 42.3868C45.832 42.3766 42.1741 45.967 42.16 50.3973C42.146 54.9271 45.7313 58.5621 50.2177 58.5685C54.7067 58.5749 58.3341 54.9883 58.3405 50.5337L58.3417 50.5324ZM53.2015 63.6119V62.2978H35.1908V63.6119H53.2015ZM57.5617 56.3992C57.0786 56.8899 56.6377 57.3373 56.2464 57.7349C56.5956 58.1237 56.9831 58.5557 57.3361 58.9483C57.837 58.4793 58.2958 58.0485 58.7763 57.5985C58.3468 57.1741 57.9441 56.7765 57.5617 56.3992Z" fill="white"/>
<path d="M42.7497 37.5024C42.7497 36.1501 42.7433 34.8552 42.751 33.5603C42.7574 32.3864 43.206 31.9454 44.3709 31.9403C44.6042 31.9403 44.8387 31.9365 45.0719 31.9403C46.0368 31.9607 46.5122 32.4374 46.5147 33.3971C46.5186 34.7545 46.5147 36.1119 46.5147 37.5254H48.1474C48.1474 37.2909 48.1474 37.0487 48.1474 36.8065C48.1474 33.5144 48.1474 30.2222 48.1474 26.93C48.1474 25.5459 48.4992 25.1903 49.8655 25.189C50.0784 25.189 50.2899 25.1826 50.5028 25.1903C51.4064 25.2209 51.8678 25.681 51.8691 26.5821C51.8742 29.98 51.8717 33.3793 51.8717 36.7772C51.8717 37.0079 51.8717 37.2399 51.8717 37.5267H53.5069C53.5069 37.166 53.5069 36.7951 53.5069 36.4254C53.5069 35.6607 53.5031 34.896 53.5095 34.1313C53.5107 33.9426 53.5082 33.74 53.5694 33.5666C53.8281 32.8414 54.8235 32.5483 56.1643 32.7841C56.8564 32.9051 57.235 33.3627 57.2426 34.1325C57.2528 35.2529 57.2452 36.3732 57.2452 37.5381H58.8282C58.8383 37.3151 58.8575 37.092 58.8575 36.869C58.86 35.17 58.8549 33.471 58.8613 31.7708C58.8651 30.8187 59.3087 30.3866 60.2658 30.3777C60.5845 30.3752 60.9031 30.3752 61.2218 30.3777C62.17 30.3866 62.6046 30.8187 62.6097 31.7874C62.6187 33.4863 62.6174 35.1853 62.6097 36.8856C62.6085 37.259 62.5817 37.5904 63.0877 37.6847C63.2292 37.7115 63.4242 38.0059 63.4127 38.1652C63.3987 38.3577 63.2279 38.5896 63.0584 38.7031C62.9016 38.8076 62.6556 38.8038 62.4479 38.8038C55.9489 38.8088 49.4487 38.8076 42.9498 38.8076C42.8007 38.8076 42.6146 38.856 42.5126 38.7846C42.3036 38.6393 42.0398 38.4507 41.9901 38.2366C41.9531 38.0747 42.1978 37.83 42.3521 37.6528C42.4234 37.57 42.5802 37.5623 42.7497 37.5024ZM49.3493 26.4381V37.5343H50.6723V26.4381H49.3493ZM60.081 31.5681V37.5458H61.3773V31.5681H60.081ZM45.3014 37.5585V33.2161H44.009V37.5585H45.3014ZM54.7114 33.9911V37.5254H56.0178V33.9911H54.7114Z" fill="white"/>
<path d="M44.2677 24.0293C50.193 24.0293 56.1184 24.0293 62.0438 24.0293C63.7415 24.0293 64.5916 24.8756 64.5929 26.5618C64.5929 27.5598 64.5853 28.5578 64.5967 29.5557C64.6018 29.9993 64.4616 30.3409 63.9786 30.3383C63.5159 30.3358 63.4152 29.9955 63.4203 29.5825C63.4343 28.5629 63.4318 27.5432 63.4216 26.5249C63.4127 25.6046 63.015 25.2006 62.0935 25.2006C50.179 25.1968 38.2645 25.1968 26.35 25.2006C25.3623 25.2006 24.9812 25.597 24.9799 26.6115C24.9774 32.3037 24.9799 37.9945 24.9748 43.6867C24.9748 44.1481 25.1341 44.7917 24.3783 44.77C23.7015 44.7509 23.8124 44.1544 23.8124 43.6981C23.8099 37.9856 23.8099 32.2718 23.8124 26.5593C23.8111 24.8743 24.6638 24.0293 26.3641 24.0293C32.3315 24.0293 38.3002 24.0293 44.2677 24.0293Z" fill="white"/>
<path d="M26.5357 34.162C26.5471 30.4467 29.6507 27.3623 33.366 27.375C37.094 27.3878 40.1683 30.4786 40.153 34.2003C40.1377 37.9219 37.038 41.0063 33.3277 40.9936C29.6175 40.9809 26.5255 37.871 26.5357 34.1633V34.162ZM36.834 38.484C35.9304 37.5893 35.0879 36.6232 34.1103 35.8202C33.0282 34.9318 32.6191 33.9058 32.7465 32.5191C32.8638 31.2433 32.7708 29.9496 32.7708 28.6611C30.4766 28.7681 28.4947 30.5652 27.879 33.034C27.3221 35.2683 28.4322 37.7754 30.525 39.0053C32.5261 40.183 35.2587 39.9714 36.834 38.484ZM38.8631 33.5693C38.7561 31.1095 36.4223 28.7745 33.9586 28.6649V33.5693H38.8631ZM38.9013 34.7993H34.9541C35.8845 35.7348 36.8022 36.6576 37.7441 37.6033C38.4005 36.836 38.7624 35.8967 38.9013 34.7993Z" fill="white"/>
</svg>
