<svg width="88" height="88" viewBox="0 0 88 88" fill="none" xmlns="http://www.w3.org/2000/svg">
<circle cx="44.2977" cy="43.5858" r="43.5897" fill="#2872C1"/>
<path d="M42.1059 66.6249C41.5382 66.3018 41.4458 65.7727 41.5183 65.1968C41.578 64.7228 41.4469 64.4571 40.9401 64.3353C40.507 64.2312 40.0938 64.0193 39.697 63.8074C39.436 63.667 39.2815 63.7103 39.1036 63.9198C38.9233 64.1293 38.722 64.3236 38.5148 64.5074C38.1192 64.8574 37.6708 64.8726 37.2963 64.5074C36.2627 63.4961 35.242 62.473 34.2307 61.4407C33.8643 61.0661 33.8175 60.537 34.2307 60.2397C35.0746 59.6322 34.9307 59.0376 34.5795 58.1913C34.2623 57.4258 33.9369 57.1004 33.0988 57.194C32.4363 57.2677 32.1156 56.8768 32.1132 56.2026C32.1085 54.8448 32.1085 53.487 32.1132 52.1292C32.1156 51.4667 32.4538 51.0687 33.1105 51.1459C33.9498 51.2443 34.3758 50.968 34.5619 50.1381C34.6673 49.6687 34.9552 49.2403 35.1683 48.7768C33.8479 48.277 33.114 47.3324 33.0157 45.8962C32.8261 45.8622 32.6435 45.833 32.462 45.7978C30.5939 45.4385 29.5182 43.5352 30.2018 41.7549C30.3094 41.4739 30.2778 41.3183 30.066 41.1193C29.5662 40.6499 29.0991 40.1442 28.5982 39.6772C28.5033 39.5894 28.2856 39.5449 28.1639 39.5882C27.0613 39.9839 26.0968 39.7779 25.2657 38.9597C24.5271 38.2328 23.7932 37.5 23.0663 36.7603C21.9613 35.6377 21.9625 34.0962 23.0686 32.9713C23.8259 32.2011 24.5938 31.4402 25.3605 30.6782C25.8088 30.2323 26.3379 30.196 26.7113 30.5729C27.0812 30.9463 27.039 31.4672 26.5872 31.9225C25.858 32.6588 25.1194 33.388 24.389 34.1231C23.854 34.6615 23.8564 35.0771 24.3972 35.6213C25.0761 36.3049 25.7561 36.9873 26.4421 37.6651C26.9454 38.1625 27.3785 38.166 27.8783 37.6651C31.2985 34.2495 34.7153 30.8327 38.1309 27.4125C38.6564 26.8869 38.6506 26.4796 38.1227 25.947C37.4332 25.2529 36.7426 24.5599 36.0473 23.8717C35.5522 23.3824 35.1378 23.3812 34.6462 23.867C33.8667 24.636 33.0965 25.4156 32.3204 26.187C32.0231 26.4819 31.6743 26.5873 31.2833 26.393C30.9169 26.2104 30.7355 25.8943 30.8139 25.494C30.8526 25.2938 30.972 25.0808 31.1159 24.9322C31.9095 24.1151 32.709 23.304 33.5295 22.515C34.5795 21.5049 36.1023 21.5014 37.157 22.5092C37.9483 23.2653 38.7138 24.0496 39.4805 24.8315C39.6525 25.0071 39.8515 25.2025 39.9159 25.4249C40.0669 25.9376 40.411 26.0324 40.8839 26.1027C42.3822 26.3262 43.7891 26.8389 45.1235 27.5576C45.3061 27.656 45.5625 27.6723 45.7767 27.6513C46.644 27.567 47.5079 27.4523 48.4104 27.3458C48.0978 26.0933 48.6784 25.1756 49.568 24.3586C50.1802 23.7968 50.7455 23.1822 51.339 22.5993C52.4838 21.4756 54.0195 21.4674 55.1584 22.6028C58.622 26.0559 62.0808 29.5147 65.5339 32.9806C66.6307 34.0821 66.6283 35.6307 65.5456 36.738C64.8011 37.5 64.0438 38.2503 63.2853 38.9995C62.7024 39.5754 62.0001 39.8282 61.1772 39.7732C61.0286 39.7638 60.8331 39.8294 60.7277 39.9312C59.9727 40.6628 59.2283 41.4049 58.5002 42.1634C58.4019 42.2664 58.3434 42.504 58.3902 42.6363C59.1253 44.7116 57.9197 46.6195 55.7226 46.8314C55.6945 46.8337 55.6687 46.849 55.6009 46.8712C55.5423 47.5747 55.403 48.3215 54.8388 48.7897C54.2641 49.2673 54.3344 49.6664 54.6129 50.2517C55.0121 51.0921 54.9676 51.1132 55.9157 51.1214C56.6976 51.1284 57.0066 51.4327 57.0078 52.2088C57.0102 53.508 57.0102 54.8073 57.0078 56.1078C57.0066 56.9025 56.7152 57.1987 55.9345 57.2104C55.2899 57.2198 54.8506 57.5233 54.6164 58.1211C54.5146 58.3786 54.4315 58.6536 54.2747 58.876C54.0136 59.2483 54.1447 59.4753 54.435 59.7551C55.4194 60.7091 55.4089 60.9303 54.4303 61.9077C53.6145 62.7235 52.8021 63.5417 51.9828 64.3541C51.4291 64.903 50.9949 64.903 50.4471 64.3494C50.2211 64.1223 50.0175 63.8742 49.8361 63.6717C49.1045 63.9608 48.4537 64.2101 47.8111 64.4805C47.7197 64.5191 47.632 64.6549 47.6156 64.7579C47.5851 64.9581 47.5898 65.1664 47.6086 65.3689C47.6589 65.9097 47.488 66.3369 47.0104 66.6214H42.1036L42.1059 66.6249ZM43.8278 47.2294C44.9128 47.2306 45.6819 47.7936 46.3772 48.5263C47.1005 49.2883 47.8497 50.0269 48.6058 50.7573C49.3351 51.4608 50.4822 51.1717 50.7409 50.2259C50.8919 49.6769 50.6823 49.238 50.2902 48.847C47.9117 46.4767 45.5391 44.1006 43.1653 41.7244C43.0517 41.6109 42.9312 41.502 42.8363 41.3733C42.5741 41.0186 42.6116 40.5633 42.9148 40.2531C43.2168 39.9441 43.6709 39.8972 44.0314 40.1524C44.1614 40.2437 44.2726 40.3631 44.3861 40.4767C46.7307 42.82 49.074 45.1634 51.4174 47.5068C51.531 47.6203 51.6422 47.7386 51.7674 47.8369C52.5224 48.4268 53.5805 48.0487 53.7947 47.1147C53.92 46.5669 53.6718 46.1619 53.2996 45.7908C50.9317 43.4299 48.5695 41.0643 46.2051 38.6998C46.1021 38.5968 45.9921 38.4973 45.9019 38.3838C45.6011 38.0033 45.6327 37.5188 45.971 37.1969C46.2987 36.8855 46.7599 36.8691 47.1251 37.1629C47.2492 37.2636 47.3592 37.383 47.4728 37.4965C49.8478 39.8703 52.2192 42.2477 54.5977 44.618C55.1935 45.2114 55.9813 45.2336 56.5022 44.6964C57.0078 44.1743 56.9739 43.4053 56.3933 42.8235C53.7327 40.1559 51.0698 37.493 48.3987 34.8371C48.2804 34.72 48.0744 34.6358 47.9082 34.6323C47.0034 34.6147 46.0974 34.6159 45.1926 34.6381C45.0264 34.6416 44.8297 34.7329 44.7045 34.8476C44.2936 35.2199 43.9261 35.6401 43.5117 36.0076C42.1914 37.1781 40.2249 37.0903 39.0029 35.8238C37.7879 34.5644 37.775 32.5792 38.9982 31.3127C39.3821 30.9147 39.7883 30.5249 40.239 30.2089C41.1028 29.6025 42.0064 29.0524 42.971 28.4285C42.1949 28.2248 41.4423 28.0305 40.6908 27.828C40.2764 27.7168 39.944 27.7356 39.7415 28.2073C39.6549 28.4098 39.4477 28.5655 39.2838 28.7305C36.2089 31.809 33.1316 34.8851 30.0554 37.9624C29.9466 38.0712 29.8459 38.1883 29.7968 38.241C30.3949 38.845 30.9638 39.4197 31.6146 40.0763C31.9622 39.6947 32.3017 39.2476 32.7125 38.8812C34.3559 37.4181 36.9615 38.1672 37.5877 40.2706C37.6697 40.5469 37.7048 40.8383 37.7645 41.1415C38.5721 41.1918 39.2979 41.4576 39.8796 42.0475C40.459 42.6339 40.7236 43.3585 40.768 44.1591C42.3424 44.2844 43.6358 45.2301 43.8231 47.2306L43.8278 47.2294ZM33.8807 55.4687C34.2049 55.4687 34.4812 55.464 34.7563 55.4687C35.3263 55.4804 35.5417 55.6899 35.7407 56.2131C36.0977 57.1484 36.4886 58.0707 36.896 58.9849C37.1008 59.4426 37.102 59.7844 36.752 60.1437C36.5401 60.3614 36.2908 60.5417 36.0953 60.7079C36.7637 61.3751 37.356 61.9674 38.015 62.6264C38.1742 62.4414 38.3497 62.2073 38.5558 62.0037C38.9256 61.6373 39.285 61.6279 39.7485 61.8351C40.6627 62.2436 41.5862 62.6322 42.5203 62.9893C43.04 63.1882 43.2507 63.4106 43.2601 63.9783C43.2648 64.2651 43.2601 64.5519 43.2601 64.8375H45.8563C45.8563 64.5437 45.8539 64.2827 45.8563 64.0216C45.8633 63.3872 46.0775 63.1789 46.6792 62.96C47.5652 62.6381 48.4384 62.2752 49.2929 61.8784C49.8559 61.6162 50.1825 61.6115 50.6238 62.0657C50.8134 62.2612 50.9586 62.4976 51.0803 62.6592C51.7826 61.958 52.3667 61.3728 52.9941 60.7465C52.815 60.5768 52.5961 60.386 52.396 60.1777C52.0097 59.7762 52.0132 59.4601 52.245 58.9498C52.6476 58.0649 53.0245 57.1671 53.364 56.2564C53.577 55.684 53.783 55.478 54.4058 55.4698C54.6785 55.4663 54.9512 55.4698 55.2216 55.4698V52.8771C54.9828 52.8771 54.7803 52.8771 54.5766 52.8771C53.735 52.8771 53.5302 52.7191 53.323 51.915C53.2867 51.7733 53.2598 51.6282 53.2083 51.4936C53.0222 51.009 52.8267 50.5279 52.6336 50.0445C52.4744 50.7995 52.2216 51.4444 51.71 51.9606C51.4139 52.2603 50.9281 52.4628 50.7982 52.8104C50.6613 53.178 50.8883 53.6649 50.8848 54.0992C50.8638 56.6614 49.7284 58.6092 47.4657 59.7832C45.1668 60.9771 42.8644 60.7875 40.7868 59.2436C38.7384 57.7207 37.9447 55.6126 38.3228 53.0808C38.3825 52.6852 38.5007 52.2989 38.5967 51.8869C37.61 51.7043 36.9018 51.16 36.3423 50.2294C36.1117 50.9516 35.9151 51.558 35.7254 52.1655C35.5733 52.6512 35.3087 52.8619 34.8054 52.8736C34.5034 52.8806 34.2014 52.8748 33.8819 52.8748V55.4687H33.8807ZM53.2575 23.4269C53.007 23.579 52.7588 23.6762 52.5809 23.8471C51.854 24.5447 51.147 25.2622 50.4377 25.9786C49.9508 26.4714 49.9484 26.8869 50.4318 27.3797C50.9738 27.9322 51.5251 28.4753 52.0729 29.0231C54.9337 31.8839 57.7932 34.7446 60.654 37.603C61.2322 38.1801 61.6325 38.1789 62.2155 37.5983C62.9084 36.9077 63.6049 36.2206 64.2884 35.5207C64.711 35.0876 64.718 34.6381 64.292 34.2109C60.8366 30.7485 57.3777 27.2896 53.913 23.8366C53.7479 23.6715 53.5091 23.5802 53.2586 23.4257L53.2575 23.4269ZM59.4027 38.7197C59.2845 38.6354 59.137 38.557 59.0235 38.4446C56.213 35.6401 53.3839 32.8542 50.618 30.0087C49.98 29.352 49.3468 29.1144 48.4513 29.1343C45.3366 29.2034 42.6327 30.2252 40.3829 32.3966C39.6923 33.0626 39.6549 33.9803 40.2717 34.6159C40.8898 35.2515 41.8121 35.2374 42.4922 34.5726C42.9312 34.1441 43.3689 33.7157 43.7903 33.2709C44.0607 32.9842 44.3697 32.8671 44.763 32.8706C45.916 32.8835 47.0689 32.8882 48.2219 32.8613C48.7124 32.8496 49.0752 33.0052 49.4205 33.354C51.8669 35.8215 54.3273 38.2726 56.7843 40.7283C56.8919 40.836 57.0055 40.939 57.0933 41.0233C57.8635 40.2554 58.595 39.5239 59.4027 38.7197ZM49.0986 54.5053C48.2114 55.567 47.4728 55.9544 46.4181 55.9357C45.4478 55.9193 44.6881 55.4675 44.063 54.7628C43.8711 54.5463 43.7154 54.4936 43.4356 54.6423C42.8246 54.9677 42.1516 55.0812 41.4844 54.8752C40.9705 54.716 40.4906 54.4527 40.0072 54.2396C39.8621 56.5362 41.9526 58.6782 44.4247 58.7531C47.1965 58.8374 49.0787 56.5116 49.0998 54.5042L49.0986 54.5053ZM39.0263 44.33C38.9713 43.6464 38.7524 43.2414 38.2631 43.0237C37.7422 42.7919 37.2577 42.8856 36.8527 43.273C36.2838 43.8161 35.7313 44.3757 35.1835 44.9387C34.6603 45.4771 34.6474 46.2368 35.1332 46.7436C35.6295 47.2598 36.4219 47.2668 36.9709 46.7378C37.5269 46.2017 38.0852 45.6679 38.6002 45.0944C38.8203 44.8485 38.9327 44.5068 39.0275 44.33H39.0263ZM42.1106 47.2645C42.0345 46.6933 41.7969 46.2953 41.3205 46.0694C40.809 45.8259 40.315 45.9055 39.9065 46.293C39.3154 46.8536 38.736 47.4295 38.1753 48.0207C37.6779 48.5439 37.6954 49.3 38.18 49.7916C38.6728 50.2903 39.4512 50.302 39.9838 49.7905C40.5609 49.2356 41.1368 48.6773 41.6752 48.085C41.8765 47.8626 41.969 47.5407 42.1106 47.2645ZM34.679 39.8083C34.4098 39.9347 34.0914 40.0061 33.8819 40.1969C33.2486 40.7763 32.64 41.385 32.057 42.0147C31.6029 42.5063 31.6509 43.2449 32.1074 43.7178C32.5627 44.1884 33.306 44.2609 33.807 43.8068C34.4636 43.211 35.091 42.5789 35.688 41.9234C36.038 41.5395 36.0731 41.0525 35.8355 40.5761C35.6072 40.1173 35.2221 39.8937 34.679 39.8083ZM40.7762 51.9161C40.8746 52.471 41.1098 52.8502 41.5687 53.0738C42.0638 53.3149 42.5496 53.2552 42.9464 52.883C43.5621 52.3059 44.1637 51.7125 44.7384 51.0944C45.2336 50.5618 45.1903 49.8162 44.6881 49.3293C44.2059 48.8611 43.4298 48.8576 42.9136 49.3515C42.3354 49.9052 41.7583 50.4624 41.2234 51.057C41.0138 51.2899 40.9214 51.627 40.7762 51.9161ZM45.0908 53.3231C45.2956 53.5174 45.5075 53.7609 45.7603 53.9482C46.2507 54.3134 46.925 54.2548 47.3639 53.8416C47.7935 53.4366 47.9 52.7332 47.55 52.2462C47.3089 51.9126 46.9917 51.634 46.7506 51.3754C46.184 52.0402 45.6526 52.6641 45.0919 53.3219L45.0908 53.3231Z" fill="white"/>
</svg>
