<svg width="18" height="18" viewBox="0 0 18 18" fill="none" xmlns="http://www.w3.org/2000/svg">
<path d="M5.35323 11.9228C5.35323 10.8892 5.35625 9.85593 5.35193 8.82225C5.34934 8.16391 4.92267 7.63327 4.28073 7.48616C4.14612 7.45509 4.00332 7.45164 3.86398 7.45078C3.34714 7.4469 2.8303 7.45078 2.31346 7.44862C1.72631 7.44603 1.4118 7.01677 1.60637 6.46197C2.54341 3.78891 4.38513 2.06454 7.1367 1.41526C11.1515 0.467435 15.1649 2.99036 16.171 7.02238C17.212 11.1942 14.5075 15.4389 10.2925 16.2556C8.75969 16.5528 7.27735 16.3958 5.83857 15.797C5.51328 15.6615 5.35366 15.4221 5.35366 15.0718C5.35366 14.0221 5.35366 12.9725 5.35366 11.9228H5.35323ZM9.48836 8.14148C9.48836 8.05304 9.48836 7.98962 9.48836 7.92577C9.48836 6.84938 9.49008 5.773 9.48706 4.69661C9.4862 4.30187 9.19197 4.00894 8.80801 4.00807C8.4219 4.00721 8.12422 4.29842 8.12335 4.69101C8.12077 6.06895 8.12077 7.44646 8.12335 8.82441C8.12422 9.21743 8.4137 9.50475 8.80888 9.50605C9.72391 9.50907 10.6389 9.50907 11.554 9.50605C11.95 9.50475 12.2425 9.21225 12.2451 8.82743C12.2477 8.43743 11.9509 8.14407 11.5445 8.14234C10.9254 8.13975 10.3063 8.14148 9.68724 8.14148C9.629 8.14148 9.57076 8.14148 9.48793 8.14148H9.48836Z" fill="#C04149"/>
<path d="M2.60409 10.8917C2.60409 10.44 2.60323 9.98789 2.60409 9.5362C2.60539 9.13153 2.89443 8.82825 3.28012 8.82523C3.67746 8.82177 3.98376 9.11816 3.98592 9.52714C3.9911 10.4361 3.9911 11.3456 3.98592 12.2546C3.98376 12.664 3.67746 12.9608 3.28055 12.9578C2.89487 12.9547 2.60495 12.6515 2.60409 12.2472C2.6028 11.7955 2.60409 11.3434 2.60409 10.8917Z" fill="#C04149"/>
<path d="M4.32641 15.3473C4.34237 15.9159 3.88895 16.3931 3.31689 16.4094C2.75605 16.4258 2.27028 15.9616 2.25431 15.3948C2.23835 14.8283 2.69393 14.3542 3.26901 14.3374C3.84106 14.321 4.31001 14.7688 4.32641 15.3473Z" fill="#C04149"/>
<path d="M9.48956 8.14171C9.57239 8.14171 9.63063 8.14171 9.68887 8.14171C10.308 8.14171 10.927 8.13998 11.5461 8.14257C11.9525 8.1443 12.2493 8.43766 12.2467 8.82766C12.2442 9.21248 11.9517 9.50498 11.5556 9.50628C10.6406 9.5093 9.72554 9.5093 8.81051 9.50628C8.41533 9.50498 8.12585 9.21766 8.12499 8.82464C8.1224 7.44669 8.1224 6.06918 8.12499 4.69124C8.12585 4.29865 8.42353 4.00744 8.80965 4.0083C9.19361 4.00917 9.4874 4.3021 9.4887 4.69684C9.49129 5.77323 9.48999 6.84961 9.48999 7.926C9.48999 7.98985 9.48999 8.05327 9.48999 8.14171H9.48956Z" fill="white"/>
</svg>
