<svg width="88" height="88" viewBox="0 0 88 88" fill="none" xmlns="http://www.w3.org/2000/svg">
<circle cx="43.9212" cy="43.5858" r="43.5897" fill="#2872C1"/>
<path d="M60.0809 52.36C60.5932 52.0399 60.7168 52.0524 61.1144 52.455C62.1167 53.4716 63.1235 54.4849 64.1191 55.5083C64.8408 56.2502 65.1092 57.1311 64.7851 58.141C64.4622 59.144 63.7561 59.7298 62.7348 59.8881C61.9118 60.0159 61.2012 59.7355 60.6143 59.144C59.5207 58.0414 58.4337 56.9309 57.2643 55.7435V56.2592C57.2643 58.3049 57.2665 60.3495 57.2643 62.3953C57.261 64.2906 55.8955 65.6872 54.0379 65.6872C44.744 65.6895 35.4513 65.6895 26.1574 65.6872C24.2953 65.6872 22.9232 64.2929 22.9232 62.4021C22.921 50.2588 22.921 38.1133 22.9221 25.969C22.9221 24.0804 24.2964 22.6917 26.1641 22.6917C35.458 22.6906 44.7507 22.6895 54.0446 22.6917C55.8833 22.6917 57.2621 24.0861 57.2632 25.9486C57.2665 31.111 57.2665 36.2746 57.2587 41.437C57.2587 41.7231 57.3322 41.9334 57.5204 42.1517C59.4137 44.3421 59.8058 47.573 58.4883 50.1717C58.3435 50.4567 58.3412 50.6264 58.5829 50.8514C59.093 51.3286 59.5697 51.842 60.0786 52.36H60.0809ZM56.2675 40.9722V40.5232C56.2675 35.7136 56.2698 30.9041 56.2675 26.0945C56.2675 24.6199 55.3532 23.7039 53.8887 23.7039C44.6928 23.7027 35.4981 23.7027 26.3022 23.7039C24.8188 23.7039 23.92 24.621 23.92 26.1318C23.92 36.5686 23.92 47.0065 23.92 57.4432C23.92 57.5914 23.92 57.7395 23.92 57.8695H56.2686C56.2686 56.5521 56.2753 55.2697 56.2653 53.9862C56.2608 53.4863 55.7419 53.1912 55.3008 53.4094C53.8452 54.1309 52.3217 54.356 50.7269 54.0416C46.9748 53.3042 44.4467 49.6787 45.0035 45.7851C45.4791 42.457 48.4827 39.692 51.7893 39.6185C53.3942 39.5823 54.8576 40.0041 56.2686 40.9699L56.2675 40.9722ZM23.9189 58.9337C23.9189 59.9831 23.9645 60.9986 23.9089 62.0085C23.8142 63.7297 24.919 64.7011 26.525 64.6943C35.5805 64.6593 44.636 64.6774 53.6904 64.6774C53.843 64.6774 53.9967 64.6819 54.1482 64.6728C55.2051 64.6163 56.0325 63.9208 56.2018 62.8589C56.2909 62.2946 56.2575 61.7077 56.2653 61.131C56.2742 60.4027 56.2675 59.6744 56.2675 58.9326H23.9189V58.9337ZM52.1123 40.6352C48.7478 40.6239 45.9457 43.4408 45.929 46.8515C45.9123 50.3018 48.671 53.1391 52.0622 53.1595C55.4523 53.1799 58.2444 50.3719 58.2644 46.9228C58.2844 43.4895 55.5024 40.6453 52.1112 40.6352H52.1123ZM58.5128 55.5728C59.4416 56.5114 60.3882 57.4771 61.3449 58.4327C62.0031 59.092 62.9353 59.1124 63.5333 58.4972C64.1303 57.8831 64.098 56.9456 63.4431 56.2739C62.5756 55.3828 61.7002 54.4996 60.8259 53.6152C60.7502 53.5383 60.6633 53.4727 60.6188 53.4343C59.9138 54.1501 59.23 54.8434 58.5128 55.5716V55.5728ZM56.6852 52.585C57.2053 53.1131 57.7488 53.665 58.2555 54.1807C58.5907 53.8459 58.9638 53.4739 59.2846 53.1538C58.7533 52.6178 58.2076 52.0682 57.6986 51.5548C57.3656 51.8941 56.9959 52.2695 56.6863 52.585H56.6852Z" fill="white"/>
<path d="M59.2088 52.686C59.7211 52.3542 59.8447 52.3671 60.2423 52.7845C61.2446 53.8384 62.2514 54.8889 63.2471 55.9499C63.9688 56.719 64.2372 57.6323 63.9131 58.6793C63.5901 59.7192 62.884 60.3265 61.8627 60.4906C61.0397 60.6231 60.3292 60.3324 59.7422 59.7192C58.6486 58.5761 57.5616 57.4248 56.3922 56.1938V56.7284C56.3922 58.8493 56.3945 60.969 56.3922 63.0898C56.3889 65.0548 55.0235 66.5027 53.1658 66.5027C43.872 66.505 34.5792 66.505 25.2854 66.5027C23.4232 66.5027 22.0512 65.0571 22.0512 63.0969C22.0489 50.5077 22.0489 37.9161 22.05 25.3257C22.05 23.3678 23.4244 21.9281 25.292 21.9281C34.5859 21.9269 43.8786 21.9258 53.1725 21.9281C55.0112 21.9281 56.39 23.3737 56.3911 25.3046C56.3945 30.6566 56.3945 36.0098 56.3867 41.3618C56.3867 41.6584 56.4602 41.8765 56.6484 42.1027C58.5417 44.3737 58.9337 47.7232 57.6162 50.4174C57.4714 50.7128 57.4692 50.8887 57.7108 51.122C58.2209 51.6168 58.6976 52.149 59.2066 52.686H59.2088ZM55.3955 40.8799V40.4145C55.3955 35.4283 55.3977 30.4421 55.3955 25.4559C55.3955 23.9271 54.4811 22.9774 53.0166 22.9774C43.8207 22.9762 34.626 22.9762 25.4301 22.9774C23.9467 22.9774 23.0479 23.9282 23.0479 25.4945C23.0479 36.3146 23.0479 47.1358 23.0479 57.9559C23.0479 58.1095 23.0479 58.2631 23.0479 58.3979H55.3966C55.3966 57.0321 55.4033 55.7026 55.3932 54.3719C55.3888 53.8537 54.8698 53.5477 54.4288 53.774C52.9732 54.522 51.4496 54.7553 49.8548 54.4293C46.1027 53.6649 43.5746 49.9062 44.1315 45.8697C44.607 42.4193 47.6107 39.5528 50.9173 39.4766C52.5221 39.4391 53.9855 39.8764 55.3966 40.8776L55.3955 40.8799ZM23.0468 59.5011C23.0468 60.5891 23.0925 61.6419 23.0368 62.6889C22.9421 64.4733 24.0469 65.4804 25.6529 65.4733C34.7084 65.437 43.7639 65.4557 52.8183 65.4557C52.9709 65.4557 53.1246 65.4604 53.2761 65.451C54.333 65.3924 55.1605 64.6714 55.3298 63.5705C55.4188 62.9855 55.3854 62.377 55.3932 61.7791C55.4021 61.0241 55.3955 60.2691 55.3955 59.5H23.0468V59.5011ZM51.2402 40.5306C47.8757 40.5188 45.0736 43.4393 45.0569 46.9752C45.0402 50.5522 47.7989 53.4938 51.1901 53.5149C54.5802 53.536 57.3723 50.6249 57.3923 47.0491C57.4124 43.4897 54.6303 40.5411 51.2391 40.5306H51.2402ZM57.6407 56.0168C58.5695 56.9899 59.5162 57.9911 60.4728 58.9818C61.131 59.6653 62.0632 59.6864 62.6613 59.0486C63.2582 58.412 63.2259 57.4401 62.5711 56.7436C61.7035 55.8198 60.8281 54.9042 59.9538 53.9873C59.8781 53.9076 59.7912 53.8396 59.7467 53.7998C59.0417 54.5419 58.3579 55.2606 57.6407 56.0156V56.0168ZM55.8131 52.9193C56.3332 53.4668 56.8767 54.0389 57.3834 54.5735C57.7186 54.2265 58.0917 53.8408 58.4125 53.509C57.8812 52.9533 57.3355 52.3835 56.8266 51.8512C56.4936 52.2029 56.1238 52.5922 55.8142 52.9193H55.8131Z" fill="white"/>
<path d="M34.7623 31.7981C32.2971 31.7981 29.8286 31.7994 27.3634 31.7981C25.9715 31.7981 25.3443 31.6197 25.3242 31.2278C25.3041 30.832 25.9447 30.6328 27.2963 30.6328C32.3541 30.6315 37.4119 30.6354 42.4697 30.6289C43.5296 30.6276 44.3044 30.7435 44.3748 31.2018C44.4385 31.5976 43.761 31.7955 42.4094 31.7968C39.8603 31.7994 37.3113 31.7968 34.7589 31.7968L34.7623 31.7981Z" fill="white"/>
<path d="M34.7623 27.7434C32.2971 27.7434 29.8286 27.7447 27.3634 27.7434C25.9715 27.7434 25.3443 27.565 25.3242 27.1731C25.3041 26.7773 25.9447 26.5781 27.2963 26.5781C32.3541 26.5768 37.4119 26.5807 42.4697 26.5742C43.5296 26.5729 44.3044 26.6888 44.3748 27.1471C44.4385 27.5429 43.761 27.7408 42.4094 27.7421C39.8603 27.7447 37.3113 27.7421 34.7589 27.7421L34.7623 27.7434Z" fill="white"/>
<path d="M34.7438 39.5917C32.5704 39.5917 30.397 39.5943 28.2237 39.5917C26.9592 39.5891 26.3354 39.3951 26.3253 39.0162C26.3153 38.6347 26.9458 38.429 28.1868 38.4277C32.6174 38.4251 37.048 38.4251 41.4786 38.4277C42.743 38.4277 43.3669 38.623 43.3769 39.0019C43.387 39.3834 42.7565 39.5891 41.5155 39.5904C39.2583 39.5943 37.001 39.5904 34.7438 39.5904V39.5917Z" fill="white"/>
<path d="M34.7719 43.4892C32.5583 43.4892 30.3413 43.484 28.1277 43.4918C27.1014 43.4944 26.4071 43.3499 26.3333 42.9241C26.2662 42.5387 26.9203 42.3265 28.1579 42.3252C32.6287 42.3213 37.1029 42.3265 41.5738 42.3213C42.6001 42.3213 43.2944 42.4632 43.3682 42.889C43.4352 43.273 42.7779 43.4853 41.5402 43.4892C39.283 43.4944 37.0258 43.4905 34.7686 43.4905L34.7719 43.4892Z" fill="white"/>
<path d="M34.945 50.1209C37.1184 50.1209 39.2918 50.1274 41.4652 50.1183C42.525 50.1131 43.2964 50.2329 43.3702 50.6912C43.4306 51.0727 42.7665 51.2849 41.5289 51.2849C37.058 51.2888 32.5838 51.2849 28.113 51.2875C27.0833 51.2875 26.3991 51.1404 26.332 50.7146C26.275 50.3332 26.9391 50.1235 28.1733 50.1209C30.4306 50.117 32.6878 50.1209 34.945 50.1209Z" fill="white"/>
<path d="M34.9684 54.0177C37.1418 54.0177 39.3152 54.0151 41.4885 54.0177C42.7463 54.0203 43.3735 54.2169 43.3768 54.5958C43.3802 54.9759 42.753 55.1804 41.5053 55.1804C37.0747 55.183 32.6441 55.183 28.2135 55.1804C26.9558 55.1804 26.3286 54.9811 26.3252 54.601C26.3219 54.2208 26.949 54.019 28.1967 54.0164C30.454 54.0125 32.7112 54.0164 34.9684 54.0164V54.0177Z" fill="white"/>
</svg>
