<svg width="19" height="24" viewBox="0 0 19 24" fill="none" xmlns="http://www.w3.org/2000/svg">
<path d="M18.2276 19.0929C17.7065 17.5376 15.6294 16.564 14.1485 15.9114C13.5684 15.6566 11.9623 15.2243 11.7692 14.4918C11.7001 14.2279 11.7094 13.9791 11.7661 13.7406C11.6768 13.7577 11.5863 13.7679 11.4926 13.7679H10.5277C9.75737 13.7679 9.13143 13.1394 9.13143 12.3675C9.13143 11.596 9.75763 10.9689 10.5277 10.9689H11.4926C11.8114 10.9689 12.1136 11.0771 12.3574 11.2701C12.7147 11.2224 13.0594 11.1458 13.3808 11.0454C13.8028 10.1588 14.132 9.09853 14.2057 8.18593C14.5206 4.28128 12.1336 1.99682 8.71095 2.39175C6.22246 2.67899 4.73589 4.53972 4.5752 6.93524C4.4127 9.37695 5.31551 11.1803 6.27447 12.5032C6.69444 13.0815 7.13562 13.4534 7.06783 14.1503C6.98916 14.9744 6.11042 15.2041 5.48189 15.4573C4.73719 15.7573 3.93503 16.2124 3.55621 16.4229C2.25129 17.1455 0.819054 18.0158 0.497158 19.2063C-0.215724 21.8447 2.19177 22.6439 4.1793 23.0129C5.88504 23.3284 7.8084 23.3533 9.39045 23.3533C12.2521 23.3533 17.3978 23.2384 18.2276 21.0813C18.4636 20.4692 18.3624 19.4938 18.2276 19.0929Z" fill="#006CDE"/>
<path d="M12.1041 11.9732C11.9732 11.7731 11.7493 11.6403 11.494 11.6403H10.529C10.1264 11.6403 9.80167 11.9664 9.80167 12.3681C9.80167 12.7713 10.1264 13.098 10.529 13.098H11.494C11.7757 13.098 12.0148 12.9369 12.1354 12.7039C13.4807 12.5977 14.6508 12.1857 15.4721 11.5772C15.6608 11.6992 15.8838 11.7705 16.1244 11.7705H16.185C16.8557 11.7705 17.3981 11.2261 17.3981 10.5528V8.12198C17.3981 7.63779 17.115 7.22003 16.7067 7.02594C16.5286 3.12258 13.3063 0 9.37006 0C5.43381 0 2.21097 3.12258 2.03372 7.02594C1.62462 7.22029 1.3418 7.63779 1.3418 8.12198V10.5528C1.3418 11.2261 1.88467 11.7705 2.55382 11.7705H2.61515C3.28482 11.7705 3.82795 11.2261 3.82795 10.5528V8.12198C3.82795 7.6448 3.55289 7.23326 3.15311 7.03424C3.32622 3.74533 6.04785 1.12381 9.37006 1.12381C12.691 1.12381 15.4139 3.74533 15.5862 7.03424C15.187 7.23352 14.9122 7.6448 14.9122 8.12198V10.5528C14.9122 10.7142 14.9435 10.8644 14.9986 11.0048C14.2917 11.5121 13.2626 11.8735 12.1041 11.9732Z" fill="#006CDE"/>
</svg>
