<svg width="21" height="21" viewBox="0 0 21 21" fill="none" xmlns="http://www.w3.org/2000/svg">
<mask id="path-1-inside-1_15856_952" fill="white">
<path d="M2.97806 9.9129V8.54568C2.97806 6.46425 3.82234 4.57845 5.18619 3.21458C6.54998 1.84994 8.43575 1.00645 10.5173 1.00645C12.5996 1.00645 14.4845 1.85073 15.8493 3.21458C17.2131 4.57922 18.0574 6.46414 18.0574 8.54568L18.0565 9.91376H18.775L18.7759 8.29498C18.775 6.01451 17.8506 3.9504 16.3567 2.4564C14.8628 0.962537 12.7986 0.0380859 10.519 0.0380859C8.23854 0.0380859 6.17443 0.962493 4.68043 2.4564C3.18657 3.95026 2.26212 6.01539 2.26212 8.29498V9.91376H2.9789L2.97806 9.9129ZM2.05193 10.354H1.61946C1.24642 10.354 0.906977 10.5073 0.65456 10.7589C0.409023 11.0096 0.261719 11.3439 0.261719 11.7117V14.3144C0.261719 14.6883 0.414208 15.0278 0.659743 15.2733C0.906139 15.5197 1.24556 15.6722 1.61948 15.6722H2.9781V10.3541L2.05193 10.354ZM9.4359 7.21207C8.99652 7.47483 8.65621 7.9073 8.52011 8.44577C8.43741 8.77659 8.2272 9.04193 7.95668 9.20477C7.68615 9.36673 7.35275 9.42703 7.02365 9.34433C6.69368 9.26163 6.42748 9.05142 6.26551 8.7809C6.10354 8.51037 6.0441 8.17697 6.12595 7.84873C6.42662 6.64949 7.18562 5.68545 8.1686 5.09694C9.15159 4.50766 10.3594 4.29401 11.5569 4.59383C12.7553 4.8945 13.7202 5.65264 14.3087 6.63562C14.898 7.6186 15.1116 8.82646 14.8118 10.0239C14.5955 10.888 14.1321 11.6479 13.5049 12.2268C12.8777 12.8058 12.0842 13.2064 11.2063 13.3528C11.0159 13.3838 10.8522 13.4631 10.7264 13.5794C10.6007 13.6957 10.5085 13.8525 10.462 14.0403L9.88559 16.3415C9.80289 16.6706 9.59268 16.9368 9.32216 17.0988C9.05077 17.2607 8.71823 17.321 8.38913 17.2383C8.06002 17.1556 7.79382 16.9463 7.63185 16.6749C7.46989 16.4044 7.40958 16.071 7.49229 15.7419L8.06865 13.4407C8.23492 12.7773 8.58038 12.2027 9.05335 11.7659C9.52546 11.3299 10.1259 11.031 10.8005 10.9181C11.1942 10.8526 11.5509 10.6726 11.8326 10.4124C12.1143 10.1531 12.322 9.81106 12.4184 9.42338C12.5537 8.88407 12.4572 8.34218 12.1936 7.90195C11.93 7.46171 11.4975 7.1214 10.959 6.98702C10.4197 6.85176 9.87697 6.94739 9.43587 7.21101L9.4359 7.21207ZM8.02818 18.1094C8.33745 18.1369 8.63641 18.2817 8.85954 18.541C9.08267 18.808 9.17486 19.1337 9.14643 19.4473C9.118 19.7626 8.96982 20.0667 8.70877 20.2847C8.44945 20.5018 8.12639 20.5931 7.81021 20.5664C7.49747 20.538 7.19854 20.3941 6.97627 20.1339C6.75314 19.8669 6.66096 19.5412 6.68938 19.2276C6.71782 18.9132 6.86599 18.609 7.12704 18.3911C7.38636 18.174 7.70942 18.0827 8.02818 18.1094ZM19.4158 10.354H18.0571V15.6721H19.4158C19.7897 15.6721 20.1291 15.5196 20.3746 15.2741C20.621 15.0277 20.7735 14.6882 20.7735 14.3143V11.7116C20.7735 11.3438 20.6262 11.0095 20.3807 10.7588C20.1283 10.5072 19.7888 10.354 19.4158 10.354Z"/>
</mask>
<path d="M2.97806 9.9129V8.54568C2.97806 6.46425 3.82234 4.57845 5.18619 3.21458C6.54998 1.84994 8.43575 1.00645 10.5173 1.00645C12.5996 1.00645 14.4845 1.85073 15.8493 3.21458C17.2131 4.57922 18.0574 6.46414 18.0574 8.54568L18.0565 9.91376H18.775L18.7759 8.29498C18.775 6.01451 17.8506 3.9504 16.3567 2.4564C14.8628 0.962537 12.7986 0.0380859 10.519 0.0380859C8.23854 0.0380859 6.17443 0.962493 4.68043 2.4564C3.18657 3.95026 2.26212 6.01539 2.26212 8.29498V9.91376H2.9789L2.97806 9.9129ZM2.05193 10.354H1.61946C1.24642 10.354 0.906977 10.5073 0.65456 10.7589C0.409023 11.0096 0.261719 11.3439 0.261719 11.7117V14.3144C0.261719 14.6883 0.414208 15.0278 0.659743 15.2733C0.906139 15.5197 1.24556 15.6722 1.61948 15.6722H2.9781V10.3541L2.05193 10.354ZM9.4359 7.21207C8.99652 7.47483 8.65621 7.9073 8.52011 8.44577C8.43741 8.77659 8.2272 9.04193 7.95668 9.20477C7.68615 9.36673 7.35275 9.42703 7.02365 9.34433C6.69368 9.26163 6.42748 9.05142 6.26551 8.7809C6.10354 8.51037 6.0441 8.17697 6.12595 7.84873C6.42662 6.64949 7.18562 5.68545 8.1686 5.09694C9.15159 4.50766 10.3594 4.29401 11.5569 4.59383C12.7553 4.8945 13.7202 5.65264 14.3087 6.63562C14.898 7.6186 15.1116 8.82646 14.8118 10.0239C14.5955 10.888 14.1321 11.6479 13.5049 12.2268C12.8777 12.8058 12.0842 13.2064 11.2063 13.3528C11.0159 13.3838 10.8522 13.4631 10.7264 13.5794C10.6007 13.6957 10.5085 13.8525 10.462 14.0403L9.88559 16.3415C9.80289 16.6706 9.59268 16.9368 9.32216 17.0988C9.05077 17.2607 8.71823 17.321 8.38913 17.2383C8.06002 17.1556 7.79382 16.9463 7.63185 16.6749C7.46989 16.4044 7.40958 16.071 7.49229 15.7419L8.06865 13.4407C8.23492 12.7773 8.58038 12.2027 9.05335 11.7659C9.52546 11.3299 10.1259 11.031 10.8005 10.9181C11.1942 10.8526 11.5509 10.6726 11.8326 10.4124C12.1143 10.1531 12.322 9.81106 12.4184 9.42338C12.5537 8.88407 12.4572 8.34218 12.1936 7.90195C11.93 7.46171 11.4975 7.1214 10.959 6.98702C10.4197 6.85176 9.87697 6.94739 9.43587 7.21101L9.4359 7.21207ZM8.02818 18.1094C8.33745 18.1369 8.63641 18.2817 8.85954 18.541C9.08267 18.808 9.17486 19.1337 9.14643 19.4473C9.118 19.7626 8.96982 20.0667 8.70877 20.2847C8.44945 20.5018 8.12639 20.5931 7.81021 20.5664C7.49747 20.538 7.19854 20.3941 6.97627 20.1339C6.75314 19.8669 6.66096 19.5412 6.68938 19.2276C6.71782 18.9132 6.86599 18.609 7.12704 18.3911C7.38636 18.174 7.70942 18.0827 8.02818 18.1094ZM19.4158 10.354H18.0571V15.6721H19.4158C19.7897 15.6721 20.1291 15.5196 20.3746 15.2741C20.621 15.0277 20.7735 14.6882 20.7735 14.3143V11.7116C20.7735 11.3438 20.6262 11.0095 20.3807 10.7588C20.1283 10.5072 19.7888 10.354 19.4158 10.354Z" fill="#3A3A3A"/>
<path d="M2.97806 9.9129H1.97806V10.3196L2.2619 10.6108L2.97806 9.9129ZM5.18619 3.21458L5.8933 3.92168L5.89352 3.92146L5.18619 3.21458ZM15.8493 3.21458L16.5566 2.5077L16.5561 2.50724L15.8493 3.21458ZM18.0574 8.54568L19.0574 8.54631V8.54568H18.0574ZM18.0565 9.91376L17.0565 9.91313L17.0559 10.9138H18.0565V9.91376ZM18.775 9.91376V10.9138H19.7745L19.775 9.9143L18.775 9.91376ZM18.7759 8.29498L19.7759 8.29551V8.2946L18.7759 8.29498ZM16.3567 2.4564L17.0638 1.74931L17.0638 1.74929L16.3567 2.4564ZM4.68043 2.4564L3.97334 1.74927L3.97332 1.74929L4.68043 2.4564ZM2.26212 9.91376H1.26212V10.9138H2.26212V9.91376ZM2.9789 9.91376V10.9138H5.3498L3.69506 9.21582L2.9789 9.91376ZM2.05193 10.354L2.05205 9.354H2.05193V10.354ZM0.65456 10.7589L-0.0513878 10.0505L-0.0598624 10.0592L0.65456 10.7589ZM0.659743 15.2733L-0.0473674 15.9804L-0.0473642 15.9804L0.659743 15.2733ZM2.9781 15.6722V16.6722H3.9781V15.6722H2.9781ZM2.9781 10.3541H3.9781V9.35423L2.97822 9.35411L2.9781 10.3541ZM9.4359 7.21207L9.94915 8.0703L10.45 7.77076L10.4356 7.18733L9.4359 7.21207ZM8.52011 8.44577L7.5506 8.20072L7.54997 8.20323L8.52011 8.44577ZM7.95668 9.20477L8.47036 10.0627L8.47237 10.0615L7.95668 9.20477ZM7.02365 9.34433L7.26737 8.37449L7.26678 8.37434L7.02365 9.34433ZM6.12595 7.84873L5.15597 7.60553L5.15565 7.60679L6.12595 7.84873ZM8.1686 5.09694L8.68228 5.95493L8.68277 5.95463L8.1686 5.09694ZM11.5569 4.59383L11.8002 3.62389L11.7998 3.62377L11.5569 4.59383ZM14.3087 6.63562L13.4507 7.14929L13.451 7.14979L14.3087 6.63562ZM14.8118 10.0239L13.8417 9.78103L13.8417 9.78115L14.8118 10.0239ZM11.2063 13.3528L11.3671 14.3398L11.3709 14.3392L11.2063 13.3528ZM10.7264 13.5794L10.0475 12.8451L10.0475 12.8452L10.7264 13.5794ZM10.462 14.0403L11.432 14.2832L11.4326 14.2807L10.462 14.0403ZM9.88559 16.3415L10.8554 16.5852L10.8556 16.5845L9.88559 16.3415ZM9.32216 17.0988L9.83464 17.9575L9.83585 17.9567L9.32216 17.0988ZM8.38913 17.2383L8.1454 18.2082L8.1454 18.2082L8.38913 17.2383ZM7.63185 16.6749L8.49054 16.1624L8.48983 16.1612L7.63185 16.6749ZM7.49229 15.7419L8.46213 15.9856L8.46232 15.9848L7.49229 15.7419ZM8.06865 13.4407L7.09865 13.1975L7.09861 13.1977L8.06865 13.4407ZM9.05335 11.7659L8.37495 11.0312L8.37489 11.0312L9.05335 11.7659ZM10.8005 10.9181L10.6365 9.93167L10.6355 9.93184L10.8005 10.9181ZM11.8326 10.4124L11.1553 9.67667L11.1542 9.67776L11.8326 10.4124ZM12.4184 9.42338L11.4485 9.18011L11.448 9.18191L12.4184 9.42338ZM12.1936 7.90195L13.0515 7.3882L13.0515 7.3882L12.1936 7.90195ZM10.959 6.98702L10.7158 7.95698L10.7169 7.95727L10.959 6.98702ZM9.43587 7.21101L8.92286 6.35263L8.42174 6.65212L8.43618 7.23574L9.43587 7.21101ZM8.02818 18.1094L8.11697 17.1133L8.11168 17.1129L8.02818 18.1094ZM8.85954 18.541L9.62694 17.8998L9.62228 17.8942L9.61755 17.8887L8.85954 18.541ZM9.14643 19.4473L8.15051 19.357L8.15047 19.3575L9.14643 19.4473ZM8.70877 20.2847L8.06784 19.5171L8.06684 19.5179L8.70877 20.2847ZM7.81021 20.5664L7.71967 21.5623L7.72604 21.5629L7.81021 20.5664ZM6.97627 20.1339L6.20882 20.7751L6.21596 20.7835L6.97627 20.1339ZM6.68938 19.2276L7.6853 19.3179L7.68532 19.3177L6.68938 19.2276ZM7.12704 18.3911L7.76797 19.1587L7.76897 19.1578L7.12704 18.3911ZM18.0571 10.354V9.354H17.0571V10.354H18.0571ZM18.0571 15.6721H17.0571V16.6721H18.0571V15.6721ZM20.3746 15.2741L21.0817 15.9812L21.0817 15.9812L20.3746 15.2741ZM20.3807 10.7588L21.0952 10.0591L21.0866 10.0505L20.3807 10.7588ZM3.97806 9.9129V8.54568H1.97806V9.9129H3.97806ZM3.97806 8.54568C3.97806 6.74011 4.70933 5.10568 5.8933 3.92168L4.47908 2.50748C2.93536 4.05123 1.97806 6.1884 1.97806 8.54568H3.97806ZM5.89352 3.92146C7.07715 2.73709 8.71136 2.00645 10.5173 2.00645V0.00644829C8.16014 0.00644829 6.0228 0.96278 4.47886 2.5077L5.89352 3.92146ZM10.5173 2.00645C12.3236 2.00645 13.9573 2.73764 15.1424 3.92192L16.5561 2.50724C15.0117 0.963821 12.8755 0.00644829 10.5173 0.00644829V2.00645ZM15.1419 3.92146C16.3262 5.10647 17.0574 6.74018 17.0574 8.54568H19.0574C19.0574 6.1881 18.0999 4.05198 16.5566 2.5077L15.1419 3.92146ZM17.0574 8.54505L17.0565 9.91313L19.0565 9.91439L19.0574 8.54631L17.0574 8.54505ZM18.0565 10.9138H18.775V8.91376H18.0565V10.9138ZM19.775 9.9143L19.7759 8.29551L17.7759 8.29445L17.775 9.91323L19.775 9.9143ZM19.7759 8.2946C19.7749 5.7385 18.7376 3.42315 17.0638 1.74931L15.6496 3.16349C16.9637 4.47764 17.7751 6.29052 17.7759 8.29536L19.7759 8.2946ZM17.0638 1.74929C15.3901 0.0756192 13.0745 -0.961914 10.519 -0.961914V1.03809C12.5227 1.03809 14.3356 1.84945 15.6496 3.16351L17.0638 1.74929ZM10.519 -0.961914C7.96264 -0.961914 5.64717 0.0755418 3.97334 1.74927L5.38752 3.16353C6.70168 1.84944 8.51444 1.03809 10.519 1.03809V-0.961914ZM3.97332 1.74929C2.29957 3.42305 1.26212 5.73956 1.26212 8.29498H3.26212C3.26212 6.29122 4.07357 4.47748 5.38754 3.16351L3.97332 1.74929ZM1.26212 8.29498V9.91376H3.26212V8.29498H1.26212ZM2.26212 10.9138H2.9789V8.91376H2.26212V10.9138ZM3.69506 9.21582L3.69422 9.21496L2.2619 10.6108L2.26274 10.6117L3.69506 9.21582ZM2.05193 9.354H1.61946V11.354H2.05193V9.354ZM1.61946 9.354C0.963954 9.354 0.375488 9.62522 -0.0513361 10.0506L1.36046 11.4672C1.43847 11.3895 1.52889 11.354 1.61946 11.354V9.354ZM-0.0598624 10.0592C-0.478419 10.4865 -0.738281 11.0683 -0.738281 11.7117H1.26172C1.26172 11.6195 1.29647 11.5327 1.36898 11.4586L-0.0598624 10.0592ZM-0.738281 11.7117V14.3144H1.26172V11.7117H-0.738281ZM-0.738281 14.3144C-0.738281 14.9655 -0.471838 15.5559 -0.0473674 15.9804L1.36685 14.5662C1.30025 14.4996 1.26172 14.4112 1.26172 14.3144H-0.738281ZM-0.0473642 15.9804C0.377631 16.4054 0.967969 16.6722 1.61948 16.6722V14.6722C1.52316 14.6722 1.43465 14.634 1.36685 14.5662L-0.0473642 15.9804ZM1.61948 16.6722H2.9781V14.6722H1.61948V16.6722ZM3.9781 15.6722V10.3541H1.9781V15.6722H3.9781ZM2.97822 9.35411L2.05205 9.354L2.05181 11.354L2.97799 11.3541L2.97822 9.35411ZM8.92264 6.35383C8.26382 6.74782 7.7538 7.39679 7.5506 8.20072L9.48962 8.69082C9.55863 8.41781 9.72922 8.20183 9.94915 8.0703L8.92264 6.35383ZM7.54997 8.20323C7.53489 8.26357 7.49705 8.31425 7.44098 8.34799L8.47237 10.0615C8.95735 9.76962 9.33993 9.28962 9.49026 8.6883L7.54997 8.20323ZM7.44299 8.34679C7.38771 8.37989 7.32548 8.38909 7.26737 8.37449L6.77992 10.3142C7.38002 10.465 7.9846 10.3536 8.47036 10.0627L7.44299 8.34679ZM7.26678 8.37434C7.20583 8.35906 7.15545 8.3206 7.12349 8.2672L5.40754 9.29459C5.69951 9.78224 6.18154 10.1642 6.78052 10.3143L7.26678 8.37434ZM7.12349 8.2672C7.09119 8.21326 7.08133 8.15044 7.09624 8.09066L5.15565 7.60679C5.00687 8.20349 5.11589 8.80748 5.40754 9.29459L7.12349 8.2672ZM7.09592 8.09192C7.32945 7.1605 7.9175 6.4128 8.68228 5.95493L7.65493 4.23896C6.45374 4.95811 5.52379 6.13848 5.15597 7.60553L7.09592 8.09192ZM8.68277 5.95463C9.44747 5.49621 10.384 5.33104 11.314 5.56388L11.7998 3.62377C10.3349 3.25699 8.8557 3.51911 7.65443 4.23925L8.68277 5.95463ZM11.3135 5.56376C12.2448 5.79743 12.9932 6.38508 13.4507 7.14929L15.1667 6.12195C14.4472 4.92019 13.2657 3.99157 11.8002 3.62389L11.3135 5.56376ZM13.451 7.14979C13.9094 7.91449 14.0746 8.85104 13.8417 9.78103L15.7818 10.2668C16.1486 8.80188 15.8865 7.32272 15.1664 6.12145L13.451 7.14979ZM13.8417 9.78115C13.6739 10.4519 13.3141 11.042 12.8266 11.492L14.1831 12.9616C14.95 12.2537 15.5172 11.3242 15.7819 10.2667L13.8417 9.78115ZM12.8266 11.492C12.3391 11.942 11.7231 12.2528 11.0417 12.3665L11.3709 14.3392C12.4453 14.1599 13.4162 13.6696 14.1831 12.9616L12.8266 11.492ZM11.0455 12.3658C10.6757 12.4261 10.3278 12.5861 10.0475 12.8451L11.4053 14.3136C11.3921 14.3258 11.3799 14.3333 11.3714 14.3373C11.3629 14.3413 11.3606 14.3409 11.3671 14.3398L11.0455 12.3658ZM10.0475 12.8452C9.76829 13.1034 9.58135 13.4363 9.49129 13.7999L11.4326 14.2807C11.4344 14.2737 11.4349 14.2754 11.4305 14.2831C11.426 14.2908 11.418 14.3019 11.4053 14.3136L10.0475 12.8452ZM9.49191 13.7973L8.91556 16.0985L10.8556 16.5845L11.432 14.2832L9.49191 13.7973ZM8.91575 16.0978C8.90062 16.158 8.86216 16.2086 8.80846 16.2408L9.83585 17.9567C10.3232 17.665 10.7052 17.1832 10.8554 16.5852L8.91575 16.0978ZM8.80967 16.2401C8.75227 16.2743 8.69033 16.2829 8.63285 16.2685L8.1454 18.2082C8.74612 18.3591 9.34927 18.2471 9.83464 17.9575L8.80967 16.2401ZM8.63285 16.2685C8.57143 16.2531 8.52182 16.2148 8.49054 16.1624L6.77316 17.1874C7.06582 17.6778 7.54862 18.0582 8.1454 18.2082L8.63285 16.2685ZM8.48983 16.1612C8.45673 16.1059 8.44753 16.0437 8.46213 15.9856L6.52244 15.4981C6.37164 16.0982 6.48305 16.7028 6.77387 17.1886L8.48983 16.1612ZM8.46232 15.9848L9.03868 13.6836L7.09861 13.1977L6.52225 15.4989L8.46232 15.9848ZM9.03864 13.6838C9.15807 13.2073 9.40313 12.8041 9.73181 12.5005L8.37489 11.0312C7.75764 11.6013 7.31177 12.3473 7.09865 13.1975L9.03864 13.6838ZM9.73175 12.5006C10.0595 12.1979 10.4811 11.9855 10.9656 11.9044L10.6355 9.93184C9.77079 10.0765 8.99141 10.4619 8.37495 11.0312L9.73175 12.5006ZM10.9646 11.9046C11.5554 11.8063 12.0896 11.5362 12.5111 11.147L11.1542 9.67776C11.0121 9.80893 10.8331 9.89897 10.6365 9.93167L10.9646 11.9046ZM12.5099 11.1481C12.9332 10.7584 13.2444 10.2454 13.3888 9.66485L11.448 9.18191C11.3996 9.37668 11.2954 9.54775 11.1553 9.67667L12.5099 11.1481ZM13.3884 9.66664C13.5908 8.8596 13.4457 8.04646 13.0515 7.3882L11.3356 8.41569C11.4687 8.63791 11.5166 8.90854 11.4485 9.18011L13.3884 9.66664ZM13.0515 7.3882C12.657 6.7294 12.0078 6.21808 11.2012 6.01678L10.7169 7.95727C10.9872 8.02472 11.2029 8.19402 11.3356 8.4157L13.0515 7.3882ZM11.2023 6.01706C10.3963 5.81493 9.58256 5.95836 8.92286 6.35263L9.94888 8.0694C10.1714 7.93642 10.4431 7.8886 10.7158 7.95698L11.2023 6.01706ZM8.43618 7.23574L8.4362 7.2368L10.4356 7.18733L10.4356 7.18628L8.43618 7.23574ZM7.93939 19.1054C7.99372 19.1103 8.05106 19.1346 8.10153 19.1932L9.61755 17.8887C9.22176 17.4288 8.68119 17.1636 8.11697 17.1133L7.93939 19.1054ZM8.09213 19.1821C8.14103 19.2407 8.15553 19.3017 8.15051 19.357L10.1423 19.5376C10.1942 18.9657 10.0243 18.3754 9.62694 17.8998L8.09213 19.1821ZM8.15047 19.3575C8.14475 19.4209 8.11622 19.4767 8.06784 19.5171L9.3497 21.0523C9.82341 20.6568 10.0912 20.1044 10.1424 19.5371L8.15047 19.3575ZM8.06684 19.5179C8.02072 19.5565 7.96227 19.5757 7.89438 19.57L7.72604 21.5629C8.29051 21.6105 8.87817 21.4471 9.3507 21.0515L8.06684 19.5179ZM7.90075 19.5705C7.83836 19.5648 7.78321 19.539 7.73659 19.4844L6.21596 20.7835C6.61387 21.2493 7.15659 21.5111 7.71967 21.5623L7.90075 19.5705ZM7.74368 19.4928C7.69478 19.4342 7.68028 19.3732 7.6853 19.3179L5.69347 19.1373C5.64163 19.7092 5.81151 20.2995 6.20887 20.7751L7.74368 19.4928ZM7.68532 19.3177C7.69096 19.2553 7.71933 19.1993 7.76797 19.1587L6.48611 17.6235C6.01266 18.0188 5.74467 18.571 5.69345 19.1376L7.68532 19.3177ZM7.76897 19.1578C7.81427 19.1199 7.87263 19.0998 7.94468 19.1059L8.11168 17.1129C7.54621 17.0655 6.95845 17.228 6.48511 17.6243L7.76897 19.1578ZM19.4158 9.354H18.0571V11.354H19.4158V9.354ZM17.0571 10.354V15.6721H19.0571V10.354H17.0571ZM18.0571 16.6721H19.4158V14.6721H18.0571V16.6721ZM19.4158 16.6721C20.0668 16.6721 20.6573 16.4056 21.0817 15.9812L19.6675 14.567C19.6009 14.6335 19.5125 14.6721 19.4158 14.6721V16.6721ZM21.0817 15.9812C21.5067 15.5562 21.7735 14.9658 21.7735 14.3143H19.7735C19.7735 14.4106 19.7353 14.4992 19.6675 14.567L21.0817 15.9812ZM21.7735 14.3143V11.7116H19.7735V14.3143H21.7735ZM21.7735 11.7116C21.7735 11.0681 21.5136 10.4864 21.0951 10.0591L19.6662 11.4585C19.7388 11.5326 19.7735 11.6194 19.7735 11.7116H21.7735ZM21.0866 10.0505C20.6596 9.62495 20.071 9.354 19.4158 9.354V11.354C19.5065 11.354 19.5969 11.3895 19.6748 11.4671L21.0866 10.0505Z" fill="#3A3A3A" mask="url(#path-1-inside-1_15856_952)"/>
</svg>
