<svg width="16" height="16" viewBox="0 0 16 16" fill="none" xmlns="http://www.w3.org/2000/svg">
<path d="M0.960938 7.84593C0.960938 3.74769 4.28442 0.429302 8.38728 0.431153C12.4619 0.433004 15.7771 3.76667 15.7752 7.8612C15.7734 11.9381 12.4411 15.2551 8.34933 15.2533C4.28488 15.2514 0.9614 11.9196 0.960938 7.84639V7.84593ZM8.97737 5.93727C8.97737 5.35089 8.98061 4.76404 8.97598 4.17765C8.97274 3.77083 8.73162 3.52415 8.35627 3.52832C7.99574 3.53248 7.76109 3.78101 7.76017 4.17718C7.75693 5.48927 7.76063 6.80089 7.75739 8.11297C7.75692 8.3291 7.8356 8.49711 7.9888 8.64521C8.23872 8.88587 8.48031 9.13487 8.72606 9.38062C9.47814 10.1336 10.2311 10.8857 10.9823 11.6396C11.1734 11.8312 11.3956 11.9044 11.6543 11.8192C11.8774 11.7461 12.013 11.5804 12.0597 11.3536C12.1111 11.1032 12.0014 10.9079 11.8274 10.7344C10.9263 9.83603 10.0252 8.93771 9.1338 8.03013C9.04865 7.94358 8.98802 7.79455 8.98478 7.67283C8.9695 7.09431 8.97783 6.51533 8.97783 5.93681L8.97737 5.93727Z" fill="#008000"/>
<path d="M8.97826 5.93785C8.97826 6.51684 8.96993 7.09582 8.9852 7.67388C8.98844 7.7956 9.04907 7.94462 9.13423 8.03117C10.0261 8.93875 10.9267 9.83708 11.8278 10.7354C12.0018 10.909 12.1115 11.1043 12.0602 11.3547C12.0139 11.5814 11.8778 11.7467 11.6547 11.8202C11.396 11.9054 11.1739 11.8323 10.9827 11.6407C10.2316 10.8867 9.47856 10.1342 8.72649 9.38167C8.4812 9.13637 8.23914 8.88692 7.98922 8.64625C7.83603 8.49861 7.75735 8.33015 7.75781 8.11401C7.76152 6.80193 7.75781 5.49031 7.76059 4.17823C7.76152 3.7816 7.99663 3.53353 8.3567 3.52936C8.73204 3.52473 8.97317 3.77188 8.97641 4.17869C8.98104 4.76508 8.9778 5.35147 8.9778 5.93832L8.97826 5.93785Z" fill="white"/>
</svg>
