<svg width="19" height="18" viewBox="0 0 19 18" fill="none" xmlns="http://www.w3.org/2000/svg">
<path d="M2.49948 5.70503L1.93835 4.73418C1.81198 4.51862 1.60548 4.36179 1.3639 4.29792C1.12233 4.23405 0.865296 4.26833 0.6489 4.39327C0.432504 4.51821 0.27431 4.72367 0.20884 4.96481C0.143371 5.20596 0.175941 5.46321 0.299443 5.68043L1.95539 8.54853C2.08087 8.76585 2.28755 8.92444 2.52995 8.98938C2.77236 9.05433 3.03063 9.02033 3.24797 8.89485L6.11606 7.23891C6.33163 7.11254 6.48845 6.90603 6.55232 6.66446C6.61619 6.42288 6.58191 6.16585 6.45697 5.94946C6.33203 5.73306 6.12657 5.57487 5.88543 5.5094C5.64428 5.44393 5.38703 5.4765 5.16981 5.6L4.43741 6.02298C5.07406 4.7683 6.09369 3.74893 7.34854 3.11261C8.60338 2.47629 10.0282 2.25606 11.4166 2.48385C12.805 2.71164 14.0848 3.37561 15.0706 4.37953C16.0563 5.38346 16.6968 6.67518 16.8992 8.06751C17.1015 9.45985 16.8553 10.8804 16.1961 12.1235C15.537 13.3665 14.4991 14.3673 13.233 14.9809C11.9669 15.5945 10.5383 15.789 9.15425 15.5362C7.77018 15.2835 6.50255 14.5965 5.53506 13.575C5.3624 13.3928 5.12443 13.2867 4.87351 13.2799C4.62258 13.2732 4.37926 13.3664 4.19706 13.5391C4.01486 13.7117 3.90872 13.9497 3.90197 14.2006C3.89523 14.4515 3.98844 14.6949 4.1611 14.8771C5.1308 15.9012 6.33964 16.6684 7.67911 17.1099C9.01857 17.5514 10.4467 17.6533 11.8353 17.4065C13.2239 17.1597 14.5294 16.5719 15.6347 15.6959C16.74 14.8199 17.6105 13.6831 18.1679 12.3876C18.7253 11.0921 18.9523 9.67844 18.8284 8.27355C18.7045 6.86865 18.2337 5.51652 17.4581 4.33855C16.6826 3.16059 15.6266 2.19367 14.385 1.52462C13.1435 0.855576 11.7552 0.505342 10.3449 0.505371C8.67073 0.504897 7.03358 0.997867 5.63805 1.92267C4.24252 2.84746 3.15147 4.16307 2.49948 5.70503Z" fill="#3A3A3A"/>
<path d="M10.3447 4.29053C10.5957 4.29053 10.8363 4.39022 11.0138 4.56768C11.1912 4.74514 11.2909 4.98582 11.2909 5.23678V8.63005L12.9062 10.2453C13.0786 10.4238 13.1739 10.6628 13.1718 10.9109C13.1696 11.159 13.0701 11.3963 12.8947 11.5718C12.7192 11.7472 12.4819 11.8467 12.2338 11.8489C11.9857 11.851 11.7467 11.7557 11.5682 11.5833L9.67569 9.6908C9.49822 9.51338 9.39849 9.27274 9.39844 9.02179V5.23678C9.39844 4.98582 9.49813 4.74514 9.67559 4.56768C9.85305 4.39022 10.0937 4.29053 10.3447 4.29053Z" fill="#3A3A3A"/>
</svg>
