<svg width="89" height="88" viewBox="0 0 89 88" fill="none" xmlns="http://www.w3.org/2000/svg">
<circle cx="44.4823" cy="43.5858" r="43.5897" fill="#2872C1"/>
<path d="M44.4856 59.6306C49.244 59.5893 52.9816 56.2234 53.0497 51.0011C53.1106 46.3468 49.2015 42.5039 44.4792 42.5039C39.7597 42.5039 35.853 46.3511 35.9148 51.0069L44.4856 59.6306ZM44.4856 59.6306C39.7527 59.5931 35.9858 56.2486 35.9148 51.0071L44.4856 59.6306ZM39.9138 49.4173L39.9138 49.4173C40.6007 49.2533 41.1278 49.5634 41.5042 49.9349L39.9138 49.4173ZM39.9138 49.4173C38.5684 49.7387 38.0843 51.3013 39.0615 52.3082L39.0616 52.3083M39.9138 49.4173L39.0616 52.3083M39.0616 52.3083C39.6245 52.888 40.1988 53.4585 40.7698 54.0257C40.9594 54.214 41.1486 54.4019 41.3369 54.5897L41.337 54.5898M39.0616 52.3083L41.337 54.5898M41.337 54.5898C41.6907 54.9424 42.0958 55.1935 42.5701 55.22C43.0444 55.2466 43.4764 55.0424 43.8704 54.7292C44.6978 54.0714 45.5229 53.41 46.3471 52.7494C46.6436 52.5117 46.9399 52.2741 47.2363 52.0369C47.4776 51.844 47.7202 51.651 47.9635 51.4576C48.5686 50.9764 49.1774 50.4923 49.7774 50.0001L49.7778 49.9998M41.337 54.5898L49.7778 49.9998M49.7778 49.9998C50.1504 49.6935 50.3876 49.2915 50.4311 48.8422C50.4746 48.3934 50.3191 47.9571 50.0194 47.5925L50.0192 47.5923M49.7778 49.9998L50.0192 47.5923M50.0192 47.5923C49.7252 47.2351 49.338 47.004 48.8981 46.958C48.4602 46.9123 48.0298 47.0561 47.6562 47.336L47.6548 47.337M50.0192 47.5923L47.6548 47.337M47.6548 47.337C47.5455 47.4195 47.4309 47.5127 47.3256 47.5983C47.2715 47.6423 47.2199 47.6843 47.1727 47.7218L47.1716 47.7227M47.6548 47.337L47.1716 47.7227M47.1716 47.7227C46.4765 48.2785 45.7818 48.8342 45.0872 49.3897C44.3248 49.9995 43.5627 50.6091 42.8004 51.2186M47.1716 47.7227L42.8004 51.2186M42.8004 51.2186C42.6577 51.0773 42.5147 50.9355 42.3716 50.7936C42.0825 50.5068 41.7928 50.2195 41.5044 49.935L42.8004 51.2186Z" stroke="white"/>
<path d="M58.8275 64.1176C58.0232 65.3109 56.9714 65.9855 55.579 65.9933C52.1471 66.0156 48.7139 66.0012 45.2821 66.0012C40.3622 66.0012 35.4423 66.0012 30.5223 66.0012C28.1004 66.0012 26.4408 64.3311 26.4408 61.8974C26.4395 50.7804 26.4395 39.6635 26.4395 28.5478C26.4395 26.5228 27.452 25.1448 29.371 24.5213C29.5019 24.4794 29.646 24.3209 29.6893 24.1859C30.28 22.3298 31.6947 21.2754 33.6359 21.2754C41.9065 21.2754 50.1771 21.2754 58.4463 21.2754C60.8474 21.2754 62.5227 22.9429 62.524 25.3334C62.5266 29.3063 62.524 33.2791 62.524 37.2507V37.6397C60.9364 37.8309 59.3947 38.0156 57.8202 38.2056V37.7759C57.8202 34.7357 57.8202 31.6942 57.8202 28.6539C57.8202 26.9354 56.8666 25.9792 55.1546 25.9792C46.9823 25.9792 38.8099 25.9792 30.6376 25.9792C28.9872 25.9792 28.0048 26.9524 28.0048 28.5884C28.0048 39.6726 28.0034 50.7568 28.0048 61.8397C28.0048 63.4496 28.9898 64.432 30.6049 64.432C38.8099 64.4333 47.015 64.432 55.2201 64.4346C55.8986 64.4346 56.5025 64.2617 57.0304 63.8176C57.1391 63.7259 57.3526 63.6866 57.4954 63.7207C57.9211 63.8189 58.3363 63.9656 58.8262 64.115L58.8275 64.1176Z" fill="white"/>
<path d="M44.3761 32.0025C42.0686 32.0025 39.761 32.0064 37.4561 32.0012C36.3198 31.9986 35.6724 31.7182 35.6482 31.2414C35.6214 30.7424 36.2903 30.4398 37.4669 30.4385C42.1465 30.4346 46.8287 30.4346 51.5083 30.4385C52.6446 30.4385 53.2947 30.7201 53.3162 31.1982C53.3404 31.6986 52.6742 31.9999 51.4949 32.0025C49.1202 32.0077 46.7482 32.0038 44.3734 32.0038L44.3761 32.0025Z" fill="white"/>
<path d="M44.4206 38.882C42.113 38.882 39.8054 38.8847 37.5006 38.882C36.3052 38.8794 35.6416 38.5912 35.647 38.0961C35.6524 37.601 36.3159 37.3193 37.5194 37.3193C42.1667 37.3167 46.8141 37.3167 51.4614 37.3193C52.6568 37.3193 53.3257 37.6101 53.3177 38.1053C53.3096 38.6017 52.6488 38.882 51.4426 38.8833C49.1028 38.8873 46.763 38.8833 44.4206 38.8833V38.882Z" fill="white"/>
<line x1="30.5029" y1="23.5459" x2="58.4619" y2="23.5459" stroke="#2872C1"/>
<line x1="44.9824" y1="23.8467" x2="44.9824" y2="35.8496" stroke="#2872C1"/>
</svg>
