<svg width="28" height="28" viewBox="0 0 28 28" fill="none" xmlns="http://www.w3.org/2000/svg">
<path fill-rule="evenodd" clip-rule="evenodd" d="M13.8398 0.554688C21.2906 0.554688 27.3398 6.60881 27.3398 14.0656C27.3398 21.5224 21.2906 27.5765 13.8398 27.5765C6.38907 27.5765 0.339844 21.5224 0.339844 14.0656C0.339844 6.60881 6.38907 0.554688 13.8398 0.554688ZM13.8398 2.43993C7.42889 2.43993 2.22356 7.64947 2.22356 14.0656C2.22356 20.4817 7.42889 25.6913 13.8398 25.6913C20.2508 25.6913 25.4561 20.4817 25.4561 14.0656C25.4561 7.64952 20.2507 2.43993 13.8398 2.43993Z" fill="white"/>
<path d="M13.8399 16.2646C16.9609 16.2646 19.491 13.7324 19.491 10.6089C19.491 7.48528 16.9609 4.95312 13.8399 4.95312C10.7188 4.95312 8.18872 7.48528 8.18872 10.6089C8.18872 13.7324 10.7188 16.2646 13.8399 16.2646Z" fill="white"/>
<path fill-rule="evenodd" clip-rule="evenodd" d="M18.5315 15.6807C21.1763 17.2756 22.9445 20.1764 22.9445 23.4919C22.9445 23.8299 22.8076 24.0474 22.6393 24.1869C22.5928 24.2297 22.5425 24.2674 22.4873 24.3001L22.4697 24.3101L19.3478 26.1853C19.231 26.2557 19.1004 26.2996 18.966 26.3135L18.0744 26.8238C17.9324 26.9055 17.7717 26.9482 17.6072 26.9482H10.0723C9.90783 26.9482 9.74709 26.9055 9.60515 26.8238L8.71353 26.3135C8.57913 26.2996 8.44857 26.2557 8.33176 26.1853L5.20981 24.3101L5.19222 24.3001C4.90841 24.1304 4.73511 23.8225 4.73511 23.4919C4.73511 20.1764 6.50329 17.2757 9.14804 15.6807C10.3812 16.8232 12.0289 17.522 13.8398 17.522C15.6506 17.522 17.2983 16.8231 18.5315 15.6807Z" fill="white"/>
</svg>
