<svg width="19" height="20" viewBox="0 0 19 20" fill="none" xmlns="http://www.w3.org/2000/svg">
<path d="M11.4177 13.7674C11.1815 13.7674 10.955 13.8612 10.788 14.0282C10.6209 14.1952 10.5271 14.4218 10.5271 14.658V16.8278C10.5268 17.1613 10.3942 17.481 10.1585 17.7169C9.92267 17.9527 9.60296 18.0854 9.26947 18.0858H3.04475C2.71126 18.0854 2.39154 17.9527 2.15577 17.7169C1.91999 17.481 1.7874 17.1613 1.78711 16.8278V3.91816C1.7874 3.58467 1.91999 3.26492 2.15577 3.02907C2.39154 2.79323 2.71126 2.66055 3.04475 2.66016H9.26947C9.60296 2.66055 9.92267 2.79323 10.1585 3.02907C10.3942 3.26492 10.5268 3.58467 10.5271 3.91816V5.79367C10.5271 6.02988 10.6209 6.25641 10.788 6.42344C10.955 6.59046 11.1815 6.6843 11.4177 6.6843C11.6539 6.6843 11.8805 6.59046 12.0475 6.42344C12.2145 6.25641 12.3084 6.02988 12.3084 5.79367V3.91816C12.3074 3.11247 11.9869 2.34005 11.4172 1.7703C10.8475 1.20055 10.0752 0.879986 9.26947 0.878906H3.04475C2.23905 0.879986 1.46667 1.20055 0.896991 1.7703C0.327312 2.34005 0.00684121 3.11247 0.00585938 3.91816V16.8278C0.00684121 17.6335 0.327312 18.4059 0.896991 18.9756C1.46667 19.5454 2.23905 19.866 3.04475 19.867H9.26947C10.0752 19.866 10.8475 19.5454 11.4172 18.9756C11.9869 18.4059 12.3074 17.6335 12.3084 16.8278V14.658C12.3084 14.4218 12.2145 14.1952 12.0475 14.0282C11.8805 13.8612 11.6539 13.7674 11.4177 13.7674Z" fill="#1C5087"/>
<path d="M18.7311 9.72494L15.5616 6.55765C15.3967 6.39282 15.1738 6.29921 14.9406 6.29692C14.7075 6.29463 14.4828 6.38384 14.3147 6.5454C13.9547 6.89163 13.9633 7.47796 14.3165 7.83124L15.9668 9.48261H8.24805C8.01184 9.48261 7.7853 9.57644 7.61828 9.74347C7.45126 9.91049 7.35742 10.137 7.35742 10.3732C7.35742 10.6094 7.45126 10.836 7.61828 11.003C7.7853 11.17 8.01184 11.2639 8.24805 11.2639H15.9668L14.3006 12.9301C14.1335 13.0971 14.0396 13.3236 14.0396 13.5599C14.0396 13.7961 14.1334 14.0227 14.3004 14.1897C14.4674 14.3568 14.694 14.4507 14.9302 14.4507C15.1664 14.4508 15.393 14.357 15.5601 14.1899L18.7311 11.0204C18.8162 10.9354 18.8838 10.8345 18.9299 10.7233C18.976 10.6122 18.9998 10.493 18.9998 10.3727C18.9998 10.2523 18.976 10.1332 18.9299 10.022C18.8838 9.9109 18.8162 9.80994 18.7311 9.72494Z" fill="#1C5087"/>
</svg>
