<svg width="17" height="19" viewBox="0 0 17 19" fill="none" xmlns="http://www.w3.org/2000/svg">
<g clip-path="url(#clip0_5680_17496)">
<path d="M4.29611 4.5596C4.39446 1.57666 6.74005 0.373047 8.50406 0.373047C10.2816 0.373047 12.6158 1.58344 12.7156 4.53112C12.8004 4.53993 12.8895 4.55756 12.9786 4.55824C13.5245 4.56095 14.0712 4.55824 14.6171 4.56028C15.5608 4.56367 16.2122 5.14072 16.2721 6.03377C16.4439 8.58002 16.6113 11.1269 16.7831 13.6732C16.8522 14.6985 16.9463 15.7224 16.9976 16.7483C17.0468 17.7424 16.4025 18.3642 15.3477 18.3649C10.7876 18.3683 6.22832 18.3581 1.66828 18.373C0.728902 18.3764 -0.0743427 17.7119 0.00548293 16.7171C0.167272 14.7025 0.296276 12.6852 0.435971 10.6685C0.538604 9.18149 0.64979 7.69443 0.731041 6.20601C0.789484 5.13462 1.3839 4.56095 2.49932 4.5596C3.09088 4.5596 3.68245 4.5596 4.29682 4.5596H4.29611ZM5.65386 4.53586H11.3578C11.3785 3.46041 10.9623 2.61686 10.0186 2.05811C9.03789 1.47834 8.01441 1.4702 7.02586 2.0398C6.06154 2.59516 5.63533 3.44481 5.65386 4.53586ZM6.08007 8.55154C6.08648 7.96431 5.59969 7.49032 4.99031 7.491C4.3966 7.491 3.90625 7.95007 3.8927 8.51763C3.87916 9.09605 4.3738 9.57139 4.98959 9.57139C5.59541 9.57139 6.07365 9.12453 6.08007 8.55154ZM12.0064 9.57071C12.6236 9.57749 13.1218 9.113 13.1204 8.53255C13.119 7.96838 12.6322 7.49981 12.0385 7.49032C11.4434 7.48083 10.9452 7.9365 10.933 8.50204C10.9202 9.09808 11.3885 9.56461 12.0064 9.57071Z" fill="#1C5087"/>
</g>
<defs>
<clipPath id="clip0_5680_17496">
<rect width="17" height="18" fill="white" transform="translate(0 0.373047)"/>
</clipPath>
</defs>
</svg>
