<svg width="16" height="18" viewBox="0 0 16 18" fill="none" xmlns="http://www.w3.org/2000/svg">
<path fill-rule="evenodd" clip-rule="evenodd" d="M8.03659 0.685547C4.87808 0.685547 2.31759 3.2481 2.31759 6.40917V8.83018C2.31759 9.89772 1.89386 10.9216 1.13959 11.6765C0.847623 11.9686 0.683594 12.3649 0.683594 12.7782V13.492C0.683594 14.0961 1.1729 14.5858 1.7765 14.5858H5.22855C5.22855 14.8773 5.23799 15.4331 5.53094 15.9654C6.01578 16.8463 6.95513 17.4476 8.03659 17.4476C9.11797 17.4476 10.0574 16.8463 10.5422 15.9654C10.8351 15.4331 10.8446 14.8773 10.8446 14.5858H14.2967C14.9003 14.5858 15.3896 14.0961 15.3896 13.492V12.7782C15.3896 12.3649 15.2255 11.9686 14.9336 11.6765C14.1794 10.9216 13.7556 9.89772 13.7556 8.83018V6.40917C13.7556 3.2481 11.1951 0.685547 8.03659 0.685547ZM9.61912 14.5858C9.61912 14.8572 9.59968 15.1359 9.46879 15.3737C9.37745 15.5396 9.25825 15.6879 9.1174 15.8123C8.82933 16.0667 8.45097 16.2211 8.03659 16.2211C7.62221 16.2211 7.24377 16.0667 6.95578 15.8123C6.81493 15.6879 6.69565 15.5396 6.60439 15.3737C6.47351 15.1359 6.45406 14.8572 6.45406 14.5858H9.61912Z" fill="white"/>
</svg>
