<svg width="19" height="20" viewBox="0 0 19 20" fill="none" xmlns="http://www.w3.org/2000/svg">
<path d="M2.97158 0.946289C2.21816 0.949763 1.50349 1.28104 1.01357 1.85391C0.608657 2.3274 0.379492 2.93145 0.418317 3.55347C0.663044 7.47382 2.28185 11.3239 5.27488 14.3194C8.26794 17.3148 12.1149 18.9349 16.0321 19.1798C16.6536 19.2187 17.2571 18.9893 17.7303 18.5841C18.3027 18.0938 18.6337 17.3786 18.6371 16.6245V14.7878C18.6371 13.9511 18.0684 13.2218 17.2575 13.0186L14.4305 12.3101C13.9555 12.1911 13.4528 12.2683 13.0354 12.5244L10.9328 13.8144C10.6235 14.0043 10.23 13.9934 9.94473 13.7691C9.21362 13.1944 8.33682 12.398 7.76571 11.8265C7.19467 11.2549 6.39897 10.3774 5.82469 9.64573C5.60054 9.36022 5.58972 8.96646 5.77936 8.65688L7.06836 6.55256C7.32424 6.13484 7.40141 5.63164 7.28249 5.15634L6.57459 2.32707C6.37153 1.5155 5.6428 0.946289 4.80686 0.946289H2.97158Z" fill="white"/>
</svg>
