<svg width="20" height="20" viewBox="0 0 20 20" fill="none" xmlns="http://www.w3.org/2000/svg">
<path d="M19.1726 7.92693H17.6043C17.4247 7.26874 17.1611 6.63638 16.8201 6.04541L17.9571 4.90866C18.1252 4.72745 18.2186 4.48943 18.2186 4.24229C18.2186 3.99514 18.1252 3.75713 17.9571 3.57592L16.4281 2.04719C16.3435 1.95447 16.2406 1.88041 16.1258 1.82974C16.011 1.77906 15.887 1.75288 15.7615 1.75288C15.636 1.75288 15.5119 1.77906 15.3972 1.82974C15.2824 1.88041 15.1795 1.95447 15.095 2.04719L13.9579 3.14474C13.3557 2.82683 12.7258 2.56442 12.076 2.36077V0.792844C12.0772 0.679205 12.0538 0.56664 12.0073 0.462957C11.9607 0.359275 11.8922 0.266953 11.8064 0.192381C11.7206 0.117808 11.6196 0.0627718 11.5105 0.0310861C11.4013 -0.000599684 11.2866 -0.00817628 11.1742 0.00887794H9.01778C8.50808 0.00887794 7.95914 0.283266 7.95914 0.792844V2.36077C7.34444 2.55765 6.75288 2.8205 6.1948 3.14474L5.09701 2.04719C5.0125 1.95447 4.90954 1.88041 4.79476 1.82974C4.67999 1.77906 4.55591 1.75288 4.43045 1.75288C4.30498 1.75288 4.1809 1.77906 4.06613 1.82974C3.95136 1.88041 3.84844 1.95447 3.76393 2.04719L2.23482 3.57592C2.14962 3.66587 2.08304 3.77176 2.03888 3.88751C1.99472 4.00327 1.97388 4.1266 1.97752 4.25043C1.98116 4.37427 2.00919 4.49616 2.06008 4.60911C2.11097 4.72207 2.18368 4.82387 2.27402 4.90866L3.37186 6.04541C3.04702 6.64423 2.78427 7.27468 2.5877 7.92693H1.01939C0.77192 7.91526 0.529227 7.99772 0.3401 8.15771C0.150974 8.3177 0.0294547 8.54336 0 8.78929V10.9452C0.00901031 11.2164 0.118152 11.4746 0.306406 11.6701C0.494661 11.8655 0.748674 11.9843 1.01939 12.0035H2.5877C2.79191 12.6279 3.05446 13.2316 3.37186 13.8067L2.27402 14.865C2.18129 14.9495 2.10723 15.0524 2.05654 15.1672C2.00585 15.2819 1.97968 15.406 1.97968 15.5314C1.97968 15.6568 2.00585 15.7809 2.05654 15.8956C2.10723 16.0104 2.18129 16.1133 2.27402 16.1978L3.80313 17.7265C3.98439 17.8946 4.22249 17.9879 4.46969 17.9879C4.7169 17.9879 4.95495 17.8946 5.13621 17.7265L6.1948 16.5897C6.74467 16.9298 7.33822 17.1935 7.95914 17.3737V18.9416C7.98521 19.2135 8.10512 19.4678 8.29829 19.6609C8.49145 19.8541 8.74585 19.9739 9.01778 20H11.1742C11.4306 19.9705 11.6663 19.8448 11.8336 19.6484C12.001 19.452 12.0876 19.1994 12.076 18.9416V17.3737C12.7318 17.187 13.3635 16.9239 13.9579 16.5897L15.0558 17.7265C15.237 17.8946 15.4751 17.9879 15.7223 17.9879C15.9695 17.9879 16.2076 17.8946 16.3888 17.7265L17.9571 16.1978C18.1252 16.0166 18.2186 15.7785 18.2186 15.5314C18.2186 15.2843 18.1252 15.0462 17.9571 14.865L16.8201 13.8067C17.1537 13.2396 17.417 12.6341 17.6043 12.0035H19.1726C19.6823 12.0035 19.996 11.494 19.996 10.9452V8.78929C20.0075 8.67656 19.9944 8.56268 19.9576 8.45549C19.9209 8.3483 19.8613 8.25035 19.7831 8.16839C19.7048 8.08642 19.6097 8.0224 19.5043 7.98071C19.3989 7.93903 19.2858 7.92068 19.1726 7.92693ZM10.1156 14.277C9.23601 14.2848 8.37409 14.0306 7.63953 13.5469C6.90496 13.0632 6.33104 12.3718 5.99086 11.5609C5.65068 10.7499 5.5596 9.85611 5.7293 8.99325C5.899 8.1304 6.32176 7.33757 6.94372 6.71575C7.56569 6.09394 8.3587 5.67128 9.22177 5.50163C10.0848 5.33197 10.9789 5.42299 11.79 5.76309C12.6012 6.10319 13.2927 6.67697 13.7766 7.41136C14.2604 8.14575 14.5146 9.0075 14.5069 9.88684C14.5069 11.0512 14.0442 12.1679 13.2207 12.9912C12.3972 13.8145 11.2802 14.277 10.1156 14.277Z" fill="#1C5087"/>
</svg>
