<svg width="20" height="20" viewBox="0 0 20 20" fill="none" xmlns="http://www.w3.org/2000/svg">
<path d="M16.2258 9.00521C16.2258 10.3791 15.8187 11.7222 15.056 12.8645C14.2933 14.0069 13.2093 14.8973 11.941 15.423C10.6727 15.9488 9.27705 16.0864 7.93063 15.8183C6.58421 15.5503 5.34744 14.8887 4.37672 13.9172C3.40601 12.9457 2.74494 11.7079 2.47712 10.3604C2.2093 9.01291 2.34676 7.61618 2.87211 6.34685C3.39745 5.07753 4.2871 3.99261 5.42854 3.22931C6.56998 2.46601 7.91195 2.05859 9.28475 2.05859C11.1256 2.05859 12.8911 2.79047 14.1928 4.09321C15.4945 5.39595 16.2258 7.16285 16.2258 9.00521Z" stroke="white" stroke-width="3" stroke-linecap="round" stroke-linejoin="round"/>
<path d="M18.3437 18.0713L14.2617 14.0801" stroke="white" stroke-width="3" stroke-linecap="round" stroke-linejoin="round"/>
</svg>
