<svg width="20" height="20" viewBox="0 0 20 20" fill="none" xmlns="http://www.w3.org/2000/svg">
<g clip-path="url(#clip0_1690_9385)">
<path fill-rule="evenodd" clip-rule="evenodd" d="M10 0C15.5191 0 20 4.48091 20 10C20 15.5191 15.5191 20 10 20C4.48091 20 0 15.5191 0 10C0 4.48091 4.48091 0 10 0ZM10 1.39535C5.25114 1.39535 1.39535 5.25114 1.39535 10C1.39535 14.7489 5.25114 18.6047 10 18.6047C14.7489 18.6047 18.6047 14.7488 18.6047 10C18.6047 5.25118 14.7488 1.39535 10 1.39535Z" fill="#1C5087"/>
<path d="M9.99952 11.628C12.3114 11.628 14.1856 9.75379 14.1856 7.44191C14.1856 5.13002 12.3114 3.25586 9.99952 3.25586C7.68763 3.25586 5.81348 5.13002 5.81348 7.44191C5.81348 9.75379 7.68763 11.628 9.99952 11.628Z" fill="#1C5087"/>
<path fill-rule="evenodd" clip-rule="evenodd" d="M13.4754 11.1953C15.4345 12.3758 16.7443 14.5228 16.7443 16.9767C16.7443 17.2269 16.6429 17.3879 16.5182 17.4912C16.4838 17.5228 16.4466 17.5507 16.4056 17.5749L16.3926 17.5823L14.08 18.9702C13.9936 19.0223 13.8968 19.0549 13.7973 19.0651L13.1368 19.4428C13.0317 19.5033 12.9126 19.5349 12.7907 19.5349H7.20935C7.08751 19.5349 6.96844 19.5033 6.8633 19.4428L6.20284 19.0651C6.10328 19.0549 6.00658 19.0223 5.92005 18.9702L3.60749 17.5823L3.59446 17.5749C3.38423 17.4493 3.25586 17.2214 3.25586 16.9768C3.25586 14.5228 4.56563 12.3758 6.5247 11.1953C7.43819 12.0409 8.65865 12.5582 10 12.5582C11.3414 12.5582 12.5619 12.0409 13.4754 11.1953Z" fill="#1C5087"/>
</g>
<defs>
<clipPath id="clip0_1690_9385">
<rect width="20" height="20" fill="white"/>
</clipPath>
</defs>
</svg>
