<svg width="16" height="18" viewBox="0 0 16 18" fill="none" xmlns="http://www.w3.org/2000/svg">
<path d="M4.44444 10.8C4.19259 10.8 3.98163 10.7136 3.81156 10.5408C3.64148 10.368 3.55615 10.1544 3.55556 9.9C3.55496 9.6456 3.6403 9.432 3.81156 9.2592C3.98281 9.0864 4.19378 9 4.44444 9C4.69511 9 4.90637 9.0864 5.07822 9.2592C5.25007 9.432 5.33511 9.6456 5.33333 9.9C5.33155 10.1544 5.24622 10.3683 5.07733 10.5417C4.90844 10.7151 4.69748 10.8012 4.44444 10.8ZM8 10.8C7.74815 10.8 7.53718 10.7136 7.36711 10.5408C7.19704 10.368 7.1117 10.1544 7.11111 9.9C7.11052 9.6456 7.19585 9.432 7.36711 9.2592C7.53837 9.0864 7.74933 9 8 9C8.25067 9 8.46193 9.0864 8.63378 9.2592C8.80563 9.432 8.89067 9.6456 8.88889 9.9C8.88711 10.1544 8.80178 10.3683 8.63289 10.5417C8.464 10.7151 8.25304 10.8012 8 10.8ZM11.5556 10.8C11.3037 10.8 11.0927 10.7136 10.9227 10.5408C10.7526 10.368 10.6673 10.1544 10.6667 9.9C10.6661 9.6456 10.7514 9.432 10.9227 9.2592C11.0939 9.0864 11.3049 9 11.5556 9C11.8062 9 12.0175 9.0864 12.1893 9.2592C12.3612 9.432 12.4462 9.6456 12.4444 9.9C12.4427 10.1544 12.3573 10.3683 12.1884 10.5417C12.0196 10.7151 11.8086 10.8012 11.5556 10.8ZM1.77778 18C1.28889 18 0.870518 17.8239 0.522667 17.4717C0.174815 17.1195 0.000592593 16.6956 0 16.2V3.6C0 3.105 0.174222 2.6814 0.522667 2.3292C0.871111 1.977 1.28948 1.8006 1.77778 1.8H2.66667V0H4.44444V1.8H11.5556V0H13.3333V1.8H14.2222C14.7111 1.8 15.1298 1.9764 15.4782 2.3292C15.8267 2.682 16.0006 3.1056 16 3.6V16.2C16 16.695 15.8261 17.1189 15.4782 17.4717C15.1304 17.8245 14.7117 18.0006 14.2222 18H1.77778ZM1.77778 16.2H14.2222V7.2H1.77778V16.2ZM1.77778 5.4H14.2222V3.6H1.77778V5.4Z" fill="#1C5087"/>
</svg>
