<svg width="62" height="74" viewBox="0 0 62 74" fill="none" xmlns="http://www.w3.org/2000/svg">
<path opacity="0.2" d="M13.4474 4.27832H39.1318C39.9309 4.27798 40.7213 4.4438 41.4528 4.76525C42.1843 5.0867 42.841 5.55676 43.3812 6.14558L59.956 24.2112C60.9318 25.274 61.4733 26.6642 61.4737 28.1071V67.6731C61.4737 69.2015 60.8665 70.6674 59.7857 71.7482C58.7049 72.829 57.239 73.4362 55.7105 73.4362H13.4474C11.9189 73.4362 10.453 72.829 9.37219 71.7482C8.29139 70.6674 7.6842 69.2015 7.6842 67.6731V10.0415C7.6842 8.51299 8.29139 7.04711 9.37219 5.96631C10.453 4.88551 11.9189 4.27832 13.4474 4.27832Z" fill="#BBBBBB"/>
<path d="M13.4474 42.699C12.9379 42.699 12.4493 42.4966 12.089 42.1364C11.7288 41.7761 11.5264 41.2875 11.5264 40.778C11.5264 40.2685 11.7288 39.7799 12.089 39.4196C12.4493 39.0593 12.9379 38.8569 13.4474 38.8569H40.3422C40.8517 38.8569 41.3403 39.0593 41.7005 39.4196C42.0608 39.7799 42.2632 40.2685 42.2632 40.778C42.2632 41.2875 42.0608 41.7761 41.7005 42.1364C41.3403 42.4966 40.8517 42.699 40.3422 42.699H13.4474ZM13.4474 54.2254C12.9379 54.2254 12.4493 54.023 12.089 53.6627C11.7288 53.3024 11.5264 52.8138 11.5264 52.3043C11.5264 51.7948 11.7288 51.3062 12.089 50.9459C12.4493 50.5856 12.9379 50.3832 13.4474 50.3832H40.3422C40.8517 50.3832 41.3403 50.5856 41.7005 50.9459C42.0608 51.3062 42.2632 51.7948 42.2632 52.3043C42.2632 52.8138 42.0608 53.3024 41.7005 53.6627C41.3403 54.023 40.8517 54.2254 40.3422 54.2254H13.4474Z" fill="#BBBBBB"/>
<path fill-rule="evenodd" clip-rule="evenodd" d="M31.4476 0.436036H5.76316C4.23467 0.436036 2.76879 1.04322 1.68799 2.12403C0.607188 3.20483 0 4.67071 0 6.19919V63.8308C0 65.3593 0.607188 66.8251 1.68799 67.9059C2.76879 68.9867 4.23467 69.5939 5.76316 69.5939H48.0263C49.5548 69.5939 51.0207 68.9867 52.1015 67.9059C53.1823 66.8251 53.7895 65.3593 53.7895 63.8308V24.2648C53.7891 22.822 53.2476 21.4318 52.2718 20.3689L35.697 2.3033C35.1568 1.71448 34.5001 1.24442 33.7686 0.922963C33.0371 0.60151 32.2467 0.435691 31.4476 0.436036ZM3.84211 6.19919C3.84211 5.6897 4.0445 5.20107 4.40477 4.8408C4.76504 4.48054 5.25366 4.27814 5.76316 4.27814H31.4476C31.7142 4.27785 31.9779 4.33304 32.222 4.44019C32.4661 4.54735 32.6852 4.70413 32.8654 4.90056L49.4402 22.9661C49.7659 23.3202 49.9469 23.7837 49.9474 24.2648V63.8308C49.9474 64.3403 49.745 64.8289 49.3847 65.1892C49.0244 65.5494 48.5358 65.7518 48.0263 65.7518H5.76316C5.25366 65.7518 4.76504 65.5494 4.40477 65.1892C4.0445 64.8289 3.84211 64.3403 3.84211 63.8308V6.19919Z" fill="#BBBBBB"/>
<path d="M30.7369 23.4887H51.8685C52.378 23.4887 52.8666 23.6911 53.2269 24.0513C53.5871 24.4116 53.7895 24.9002 53.7895 25.4097C53.7895 25.9192 53.5871 26.4078 53.2269 26.7681C52.8666 27.1284 52.378 27.3308 51.8685 27.3308H28.8158C28.3063 27.3308 27.8177 27.1284 27.4574 26.7681C27.0972 26.4078 26.8948 25.9192 26.8948 25.4097V2.35709C26.8948 1.84759 27.0972 1.35897 27.4574 0.998698C27.8177 0.638431 28.3063 0.436035 28.8158 0.436035C29.3253 0.436035 29.814 0.638431 30.1742 0.998698C30.5345 1.35897 30.7369 1.84759 30.7369 2.35709V23.4887Z" fill="#BBBBBB"/>
</svg>
