<svg width="22" height="22" viewBox="0 0 22 22" fill="none" xmlns="http://www.w3.org/2000/svg">
<path d="M21.6559 7.96463C21.6566 7.73884 21.6124 7.51518 21.5259 7.30659C21.4395 7.098 21.3125 6.90864 21.1524 6.74948L15.2502 0.84643C15.0906 0.686755 14.9011 0.560091 14.6925 0.473672C14.4839 0.387253 14.2603 0.342773 14.0346 0.342773C13.8088 0.342773 13.5853 0.387253 13.3767 0.473672C13.1681 0.560091 12.9786 0.686755 12.819 0.84643L10.4282 3.23721L5.50915 5.08229C5.22666 5.18815 4.977 5.36649 4.78527 5.5994C4.59354 5.83232 4.46649 6.11159 4.41688 6.40916L2.4197 18.3906C2.39469 18.5385 2.40227 18.6901 2.44189 18.8348C2.48151 18.9795 2.55223 19.1138 2.64911 19.2284C2.74599 19.3429 2.8667 19.435 3.00281 19.4981C3.13893 19.5612 3.28717 19.5938 3.4372 19.5937C3.49477 19.5939 3.55226 19.5893 3.60907 19.5799L15.5931 17.5819C15.8903 17.5318 16.1692 17.4047 16.4021 17.2132C16.6349 17.0217 16.8134 16.7725 16.9199 16.4905L18.7642 11.5706L21.1549 9.17979C21.3147 9.02044 21.4412 8.83099 21.5272 8.6224C21.6132 8.41382 21.6569 8.19025 21.6559 7.96463ZM15.0559 15.5804L6.44501 17.0156L9.28095 14.1796C9.90424 14.461 10.6065 14.5148 11.2654 14.3317C11.9243 14.1487 12.4981 13.7403 12.8868 13.1777C13.2756 12.6151 13.4548 11.934 13.3931 11.2529C13.3314 10.5719 13.0328 9.934 12.5492 9.45045C12.0656 8.96689 11.4278 8.66826 10.7467 8.60657C10.0657 8.54487 9.38453 8.72401 8.82195 9.1128C8.25937 9.50159 7.85098 10.0754 7.6679 10.7343C7.48482 11.3932 7.53865 12.0954 7.82001 12.7187L4.98407 15.5546L6.41923 6.9437L10.7419 5.32291L16.6759 11.2578L15.0559 15.5804ZM9.6247 11.5156C9.6247 11.3456 9.6751 11.1795 9.76953 11.0381C9.86396 10.8968 9.99817 10.7867 10.1552 10.7216C10.3122 10.6566 10.485 10.6395 10.6517 10.6727C10.8184 10.7059 10.9716 10.7877 11.0917 10.9079C11.2119 11.0281 11.2938 11.1812 11.3269 11.3479C11.3601 11.5146 11.3431 11.6874 11.278 11.8444C11.213 12.0015 11.1028 12.1357 10.9615 12.2301C10.8202 12.3245 10.654 12.3749 10.4841 12.3749C10.2562 12.3749 10.0376 12.2844 9.8764 12.1232C9.71524 11.9621 9.6247 11.7435 9.6247 11.5156ZM17.8747 9.53901L12.4606 4.12495L14.0367 2.54885L19.4508 7.96291L17.8747 9.53901Z" fill="#1C5087"/>
</svg>
