<svg width="45" height="45" viewBox="0 0 45 45" fill="none" xmlns="http://www.w3.org/2000/svg">
<path d="M6.42871 7.07101C6.42871 6.04803 6.83509 5.06695 7.55844 4.3436C8.2818 3.62024 9.26288 3.21387 10.2859 3.21387H23.4098C23.9166 3.21368 24.4184 3.31337 24.8867 3.50723C25.3549 3.70109 25.7804 3.98532 26.1387 4.34369L36.508 14.713C35.7098 14.9697 34.9839 15.412 34.3898 16.0035L24.9109 6.52619V16.071C24.9109 16.2841 24.9955 16.4885 25.1462 16.6392C25.2969 16.7899 25.5013 16.8746 25.7144 16.8746H33.5187L31.108 19.2853H25.7144C24.8619 19.2853 24.0444 18.9466 23.4416 18.3439C22.8388 17.7411 22.5001 16.9235 22.5001 16.071V5.62458H10.2859C9.90224 5.62458 9.53433 5.77697 9.26307 6.04823C8.99182 6.31949 8.83943 6.68739 8.83943 7.07101V37.9282C8.83943 38.3118 8.99182 38.6797 9.26307 38.9509C9.53433 39.2222 9.90224 39.3746 10.2859 39.3746H34.7144C35.098 39.3746 35.4659 39.2222 35.7372 38.9509C36.0085 38.6797 36.1609 38.3118 36.1609 37.9282V29.1692L38.5716 26.7585V37.9282C38.5716 38.9511 38.1652 39.9322 37.4418 40.6556C36.7185 41.3789 35.7374 41.7853 34.7144 41.7853H10.2859C9.26288 41.7853 8.2818 41.3789 7.55844 40.6556C6.83509 39.9322 6.42871 38.9511 6.42871 37.9282V7.07101ZM22.8167 29.8474L35.518 17.1478C35.8561 16.7935 36.2615 16.5103 36.7106 16.3149C37.1597 16.1196 37.6433 16.016 38.133 16.0102C38.6227 16.0045 39.1086 16.0967 39.5622 16.2814C40.0157 16.4662 40.4277 16.7398 40.774 17.0861C41.1203 17.4323 41.3939 17.8444 41.5786 18.2979C41.7634 18.7515 41.8556 19.2374 41.8498 19.7271C41.8441 20.2168 41.7405 20.7004 41.5451 21.1495C41.3498 21.5985 41.0666 22.004 40.7123 22.3421L28.0126 35.0417C27.4587 35.5944 26.7657 35.987 26.0069 36.178L23.0659 36.9124C22.8813 36.96 22.6903 36.9773 22.5001 36.9639H12.4555C12.1358 36.9639 11.8292 36.8369 11.6032 36.6108C11.3771 36.3848 11.2501 36.0782 11.2501 35.7585C11.2501 35.4388 11.3771 35.1322 11.6032 34.9062C11.8292 34.6801 12.1358 34.5532 12.4555 34.5532H21.0071L21.6821 31.8532C21.8717 31.093 22.2639 30.4003 22.8167 29.8474Z" fill="#1C5087"/>
</svg>
