<svg width="38" height="40" viewBox="0 0 38 40" fill="none" xmlns="http://www.w3.org/2000/svg">
<path d="M17.0422 22.0643C16.6983 21.7018 16.2883 21.4167 15.8371 21.226L1.56478 15.1847C1.39437 15.1125 1.24896 14.9871 1.14806 14.8251C1.04715 14.6632 0.995594 14.4726 1.0003 14.2788C1.005 14.0851 1.06574 13.8975 1.17436 13.7412C1.28298 13.5849 1.43429 13.4675 1.60798 13.4046L35.804 1.05604C35.9635 0.995238 36.1361 0.983635 36.3016 1.02259C36.4671 1.06154 36.6186 1.14944 36.7385 1.27599C36.8584 1.40255 36.9417 1.56253 36.9786 1.73721C37.0155 1.9119 37.0045 2.09407 36.9469 2.2624L25.2483 38.3582C25.1887 38.5416 25.0774 38.7013 24.9294 38.8159C24.7813 38.9306 24.6036 38.9947 24.4201 38.9997C24.2365 39.0046 24.0559 38.9502 23.9025 38.8437C23.7491 38.7372 23.6302 38.5837 23.5619 38.4038L17.8385 23.3348C17.6571 22.8589 17.3862 22.4267 17.0422 22.0643ZM17.0422 22.0643L36.7327 1.28401" stroke="white" stroke-width="2" stroke-linecap="round" stroke-linejoin="round"/>
</svg>
