<svg width="82" height="106" viewBox="0 0 82 106" fill="none" xmlns="http://www.w3.org/2000/svg">
<path d="M28.7468 15.6856H38.8111C39.9057 15.6856 40.7923 14.8603 40.7923 13.8413C40.7923 12.8224 39.9057 11.9971 38.8111 11.9971H28.7468C27.6522 11.9971 26.7656 12.8224 26.7656 13.8413C26.7656 14.8603 27.6522 15.6856 28.7468 15.6856Z" fill="#808080"/>
<path d="M52.5361 23.9238H28.7468C27.6522 23.9238 26.7656 24.7491 26.7656 25.7681C26.7656 26.787 27.6522 27.6123 28.7468 27.6123H52.5361C53.6307 27.6123 54.5172 26.787 54.5172 25.7681C54.5172 24.7491 53.6307 23.9238 52.5361 23.9238Z" fill="#808080"/>
<path d="M75.2237 35.8512H65.3724V16.9059C65.3724 16.6615 65.3179 16.4126 65.2139 16.1913C65.2139 16.1913 65.2139 16.1774 65.1991 16.1682C65.1446 16.0714 65.095 15.9699 65.0257 15.887C65.0257 15.8731 65.0009 15.8639 64.9861 15.8501C64.9217 15.7625 64.8524 15.6887 64.7731 15.6149L49.3054 1.2162C48.9339 0.870401 48.4337 0.676758 47.9037 0.676758H21.0637C18.196 0.676758 15.873 2.8391 15.873 5.50875V35.8654H6.02164C2.74779 35.8654 0.078125 38.3506 0.078125 41.3982V44.5195C0.078125 46.7326 1.48973 48.6368 3.52543 49.5221C8.78044 59.481 16.9327 67.7663 27.1663 73.4837L31.5398 75.932V103.78C31.5398 104.431 31.9112 105.035 32.5155 105.367C32.8176 105.537 33.1742 105.625 33.5209 105.625C33.8627 105.625 34.1797 105.551 34.4868 105.39L51.8424 96.4035C52.4764 96.0853 52.8578 95.4583 52.8578 94.7943V75.8726L53.4125 75.5268C63.8583 69.0213 72.234 60.0351 77.7166 49.509C79.7374 48.6238 81.1489 46.7288 81.1489 44.5157V41.3943C81.1489 38.3467 78.4793 35.8616 75.2054 35.8616L75.2237 35.8512ZM49.9041 6.95698L58.6064 15.0579H51.1325C50.4589 15.0579 49.9041 14.5415 49.9041 13.9144L49.9041 6.95698ZM19.8549 5.49539C19.8549 4.86835 20.4096 4.35196 21.0832 4.35196H45.9414V13.919C45.9414 16.5886 48.2643 18.751 51.1321 18.751H61.4095V35.8515H19.8588L19.8549 5.49539ZM51.2265 72.4514L49.7853 73.3505C49.2305 73.6963 48.8987 74.2726 48.8987 74.8859V93.7108L35.5066 100.645V74.8859C35.5066 74.2358 35.1351 73.6456 34.5408 73.2997L29.2065 70.3121C20.3854 65.3695 13.224 58.398 8.30055 50.0389H72.966C67.8001 59.0389 60.3509 66.7617 51.213 72.4509L51.2265 72.4514ZM77.2043 44.5062C77.2043 45.5251 76.3177 46.3504 75.2231 46.3504H6.04124C4.94665 46.3504 4.06007 45.5251 4.06007 44.5062V41.3848C4.06007 40.3659 4.94665 39.5406 6.04124 39.5406H75.2231C76.3177 39.5406 77.2043 40.3659 77.2043 41.3848V44.5062Z" fill="#808080"/>
</svg>
