<svg width="388" height="341" viewBox="0 0 388 341" fill="none" xmlns="http://www.w3.org/2000/svg">
<g clip-path="url(#clip0_3200_6173)">
<path d="M333.127 334.705H2.90928C1.30253 334.705 0 336.005 0 337.608V338.08C0 339.683 1.30253 340.983 2.90928 340.983H333.127C334.734 340.983 336.036 339.683 336.036 338.08V337.608C336.036 336.005 334.734 334.705 333.127 334.705Z" fill="#1A2F88"/>
<path d="M274.941 305.014C274.941 305.014 259.56 241.58 298.936 208.9C338.312 176.22 342.69 151.731 342.69 151.731C342.69 151.731 364.294 198.639 339.406 231.29C314.519 263.942 277.448 270.064 277.448 270.064L277.131 315.477C277.131 315.477 299.109 281.762 324.802 280.928C350.496 280.095 358.735 286.044 365.446 297.685C372.158 309.326 388 325.738 388 325.738C388 325.738 368.643 339.247 347.385 332.492C327.193 326.054 320.568 311.079 320.568 311.079C320.568 311.079 285.801 322.03 280.04 321.771C274.279 321.513 274.941 305.014 274.941 305.014Z" fill="#DEE9FF"/>
<path d="M291.648 319.501C280.385 324.157 276.439 334.389 276.439 334.389L277.13 315.477L286.406 313.637L291.648 319.501Z" fill="#DEE9FF"/>
<path d="M379.445 326.744C378.926 326.744 370.256 326.571 360.031 314.672C356.948 311.079 355.047 306.624 353.204 302.284C348.998 292.454 344.649 282.279 325.983 280.353C325.784 280.302 325.609 280.18 325.491 280.011C325.373 279.842 325.32 279.637 325.341 279.432C325.362 279.227 325.455 279.036 325.605 278.894C325.754 278.752 325.95 278.668 326.156 278.658C345.83 280.67 350.381 291.333 354.759 301.623C356.632 306.02 358.418 310.188 361.327 313.58C371.12 324.933 379.301 325.048 379.445 325.048C379.667 325.055 379.879 325.144 380.039 325.298C380.198 325.452 380.295 325.66 380.309 325.881C380.309 326.11 380.218 326.329 380.056 326.491C379.894 326.653 379.674 326.744 379.445 326.744Z" fill="white"/>
<path d="M342.344 322.662C342.194 322.657 342.047 322.615 341.916 322.54C341.786 322.465 341.676 322.359 341.596 322.231C331.571 305.273 336.18 284.349 336.382 283.486C336.437 283.265 336.575 283.072 336.768 282.949C336.961 282.826 337.194 282.782 337.419 282.825C337.64 282.88 337.83 283.019 337.949 283.213C338.067 283.407 338.105 283.639 338.053 283.86C337.995 284.061 333.386 304.986 343.093 321.369C343.15 321.465 343.186 321.571 343.2 321.681C343.215 321.791 343.207 321.903 343.177 322.01C343.148 322.117 343.097 322.218 343.028 322.305C342.96 322.392 342.874 322.465 342.776 322.519C342.648 322.604 342.499 322.654 342.344 322.662Z" fill="white"/>
<path d="M326.473 307.889C326.28 307.888 326.093 307.822 325.941 307.702C325.79 307.582 325.683 307.415 325.638 307.228C321.72 290.27 326.588 280.497 326.819 280.095C326.868 279.993 326.937 279.902 327.022 279.827C327.107 279.753 327.207 279.696 327.314 279.661C327.422 279.626 327.536 279.613 327.649 279.624C327.762 279.634 327.871 279.667 327.971 279.721C328.071 279.772 328.159 279.843 328.231 279.929C328.303 280.016 328.356 280.115 328.389 280.223C328.421 280.33 328.431 280.443 328.419 280.554C328.406 280.665 328.372 280.773 328.317 280.871C328.288 280.957 323.535 290.557 327.308 306.825C327.352 307.05 327.308 307.282 327.184 307.475C327.061 307.667 326.868 307.805 326.646 307.86L326.473 307.889Z" fill="white"/>
<path d="M318.264 291.074C318.264 291.074 301.874 296.047 296.055 311.453L295.594 318.437C305.849 315.534 320.568 311.079 320.568 311.079C316.161 301.997 318.264 291.074 318.264 291.074Z" fill="#CDDDFF"/>
<path d="M274.365 298.203C274.152 298.197 273.948 298.116 273.789 297.974C273.631 297.832 273.528 297.637 273.501 297.426C271.024 270.61 274.768 244.885 283.583 228.617C288.912 218.787 297.899 211.515 298.273 211.228C298.383 211.142 298.511 211.083 298.648 211.056C298.878 210.998 322.671 205.623 343.727 183.233C343.797 183.132 343.888 183.047 343.994 182.983C344.099 182.92 344.217 182.88 344.34 182.866C344.462 182.852 344.586 182.864 344.703 182.902C344.821 182.94 344.928 183.002 345.02 183.085C345.111 183.167 345.183 183.269 345.232 183.381C345.281 183.494 345.305 183.616 345.302 183.739C345.3 183.862 345.271 183.983 345.218 184.094C345.165 184.205 345.089 184.303 344.994 184.383C324.601 206.083 301.643 212.09 299.195 212.665C298.014 213.671 289.891 220.569 285.109 229.422C276.439 245.403 272.752 270.754 275.229 297.254C275.246 297.481 275.175 297.706 275.03 297.883C274.885 298.059 274.678 298.174 274.452 298.203H274.365Z" fill="white"/>
<path d="M281.768 238.706H281.682C281.458 238.698 281.245 238.604 281.089 238.443C280.933 238.282 280.846 238.067 280.846 237.843C280.842 237.73 280.862 237.618 280.904 237.513C280.946 237.408 281.01 237.313 281.092 237.234C281.173 237.155 281.27 237.095 281.377 237.056C281.484 237.018 281.597 237.002 281.71 237.01C282.056 237.01 315.498 237.211 339.608 210.653C339.682 210.572 339.771 210.506 339.87 210.459C339.969 210.412 340.077 210.385 340.187 210.38C340.296 210.375 340.406 210.391 340.509 210.428C340.613 210.465 340.708 210.522 340.789 210.596C340.877 210.668 340.949 210.756 341.001 210.857C341.053 210.958 341.084 211.068 341.092 211.181C341.1 211.294 341.085 211.407 341.048 211.514C341.011 211.621 340.952 211.719 340.875 211.803C316.823 238.275 283.698 238.706 281.768 238.706Z" fill="white"/>
<path d="M264.341 304.123C266.905 204.157 271.802 174.926 240.52 136.555C209.238 98.1841 209.382 90.8835 209.382 90.8835C209.382 90.8835 201.288 138.826 215.344 162.136C229.401 185.446 258.926 185.877 258.926 185.877C258.926 185.877 265.897 205.077 264.341 228.387C262.786 251.697 262.325 271.53 262.325 273.427C262.383 281.503 260.971 307.026 260.971 307.026H266.271L264.341 304.123Z" fill="#DEE9FF"/>
<path d="M145.81 175.214C104.734 183.836 83.4185 195.161 83.4185 195.161C83.4185 195.161 40.2114 267.563 32.4917 292.368C24.7721 317.173 26.7884 331.889 30.2162 336.372C33.6439 340.856 269.814 340.511 275.834 336.372C295.249 323.093 247.289 213.412 237.438 196.368C233.635 189.786 167.874 175.214 167.874 175.214H145.81Z" fill="#1A2F88"/>
<path d="M125.473 134.716C123.025 126.467 126.021 125.691 126.021 125.691L189.91 123.995C189.91 123.995 194.288 123.822 194.029 128.306C193.741 133.451 192.444 135.607 192.444 135.607C192.444 135.607 197.629 124.57 194.864 119.913C192.099 115.257 187.836 114.998 187.836 114.998C187.836 114.998 126.712 116.982 124.436 118.792C122.161 120.603 121.498 123.851 122.247 127.703L123.025 131.554L125.473 134.716Z" fill="#516DDB"/>
<path d="M127.576 140.982C127.419 140.978 127.264 140.943 127.121 140.879C126.977 140.815 126.848 140.723 126.741 140.608C126.453 140.234 119.252 131.698 121.182 121.868C121.902 118.246 126.078 115.458 133.596 113.648C152.809 108.962 190.284 111.434 195.296 117.729C201.633 125.662 192.272 139.085 191.869 139.659C191.704 139.892 191.454 140.05 191.173 140.098C190.892 140.147 190.604 140.082 190.371 139.918C190.138 139.754 189.979 139.505 189.931 139.224C189.882 138.944 189.947 138.656 190.111 138.423C190.198 138.28 198.926 125.748 193.597 119.08C192.07 117.154 184.062 114.768 169.66 113.791C156.179 112.871 142.872 113.619 134.115 115.746C127.576 117.327 123.86 119.597 123.313 122.299C121.585 131.094 128.325 139.113 128.412 139.2C128.542 139.359 128.624 139.551 128.649 139.755C128.675 139.959 128.642 140.166 128.555 140.352C128.467 140.538 128.329 140.696 128.156 140.807C127.983 140.919 127.782 140.979 127.576 140.982Z" fill="#4460D0"/>
<path d="M230.899 213.096C229.747 240.517 208.546 304.813 208.546 304.813C208.546 304.813 203.333 304.756 204.11 304.813C204.888 304.871 213.731 301.019 227.183 299.381C236.025 298.358 244.955 298.349 253.799 299.352C253.799 299.352 252.848 288.574 242.565 260.492C232.281 232.411 230.899 213.096 230.899 213.096Z" fill="#0F2771"/>
<path d="M83.6491 213.068C83.2746 247.961 91.8296 277.939 91.8296 277.939L86.5007 299.956C86.5007 299.956 64.2635 300.904 57.7824 302.974C51.3013 305.043 56.4574 285.326 66.1646 258.768C75.8718 232.21 83.6491 213.068 83.6491 213.068Z" fill="#0F2771"/>
<path d="M126.078 182.227C124.609 183.29 116.342 229.135 117.005 229.652C119.424 231.549 127.835 238.849 127.835 238.849L117.12 245.661C116.719 245.927 116.401 246.299 116.203 246.736C116.004 247.174 115.933 247.658 115.997 248.133L119.424 274.001L194.086 271.443C194.086 271.443 192.041 251.381 191.926 247.961C191.811 244.54 184.293 241.235 184.293 241.235C184.293 241.235 194.288 234.969 194 232.325C193.539 228.014 186.165 179.64 186.165 179.64L172.713 176.392L130.774 178.692L126.078 182.227Z" fill="#0F2771"/>
<path d="M125.79 180.014C125.79 180.014 118.532 228.301 119.54 229.594C120.548 230.888 129.218 238.964 129.218 238.964L121.095 244.253L124.955 284.521H188.124L189.535 246.409L182.536 240.43L192.473 230.658L185.56 179.583C185.56 179.583 179.223 176.335 175.046 176.852C170.87 177.369 134.489 177.398 134.057 177.398C133.625 177.398 125.79 180.014 125.79 180.014Z" fill="#2C4096"/>
<path d="M135.152 197.115C135.152 197.115 142.929 245.834 141.633 273.772C140.337 301.709 168.825 287.999 168.825 287.999C168.825 287.999 170.899 252.905 172.051 237.154C173.203 221.403 177.178 202.059 177.178 202.059L135.152 197.115Z" fill="#BFD3FE"/>
<path d="M227.385 336.43H86.443C85.4731 336.346 84.5699 335.903 83.9119 335.187C83.2538 334.471 82.8887 333.535 82.8887 332.564C82.8887 331.593 83.2538 330.657 83.9119 329.941C84.5699 329.225 85.4731 328.782 86.443 328.698H227.385C228.354 328.782 229.258 329.225 229.916 329.941C230.574 330.657 230.939 331.593 230.939 332.564C230.939 333.535 230.574 334.471 229.916 335.187C229.258 335.903 228.354 336.346 227.385 336.43Z" fill="#3B57C4"/>
<path d="M222.517 336.315H90.4757C89.6475 336.325 88.846 336.023 88.2317 335.469C87.6174 334.915 87.2357 334.149 87.1631 333.326L79.1842 259.055C79.1554 256.354 82.8712 253.681 84.83 253.681H227.529C230.668 253.681 233.318 257.13 233.146 259.055L225.829 333.326C225.75 334.146 225.367 334.908 224.754 335.461C224.141 336.014 223.343 336.319 222.517 336.315Z" fill="#3B57C4"/>
<path d="M222.315 336.315H90.447C88.7475 336.315 87.3073 335.079 87.1633 333.469L79.8468 260.694C79.674 258.854 81.2007 257.273 83.1594 257.273H229.603C231.561 257.273 233.088 258.854 232.915 260.694L225.628 333.469C225.522 334.267 225.126 334.997 224.515 335.522C223.904 336.047 223.121 336.329 222.315 336.315Z" fill="url(#paint0_linear_3200_6173)"/>
<path d="M169.17 298.231C168.018 302.083 162.43 304.727 156.496 304.727C150.562 304.727 144.945 302.083 143.793 298.231C142.411 293.518 147.941 288.833 156.496 288.833C165.051 288.833 170.582 293.518 169.17 298.231Z" fill="url(#paint1_linear_3200_6173)"/>
<path d="M190.889 129.513C189.593 150.668 179.626 168.287 159.233 167.856C138.292 167.425 127.576 148.311 127.576 127.128C127.576 105.945 140.855 89.935 158.34 89.935C175.824 89.935 192.473 103.214 190.889 129.513Z" fill="#0F2771"/>
<path d="M141.633 158.888C141.633 158.888 141.719 195.621 150.534 221.776C152.867 228.79 153.817 228.617 157.447 240.517C161.796 233.417 168.998 211.975 172.137 200.737C176.429 185.36 174.701 147.794 174.701 147.794L141.633 158.888Z" fill="#FFB1B6"/>
<path d="M174.701 147.794L141.633 158.888C141.826 171.192 142.807 183.471 144.571 195.65C153.097 207.693 160.846 203.468 170.438 188.493C172.067 185.915 173.493 183.215 174.701 180.416C175.479 164.665 174.701 147.794 174.701 147.794Z" fill="#FD949B"/>
<path d="M185.387 139.085C184.091 158.112 175.046 175.875 158.34 175.214C144.024 174.668 136.333 157.94 133.481 139.085C129.65 113.648 145.089 104.565 159.434 104.565C173.779 104.565 187.26 111.664 185.387 139.085Z" fill="#FFB1B6"/>
<path d="M132.214 123.909C145.522 140.407 164.446 137.188 168.623 128.91C171.964 122.299 174.096 117.441 176.112 117.643C178.129 117.844 175.046 110.802 175.046 110.802L127.576 114.998L132.214 123.909Z" fill="#ED9CA1"/>
<path d="M142.094 171.391C138.543 172.858 135.178 174.74 132.07 176.996C131.624 177.321 131.255 177.739 130.986 178.22C130.718 178.701 130.557 179.235 130.514 179.784C130.053 185.274 125.416 202.462 132.127 219.333C135.123 226.864 133.568 208.986 137.571 203.008C138.695 205.566 140.02 211.257 146.76 218.644C153.5 226.03 157.447 240.517 157.447 240.517C157.447 240.517 153.904 222.61 150.188 213.384C143.736 197.374 142.756 180.617 142.094 171.391Z" fill="#D5E2FE"/>
<path d="M174.989 171.391C174.614 182.227 171.014 201.456 166.866 210.826C162.718 220.196 156.208 240.459 156.842 247.099C157.476 253.738 159.319 233.733 167.01 222.926C174.701 212.119 176.141 204.014 176.573 204.157C177.005 204.301 179.828 209.417 180.98 217.666C182.132 225.915 184.408 220.742 185.56 210.222C186.712 199.702 183.832 180.215 182.68 178.663C181.528 177.111 174.989 171.391 174.989 171.391Z" fill="#D5E2FE"/>
<path d="M139.818 173.978C136.995 176.708 136.592 191.712 138.205 197.115C139.818 202.519 142.612 208.038 143.649 208.986C144.686 209.935 140.279 203.956 140.682 190.763C140.942 181.824 142.411 175.961 142.411 175.961L142.123 171.908C142.123 171.908 142.382 171.506 139.818 173.978Z" fill="white"/>
<path d="M174.903 173.231C174.903 173.231 176.228 173.173 177.178 176.852C178.129 180.531 177.869 190.677 177.841 191.626C177.783 194.241 175.047 203.094 175.047 203.094C175.047 203.094 175.248 199.846 175.853 190.476C176.458 181.106 174.326 179.324 174.326 179.324L174.903 173.231Z" fill="white"/>
<path d="M135.555 196.282C135.152 206.715 142.065 213.154 144.715 216.258C147.365 219.362 141.431 212.119 138.292 204.617C135.152 197.115 135.555 196.282 135.555 196.282Z" fill="#678FF0"/>
<path d="M151.052 162.308C159.838 166.304 168.623 162.308 168.623 162.308C168.623 162.308 166.924 167.166 159.838 167.166C155.719 167.166 151.052 162.308 151.052 162.308Z" fill="white"/>
<path d="M146.76 95.741C138.954 93.5565 126.798 100.455 124.955 108.388C121.297 124.081 129.189 145.35 131.926 146.816C134.662 148.282 133.798 123.909 136.218 122.04C138.637 120.172 141.201 131.87 155.949 132.876C170.697 133.882 173.232 114.222 175.046 115.372C176.861 116.522 176.285 125.029 181.124 132.445C185.963 139.861 187.404 140.55 187.404 140.55C187.404 140.55 189.535 144.747 194.086 122.184C195.815 113.791 191.235 104.565 181.7 100.713L169.718 97.7242L146.76 95.741Z" fill="#0F2771"/>
<path d="M132.963 148.368C135.267 154.347 137.427 162.021 134.23 160.958C129.794 159.463 126.798 156.589 124.753 153.14C120.001 145.063 122.967 141.01 125.906 139.372C128.844 137.734 130.687 142.419 132.963 148.368Z" fill="#516DDB"/>
<path d="M137.082 161.446C136.016 162.05 134.691 161.417 134.086 159.98L126.539 141.873C125.618 139.659 125.963 137.159 127.346 136.354C128.729 135.549 130.86 136.785 131.407 139.142C133.51 148.225 135.786 153.37 138.09 157.738C138.81 159.118 138.148 160.843 137.082 161.446Z" fill="#4460D0"/>
<path d="M186.54 148.368C184.235 154.347 182.104 162.021 185.272 160.958C189.737 159.463 192.733 156.589 194.749 153.14C199.502 145.063 196.535 141.01 193.597 139.372C190.659 137.734 188.844 142.419 186.54 148.368Z" fill="#516DDB"/>
<path d="M182.421 161.446C183.486 162.05 184.84 161.417 185.416 159.98L192.992 141.873C193.914 139.659 193.539 137.159 192.157 136.354C190.774 135.549 188.412 136.756 188.124 139.142C187.029 147.506 181.441 157.738 181.441 157.738C180.923 159.204 181.355 160.843 182.421 161.446Z" fill="#4460D0"/>
<path d="M150.101 169.753H150.015C149.612 169.724 140.221 168.919 134.893 159.204C134.806 159.079 134.746 158.937 134.718 158.788C134.689 158.639 134.692 158.485 134.726 158.337C134.761 158.189 134.826 158.049 134.917 157.928C135.009 157.806 135.125 157.705 135.258 157.63C135.391 157.556 135.538 157.51 135.689 157.496C135.841 157.481 135.994 157.499 136.139 157.547C136.283 157.595 136.416 157.672 136.529 157.775C136.642 157.877 136.732 158.002 136.794 158.141C141.546 166.821 149.813 167.568 150.159 167.597C150.302 167.604 150.441 167.64 150.57 167.702C150.698 167.764 150.813 167.852 150.907 167.959C151.001 168.066 151.073 168.191 151.117 168.326C151.162 168.462 151.179 168.605 151.167 168.747C151.152 169.019 151.034 169.275 150.835 169.462C150.637 169.649 150.374 169.753 150.101 169.753Z" fill="#4460D0"/>
<path d="M150.476 170.931C152.56 170.931 154.249 169.747 154.249 168.287C154.249 166.826 152.56 165.643 150.476 165.643C148.392 165.643 146.703 166.826 146.703 168.287C146.703 169.747 148.392 170.931 150.476 170.931Z" fill="#4460D0"/>
<path d="M284.044 107.41C300.159 107.41 313.223 94.3747 313.223 78.2943C313.223 62.214 300.159 49.1783 284.044 49.1783C267.928 49.1783 254.865 62.214 254.865 78.2943C254.865 94.3747 267.928 107.41 284.044 107.41Z" fill="#B0C6F5"/>
<path d="M258.177 64.8141C255.13 70.6116 254.145 77.2692 255.383 83.6979C259.989 84.3909 264.695 83.9721 269.106 82.4768C273.517 80.9814 277.504 78.453 280.734 75.1033C283.964 71.7537 286.343 67.6804 287.67 63.2247C288.998 58.769 289.236 54.0608 288.364 49.4944C282.362 48.6061 276.231 49.6036 270.821 52.3486C265.412 55.0937 260.993 59.4503 258.177 64.8141Z" fill="#A2B9EB"/>
<path d="M233.635 61.1351L226.607 76.7135L243.227 72.4309L233.635 61.1351Z" fill="#B0C6F5"/>
<path d="M307.836 89.7051L314.865 105.283L298.244 101.001L307.836 89.7051Z" fill="#B0C6F5"/>
<path d="M259.656 79.7991C275.721 78.5374 287.72 64.5191 286.455 48.4884C285.191 32.4576 271.142 20.4848 255.077 21.7465C239.011 23.0081 227.013 37.0264 228.277 53.0572C229.541 69.088 243.59 81.0607 259.656 79.7991Z" fill="#B0C6F5"/>
<path d="M247.404 50.8166C247.398 51.4918 247.192 52.1502 246.812 52.7089C246.432 53.2676 245.895 53.7015 245.268 53.956C244.641 54.2105 243.953 54.2741 243.29 54.1389C242.627 54.0037 242.019 53.6757 241.542 53.1963C241.066 52.7168 240.742 52.1073 240.612 51.4446C240.482 50.7819 240.552 50.0957 240.812 49.4724C241.072 48.8491 241.512 48.3166 242.075 47.942C242.638 47.5674 243.3 47.3675 243.976 47.3675C244.429 47.3675 244.877 47.4569 245.295 47.6306C245.712 47.8043 246.092 48.0588 246.41 48.3794C246.729 48.7001 246.981 49.0805 247.151 49.4988C247.322 49.9171 247.408 50.365 247.404 50.8166Z" fill="white"/>
<path d="M260.798 50.8166C260.793 51.4918 260.587 52.1502 260.207 52.7089C259.827 53.2676 259.289 53.7015 258.662 53.956C258.036 54.2105 257.347 54.2741 256.684 54.1389C256.021 54.0037 255.413 53.6757 254.937 53.1963C254.46 52.7168 254.137 52.1073 254.007 51.4446C253.877 50.7819 253.946 50.0957 254.207 49.4724C254.467 48.8491 254.906 48.3166 255.469 47.942C256.032 47.5674 256.694 47.3675 257.371 47.3675C257.823 47.3675 258.271 47.4569 258.689 47.6306C259.107 47.8043 259.486 48.0588 259.805 48.3794C260.123 48.7001 260.375 49.0805 260.546 49.4988C260.716 49.9171 260.802 50.365 260.798 50.8166Z" fill="white"/>
<path d="M274.192 50.8166C274.187 51.4918 273.981 52.1502 273.601 52.7089C273.221 53.2676 272.683 53.7015 272.056 53.956C271.43 54.2105 270.741 54.2741 270.078 54.1389C269.415 54.0037 268.807 53.6757 268.331 53.1963C267.854 52.7168 267.531 52.1073 267.401 51.4446C267.271 50.7819 267.34 50.0957 267.601 49.4724C267.861 48.8491 268.3 48.3166 268.863 47.942C269.426 47.5674 270.088 47.3675 270.765 47.3675C271.217 47.3675 271.665 47.4569 272.083 47.6306C272.501 47.8043 272.88 48.0588 273.199 48.3794C273.517 48.7001 273.769 49.0805 273.94 49.4988C274.11 49.9171 274.196 50.365 274.192 50.8166Z" fill="white"/>
<path d="M303.861 84.0141H277.649C277.318 84.0066 277.003 83.87 276.771 83.6337C276.54 83.3973 276.41 83.0799 276.41 82.7494C276.41 82.5871 276.442 82.4264 276.505 82.2765C276.567 82.1265 276.658 81.9903 276.773 81.8755C276.888 81.7607 277.025 81.6697 277.175 81.6076C277.325 81.5455 277.486 81.5135 277.649 81.5135H303.861C304.024 81.5135 304.185 81.5455 304.335 81.6076C304.486 81.6697 304.622 81.7607 304.737 81.8755C304.852 81.9903 304.943 82.1265 305.006 82.2765C305.068 82.4264 305.1 82.5871 305.1 82.7494C305.1 83.0799 304.97 83.3973 304.739 83.6337C304.507 83.87 304.192 84.0066 303.861 84.0141Z" fill="white"/>
<path d="M299.512 88.4691H277.563C276.926 88.4691 276.41 88.9839 276.41 89.6188V89.8229C276.41 90.4579 276.926 90.9726 277.563 90.9726H299.512C300.148 90.9726 300.664 90.4579 300.664 89.8229V89.6188C300.664 88.9839 300.148 88.4691 299.512 88.4691Z" fill="white"/>
<path d="M92.6124 58.6374C108.566 57.0294 120.193 42.8204 118.582 26.9009C116.97 10.9813 102.731 -0.62044 86.7766 0.987596C70.8225 2.59563 59.1956 16.8045 60.8071 32.7241C62.4186 48.6437 76.6583 60.2454 92.6124 58.6374Z" fill="#B0C6F5"/>
<path d="M78.4065 31.2143L75.2956 33.3125C75.5871 34.4651 76.0024 35.5829 76.5342 36.6466L80.25 36.2442C80.5531 36.7202 80.8799 37.1806 81.2294 37.6238L79.6163 40.9867C80.4344 41.8498 81.3531 42.6121 82.3528 43.2573L85.3773 41.0729C85.8724 41.3319 86.3822 41.5623 86.9039 41.7627L87.192 45.4993C88.3398 45.8188 89.5173 46.0211 90.7062 46.1028L92.204 42.6825C92.7725 42.6631 93.3398 42.6152 93.9035 42.5388L96.0062 45.6142C97.1589 45.3284 98.2787 44.9239 99.3476 44.407L98.9443 40.6705C99.4278 40.3779 99.8898 40.0513 100.327 39.6933L103.697 41.3316C104.549 40.5027 105.311 39.5876 105.973 38.6011L103.783 35.5831C104.048 35.0818 104.279 34.5632 104.475 34.031L108.219 33.7723C108.54 32.627 108.742 31.4521 108.824 30.2658L105.397 28.7424C105.368 28.1676 105.31 27.6215 105.253 27.0754L108.335 24.9484C108.051 23.7934 107.636 22.6747 107.096 21.6143L103.38 22.0167C103.08 21.5482 102.753 21.0972 102.401 20.6658L104.043 17.2742C103.205 16.4327 102.288 15.6724 101.306 15.0035L98.2818 17.2167C97.7772 16.9483 97.2579 16.7084 96.7263 16.4982L96.4671 12.7616C95.3187 12.4445 94.1415 12.2423 92.9529 12.1581L91.4263 15.6071C90.8664 15.6109 90.3078 15.659 89.7556 15.7509L87.624 12.6467C86.4705 12.9425 85.3507 13.3566 84.2827 13.8826L84.686 17.5904L83.3033 18.5676L79.9332 16.958C79.0764 17.782 78.3132 18.6977 77.6576 19.6886L79.8755 22.7065C79.595 23.1942 79.3542 23.7036 79.1554 24.2299L75.4108 24.5173C75.0905 25.6627 74.8879 26.8376 74.8059 28.0239L78.2625 29.5185C78.2663 30.0866 78.3145 30.6536 78.4065 31.2143ZM84.9452 29.1448C84.9395 27.785 85.3384 26.454 86.0914 25.3206C86.8444 24.1871 87.9175 23.3022 89.175 22.7778C90.4324 22.2535 91.8175 22.1133 93.1548 22.3751C94.4922 22.637 95.7215 23.2889 96.6872 24.2485C97.6529 25.208 98.3114 26.432 98.5794 27.7653C98.8474 29.0986 98.7127 30.4813 98.1925 31.7382C97.6723 32.9951 96.79 34.0697 95.6572 34.8258C94.5245 35.5819 93.1923 35.9855 91.8295 35.9855C90.9268 35.9893 90.0323 35.8151 89.1972 35.4731C88.3621 35.131 87.6029 34.6277 86.9633 33.9921C86.3236 33.3565 85.8161 32.6011 85.4698 31.7693C85.1235 30.9375 84.9452 30.0456 84.9452 29.1448Z" fill="white"/>
<path d="M57.5557 141.391C68.9509 130.021 68.9509 111.586 57.5557 100.215C46.1605 88.8445 27.6852 88.8445 16.29 100.215C4.89484 111.586 4.89485 130.021 16.29 141.391C27.6852 152.762 46.1605 152.762 57.5557 141.391Z" fill="#B0C6F5"/>
<path d="M39.4049 119.568C39.3208 119.576 39.2372 119.55 39.1724 119.496C39.1076 119.442 39.0669 119.365 39.0592 119.281C39.0516 119.197 39.0776 119.114 39.1317 119.049C39.1857 118.984 39.2632 118.944 39.3473 118.936C40.5985 118.4 41.6612 117.503 42.3999 116.362C43.1387 115.22 43.52 113.885 43.4952 112.527C43.4952 108.733 40.5571 105.628 36.9277 105.628C33.2983 105.628 30.3602 108.733 30.3602 112.527C30.3354 113.885 30.7167 115.22 31.4554 116.362C32.1942 117.503 33.2569 118.4 34.5081 118.936C34.5497 118.94 34.5901 118.952 34.6271 118.971C34.6641 118.991 34.6969 119.017 34.7237 119.049C34.7504 119.081 34.7706 119.118 34.783 119.158C34.7955 119.198 34.7999 119.239 34.7961 119.281C34.7923 119.323 34.7804 119.363 34.761 119.4C34.7416 119.437 34.7151 119.469 34.683 119.496C34.6509 119.523 34.6138 119.543 34.5739 119.555C34.534 119.568 34.4921 119.572 34.4505 119.568C28.3727 121.121 23.7639 127.99 23.7639 132.071C23.7639 136.699 29.6689 135.952 36.9277 135.952C44.1865 135.952 50.0915 136.699 50.0915 132.071C50.0915 127.99 45.4827 121.121 39.4049 119.568Z" fill="white"/>
<path d="M284.044 113.992C284.823 113.992 285.455 113.362 285.455 112.584C285.455 111.806 284.823 111.176 284.044 111.176C283.264 111.176 282.632 111.806 282.632 112.584C282.632 113.362 283.264 113.992 284.044 113.992Z" fill="#B0C6F5"/>
<path d="M284.044 121.81C284.823 121.81 285.455 121.18 285.455 120.402C285.455 119.624 284.823 118.994 284.044 118.994C283.264 118.994 282.632 119.624 282.632 120.402C282.632 121.18 283.264 121.81 284.044 121.81Z" fill="#B0C6F5"/>
<path d="M284.044 129.628C284.839 129.628 285.484 128.985 285.484 128.191C285.484 127.397 284.839 126.754 284.044 126.754C283.248 126.754 282.604 127.397 282.604 128.191C282.604 128.985 283.248 129.628 284.044 129.628Z" fill="#B0C6F5"/>
<path d="M284.044 137.446C284.839 137.446 285.484 136.803 285.484 136.009C285.484 135.215 284.839 134.572 284.044 134.572C283.248 134.572 282.604 135.215 282.604 136.009C282.604 136.803 283.248 137.446 284.044 137.446Z" fill="#B0C6F5"/>
<path d="M284.044 145.235C284.823 145.235 285.455 144.605 285.455 143.827C285.455 143.049 284.823 142.419 284.044 142.419C283.264 142.419 282.632 143.049 282.632 143.827C282.632 144.605 283.264 145.235 284.044 145.235Z" fill="#B0C6F5"/>
<path d="M284.044 153.053C284.823 153.053 285.455 152.423 285.455 151.645C285.455 150.867 284.823 150.237 284.044 150.237C283.264 150.237 282.632 150.867 282.632 151.645C282.632 152.423 283.264 153.053 284.044 153.053Z" fill="#B0C6F5"/>
<path d="M284.044 160.871C284.823 160.871 285.455 160.241 285.455 159.463C285.455 158.685 284.823 158.055 284.044 158.055C283.264 158.055 282.632 158.685 282.632 159.463C282.632 160.241 283.264 160.871 284.044 160.871Z" fill="#B0C6F5"/>
<path d="M284.044 168.689C284.839 168.689 285.484 168.046 285.484 167.252C285.484 166.458 284.839 165.815 284.044 165.815C283.248 165.815 282.604 166.458 282.604 167.252C282.604 168.046 283.248 168.689 284.044 168.689Z" fill="#B0C6F5"/>
<path d="M284.044 176.478C284.823 176.478 285.455 175.848 285.455 175.07C285.455 174.292 284.823 173.662 284.044 173.662C283.264 173.662 282.632 174.292 282.632 175.07C282.632 175.848 283.264 176.478 284.044 176.478Z" fill="#B0C6F5"/>
<path d="M284.044 184.296C284.823 184.296 285.455 183.666 285.455 182.888C285.455 182.11 284.823 181.48 284.044 181.48C283.264 181.48 282.632 182.11 282.632 182.888C282.632 183.666 283.264 184.296 284.044 184.296Z" fill="#B0C6F5"/>
<path d="M284.044 192.114C284.823 192.114 285.455 191.484 285.455 190.706C285.455 189.928 284.823 189.298 284.044 189.298C283.264 189.298 282.632 189.928 282.632 190.706C282.632 191.484 283.264 192.114 284.044 192.114Z" fill="#B0C6F5"/>
<path d="M284.044 199.932C284.823 199.932 285.455 199.302 285.455 198.524C285.455 197.746 284.823 197.115 284.044 197.115C283.264 197.115 282.632 197.746 282.632 198.524C282.632 199.302 283.264 199.932 284.044 199.932Z" fill="#B0C6F5"/>
<path d="M92.9182 67.2499C93.044 66.4662 92.5093 65.7291 91.7239 65.6036C90.9385 65.4781 90.1998 66.0116 90.074 66.7953C89.9482 67.579 90.4829 68.3161 91.2683 68.4416C92.0537 68.5672 92.7924 68.0336 92.9182 67.2499Z" fill="#B0C6F5"/>
<path d="M92.9641 75.0926C93.0899 74.3089 92.5552 73.5718 91.7698 73.4463C90.9844 73.3208 90.2457 73.8543 90.1199 74.638C89.9941 75.4217 90.5288 76.1588 91.3142 76.2844C92.0996 76.4099 92.8383 75.8763 92.9641 75.0926Z" fill="#B0C6F5"/>
<path d="M93.0095 82.9111C93.1353 82.1274 92.6006 81.3903 91.8152 81.2648C91.0298 81.1392 90.2911 81.6728 90.1653 82.4565C90.0395 83.2402 90.5742 83.9773 91.3596 84.1028C92.145 84.2284 92.8837 83.6948 93.0095 82.9111Z" fill="#B0C6F5"/>
<path d="M93.1125 90.7583C93.2383 89.9746 92.7036 89.2375 91.9182 89.112C91.1328 88.9864 90.3941 89.52 90.2683 90.3037C90.1425 91.0874 90.6772 91.8245 91.4626 91.95C92.248 92.0756 92.9867 91.542 93.1125 90.7583Z" fill="#B0C6F5"/>
<path d="M93.1868 98.6343C93.3126 97.8506 92.7778 97.1135 91.9924 96.988C91.207 96.8624 90.4683 97.396 90.3425 98.1797C90.2167 98.9634 90.7514 99.7005 91.5369 99.826C92.3223 99.9515 93.061 99.418 93.1868 98.6343Z" fill="#B0C6F5"/>
<path d="M93.3186 106.51C93.4444 105.727 92.9097 104.989 92.1243 104.864C91.3389 104.738 90.6002 105.272 90.4744 106.056C90.3486 106.839 90.8833 107.576 91.6687 107.702C92.4541 107.828 93.1928 107.294 93.3186 106.51Z" fill="#B0C6F5"/>
<path d="M91.8008 115.487C92.5963 115.487 93.2411 114.844 93.2411 114.05C93.2411 113.256 92.5963 112.613 91.8008 112.613C91.0054 112.613 90.3606 113.256 90.3606 114.05C90.3606 114.844 91.0054 115.487 91.8008 115.487Z" fill="#B0C6F5"/>
<path d="M91.8008 123.305C92.5963 123.305 93.2411 122.662 93.2411 121.868C93.2411 121.074 92.5963 120.431 91.8008 120.431C91.0054 120.431 90.3606 121.074 90.3606 121.868C90.3606 122.662 91.0054 123.305 91.8008 123.305Z" fill="#B0C6F5"/>
<path d="M91.8008 131.123C92.5963 131.123 93.2411 130.479 93.2411 129.686C93.2411 128.892 92.5963 128.249 91.8008 128.249C91.0054 128.249 90.3606 128.892 90.3606 129.686C90.3606 130.479 91.0054 131.123 91.8008 131.123Z" fill="#B0C6F5"/>
<path d="M91.8008 138.912C92.5963 138.912 93.2411 138.269 93.2411 137.475C93.2411 136.681 92.5963 136.038 91.8008 136.038C91.0054 136.038 90.3606 136.681 90.3606 137.475C90.3606 138.269 91.0054 138.912 91.8008 138.912Z" fill="#B0C6F5"/>
<path d="M91.8008 146.73C92.5963 146.73 93.2411 146.087 93.2411 145.293C93.2411 144.499 92.5963 143.856 91.8008 143.856C91.0054 143.856 90.3606 144.499 90.3606 145.293C90.3606 146.087 91.0054 146.73 91.8008 146.73Z" fill="#B0C6F5"/>
<path d="M91.8008 154.519C92.5804 154.519 93.2123 153.889 93.2123 153.111C93.2123 152.333 92.5804 151.702 91.8008 151.702C91.0213 151.702 90.3894 152.333 90.3894 153.111C90.3894 153.889 91.0213 154.519 91.8008 154.519Z" fill="#B0C6F5"/>
<path d="M36.9278 161.072C37.7073 161.072 38.3392 160.442 38.3392 159.664C38.3392 158.886 37.7073 158.256 36.9278 158.256C36.1483 158.256 35.5164 158.886 35.5164 159.664C35.5164 160.442 36.1483 161.072 36.9278 161.072Z" fill="#B0C6F5"/>
<path d="M36.9278 168.89C37.7073 168.89 38.3392 168.26 38.3392 167.482C38.3392 166.704 37.7073 166.074 36.9278 166.074C36.1483 166.074 35.5164 166.704 35.5164 167.482C35.5164 168.26 36.1483 168.89 36.9278 168.89Z" fill="#B0C6F5"/>
<path d="M36.9278 176.68C37.7073 176.68 38.3392 176.049 38.3392 175.271C38.3392 174.493 37.7073 173.863 36.9278 173.863C36.1483 173.863 35.5164 174.493 35.5164 175.271C35.5164 176.049 36.1483 176.68 36.9278 176.68Z" fill="#B0C6F5"/>
<path d="M36.9278 184.498C37.7073 184.498 38.3392 183.867 38.3392 183.089C38.3392 182.311 37.7073 181.681 36.9278 181.681C36.1483 181.681 35.5164 182.311 35.5164 183.089C35.5164 183.867 36.1483 184.498 36.9278 184.498Z" fill="#B0C6F5"/>
<path d="M36.9278 192.315C37.7073 192.315 38.3392 191.685 38.3392 190.907C38.3392 190.129 37.7073 189.499 36.9278 189.499C36.1483 189.499 35.5164 190.129 35.5164 190.907C35.5164 191.685 36.1483 192.315 36.9278 192.315Z" fill="#B0C6F5"/>
<path d="M36.9278 200.133C37.7073 200.133 38.3392 199.503 38.3392 198.725C38.3392 197.947 37.7073 197.317 36.9278 197.317C36.1483 197.317 35.5164 197.947 35.5164 198.725C35.5164 199.503 36.1483 200.133 36.9278 200.133Z" fill="#B0C6F5"/>
<path d="M36.9278 207.951C37.7073 207.951 38.3392 207.321 38.3392 206.543C38.3392 205.765 37.7073 205.135 36.9278 205.135C36.1483 205.135 35.5164 205.765 35.5164 206.543C35.5164 207.321 36.1483 207.951 36.9278 207.951Z" fill="#B0C6F5"/>
<path d="M36.9278 215.741C37.7073 215.741 38.3392 215.11 38.3392 214.332C38.3392 213.554 37.7073 212.924 36.9278 212.924C36.1483 212.924 35.5164 213.554 35.5164 214.332C35.5164 215.11 36.1483 215.741 36.9278 215.741Z" fill="#B0C6F5"/>
<path d="M36.9278 223.558C37.7073 223.558 38.3392 222.928 38.3392 222.15C38.3392 221.372 37.7073 220.742 36.9278 220.742C36.1483 220.742 35.5164 221.372 35.5164 222.15C35.5164 222.928 36.1483 223.558 36.9278 223.558Z" fill="#B0C6F5"/>
<path d="M36.9278 231.376C37.7073 231.376 38.3392 230.746 38.3392 229.968C38.3392 229.19 37.7073 228.56 36.9278 228.56C36.1483 228.56 35.5164 229.19 35.5164 229.968C35.5164 230.746 36.1483 231.376 36.9278 231.376Z" fill="#B0C6F5"/>
<path d="M36.9278 239.194C37.7073 239.194 38.3392 238.564 38.3392 237.786C38.3392 237.008 37.7073 236.378 36.9278 236.378C36.1483 236.378 35.5164 237.008 35.5164 237.786C35.5164 238.564 36.1483 239.194 36.9278 239.194Z" fill="#B0C6F5"/>
<path d="M36.9278 247.012C37.7073 247.012 38.3392 246.382 38.3392 245.604C38.3392 244.826 37.7073 244.196 36.9278 244.196C36.1483 244.196 35.5164 244.826 35.5164 245.604C35.5164 246.382 36.1483 247.012 36.9278 247.012Z" fill="#B0C6F5"/>
<path d="M357.986 84.0428H352.282V89.7338H357.986V84.0428Z" fill="#B0C6F5"/>
<path d="M357.986 101.691H352.282V107.382H357.986V101.691Z" fill="#B0C6F5"/>
<path d="M357.986 119.339H352.282V125.029H357.986V119.339Z" fill="#B0C6F5"/>
</g>
<defs>
<linearGradient id="paint0_linear_3200_6173" x1="96.1129" y1="398.028" x2="189.684" y2="230.02" gradientUnits="userSpaceOnUse">
<stop stop-color="#4460D0"/>
<stop offset="1" stop-color="#719DFC"/>
</linearGradient>
<linearGradient id="paint1_linear_3200_6173" x1="146.507" y1="338.18" x2="172.813" y2="228.6" gradientUnits="userSpaceOnUse">
<stop stop-color="#4460D0"/>
<stop offset="1" stop-color="#719DFC"/>
</linearGradient>
<clipPath id="clip0_3200_6173">
<rect width="388" height="341" fill="white"/>
</clipPath>
</defs>
</svg>
