<svg width="824" height="374" viewBox="0 0 824 374" fill="none" xmlns="http://www.w3.org/2000/svg">
<path d="M26.5699 286.742L1 373H95.7589L184 319.799L142.386 201L26.5699 286.742Z" fill="#143961" stroke="#214F7D"/>
<path d="M273.145 279.157L398.139 253.177L387.393 183.289L275.244 189.022L273.145 279.157Z" fill="#55ACE8"/>
<path d="M142.844 202.314L181.256 312.696L273.149 279.155L275.249 189.02L142.844 202.314Z" fill="#2872C1"/>
<path d="M398.14 253.177L410.862 253.787L399.622 184.631L387.395 183.289L398.14 253.177Z" fill="#78C8F4"/>
<path d="M273.145 283.424V279.155L398.139 253.176L399.497 253.298L410.86 253.786L273.145 283.424Z" fill="#184A77"/>
<path d="M96.7695 360.632L181.252 312.698L273.145 279.156V283.425L186.686 319.894L96.7695 370.755V360.632Z" fill="#184A77"/>
<path d="M512.384 183.652L503.367 253.785L626.262 278.178L614.652 187.921L512.384 183.652Z" fill="#46A3E8"/>
<path d="M737.796 202.805L710.5 300.746L832.036 361.974V222.564L737.796 202.805Z" fill="#2872C1"/>
<path d="M614.664 187.922L737.806 202.802L710.509 300.743L626.274 278.179L614.664 187.922Z" fill="#55ACE8"/>
<path d="M503.367 253.785L512.631 259.884L626.262 283.424L710.497 307.573L832.033 372.705V361.972L711.361 297.816L626.262 278.179L503.367 253.785Z" fill="#184A77"/>
<path d="M404.945 25.2148L410.874 100.348L505.978 104.617L517.465 31.0694L404.945 25.2148Z" fill="#2872C1"/>
<path d="M383.316 36.0693C383.316 36.0693 386.651 39.4845 388.627 70.5866L400.361 77.051L396.409 86.9305L379.858 75.7093C379.858 75.7093 366.642 56.5602 370.1 39.4845C370.403 37.7225 371.3 36.1132 372.645 34.9177C373.99 33.7221 375.705 33.0105 377.511 32.8982C378.682 32.8412 379.845 33.1077 380.871 33.668C381.896 34.2282 382.743 35.0598 383.316 36.0693Z" fill="#E3E4E5"/>
<path d="M508.312 103.032L505.965 104.618L517.451 31.0703L522.268 33.1438L508.312 103.032Z" fill="#184A77"/>
<path d="M354.05 80.4698C354.05 80.4698 380.358 103.522 390.239 116.451C390.239 116.451 397.032 119.378 393.203 129.989L374.183 181.46L362.943 179.997L367.513 127.306C367.513 127.306 324.037 91.8129 337.87 77.0547L354.05 80.4698Z" fill="#1A2747"/>
<path d="M323.418 73.5156C323.418 73.5156 314.155 82.6633 325.148 96.3239C339.475 114.253 355.161 135.72 355.161 135.72C355.161 135.72 345.033 137.793 323.171 177.555L332.682 183.288L369.241 148.649C369.241 148.649 384.927 137.183 372.947 121.693L351.95 83.639L323.418 73.5156Z" fill="#3B4C74"/>
<path d="M376.405 29.2399C376.405 29.2399 358.742 18.0187 344.291 40.705L323.418 73.5146C323.418 73.5146 337.375 85.9555 351.085 85.4676L377.393 54.8534C377.393 54.8534 394.931 43.8762 377.64 30.2156" fill="#E8E8E8"/>
<path d="M368.749 30.3398C368.749 30.3398 360.227 29.1201 360.845 51.3184L365.661 76.4441C366.281 79.3607 368.004 81.9343 370.478 83.6402C374.307 86.2016 385.053 90.4705 385.053 90.4705L390.858 80.713L379.495 73.8827C379.495 73.8827 381.348 52.7821 379.618 38.9996C378.877 33.7549 375.789 29.364 368.996 30.3398H368.749Z" fill="#F1F2F2"/>
<path d="M374.184 23.9952L378.754 17.5309C378.754 17.5309 376.036 -0.276594 393.822 1.79688C393.822 1.79688 404.321 4.11428 400.245 17.5309L399.751 21.19C399.751 21.4339 399.504 21.6778 399.257 21.5558L396.416 20.946L392.957 27.0444C392.957 27.0444 390.734 29.1179 387.646 26.4346C384.559 23.7513 380.853 32.0452 380.853 32.0452L374.184 23.9952Z" fill="#C48572"/>
<path d="M370.723 27.4109L371.834 22.4102C376.71 24.1368 380.848 27.4483 383.568 31.8017L380.851 34.1192C378.318 30.8393 374.757 28.4803 370.723 27.4109Z" fill="#E8E8E8"/>
<path d="M378.87 18.5073L379.24 17.8975C379.857 16.8692 380.117 15.6701 379.981 14.4824C379.487 13.0188 380.352 9.11575 383.563 10.2135C384.156 10.9873 384.615 11.8528 384.922 12.7748C384.922 12.7748 388.998 13.7506 389.739 7.89606C389.739 7.89606 391.838 2.40744 395.05 3.3832C397.049 4.12137 398.743 5.49422 399.867 7.28622C400.117 7.22997 400.34 7.0899 400.498 6.88981C400.655 6.68971 400.738 6.44188 400.731 6.18847C400.731 6.18847 390.233 -6.13039 379.981 3.99304C379.981 3.99304 376.276 7.89604 378.252 14.8483C378.369 15.8505 378.198 16.865 377.758 17.7755L378.87 18.5073Z" fill="#4D4544"/>
<path d="M385.551 89.6155L405.56 96.6897C405.91 97.8733 406.499 98.9747 407.292 99.9277C408.085 100.881 409.064 101.666 410.172 102.235C411.279 102.805 412.492 103.148 413.737 103.243C414.982 103.338 416.234 103.183 417.417 102.788L420.999 100.715L410.871 100.349L410.377 94.7382L390.244 81.6875" fill="#C48572"/>
<path d="M399.742 78.6367L409.499 83.8814L410.117 91.1995L396.777 85.9549L399.742 78.6367Z" fill="#B27567"/>
<path d="M324.533 178.41L323.668 180.85L330.461 183.655L331.449 182.557L324.533 178.41Z" fill="#E5B855"/>
<path d="M336.39 185.848L330.461 183.775L323.668 180.848C322.749 181.509 322.025 182.4 321.57 183.429C321.114 184.457 320.943 185.587 321.074 186.702L336.39 185.848Z" fill="#51180A"/>
<path d="M362.944 179.992C362.36 180.609 361.915 181.341 361.638 182.14C361.362 182.939 361.259 183.786 361.338 184.627L375.913 183.895L370.849 181.09L362.944 179.992Z" fill="#51180A"/>
<path d="M554.63 167.917L547.467 172.064L523.258 139.499C523.258 139.499 518.441 132.668 525.235 122.911C532.028 113.153 564.264 85.1004 564.264 85.1004C564.264 85.1004 566.858 82.783 566.982 81.4414C569.535 81.2681 572.019 80.5451 574.26 79.323C576.5 78.1009 578.442 76.4094 579.95 74.3672C579.95 74.3672 589.955 90.2232 542.156 136.571L554.63 167.917Z" fill="#2872C1"/>
<path d="M579.949 74.3672L581.802 76.6846C581.802 76.6846 607.369 93.5163 583.408 109.738L549.195 140.718C549.195 140.718 558.952 145.109 575.503 174.87L570.562 179.139C570.562 179.139 541.29 155.721 533.385 146.085C533.385 146.085 527.333 141.572 534.126 131.083C540.92 120.593 564.757 89.6133 564.757 89.6133C564.757 89.6133 567.598 83.2709 566.981 81.4414C566.981 81.4414 574.762 79.4899 579.949 74.3672Z" fill="#3C8DD6"/>
<path d="M542.41 49.7305L527.712 78.7591L510.791 90.5901L509.68 96.2007L533.641 87.7848L547.227 62.6592L542.41 49.7305Z" fill="#C69075"/>
<path d="M541.042 48.3878L542.03 51.0712C542.03 51.0712 538.201 61.5605 541.536 65.8294C544.871 70.0983 555.122 72.2938 555.122 72.2938C558.204 76.3072 562.29 79.4597 566.979 81.4415C566.979 81.4415 576.737 79.368 579.948 74.3673C579.948 74.3673 567.72 46.6803 553.023 46.8022L549.688 43.875C547.134 45.9251 544.196 47.4585 541.042 48.3878Z" fill="#131C33"/>
<path d="M554.011 50.5869C554.011 50.5869 545.982 45.3422 533.261 84.3723L506.705 99.8624L499.665 104.619L498.43 106.327C498.183 106.693 498.554 107.181 499.048 107.181L505.964 105.961L508.311 103.034L532.396 95.3495C537.531 93.2362 541.885 89.6174 544.871 84.9821C550.058 77.2981 565.497 53.5141 554.011 50.5869Z" fill="#D9A07F"/>
<path d="M530.177 21.5557C530.177 21.5557 525.73 21.5557 526.966 31.9231L525.73 36.07H528.448L530.177 40.9488C530.177 40.9488 532.524 44.7298 537.835 40.5829L541.911 48.145C541.911 48.145 545.369 48.6329 548.827 45.0958C552.286 41.5587 548.827 44.4859 548.827 44.4859L543.269 34.8503C543.269 34.8503 551.05 25.3368 539.811 18.0186C539.811 18.0186 533.018 17.0429 530.177 21.5557Z" fill="#D9A07F"/>
<path d="M530.168 21.5582C530.421 23.1693 531.155 24.6689 532.278 25.8644C533.4 27.0598 534.859 27.8964 536.467 28.2665C536.636 29.9774 537.409 31.575 538.651 32.7793C539.893 33.9836 541.525 34.7177 543.26 34.8528L548.818 44.4884L549.683 43.8785L553.018 46.8058C553.018 46.8058 560.428 46.3179 570.433 58.3929C570.433 58.3929 589.33 61.93 589.577 43.8785C589.577 43.8785 588.466 30.8279 565.122 31.0718C565.122 31.0718 553.759 31.0718 550.3 21.4362C550.3 21.4362 543.26 9.11736 531.033 18.7529C530.467 19.5817 530.166 20.5588 530.168 21.5582Z" fill="#30BAAA"/>
<path d="M570.932 178.776L573.156 181.46L566.609 185.972L579.208 186.46C579.208 186.46 582.048 181.216 575.132 175.117L570.932 178.776Z" fill="#D9A07F"/>
<path d="M548.332 171.577L553.273 179.139L544.133 184.994L556.113 185.482C556.113 185.482 560.683 184.14 559.201 179.749C557.719 175.358 554.631 167.918 554.631 167.918L548.332 171.577Z" fill="#D9A07F"/>
<path d="M558.831 178.531L557.843 179.141C557.703 180.09 557.325 180.989 556.742 181.756C556.159 182.523 555.391 183.134 554.508 183.532C551.173 185.362 546.727 184.02 548.579 182.434C550.142 181.254 551.793 180.194 553.52 179.263H553.273L544.133 185.118L556.113 185.605C556.113 185.605 561.672 184.386 558.831 178.531Z" fill="#A0A0A0"/>
<path d="M573.156 181.456H573.526L569.697 184.262C569.697 184.262 569.45 185.115 572.414 184.993C573.676 184.943 574.89 184.505 575.887 183.739C576.883 182.974 577.613 181.92 577.972 180.725C577.972 180.725 576.614 179.017 577.972 178.285C579.257 179.825 579.918 181.781 579.825 183.774C579.833 184.703 579.622 185.622 579.208 186.457L566.609 185.969L573.156 181.456Z" fill="#A0A0A0"/>
<g style="mix-blend-mode:color" opacity="0.2">
<path d="M273.145 278.789L398.139 252.809L387.393 183.043L275.244 188.654L273.145 278.789Z" fill="#687F87"/>
<path d="M142.844 201.947L181.256 312.451L273.149 278.787L275.249 188.652L142.844 201.947Z" fill="#687F87"/>
<path d="M512.382 183.41L503.365 253.42L626.26 277.814L614.65 187.557L512.382 183.41Z" fill="#687F87"/>
<path d="M737.794 202.559L710.498 300.378L832.034 361.728V222.196L737.794 202.559Z" fill="#687F87"/>
<path d="M614.66 187.555L737.802 202.557L710.506 300.376L626.27 277.812L614.66 187.555Z" fill="#687F87"/>
</g>
<path opacity="0.2" d="M404.945 25.2148L410.874 100.348L505.978 104.617L517.465 31.0694L404.945 25.2148Z" fill="#687F87"/>
</svg>
