<svg width="51" height="42" viewBox="0 0 51 42" fill="none" xmlns="http://www.w3.org/2000/svg">
<path fill-rule="evenodd" clip-rule="evenodd" d="M26.0483 0.0110951C21.9641 -0.12492 17.8377 0.989377 14.2751 3.3674C10.2738 6.04107 7.47756 9.98933 6.18957 14.4031C5.83389 14.3597 5.40796 14.3788 4.90222 14.5219C3.01398 15.0576 1.59381 16.6049 0.955243 17.9676C0.127022 19.7434 -0.222273 22.0921 0.146179 24.5167C0.512078 26.9337 1.53314 28.926 2.81028 30.1629C4.09124 31.4004 5.53759 31.8027 6.97437 31.5007C9.11356 31.0441 10.1742 30.7025 9.87473 28.7095L8.42455 19.0487C8.71701 13.8201 11.4239 8.89802 15.9513 5.87122C22.0113 1.82335 29.9564 2.0826 35.7367 6.52C39.7577 9.60299 42.0923 14.2224 42.3618 19.0717L41.3477 25.8296C39.0859 32.0192 33.4787 36.3065 26.9902 36.9151H22.6697C21.5547 36.9151 20.6569 37.8129 20.6569 38.9266V39.9879C20.6569 41.1022 21.5547 42 22.6697 42H28.1173C29.2316 42 30.1256 41.1022 30.1256 39.9879V39.433C35.0183 38.2388 39.289 35.2318 42.07 31.0384L43.8152 31.5013C45.2353 31.8698 46.6989 31.4004 47.9792 30.1635C49.2564 28.926 50.2768 26.9343 50.6433 24.5173C51.0131 22.0927 50.6536 19.7479 49.8349 17.9682C49.0131 16.1885 47.789 15.0583 46.3758 14.6528C45.7839 14.4823 45.1415 14.4197 44.5904 14.4031C43.4256 10.4121 41.0278 6.78245 37.5719 4.1324C34.1741 1.52514 30.1326 0.145194 26.0483 0.0110951Z" fill="#2872C1"/>
<path fill-rule="evenodd" clip-rule="evenodd" d="M32.4233 17.3903C33.8632 17.3903 35.0305 18.5576 35.0337 20.0014C35.0305 21.4413 33.8632 22.6118 32.4233 22.6118C30.9795 22.6118 29.809 21.4413 29.809 20.0014C29.809 18.5582 30.9801 17.3903 32.4233 17.3903ZM25.3926 17.3903C26.8358 17.3903 28.0031 18.5576 28.0031 20.0014C28.0031 21.4413 26.8358 22.6118 25.3926 22.6118C23.9482 22.6118 22.7809 21.4413 22.7809 20.0014C22.7809 18.5582 23.9482 17.3903 25.3926 17.3903ZM18.3646 17.3903C19.8045 17.3903 20.975 18.5576 20.975 20.0014C20.975 21.4413 19.8045 22.6118 18.3646 22.6118C16.9214 22.6118 15.7535 21.4413 15.7535 20.0014C15.7535 18.5582 16.9214 17.3903 18.3646 17.3903ZM25.3926 6.17578C17.7362 6.17578 11.5664 12.1425 11.5664 20.0014C11.5664 23.7759 12.9936 27.1118 15.3186 29.5594L14.4936 33.258C14.2216 34.4751 15.0657 35.2938 16.1596 34.6846L19.7713 32.6699C21.4878 33.4151 23.3863 33.827 25.3926 33.827C33.0516 33.827 39.2176 27.864 39.2176 20.0014C39.2176 12.1425 33.0516 6.17578 25.3926 6.17578Z" fill="#2872C1"/>
</svg>
