<svg width="43" height="48" viewBox="0 0 43 48" fill="none" xmlns="http://www.w3.org/2000/svg">
<path d="M31.9928 37.072V46.8913C31.9928 47.2633 31.6952 47.6352 31.2489 47.6352H24.7771C24.3308 47.6352 24.0332 47.2633 24.0332 46.8913V37.072C24.0332 36.7001 24.3308 36.3281 24.7771 36.3281H31.2489C31.6952 36.3281 31.9928 36.6257 31.9928 37.072Z" fill="#2872C1"/>
<path d="M20.985 40.3454V46.8173C20.985 47.1892 20.6874 47.5611 20.2411 47.5611H13.7693C13.3229 47.5611 13.0254 47.1892 13.0254 46.8173V40.3454C13.0254 39.8991 13.3229 39.6016 13.7693 39.6016H20.2411C20.613 39.6016 20.985 39.9735 20.985 40.3454Z" fill="#2872C1"/>
<path d="M9.90295 43.6189V46.8176C9.90295 47.1895 9.60539 47.5615 9.15906 47.5615H2.68725C2.24091 47.5615 1.94336 47.1895 1.94336 46.8176V43.6189C1.94336 43.1726 2.24091 42.875 2.68725 42.875H9.15906C9.60539 42.875 9.90295 43.1726 9.90295 43.6189Z" fill="#2872C1"/>
<path d="M43.0006 32.1619V46.8164C43.0006 47.1884 42.703 47.5603 42.2567 47.5603H35.7849C35.3386 47.5603 35.041 47.1884 35.041 46.8164V32.1619C35.041 31.7155 35.3386 31.418 35.7849 31.418H42.2567C42.703 31.418 43.0006 31.7155 43.0006 32.1619Z" fill="#2872C1"/>
<path d="M42.778 22.6441L39.3561 28.5952C39.2073 28.8183 38.9098 28.9671 38.6866 28.9671C38.389 28.9671 38.1659 28.7439 38.0171 28.5208L37.5708 27.4049L2.90566 41.3156C2.83127 41.3156 2.75688 41.39 2.6081 41.39C2.53372 41.39 2.38494 41.39 2.31055 41.3156C2.16177 41.2412 2.01299 41.0925 1.93861 40.9437L0.227667 36.7035C0.0788892 36.3316 0.227666 35.8853 0.673998 35.7365L35.3391 21.7514L34.8928 20.6356C34.8184 20.4124 34.8184 20.0405 35.0416 19.8917C35.1903 19.6685 35.5623 19.5941 35.7854 19.6685L42.406 21.5282C42.6292 21.6026 42.778 21.7514 42.9268 21.9746C42.9268 22.1977 42.9268 22.4209 42.778 22.6441Z" fill="#2872C1"/>
<path d="M21.8785 3.89635C21.7297 4.71463 21.209 5.45851 20.4651 5.90485C19.9444 6.2024 19.3493 6.42557 18.7542 6.42557C18.531 6.42557 18.3079 6.42557 18.0103 6.35118C17.192 6.12801 16.4481 5.68168 16.0018 4.93779C15.5555 4.19391 15.4067 3.37563 15.6299 2.48297C15.7787 1.66469 16.2994 0.920805 17.0433 0.474473C17.7871 0.0281407 18.6054 -0.120637 19.4981 0.102529C20.3164 0.251307 21.0602 0.772027 21.5066 1.51591C21.8785 2.18541 22.0273 3.07808 21.8785 3.89635Z" fill="#2872C1"/>
<path d="M28.1247 13.2702V13.1958C27.9759 12.2288 27.0088 11.4849 25.9674 11.6337H24.4052C23.9589 11.6337 23.3638 11.4105 23.0662 11.0386L21.4297 9.25323C20.6858 8.50934 19.7931 7.91423 18.7517 7.69107L16.2225 7.09596C15.4042 6.94718 14.5859 6.94718 13.7677 7.09596L10.9409 7.83984C10.197 8.06301 9.5275 8.50934 9.15556 9.25323L7.51901 12.1544C7.44462 12.1544 7.29584 12.1544 7.22145 12.1544C6.9239 12.2288 6.62634 12.4519 6.47757 12.7495L5.80807 13.8653L5.28735 13.5678C4.24591 12.9727 2.90691 13.2702 2.3118 14.3117L1.71669 15.0555L0.303308 17.436C-0.291801 18.4774 0.00575353 19.8164 1.04719 20.4115L6.55195 23.6846C6.9239 23.9078 7.29584 23.9822 7.66778 23.9822C8.41167 23.9822 9.15556 23.6102 9.5275 22.9407L11.4616 19.742C12.0567 18.7006 11.7592 17.3616 10.7177 16.7665L10.2714 16.5433L10.9409 15.5019C11.1641 15.0555 11.1641 14.5348 10.9409 14.1629C11.0153 14.0885 11.0897 13.9397 11.0897 13.8653L11.9079 12.2288C12.0567 11.8568 12.4287 11.5593 12.8006 11.4849L13.4701 11.3361L12.2799 17.2128C12.2055 17.5104 12.2799 17.8823 12.3543 18.1799L12.8006 22.8664L9.60189 27.6272C9.30434 28.0736 9.22995 28.5943 9.30434 29.115C9.37872 29.6357 9.75067 30.0821 10.197 30.3796C10.4202 30.5284 10.7177 30.6028 11.0153 30.6772H11.2384C11.9079 30.6772 12.503 30.3796 12.875 29.7845L16.3713 24.5029C16.6688 24.0566 16.7432 23.6102 16.7432 23.0895L16.52 20.7835L18.0822 21.3786L17.4127 25.2468C17.1151 26.2138 17.6359 27.1809 18.6029 27.5528C18.8261 27.6272 19.0492 27.7016 19.2724 27.7016C19.9419 27.7016 20.6114 27.3297 20.909 26.7346C20.9834 26.6602 20.9834 26.5858 20.9834 26.5114L21.9504 21.081C22.1736 19.9652 21.6529 18.8494 20.6858 18.2543L18.8261 17.2128L19.6444 13.3446L20.537 14.1629C21.7272 15.2043 23.215 15.725 24.7772 15.6507L26.4881 15.5763C27.0088 15.5019 27.4552 15.2787 27.7527 14.8324C28.1247 14.3117 28.1991 13.7909 28.1247 13.2702ZM7.51901 13.7909C7.74217 14.1629 8.03973 14.5348 8.48606 14.758C8.78362 14.9068 9.15556 14.9812 9.45311 14.9068L9.00678 15.7994L7.07268 14.6092L7.51901 13.7909ZM10.197 19.0725L10.1226 19.2213L3.42763 15.2043L3.50202 15.0555C3.72519 14.6836 4.09713 14.6092 4.46907 14.8324L9.97383 18.1055C10.2714 18.2543 10.3458 18.7006 10.197 19.0725Z" fill="#2872C1"/>
</svg>
