<svg width="29" height="21" viewBox="0 0 29 21" fill="none" xmlns="http://www.w3.org/2000/svg">
<path d="M26.1449 20.3784H2.85515C2.09813 20.3775 1.37238 20.0721 0.837114 19.5292C0.30185 18.9864 0.000794307 18.2503 0 17.4826V2.89578C0.000794307 2.12807 0.30185 1.39202 0.837114 0.849143C1.37238 0.306261 2.09813 0.000878891 2.85515 0H26.1449C26.9019 0.000878891 27.6276 0.306261 28.1629 0.849143C28.6982 1.39202 28.9992 2.12807 29 2.89578V17.4826C28.9992 18.2503 28.6982 18.9864 28.1629 19.5292C27.6276 20.0721 26.9019 20.3775 26.1449 20.3784ZM2.85515 1.10674C2.38746 1.10725 1.93907 1.29591 1.60839 1.63132C1.27771 1.96673 1.09175 2.42148 1.09131 2.89578V17.4826C1.09175 17.9569 1.27771 18.4116 1.60839 18.7471C1.93907 19.0825 2.38746 19.2711 2.85515 19.2716H26.1449C26.6125 19.2711 27.0609 19.0825 27.3916 18.7471C27.7223 18.4116 27.9083 17.9569 27.9087 17.4826V2.89578C27.9083 2.42148 27.7223 1.96673 27.3916 1.63132C27.0609 1.29591 26.6125 1.10725 26.1449 1.10674H2.85515Z" fill="white"/>
<path d="M14.8924 13.3257C14.7613 13.3258 14.6346 13.2773 14.5362 13.1895L1.56836 1.60216L2.28051 0.785156L14.8924 12.0555L27.5049 0.786518L28.217 1.60353L15.2492 13.1909C15.1505 13.2785 15.0236 13.3264 14.8924 13.3257Z" fill="white"/>
<path d="M0.921875 18.5742L9.68337 8.59142L10.4973 9.30576L1.73578 19.2886L0.921875 18.5742Z" fill="white"/>
<path d="M18.7676 9.29297L19.5815 8.57863L28.3432 18.5616L27.5293 19.276L18.7676 9.29297Z" fill="white"/>
</svg>
