<svg width="38" height="44" viewBox="0 0 38 44" fill="none" xmlns="http://www.w3.org/2000/svg">
<path d="M23.8614 22.9767C30.1966 22.9767 35.3498 17.8233 35.3498 11.4884C35.3498 5.15348 30.1966 0 23.8614 0C17.5265 0 12.373 5.15348 12.373 11.4884C12.373 17.8233 17.5265 22.9767 23.8614 22.9767ZM23.8614 12.7649C21.7499 12.7649 20.032 11.0469 20.032 8.9354C20.032 7.27331 21.1023 5.86984 22.5849 5.34096V3.82946C22.5849 3.12407 23.156 2.55297 23.8614 2.55297C24.5671 2.55297 25.1379 3.12407 25.1379 3.82946V5.34096C26.6205 5.86984 27.6909 7.27331 27.6909 8.9354C27.6909 9.64079 27.1201 10.2119 26.4144 10.2119C25.709 10.2119 25.1379 9.64079 25.1379 8.9354C25.1379 8.23101 24.5658 7.65891 23.8614 7.65891C23.1574 7.65891 22.5849 8.23101 22.5849 8.9354C22.5849 9.63979 23.1574 10.2119 23.8614 10.2119C25.9733 10.2119 27.6909 11.9298 27.6909 14.0413C27.6909 15.7034 26.6205 17.1069 25.1379 17.6358V19.1473C25.1379 19.8527 24.5671 20.4238 23.8614 20.4238C23.156 20.4238 22.5849 19.8527 22.5849 19.1473V17.6358C21.1023 17.1069 20.032 15.7034 20.032 14.0413C20.032 13.336 20.6031 12.7649 21.3084 12.7649C22.0142 12.7649 22.5849 13.336 22.5849 14.0413C22.5849 14.7457 23.1574 15.3178 23.8614 15.3178C24.5658 15.3178 25.1379 14.7457 25.1379 14.0413C25.1379 13.3369 24.5658 12.7649 23.8614 12.7649Z" fill="#2872C1"/>
<path d="M37.289 26.994C36.3115 25.9734 34.7077 25.9993 33.7556 27.0465L30.0717 31.1831C27.6685 33.8812 26.8707 35.4503 24.659 35.4503H16.1638C15.462 35.4503 14.9109 34.8742 14.9109 34.1413C14.9109 33.408 15.462 32.8323 16.1638 32.8323H22.5537C23.9379 32.8323 25.0597 31.66 25.0597 30.2143C25.0597 28.7683 23.9379 27.5963 22.5537 27.5963H19.1707C19.0056 27.5234 18.8591 27.4589 18.6936 27.386C15.3859 23.9836 10.1489 23.879 6.741 27.0202L3.25776 30.2143H1.25299C0.551118 30.2143 0 30.7901 0 31.5233V41.9952C0 42.7183 0.560907 43.3042 1.25299 43.3042H23.8067C26.5675 43.3042 29.1668 41.9465 30.8234 39.6391L37.5142 30.319C38.2412 29.3243 38.141 27.8844 37.289 26.994Z" fill="#2872C1"/>
</svg>
