<svg width="32" height="42" viewBox="0 0 32 42" fill="none" xmlns="http://www.w3.org/2000/svg">
<path d="M15.9847 0C11.0739 0 7.08008 3.99557 7.08008 8.90714C7.08008 13.8204 11.0748 17.8168 15.9847 17.8168C20.8945 17.8168 24.8901 13.8204 24.8901 8.90714C24.8901 3.99557 20.8945 0 15.9847 0Z" fill="#2872C1"/>
<path d="M22.8677 20.3308C23.1847 21.7022 23.6854 24.1956 23.5188 25.6414C24.8287 26.8027 28.2655 30.2257 27.5178 33.6035C27.5127 33.6437 27.1589 35.5859 24.7493 36.4105C24.6579 36.4421 24.5639 36.4575 24.4724 36.4575C24.117 36.4575 23.7863 36.2336 23.6649 35.8781C23.5111 35.4312 23.7504 34.945 24.1973 34.7929C25.6311 34.3025 25.8396 33.2856 25.843 33.2762C26.354 30.9597 23.7905 28.1476 22.3653 26.8975C20.6597 27.7255 17.4349 29.7566 17.3101 32.0825C17.305 32.1543 17.252 33.184 18.4851 34.0231C18.8756 34.2888 18.9772 34.8211 18.7106 35.2116C18.5457 35.4535 18.2766 35.5859 18.0048 35.5859C17.8382 35.5859 17.6707 35.5372 17.5238 35.4372C15.4157 34.0034 15.5978 32.0313 15.6054 31.9475C15.7994 28.3373 20.5179 25.8773 21.8346 25.2586C21.9132 23.9769 21.3809 21.3297 20.9887 19.8343C20.9767 19.7873 20.9853 19.7421 20.9801 19.6951C19.7369 19.3567 18.4338 19.1602 17.0828 19.1602H14.8894C13.3769 19.1602 11.9175 19.3909 10.5409 19.8121C10.5264 19.8728 10.523 19.936 10.4931 19.995C10.4743 20.0334 8.62431 23.8735 7.73992 29.7464C9.22587 30.1565 10.3264 31.5057 10.3264 33.119C10.3264 35.0553 8.75077 36.6301 6.81537 36.6301C4.87825 36.6301 3.30258 35.0544 3.30258 33.119C3.30258 31.4587 4.46553 30.0702 6.01813 29.7079C6.61883 25.5705 7.66643 22.42 8.33635 20.7008C3.40768 23.1309 0 28.1955 0 34.0538V40.1608C0 40.6333 0.381954 41.0153 0.854484 41.0153H31.122C31.5946 41.0153 31.9765 40.6214 31.9765 40.1489V34.0538C31.9748 27.893 28.2151 22.5935 22.8677 20.3308Z" fill="#2872C1"/>
</svg>
