<svg width="26" height="26" viewBox="0 0 26 26" fill="none" xmlns="http://www.w3.org/2000/svg">
<path d="M5.24889 17.283C7.81333 20.3485 10.9004 22.7621 14.4238 24.47C15.7653 25.1057 17.5593 25.8599 19.558 25.9892C19.682 25.9946 19.8005 26 19.9244 26C21.2659 26 22.3434 25.5367 23.2215 24.5831C23.2269 24.5777 23.2377 24.5669 23.2431 24.5562C23.5556 24.179 23.9111 23.8396 24.2829 23.4787C24.5361 23.2362 24.7947 22.983 25.0425 22.7244C26.19 21.5284 26.19 20.0091 25.0317 18.8508L21.7938 15.6129C21.2443 15.0419 20.5871 14.7402 19.8975 14.7402C19.2079 14.7402 18.5452 15.0419 17.9795 15.6075L16.0508 17.5363C15.873 17.4339 15.6898 17.3423 15.5174 17.2561C15.3019 17.1484 15.1026 17.046 14.9248 16.9329C13.1685 15.8177 11.5738 14.363 10.0491 12.4936C9.27872 11.5184 8.76153 10.6995 8.40056 9.86448C8.90699 9.40655 9.38109 8.92706 9.83902 8.45835C10.0006 8.29134 10.1677 8.12433 10.3347 7.95731C10.9165 7.37547 11.229 6.70203 11.229 6.01782C11.229 5.33361 10.9219 4.66017 10.3347 4.07833L8.7292 2.47286C8.54064 2.28429 8.36285 2.10112 8.17968 1.91256C7.8241 1.54621 7.45237 1.16908 7.08602 0.829673C6.53111 0.285537 5.87922 0 5.18962 0C4.50541 0 3.84814 0.285537 3.27168 0.83506L1.25676 2.84998C0.524062 3.58268 0.109225 4.47161 0.0230256 5.50062C-0.0793366 6.78823 0.157713 8.15665 0.771886 9.81061C1.7147 12.3697 3.13699 14.7455 5.24889 17.283ZM1.33757 5.61376C1.40222 4.89722 1.67698 4.29921 2.19418 3.78201L4.19833 1.77787C4.5108 1.47617 4.8556 1.31993 5.18962 1.31993C5.51826 1.31993 5.85228 1.47617 6.15937 1.78864C6.52033 2.12267 6.85974 2.47286 7.22609 2.84459C7.40927 3.03315 7.59783 3.22172 7.78639 3.41567L9.39186 5.02114C9.72588 5.35516 9.89828 5.69457 9.89828 6.02859C9.89828 6.36262 9.72588 6.70203 9.39186 7.03605C9.22485 7.20307 9.05784 7.37547 8.89082 7.54248C8.38979 8.0489 7.92108 8.52839 7.40388 8.98632C7.3931 8.9971 7.38772 9.00249 7.37694 9.01326C6.92978 9.46042 6.99982 9.88603 7.10757 10.2093C7.11296 10.2254 7.11834 10.2362 7.12373 10.2524C7.53857 11.2491 8.11503 12.1973 9.01474 13.3286C10.631 15.322 12.3334 16.8682 14.2083 18.0588C14.4399 18.2097 14.6878 18.3282 14.9194 18.4467C15.1349 18.5545 15.3343 18.6569 15.512 18.77C15.5336 18.7808 15.5498 18.7915 15.5713 18.8023C15.7491 18.8939 15.9215 18.937 16.0939 18.937C16.5249 18.937 16.805 18.6622 16.8966 18.5707L18.9115 16.5557C19.224 16.2433 19.5634 16.0763 19.8975 16.0763C20.3069 16.0763 20.6409 16.3295 20.851 16.5557L24.0997 19.799C24.7462 20.4455 24.7408 21.1459 24.0835 21.8301C23.8573 22.0725 23.6202 22.3042 23.367 22.5466C22.9899 22.913 22.5966 23.2901 22.241 23.7157C21.6215 24.3838 20.8834 24.6962 19.9298 24.6962C19.8382 24.6962 19.7412 24.6908 19.6496 24.6855C17.8825 24.5723 16.2394 23.8827 15.0056 23.2955C11.6546 21.6738 8.71304 19.3734 6.27251 16.4534C4.26298 14.0344 2.91072 11.7824 2.01639 9.36883C1.46148 7.88728 1.25137 6.69664 1.33757 5.61376Z" fill="white"/>
</svg>
