<svg width="29" height="30" viewBox="0 0 29 30" fill="none" xmlns="http://www.w3.org/2000/svg">
<path d="M5.87672 20.2409C8.7479 23.6731 12.2042 26.3754 16.149 28.2875C17.651 28.9993 19.6596 29.8437 21.8974 29.9885C22.0362 29.9945 22.1689 30.0006 22.3076 30.0006C23.8095 30.0006 25.0159 29.4818 25.9991 28.4142C26.0052 28.4081 26.0172 28.3961 26.0233 28.384C26.3731 27.9618 26.7712 27.5818 27.1874 27.1776C27.4709 26.9062 27.7604 26.6227 28.0379 26.3332C29.3227 24.9941 29.3227 23.2931 28.0258 21.9962L24.4007 18.3711C23.7854 17.7317 23.0495 17.3939 22.2774 17.3939C21.5054 17.3939 20.7634 17.7317 20.1301 18.365L17.9707 20.5244C17.7716 20.4098 17.5665 20.3073 17.3735 20.2108C17.1322 20.0902 16.9091 19.9755 16.71 19.8489C14.7436 18.6003 12.9582 16.9717 11.2511 14.8786C10.3886 13.7868 9.80952 12.87 9.40538 11.935C9.97238 11.4223 10.5032 10.8855 11.0159 10.3607C11.1969 10.1737 11.3838 9.98672 11.5708 9.79974C12.2223 9.14829 12.5721 8.3943 12.5721 7.62825C12.5721 6.8622 12.2283 6.10822 11.5708 5.45677L9.77332 3.65927C9.56221 3.44815 9.36316 3.24306 9.15807 3.03195C8.75997 2.62178 8.34376 2.19955 7.9336 1.81954C7.31231 1.21032 6.58245 0.890625 5.81037 0.890625C5.04432 0.890625 4.30843 1.21032 3.66301 1.82557L1.40708 4.0815C0.586746 4.90184 0.12229 5.8971 0.0257798 7.04919C-0.0888262 8.49081 0.176577 10.0229 0.864213 11.8747C1.9198 14.7399 3.51222 17.3999 5.87672 20.2409ZM1.49756 7.17586C1.56995 6.37362 1.87757 5.70408 2.45663 5.12502L4.7005 2.88115C5.05035 2.54336 5.43639 2.36844 5.81037 2.36844C6.17831 2.36844 6.55229 2.54336 6.89611 2.89321C7.30025 3.26719 7.68026 3.65927 8.09043 4.07547C8.29551 4.28658 8.50663 4.4977 8.71774 4.71485L10.5152 6.51235C10.8892 6.88633 11.0822 7.26634 11.0822 7.64032C11.0822 8.0143 10.8892 8.3943 10.5152 8.76828C10.3283 8.95527 10.1413 9.14829 9.95428 9.33528C9.39331 9.90228 8.86854 10.4391 8.28948 10.9518C8.27741 10.9639 8.27138 10.9699 8.25932 10.982C7.75867 11.4826 7.83709 11.9592 7.95772 12.3211C7.96376 12.3392 7.96979 12.3512 7.97582 12.3693C8.44028 13.4852 9.08569 14.5468 10.093 15.8135C11.9026 18.0453 13.8087 19.7765 15.9078 21.1095C16.1671 21.2784 16.4446 21.4111 16.704 21.5438C16.9452 21.6645 17.1684 21.7791 17.3675 21.9058C17.3916 21.9178 17.4097 21.9299 17.4338 21.9419C17.6329 22.0445 17.8259 22.0927 18.0189 22.0927C18.5015 22.0927 18.8151 21.7851 18.9177 21.6826L21.1736 19.4266C21.5235 19.0768 21.9035 18.8898 22.2774 18.8898C22.7359 18.8898 23.1098 19.1733 23.3451 19.4266L26.9823 23.0578C27.7062 23.7817 27.7001 24.5658 26.9642 25.3319C26.7109 25.6033 26.4455 25.8627 26.162 26.1341C25.7398 26.5443 25.2994 26.9665 24.9013 27.443C24.2077 28.191 23.3813 28.5408 22.3136 28.5408C22.2111 28.5408 22.1025 28.5348 22 28.5288C20.0215 28.4021 18.1818 27.63 16.8005 26.9725C13.0486 25.1569 9.75523 22.5813 7.02278 19.312C4.77288 16.6037 3.25888 14.0824 2.25758 11.3801C1.6363 9.72132 1.40105 8.38827 1.49756 7.17586Z" fill="#2872C1"/>
</svg>
