<svg width="47" height="44" viewBox="0 0 47 44" fill="none" xmlns="http://www.w3.org/2000/svg">
<path fill-rule="evenodd" clip-rule="evenodd" d="M21.0159 18.5824C23.5382 17.8754 23.6264 17.9826 25.9755 18.7285C26.0085 18.739 26.0419 18.7323 26.068 18.71C26.0942 18.6876 26.1057 18.6559 26.0999 18.6223L24.6232 10.0909C24.6167 10.0536 24.6319 10.0181 24.6636 9.99673C26.4626 8.77879 28.3321 6.7276 29.0452 4.62563C29.0586 4.58629 29.0943 4.5608 29.1364 4.5608H38.9327C38.9682 4.5608 38.9986 4.57822 39.0162 4.60853C39.0339 4.63885 39.0336 4.67357 39.0158 4.70368L33.846 13.4242C33.8446 13.4266 33.8432 13.4286 33.8416 13.4309C33.7591 13.5466 33.7106 13.6878 33.7106 13.84C33.7106 17.4608 36.6858 20.3963 40.3553 20.3963C44.0249 20.3963 47 17.4609 47 13.84C47 13.6878 46.9515 13.5466 46.869 13.4309C46.8674 13.4286 46.866 13.4266 46.8647 13.4242L40.981 3.49949C40.8511 3.27635 40.6157 3.13924 40.3553 3.13945V3.13683H29.4338C29.4071 3.13683 29.384 3.12739 29.3653 3.10851C29.3466 3.08963 29.3372 3.06686 29.3377 3.04053C29.3379 3.02217 29.3381 3.00371 29.3381 2.98535L29.341 2.98525C29.341 0.813939 27.053 -0.62115 25.0679 0.266969C24.6733 0.443522 24.3249 0.700013 24.0442 1.01494C23.7584 1.33804 23.2479 1.34339 22.959 1.01808C21.8131 -0.272763 19.7862 -0.345672 18.5474 0.876462C17.9715 1.44473 17.656 2.19364 17.663 3.04095C17.6632 3.06718 17.6538 3.08994 17.6351 3.10861C17.6164 3.12729 17.5934 3.13673 17.5669 3.13673H6.6448V3.13935C6.39824 3.13956 6.15838 3.26492 6.02463 3.48994L0.135239 13.4243C0.133857 13.4267 0.132581 13.4287 0.13088 13.4309C0.0484821 13.5466 0 13.6877 0 13.8399C0 17.4607 2.97516 20.3961 6.64469 20.3961C10.3143 20.3961 13.2894 17.4607 13.2894 13.8399C13.2894 13.6878 13.241 13.5468 13.1587 13.4312C13.1571 13.4289 13.1558 13.427 13.1544 13.4246L7.98433 4.70368C7.96646 4.67357 7.96636 4.63885 7.9839 4.60853C8.00155 4.57822 8.03185 4.5608 8.06736 4.5608H17.8637C17.9058 4.5608 17.9415 4.58619 17.9549 4.62563C18.6645 6.71784 20.5203 8.75938 22.3092 9.97816C22.3406 9.99966 22.3557 10.035 22.3493 10.0723L20.8948 18.4752C20.889 18.5082 20.9 18.5394 20.9254 18.5618C20.9507 18.5842 20.9832 18.5915 21.0159 18.5824ZM25.3722 23.5628V27.7212C25.3722 28.1265 25.7052 28.455 26.1161 28.455H30.3306C30.3996 28.455 30.4588 28.5134 30.4588 28.5816V32.023C30.4588 32.0912 30.3996 32.1496 30.3306 32.1496H26.1161C25.7053 32.1496 25.3722 32.4781 25.3722 32.8835V37.042C25.3722 37.1101 25.313 37.1685 25.244 37.1685H21.7561C21.6871 37.1685 21.6279 37.1101 21.6279 37.042V32.8835C21.6279 32.4782 21.2949 32.1496 20.8842 32.1496H16.6695C16.6005 32.1496 16.5413 32.0911 16.5413 32.023V28.5817C16.5413 28.5135 16.6005 28.4551 16.6695 28.4551H20.8842C21.2949 28.4551 21.6279 28.1266 21.6279 27.7213V23.5629C21.6279 23.4948 21.687 23.4364 21.7561 23.4364H25.244C25.3131 23.4362 25.3722 23.4946 25.3722 23.5628ZM11.9452 22.2945C11.9452 22.25 11.9754 22.2124 12.0194 22.2022C29.3344 18.0281 17.9556 18.75 34.9774 22.2308C35.0229 22.2397 35.0549 22.2781 35.0549 22.3238V33.3784C35.0549 35.6182 33.9287 37.4474 32.0073 38.6579L23.5518 43.9847C23.5195 44.0051 23.4806 44.0051 23.4483 43.9847L14.9928 38.6579C13.0714 37.4474 11.9452 35.6183 11.9452 33.3785V22.2945ZM6.72783 5.39364L11.2283 12.985C11.2461 13.0152 11.2463 13.0499 11.2287 13.0802C11.211 13.1105 11.1807 13.1279 11.1452 13.1279H2.14437C2.10897 13.1279 2.07856 13.1105 2.06091 13.0802C2.04326 13.0499 2.04347 13.0152 2.06134 12.985L6.56176 5.39364C6.57952 5.36374 6.60961 5.34664 6.6448 5.34664C6.67988 5.34664 6.71008 5.36374 6.72783 5.39364ZM44.8557 13.1278H35.8549C35.8195 13.1278 35.7891 13.1104 35.7714 13.0801C35.7538 13.0498 35.754 13.0151 35.7718 12.9849L40.2723 5.39364C40.29 5.36374 40.3202 5.34664 40.3553 5.34664C40.3904 5.34664 40.4206 5.36374 40.4383 5.39364L44.9388 12.985C44.9566 13.0152 44.9567 13.0499 44.9392 13.0802C44.9215 13.1104 44.8911 13.1278 44.8557 13.1278Z" fill="#2872C1"/>
</svg>
