<svg width="32" height="32" viewBox="0 0 32 32" fill="none" xmlns="http://www.w3.org/2000/svg">
<path d="M12.3157 14.8851C11.6757 14.2451 10.7157 14.2451 10.0757 14.8851C9.4357 15.5251 9.4357 16.4851 10.0757 17.1251L14.8757 21.9251C15.1957 22.2451 15.5157 22.4051 15.9957 22.4051C16.4757 22.4051 16.7957 22.2451 17.1157 21.9251L28.3157 9.12512C28.7957 8.32512 28.7957 7.36512 27.9957 6.88512C27.3557 6.40512 26.3957 6.40512 25.9157 7.04512L15.9957 18.4051L12.3157 14.8851Z" fill="white"/>
<path d="M30.4 14.4C29.44 14.4 28.8 15.04 28.8 16C28.8 23.04 23.04 28.8 16 28.8C8.96 28.8 3.2 23.04 3.2 16C3.2 12.64 4.48 9.44 6.88 7.04C9.28 4.48 12.48 3.2 16 3.2C16.96 3.2 18.08 3.36 19.04 3.52C19.84 3.84 20.8 3.36 21.12 2.4C21.44 1.44 20.8 0.8 20 0.48H19.84C18.56 0.16 17.28 0 16 0C7.2 0 0 7.2 0 16.16C0 20.32 1.76 24.48 4.64 27.36C7.68 30.4 11.68 32 15.84 32C24.64 32 31.84 24.8 31.84 16C32 15.04 31.2 14.4 30.4 14.4Z" fill="white"/>
</svg>
