<svg width="42" height="42" viewBox="0 0 42 42" fill="none" xmlns="http://www.w3.org/2000/svg">
<path d="M19.9202 41.1177C15.0469 40.8281 10.3169 38.8005 6.87688 35.3246C5.87354 34.3108 5.01354 33.297 4.29688 31.9936L6.30354 30.835C7.88021 33.1522 9.88688 35.035 12.1802 36.3384C14.6169 37.6419 17.1969 38.5108 19.9202 38.6557V41.1177Z" fill="#44AE20" stroke="#44AE20" stroke-width="0.1348" stroke-miterlimit="10"/>
<path d="M22.2129 41.1177V38.6557C24.9362 38.5108 27.5162 37.6419 29.9529 36.3384C32.2462 35.035 34.3962 33.1522 35.8296 30.835L37.8362 31.9936C35.6862 35.3246 32.5329 37.9315 28.8062 39.5246C26.7996 40.3936 24.5062 40.9729 22.2129 41.1177Z" fill="#44AE20" stroke="#44AE20" stroke-width="0.1348" stroke-miterlimit="10"/>
<path d="M39.1261 30.1103L37.1195 28.9517C38.2661 26.6344 38.8395 24.0275 38.8395 21.5655C38.8395 18.6689 38.1228 15.9172 36.6895 13.3103L38.9828 12.0068C39.2695 12.4413 39.4128 12.8758 39.5561 13.3103C40.5595 15.7724 41.1328 18.3792 41.1328 21.131C41.1328 23.8827 40.5595 26.4896 39.5561 28.9517C39.4128 29.2413 39.2695 29.6758 39.1261 30.1103Z" fill="#44AE20" stroke="#44AE20" stroke-width="0.1348" stroke-miterlimit="10"/>
<path d="M3.00667 29.9655C2.86333 29.6758 2.72 29.2413 2.57667 28.9517C1.57333 26.3448 1 23.7379 1 20.9861C1 18.2344 1.57333 15.6275 2.57667 13.1655C2.72 12.731 2.86333 12.2965 3.15 12.0068L5.44333 13.3103C4.15333 15.7724 3.43667 18.5241 3.43667 21.4206C3.43667 24.0275 4.01 26.4896 5.15667 28.8068L3.00667 29.9655Z" fill="#44AE20" stroke="#44AE20" stroke-width="0.1348" stroke-miterlimit="10"/>
<path d="M6.73354 11.4276L4.29688 9.97931C6.44688 6.64828 9.60021 4.04138 13.3269 2.5931C15.4769 1.72414 17.6269 1.14483 19.9202 1V4.18621C17.3402 4.33103 14.7602 5.05517 12.4669 6.35862C10.1735 7.51724 8.16688 9.25517 6.73354 11.4276Z" fill="#CBCBCB" stroke="#CBCBCB" stroke-width="0.1348" stroke-miterlimit="10"/>
<path d="M35.3988 11.2828C33.8221 9.25517 31.8155 7.51724 29.6655 6.21379C27.3721 5.05517 24.9355 4.33103 22.3555 4.04138V1C27.2288 1.28966 31.9588 3.31724 35.3988 6.7931C36.2588 7.66207 37.1188 8.67586 37.8355 9.83448L35.3988 11.2828Z" fill="#44AE20" stroke="#44AE20" stroke-width="0.1348" stroke-miterlimit="10"/>
</svg>
