<svg width="42" height="41" viewBox="0 0 42 41" fill="none" xmlns="http://www.w3.org/2000/svg">
<path d="M19.3597 40.1172C14.373 39.8276 9.53305 37.8 6.01305 34.3241C4.98638 33.3103 4.10638 32.2965 3.37305 30.9931L5.42638 29.8345C7.03971 32.1517 9.09305 34.0345 11.4397 35.3379C13.933 36.6414 16.573 37.5103 19.3597 37.6552V40.1172Z" fill="#CBCBCB"/>
<path d="M21.707 40.1172V37.6552C24.4937 37.5103 27.1337 36.6414 29.627 35.3379C31.9737 34.0345 34.1737 32.1517 35.6404 29.8345L37.6937 30.9931C35.4937 34.3241 32.267 36.931 28.4537 38.5241C26.4004 39.3931 24.0537 39.9724 21.707 40.1172Z" fill="#CBCBCB"/>
<path d="M39.0129 29.1103L36.9595 27.9517C38.1329 25.6344 38.7195 23.0275 38.7195 20.5655C38.7195 17.6689 37.9862 14.9172 36.5195 12.3103L38.8662 11.0068C39.1595 11.4413 39.3062 11.8758 39.4529 12.3103C40.4795 14.7724 41.0662 17.3792 41.0662 20.131C41.0662 22.8827 40.4795 25.4896 39.4529 27.9517C39.3062 28.2413 39.1595 28.6758 39.0129 29.1103Z" fill="#FFA104"/>
<path d="M2.05333 28.9655C1.90667 28.6758 1.76 28.2413 1.61333 27.9517C0.586667 25.3448 0 22.7379 0 19.9861C0 17.2344 0.586667 14.6275 1.61333 12.1655C1.76 11.731 1.90667 11.2965 2.2 11.0068L4.54667 12.3103C3.22667 14.7724 2.49333 17.5241 2.49333 20.4206C2.49333 23.0275 3.08 25.4896 4.25333 27.8068L2.05333 28.9655Z" fill="#CBCBCB"/>
<path d="M5.86638 10.4276L3.37305 8.97931C5.57305 5.64827 8.79971 3.04138 12.613 1.5931C14.813 0.724138 17.013 0.144828 19.3597 0V3.18621C16.7197 3.33103 14.0797 4.05517 11.733 5.35862C9.38638 6.51724 7.33305 8.25517 5.86638 10.4276Z" fill="#CBCBCB"/>
<path d="M35.2002 10.2828C33.5869 8.25517 31.5335 6.51724 29.3335 5.21379C26.9869 4.05517 24.4935 3.33103 21.8535 3.04138V0C26.8402 0.289655 31.6802 2.31724 35.2002 5.7931C36.0802 6.66207 36.9602 7.67586 37.6935 8.83448L35.2002 10.2828Z" fill="#FFA104"/>
</svg>
