<svg width="40" height="41" viewBox="0 0 40 41" fill="none" xmlns="http://www.w3.org/2000/svg">
<circle opacity="0.1" cx="20" cy="20.709" r="20" fill="#E00000"/>
<path fill-rule="evenodd" clip-rule="evenodd" d="M24.1787 14.4409V13.0481C24.1787 12.0224 23.3473 11.1909 22.3216 11.1909H17.6787C16.653 11.1909 15.8215 12.0224 15.8215 13.0481V14.4409H11.4108C11.0262 14.4409 10.7144 14.7527 10.7144 15.1374C10.7144 15.522 11.0262 15.8338 11.4108 15.8338H12.6534L13.3973 28.4786C13.455 29.4603 14.2679 30.2267 15.2512 30.2267H24.749C25.7323 30.2267 26.5453 29.4603 26.603 28.4786L27.3468 15.8338H28.5895C28.9741 15.8338 29.2859 15.522 29.2859 15.1374C29.2859 14.7527 28.9741 14.4409 28.5895 14.4409H24.1787ZM22.3216 12.5838H17.6787C17.4223 12.5838 17.2144 12.7917 17.2144 13.0481V14.4409H22.7859V13.0481C22.7859 12.7917 22.5779 12.5838 22.3216 12.5838ZM18.1993 19.5481C17.9273 19.2761 17.4864 19.2761 17.2144 19.5481C16.9424 19.8201 16.9424 20.2611 17.2144 20.533L19.0152 22.3338L17.2144 24.1347C16.9424 24.4066 16.9424 24.8476 17.2144 25.1196C17.4864 25.3915 17.9273 25.3915 18.1993 25.1196L20.0001 23.3188L21.8009 25.1196C22.0729 25.3915 22.5139 25.3915 22.7859 25.1196C23.0578 24.8476 23.0578 24.4066 22.7859 24.1347L20.9851 22.3338L22.7859 20.533C23.0578 20.2611 23.0578 19.8201 22.7859 19.5481C22.5139 19.2761 22.0729 19.2761 21.8009 19.5481L20.0001 21.3489L18.1993 19.5481Z" fill="#E00000"/>
</svg>
