<svg width="46" height="47" viewBox="0 0 46 47" fill="none" xmlns="http://www.w3.org/2000/svg">
<rect x="0.09375" y="0.820312" width="45.5161" height="45.5161" rx="22.7581" fill="#F0F0F0"/>
<path fill-rule="evenodd" clip-rule="evenodd" d="M17.3575 19.5061V16.3768C17.3575 14.8829 17.951 13.4502 19.0073 12.3939C20.0636 11.3376 21.4963 10.7441 22.9902 10.7441C24.4841 10.7441 25.9168 11.3376 26.9731 12.3939C28.0294 13.4502 28.6229 14.8829 28.6229 16.3768V19.5061H31.7521C32.0839 19.5061 32.4021 19.6378 32.6368 19.8722C32.8715 20.1067 33.0035 20.4248 33.0039 20.7565V34.5265C33.0043 34.6911 32.9723 34.854 32.9096 35.0061C32.8469 35.1582 32.7547 35.2964 32.6383 35.4127C32.522 35.5291 32.3838 35.6212 32.2317 35.684C32.0797 35.7467 31.9167 35.7787 31.7521 35.7782H14.2283C13.8965 35.7782 13.5783 35.6465 13.3436 35.4121C13.1089 35.1776 12.9769 34.8595 12.9766 34.5278V20.7578C12.9761 20.5933 13.0081 20.4303 13.0708 20.2782C13.1336 20.1261 13.2257 19.9879 13.3421 19.8716C13.4584 19.7553 13.5966 19.6631 13.7487 19.6003C13.9008 19.5376 14.0638 19.5056 14.2283 19.5061H17.3575ZM19.2351 19.5061H26.7453V16.3768C26.7453 15.3809 26.3497 14.4258 25.6455 13.7215C24.9413 13.0173 23.9861 12.6217 22.9902 12.6217C21.9943 12.6217 21.0392 13.0173 20.3349 13.7215C19.6307 14.4258 19.2351 15.3809 19.2351 16.3768V19.5061ZM22.2392 28.1115V30.7714H23.7412V28.1115C24.1366 27.939 24.4604 27.6356 24.6584 27.2524C24.8563 26.8691 24.9163 26.4294 24.8282 26.0071C24.74 25.5849 24.5092 25.2059 24.1745 24.9338C23.8398 24.6617 23.4216 24.5132 22.9902 24.5132C22.5589 24.5132 22.1407 24.6617 21.8059 24.9338C21.4712 25.2059 21.2404 25.5849 21.1523 26.0071C21.0641 26.4294 21.1241 26.8691 21.322 27.2524C21.52 27.6356 21.8438 27.939 22.2392 28.1115Z" fill="#797979"/>
</svg>
